<svg width="75" height="75" viewBox="0 0 75 75" xmlns="http://www.w3.org/2000/svg" xmlns:xlink="http://www.w3.org/1999/xlink" id="Product_Icon" overflow="hidden"><defs><linearGradient x1="112.5" y1="37.5" x2="-37.5" y2="37.5" gradientUnits="userSpaceOnUse" id="OrangeGradient" gradientTransform="matrix(-0.707107 0.707107 -0.707107 -0.707107 90.53 37.5)"><stop offset="0" stop-color="#C8511B"/><stop offset="1" stop-color="#FF9900"/></linearGradient></defs><rect x="0" y="0" width="75" height="75" id="Orange_Gradient" fill="url(#OrangeGradient)"/><g id="Icon_Test"><path d="M53.75 45.5C49.4819 45.5037 45.8767 48.6684 45.32 52.9L33.75 48.64 33.75 44.05 45.75 38.98C47.3968 43.3761 52.2955 45.6049 56.6916 43.9581 61.0877 42.3113 63.3165 37.4126 61.6697 33.0165 60.6429 30.2754 58.2779 28.2555 55.41 27.67 54.1666 25.7605 52.2244 24.4142 50 23.92 49.48 20.15 46.89 18.43 44.59 18.43 43.5081 18.43 42.4555 18.7809 41.59 19.43 40.9815 18.1302 40.1564 16.9432 39.15 15.92 35.939 12.5474 30.9524 11.5621 26.7 13.46 22.7521 15.3256 20.1998 19.2644 20.11 23.63 20.11 23.81 20.11 23.98 20.11 24.15 16.7659 25.2125 14.5488 28.3844 14.7 31.89 14.6928 33.3175 15.0253 34.7263 15.67 36L17.45 35.1C16.975 34.1116 16.7354 33.0265 16.75 31.93 16.6073 29.0566 18.5819 26.5087 21.4 25.93 21.6205 25.8902 21.8212 25.7775 21.97 25.61 22.1573 25.396 22.2446 25.1123 22.21 24.83 22.1684 24.4548 22.1484 24.0775 22.15 23.7 22.2464 20.1391 24.3165 16.9278 27.52 15.37 31.0137 13.7835 35.129 14.5865 37.77 17.37 38.9256 18.5502 39.8006 19.9754 40.33 21.54 40.5142 22.0606 41.0857 22.3334 41.6063 22.1491 41.7907 22.0839 41.9519 21.966 42.07 21.81 42.6606 20.9856 43.6061 20.4888 44.62 20.47 46.19 20.47 47.86 21.77 48.1 24.67 48.039 25.1959 48.3986 25.6782 48.92 25.77 50.3622 25.9981 51.7107 26.629 52.81 27.59 48.5224 28.0716 45.2737 31.6856 45.25 36 45.2508 36.3342 45.2709 36.6681 45.31 37L33.75 41.88 33.75 38.5C33.75 37.9477 33.3023 37.5 32.75 37.5L13.75 37.5C13.1977 37.5 12.75 37.9477 12.75 38.5L12.75 55.5C12.75 56.0523 13.1977 56.5 13.75 56.5L32.75 56.5C33.3023 56.5 33.75 56.0523 33.75 55.5L33.75 50.78 45.31 55C45.8844 59.6591 50.127 62.9705 54.7861 62.3961 59.4453 61.8218 62.7567 57.5792 62.1823 52.92 61.6573 48.6615 58.0408 45.4619 53.75 45.46ZM53.75 29.5C57.3399 29.5 60.25 32.4101 60.25 36 60.25 39.5899 57.3399 42.5 53.75 42.5 50.1601 42.5 47.25 39.5899 47.25 36 47.2555 32.4124 50.1624 29.5055 53.75 29.5ZM31.75 54.5 14.75 54.5 14.75 39.5 31.75 39.5ZM53.75 60.5C50.1601 60.5 47.25 57.5899 47.25 54 47.25 50.4101 50.1601 47.5 53.75 47.5 57.3399 47.5 60.25 50.4101 60.25 54 60.2445 57.5876 57.3376 60.4945 53.75 60.5ZM18.75 52.57C18.5671 52.5718 18.3873 52.5233 18.23 52.43 17.9301 52.2475 17.748 51.921 17.75 51.57L17.75 42.42C17.7514 42.0725 17.9332 41.7507 18.23 41.57 18.5394 41.3914 18.9206 41.3914 19.23 41.57L28.09 46.15C28.4263 46.3195 28.6389 46.6634 28.64 47.04 28.6389 47.4166 28.4263 47.7606 28.09 47.93L19.23 52.5C19.0782 52.5624 18.9133 52.5864 18.75 52.57ZM19.75 44.06 19.75 49.93 25.44 47ZM51.75 40.5C51.1977 40.5 50.75 40.0523 50.75 39.5L50.75 32.5C50.7501 32.1469 50.9363 31.8201 51.24 31.64 51.5494 31.4614 51.9306 31.4614 52.24 31.64L58.74 35.14C59.0653 35.3132 59.269 35.6514 59.27 36.02 59.269 36.3886 59.0653 36.7268 58.74 36.9L52.24 40.4C52.0878 40.4743 51.9192 40.5087 51.75 40.5ZM52.75 34.17 52.75 37.82 56.14 36ZM51.75 58.5C51.1977 58.5 50.75 58.0523 50.75 57.5L50.75 50.5C50.7501 50.1469 50.9363 49.8201 51.24 49.64 51.5494 49.4614 51.9306 49.4614 52.24 49.64L58.74 53.14C59.0653 53.3132 59.269 53.6514 59.27 54.02 59.269 54.3886 59.0653 54.7268 58.74 54.9L52.24 58.4C52.0878 58.4743 51.9192 58.5087 51.75 58.5ZM52.75 52.17 52.75 55.82 56.14 54Z" fill="#FFFFFF"/></g></svg>