<svg width="75" height="75" viewBox="0 0 75 75" xmlns="http://www.w3.org/2000/svg" xmlns:xlink="http://www.w3.org/1999/xlink" id="Product_Icon" overflow="hidden"><defs><linearGradient x1="90.53" y1="90.53" x2="-15.53" y2="-15.53" gradientUnits="userSpaceOnUse" id="OrangeGradient" gradientTransform="matrix(0 1 -1 0 75 0)"><stop offset="0" stop-color="#C8511B"/><stop offset="1" stop-color="#FF9900"/></linearGradient></defs><rect x="0" y="0" width="75" height="75" id="Orange_Gradient" fill="url(#OrangeGradient)"/><g id="Icon_Test"><path d="M53.68 32.5 62.5 32.5 62.5 34.5 53.68 34.5C30.59 34.5 12.5 25.4 12.5 13.76 12.4967 13.3386 12.5235 12.9176 12.58 12.5L14.58 12.5C14.5119 12.9165 14.4785 13.338 14.48 13.76 14.48 24.09 32.07 32.5 53.68 32.5ZM12.5 27.85 12.5 30.76C16.87 34.53 24.96 36.49 32.89 37.49L32.89 37.49C24.96 38.49 16.89 40.49 12.51 44.3L12.51 47C15.24 43.48 22.34 40.89 32.51 39.55L32.7 39.55C38.5293 38.842 44.398 38.508 50.27 38.55L62.5 38.55 62.5 36.55 50.26 36.55C30.69 36.47 16.62 33.25 12.5 27.85ZM58.37 28.5C39.81 28.5 25.82 22.37 25.82 14.33 25.82 13.97 25.82 12.98 25.82 12.5L23.74 12.5C23.74 13.18 23.74 14.31 23.74 14.33 23.74 23.7 38.31 30.5 58.38 30.5L62.5 30.5 62.5 28.5ZM12.5 61.27C12.4964 61.6814 12.5232 62.0925 12.58 62.5L14.58 62.5C14.5198 62.0928 14.4897 61.6817 14.49 61.27 14.49 54.66 21.69 48.84 32.49 45.5L32.49 43.4C20.43 47 12.5 53.57 12.5 61.27ZM23.77 60.57C23.77 60.57 23.77 61.84 23.77 62.5L25.77 62.5C25.77 62.09 25.77 60.96 25.77 60.57 25.77 57.2 28.25 54.17 32.5 51.8L32.5 49.56C27 52.37 23.77 56.19 23.77 60.57ZM62.5 44.51 62.5 58.51C62.5 60.7191 60.7091 62.51 58.5 62.51L38.5 62.51C36.2909 62.51 34.5 60.7191 34.5 58.51L34.5 44.51C34.5 42.3009 36.2909 40.51 38.5 40.51L58.5 40.51C60.7091 40.51 62.5 42.3009 62.5 44.51ZM60.5 44.51C60.5 43.4054 59.6046 42.51 58.5 42.51L38.5 42.51C37.3954 42.51 36.5 43.4054 36.5 44.51L36.5 58.51C36.5 59.6146 37.3954 60.51 38.5 60.51L58.5 60.51C59.6046 60.51 60.5 59.6146 60.5 58.51ZM55.5 51.51C55.4992 51.9029 55.2684 52.2589 54.91 52.42L43.91 57.42C43.7776 57.4783 43.6347 57.509 43.49 57.51 43.2984 57.5095 43.111 57.454 42.95 57.35 42.6638 57.1664 42.4906 56.85 42.49 56.51L42.49 46.51C42.4906 46.17 42.6638 45.8536 42.95 45.67 43.2467 45.4692 43.6282 45.4425 43.95 45.6L54.95 50.6C55.2941 50.7638 55.5151 51.109 55.52 51.49ZM52.1 51.51 44.5 48.05 44.5 54.94Z" fill="#FFFFFF"/></g></svg>