<svg width="75" height="75" viewBox="0 0 75 75" xmlns="http://www.w3.org/2000/svg" xmlns:xlink="http://www.w3.org/1999/xlink" id="Product_Icon" overflow="hidden"><defs><linearGradient x1="37.5" y1="90.53" x2="37.5" y2="-15.53" gradientUnits="userSpaceOnUse" id="OrangeGradient" gradientTransform="matrix(0.707107 0.707107 -0.707107 0.707107 37.5 -15.53)"><stop offset="0" stop-color="#C8511B"/><stop offset="1" stop-color="#FF9900"/></linearGradient></defs><rect x="0" y="0" width="75" height="75" id="Orange_Gradient" fill="url(#OrangeGradient)"/><g id="Icon_Test"><path d="M23.12 23.86 27 26.1C27.4783 26.3762 28.0899 26.2123 28.366 25.734 28.4528 25.5837 28.499 25.4135 28.5 25.24L28.5 20.76 37.5 15.56 46.5 20.76 46.5 25.25C46.5021 25.6051 46.6925 25.9324 47 26.11 47.3094 26.2886 47.6906 26.2886 48 26.11L51.89 23.87 57 26.82 58 25.09 52.39 21.85C52.0806 21.6714 51.6994 21.6714 51.39 21.85L48.5 23.52 48.5 20.18C48.5014 19.8213 48.3106 19.4893 48 19.31L38 13.54C37.6906 13.3614 37.3094 13.3614 37 13.54L27 19.31C26.6894 19.4893 26.4986 19.8213 26.5 20.18L26.5 23.51 23.62 21.84C23.3106 21.6614 22.9294 21.6614 22.62 21.84L17 25.09 18 26.82ZM33.83 50.86 32.83 52.6 37 55C37.1514 55.0899 37.3239 55.1382 37.5 55.14 37.6761 55.1382 37.8486 55.0899 38 55L42.17 52.6 41.17 50.86 38.5 52.38 38.5 39.23 41.17 40.77 42.17 39.04 38 36.63C37.6906 36.4514 37.3094 36.4514 37 36.63L32.83 39 33.83 40.73 36.5 39.19 36.5 52.37ZM17 38.37 22.62 41.61C22.9294 41.7886 23.3106 41.7886 23.62 41.61L29.23 38.37C29.5406 38.1907 29.7314 37.8587 29.73 37.5L29.73 31.59 31.88 30.35 37 33.3C37.3094 33.4786 37.6906 33.4786 38 33.3L43.11 30.35 45.27 31.59 45.27 37.5C45.2686 37.8587 45.4594 38.1907 45.77 38.37L51.38 41.61C51.5324 41.6964 51.7048 41.7412 51.88 41.74 52.0552 41.7412 52.2276 41.6964 52.38 41.61L58 38.37C58.3106 38.1907 58.5014 37.8587 58.5 37.5L58.5 31C58.5014 30.6413 58.3106 30.3093 58 30.13L52.38 26.89C52.0706 26.7114 51.6894 26.7114 51.38 26.89L46.27 29.84 44.12 28.6 44.12 22.71C44.1214 22.3513 43.9306 22.0193 43.62 21.84L38 18.6C37.6906 18.4214 37.3094 18.4214 37 18.6L31.39 21.84C31.0794 22.0193 30.8886 22.3513 30.89 22.71L30.89 28.61 28.73 29.86 23.62 26.91C23.3106 26.7314 22.9294 26.7314 22.62 26.91L17 30.15C16.6894 30.3293 16.4986 30.6613 16.5 31.02L16.5 37.5C16.4986 37.8587 16.6894 38.1907 17 38.37ZM47.27 31.59 51.88 28.93 56.5 31.59 56.5 36.92 51.88 39.59 47.27 36.92ZM32.89 23.29 37.5 20.62 42.12 23.29 42.12 28.62 37.5 31.28 32.89 28.62ZM18.5 31.59 23.12 28.93 27.73 31.59 27.73 36.92 23.12 39.59 18.5 36.92ZM58 48.18 46.77 41.7 45.77 43.43 55.5 49.05 37.5 59.44 19.5 49.05 29.23 43.43 28.23 41.69 17 48.18C16.5223 48.4571 16.3597 49.069 16.6368 49.5468 16.7242 49.6974 16.8494 49.8226 17 49.91L37 61.46C37.1524 61.5464 37.3248 61.5912 37.5 61.59 37.6752 61.5912 37.8476 61.5464 38 61.46L58 49.91C58.4777 49.6329 58.6404 49.021 58.3632 48.5432 58.2758 48.3926 58.1506 48.2674 58 48.18Z" fill="#FFFFFF"/></g></svg>