<svg width="75" height="75" viewBox="0 0 75 75" xmlns="http://www.w3.org/2000/svg" xmlns:xlink="http://www.w3.org/1999/xlink" id="Product_Icon" overflow="hidden"><defs><linearGradient x1="-15.53" y1="90.53" x2="90.53" y2="-15.53" gradientUnits="userSpaceOnUse" id="OrangeGradient"><stop offset="0" stop-color="#C8511B"/><stop offset="1" stop-color="#FF9900"/></linearGradient></defs><rect x="0" y="0" width="75" height="75" id="Orange_Gradient" fill="url(#OrangeGradient)"/><g id="Icon_Test"><path d="M43 18.73 37.5 15.56 32 18.73 31 17 37 13.54C37.3094 13.3614 37.6906 13.3614 38 13.54L44 17ZM24 51.64 18.5 48.47 18.5 42.47 16.5 42.47 16.5 49.02C16.5021 49.3751 16.6925 49.7024 17 49.88L23 53.34ZM58 49.91C58.3075 49.7324 58.4979 49.4051 58.5 49.05L58.5 42.5 56.5 42.5 56.5 48.5 51 51.64 52 53.37ZM58.5 25.91 58.5 32.5 56.5 32.5 56.5 27.69 51.5 30.57 51.5 45C51.4979 45.3551 51.3075 45.6824 51 45.86L38.5 53.09 38.5 58.86 43 56.27 44 58 38 61.46C37.6906 61.6386 37.3094 61.6386 37 61.46L31 58 32 56.27 36.49 58.86 36.49 53.09 24 45.87C23.6925 45.6924 23.5021 45.3651 23.5 45.01L23.5 30.58 18.5 27.69 18.5 32.5 16.5 32.5 16.5 26C16.5021 25.6449 16.6925 25.3176 17 25.14L23 21.68 24 23.41 19.5 26 24.5 28.89 37 21.62C37.3094 21.4414 37.6906 21.4414 38 21.62L50.5 28.84 55.5 25.95 51 23.36 52 21.63 58 25.09C58.3234 25.2763 58.5162 25.6271 58.5 26ZM49.5 30.53 37.5 23.6 25.5 30.53 25.5 44.43 37.5 51.36 49.5 44.43ZM46.22 33.53 43.5 35.19 43.5 40.39C43.4979 40.7451 43.3075 41.0724 43 41.25L38.5 43.85 38.5 47.5 36.5 47.5 36.5 43.85 32 41.25C31.6925 41.0724 31.5021 40.7451 31.5 40.39L31.5 35.19 28.8 33.63 29.8 31.9 32.5 33.46 37 30.86C37.3094 30.6814 37.6906 30.6814 38 30.86L42.5 33.46 45.22 31.89ZM41.5 35.19 37.5 32.88 33.5 35.19 33.5 39.81 37.5 42.12 41.5 39.81Z" fill="#FFFFFF"/></g></svg>