<svg width="75" height="75" viewBox="0 0 75 75" xmlns="http://www.w3.org/2000/svg" xmlns:xlink="http://www.w3.org/1999/xlink" id="Product_Icon" overflow="hidden"><defs><linearGradient x1="-15.53" y1="-15.53" x2="90.53" y2="90.53" gradientUnits="userSpaceOnUse" id="OrangeGradient" gradientTransform="matrix(0 -1 1 0 0 75)"><stop offset="0" stop-color="#C8511B"/><stop offset="1" stop-color="#FF9900"/></linearGradient></defs><rect x="0" y="0" width="75" height="75" id="Orange_Gradient" fill="url(#OrangeGradient)"/><g id="Icon_Test"><path d="M37.5 62.75C37.3239 62.7482 37.1514 62.6999 37 62.61L16 50.49C15.6894 50.3107 15.4986 49.9787 15.5 49.62L15.5 25.38C15.4986 25.0213 15.6894 24.6893 16 24.51L37 12.39C37.3094 12.2114 37.6906 12.2114 38 12.39L59 24.51C59.3106 24.6893 59.5014 25.0213 59.5 25.38L59.5 49.62C59.5014 49.9787 59.3106 50.3107 59 50.49L38 62.61C37.8486 62.6999 37.6761 62.7482 37.5 62.75ZM36.5 50.75 38.5 50.75 38.5 60 56.5 49.6 52.33 47.2 46.99 50.2C46.6806 50.3786 46.2994 50.3786 45.99 50.2L39.99 46.87C39.6832 46.6881 39.4965 46.3566 39.5 46L39.5 39.32C39.497 38.9557 39.6924 38.6185 40.01 38.44L46.01 35.11C46.3194 34.9314 46.7006 34.9314 47.01 35.11L53.01 38.44C53.3276 38.6185 53.523 38.9557 53.52 39.32L53.52 45.59 57.52 47.89 57.52 27.11 49.41 31.79 48.41 30.06 56.52 25.38 38.5 15 38.5 19.7 44 22.75C44.3176 22.9285 44.513 23.2657 44.51 23.63L44.51 30.29C44.513 30.6543 44.3176 30.9915 44 31.17L38 34.5C37.6906 34.6786 37.3094 34.6786 37 34.5L31 31.17C30.6824 30.9915 30.487 30.6543 30.49 30.29L30.49 23.63C30.487 23.2657 30.6824 22.9285 31 22.75L36.5 19.7 36.5 15 18.5 25.4 26.61 30.08 25.61 31.81 17.5 27.11 17.5 47.89 21.5 45.58 21.5 39.45C21.4986 39.0913 21.6894 38.7593 22 38.58L28 35.12C28.3094 34.9414 28.6906 34.9414 29 35.12L35 38.58C35.3106 38.7593 35.5014 39.0913 35.5 39.45L35.5 46.38C35.4979 46.7351 35.3075 47.0625 35 47.24L29 50.71C28.6906 50.8886 28.3094 50.8886 28 50.71L22.31 47.42 18.5 49.62 36.5 60ZM23.5 45.75 28.5 48.64 33.5 45.75 33.5 40 28.5 37.12 23.5 40ZM41.5 45.35 46.5 48.13 51.5 45.35 51.5 39.91 46.5 37.13 41.5 39.91ZM32.5 29.66 37.5 32.43 42.5 29.66 42.5 24.16 37.5 21.38 32.5 24.16Z" fill="#FFFFFF"/></g></svg>