<svg width="75" height="75" viewBox="0 0 75 75" xmlns="http://www.w3.org/2000/svg" xmlns:xlink="http://www.w3.org/1999/xlink" id="Product_Icon" overflow="hidden"><defs><linearGradient x1="37.5" y1="112.5" x2="37.5" y2="-37.5" gradientUnits="userSpaceOnUse" id="OrangeGradient" gradientTransform="matrix(0.707107 0.707107 -0.707107 0.707107 37.5 -15.53)"><stop offset="0" stop-color="#C8511B"/><stop offset="1" stop-color="#FF9900"/></linearGradient></defs><rect x="0" y="0" width="75" height="75" id="Orange_Gradient" fill="url(#OrangeGradient)"/><g id="Icon_Test"><path d="M38.5 61.05 36.5 61.05 36.5 52.05 22.05 43.73C21.7394 43.5507 21.5486 43.2187 21.55 42.86 21.5521 42.5049 21.7425 42.1776 22.05 42L28.9 38 22.05 34.05C21.5695 33.7777 21.4007 33.1674 21.6731 32.6869 21.7623 32.5295 21.8926 32.3992 22.05 32.31L32.85 26.08 31.5 25.3C31.1925 25.1224 31.0021 24.7951 31 24.44L31 18.13C30.9986 17.7713 31.1894 17.4393 31.5 17.26L37 14.08C37.3094 13.9014 37.6906 13.9014 38 14.08L43.5 17.26C43.8106 17.4393 44.0014 17.7713 44 18.13L44 24.48C43.9979 24.8351 43.8075 25.1624 43.5 25.34L42.15 26.12 53 32.35C53.4805 32.6223 53.6493 33.2326 53.3769 33.7131 53.2877 33.8705 53.1574 34.0008 53 34.09L46.1 38 53 42C53.3075 42.1776 53.4979 42.5049 53.5 42.86 53.5014 43.2187 53.3106 43.5507 53 43.73L38.5 52.07ZM24.55 42.86 37.55 50.34 50.55 42.86 44.1 39.2 38.5 42.43 38.5 42.86 36.5 42.86 36.5 42.43 30.9 39.2ZM24.55 33.22 37.55 40.7 50.55 33.22 40.25 27.28 38.6 28.23 38.6 33.05 36.6 33.05 36.6 28.23 34.95 27.23ZM33 23.9 37.5 26.5 42 23.9 42 18.7 37.5 16.1 33 18.7ZM43.74 58.69 42.74 56.96 56.5 49 56.5 41.14 58.5 41.14 58.5 49.59C58.5014 49.9487 58.3106 50.2807 58 50.46ZM31.26 58.69 17 50.46C16.6894 50.2807 16.4986 49.9487 16.5 49.59L16.5 41.14 18.5 41.14 18.5 49 32.26 57ZM58.5 34.94 56.5 34.94 56.5 27.07 47.74 22 48.74 20.27 58 25.63C58.3106 25.8093 58.5014 26.1413 58.5 26.5ZM18.5 34.94 16.5 34.94 16.5 26.5C16.4986 26.1413 16.6894 25.8093 17 25.63L26.26 20.28 27.26 22.02 18.5 27.07Z" fill="#FFFFFF"/></g></svg>