<svg width="75" height="75" viewBox="0 0 75 75" xmlns="http://www.w3.org/2000/svg" xmlns:xlink="http://www.w3.org/1999/xlink" id="Product_Icon" overflow="hidden"><defs><linearGradient x1="112.5" y1="37.5" x2="-37.5" y2="37.5" gradientUnits="userSpaceOnUse" id="OrangeGradient" gradientTransform="matrix(-0.707107 0.707107 -0.707107 -0.707107 90.53 37.5)"><stop offset="0" stop-color="#C8511B"/><stop offset="1" stop-color="#FF9900"/></linearGradient></defs><rect x="0" y="0" width="75" height="75" id="Orange_Gradient" fill="url(#OrangeGradient)"/><g id="Icon_Test"><path d="M37.5 61.6C37.3239 61.5982 37.1514 61.5499 37 61.46L37 61.46 27.84 56.17 28.84 54.44 36.5 58.86 36.5 38.08 27 32.59 27 32.59 18.53 27.69 18.53 36.45 16.53 36.45 16.53 26C16.5286 25.6413 16.7194 25.3093 17.03 25.13L27.03 19.38 27.03 19.38 27.03 19.38 37.03 13.63C37.3394 13.4514 37.7206 13.4514 38.03 13.63L58 25.08C58.3106 25.2593 58.5014 25.5913 58.5 25.95L58.5 49.05C58.4979 49.4051 58.3075 49.7324 58 49.91L38 61.46C37.8486 61.5499 37.6761 61.5982 37.5 61.6ZM38.5 50.78 38.5 58.86 45.5 54.86ZM48.5 43.85 48.5 53.09 56.5 48.47 56.5 39.23ZM38.5 48.47 46.5 53.09 46.5 43.85 42.62 41.61 43.62 39.88 46.5 41.54 46.5 32.3 38.5 27.68 38.5 31.44 36.5 31.44 36.5 26.53 28.5 21.91 28.5 31.15 38 36.63C38.3106 36.8093 38.5014 37.1413 38.5 37.5ZM48.5 32.3 48.5 41.54 56.5 36.92 56.5 27.68ZM39.5 26 47.5 30.62 55.5 26 47.5 21.38ZM19.5 26 26.5 30 26.5 21.91ZM29.5 20.23 37.5 24.85 45.5 20.23 37.5 15.61ZM23 53.23C22.8253 53.2274 22.6538 53.1828 22.5 53.1L17 49.91C16.6894 49.7307 16.4986 49.3987 16.5 49.04L16.5 42.69C16.5021 42.3349 16.6925 42.0075 17 41.83L22.5 38.65C22.8094 38.4714 23.1906 38.4714 23.5 38.65L29 41.83C29.3075 42.0076 29.4979 42.3349 29.5 42.69L29.5 49C29.5014 49.3587 29.3106 49.6907 29 49.87L23.5 53.05C23.3491 53.1454 23.1778 53.2036 23 53.22ZM18.5 48.48 23 51.08 27.5 48.48 27.5 43.28 23 40.67 18.5 43.27Z" fill="#FFFFFF"/></g></svg>