<svg width="75" height="75" viewBox="0 0 75 75" xmlns="http://www.w3.org/2000/svg" xmlns:xlink="http://www.w3.org/1999/xlink" id="Product_Icon" overflow="hidden"><defs><linearGradient x1="90.53" y1="-15.53" x2="-15.54" y2="90.54" gradientUnits="userSpaceOnUse" id="OrangeGradient" gradientTransform="matrix(-1 0 -0 -1 75 75)"><stop offset="0" stop-color="#C8511B"/><stop offset="1" stop-color="#FF9900"/></linearGradient></defs><rect x="0" y="0" width="75" height="75" id="Orange_Gradient" fill="url(#OrangeGradient)"/><g id="Icon_Test"><path d="M37.5 61.59C37.3248 61.5912 37.1524 61.5464 37 61.46L29 56.86 30 55.13 36.46 58.86 36.46 51.51 38.46 51.51 38.46 58.87 45 55.13 46 56.86 38 61.46C37.8476 61.5464 37.6752 61.5912 37.5 61.59ZM52 53.22C51.8248 53.2212 51.6524 53.1764 51.5 53.09L46 49.91C45.6925 49.7324 45.5021 49.4051 45.5 49.05L45.5 42.7C45.4986 42.3413 45.6894 42.0093 46 41.83L51.5 38.66C51.8094 38.4814 52.1906 38.4814 52.5 38.66L58 41.83C58.3106 42.0093 58.5014 42.3413 58.5 42.7L58.5 49.05C58.4979 49.4051 58.3075 49.7324 58 49.91L52.5 53.09C52.3476 53.1764 52.1752 53.2212 52 53.22ZM47.5 48.47 52 51.07 56.5 48.47 56.5 43.27 52 40.68 47.5 43.27ZM23 53.22C22.8248 53.2212 22.6524 53.1764 22.5 53.09L17 49.91C16.6925 49.7324 16.5021 49.4051 16.5 49.05L16.5 42.7C16.4986 42.3413 16.6894 42.0093 17 41.83L22.49 38.66C22.7994 38.4814 23.1806 38.4814 23.49 38.66L29 41.83C29.3106 42.0093 29.5014 42.3413 29.5 42.7L29.5 49.05C29.4979 49.4051 29.3075 49.7324 29 49.91L23.5 53.09C23.3476 53.1764 23.1752 53.2212 23 53.22ZM18.51 48.47 23 51.07 27.5 48.47 27.5 43.27 23 40.68 18.51 43.27ZM32.51 46.71C32.3348 46.7112 32.1624 46.6664 32.01 46.58 31.6994 46.4007 31.5086 46.0687 31.51 45.71L31.51 29.22C31.5121 28.8649 31.7025 28.5376 32.01 28.36 32.3194 28.1814 32.7006 28.1814 33.01 28.36L47.28 36.6C47.5906 36.7793 47.7814 37.1113 47.78 37.47 47.7779 37.8251 47.5875 38.1524 47.28 38.33L33 46.58C32.8476 46.6664 32.6752 46.7112 32.5 46.71ZM33.5 31 33.5 44 44.78 37.49ZM58.5 35.55 56.5 35.55 56.5 27.69 50.12 31.36 49.12 29.63 55.5 26 49 22.22 50 20.49 58 25.09C58.3075 25.2676 58.4979 25.5949 58.5 25.95ZM18.5 35.55 16.5 35.55 16.5 26C16.5021 25.6449 16.6925 25.3176 17 25.14L25 20.54 26 22.27 19.51 26 25.88 29.68 24.88 31.41 18.5 27.68ZM37.5 28.15C37.323 28.1451 37.1504 28.0934 37 28L31.5 24.8C31.1894 24.6207 30.9986 24.2887 31 23.93L31 17.58C31.0021 17.2249 31.1925 16.8976 31.5 16.72L37 13.54C37.3094 13.3614 37.6906 13.3614 38 13.54L43.5 16.72C43.8075 16.8976 43.9979 17.2249 44 17.58L44 23.93C44.0014 24.2887 43.8106 24.6207 43.5 24.8L38 28C37.8457 28.0794 37.6734 28.1173 37.5 28.11ZM33 23.36 37.5 26 42 23.36 42 18.16 37.5 15.56 33 18.16Z" fill="#FFFFFF"/></g></svg>