<svg width="75" height="75" viewBox="0 0 75 75" xmlns="http://www.w3.org/2000/svg" xmlns:xlink="http://www.w3.org/1999/xlink" id="Product_Icon" overflow="hidden"><defs><linearGradient x1="90.53" y1="90.53" x2="-15.53" y2="-15.53" gradientUnits="userSpaceOnUse" id="BlueGradient" gradientTransform="matrix(0 1 -1 0 75 0)"><stop offset="0" stop-color="#2E27AD"/><stop offset="1" stop-color="#527FFF"/></linearGradient></defs><rect x="0" y="0" width="75" height="75" id="Blue_Gradient" fill="url(#BlueGradient)"/><g id="Icon_Test"><path d="M44.47 32.42C45.3158 32.8236 46.0149 33.4808 46.47 34.3L46.47 19.72C46.47 15.03 37.71 12.5 29.47 12.5 21.23 12.5 12.47 15.03 12.47 19.72L12.47 55.28C12.47 59.97 21.23 62.5 29.47 62.5 37.71 62.5 46.47 59.97 46.47 55.28L46.47 50.5 44.47 50.5 44.47 55.28C44.47 57.75 38.31 60.5 29.47 60.5 20.63 60.5 14.47 57.75 14.47 55.28L14.47 47.86C17.47 50.3 23.64 51.59 29.47 51.59 31.172 51.591 32.8723 51.4807 34.56 51.26 34.1359 50.6969 33.8298 50.0541 33.66 49.37 32.2682 49.5173 30.8696 49.5908 29.47 49.59 20.66 49.59 14.47 46.84 14.47 44.37L14.5 44.37 14.5 35.64C17.5 38.08 23.67 39.37 29.5 39.37 32.4992 39.3922 35.4903 39.0565 38.41 38.37 38.1516 37.7911 38.0186 37.164 38.02 36.53L38.02 36.42C35.2318 37.1014 32.3703 37.4373 29.5 37.42 20.69 37.42 14.5 34.67 14.5 32.2L14.5 32.2 14.5 23.3C17.57 25.72 23.67 26.99 29.5 26.99 35.33 26.99 41.43 25.72 44.5 23.3L44.5 32.2C44.4966 32.2741 44.4866 32.3477 44.47 32.42ZM29.47 24.94C20.63 24.94 14.47 22.19 14.47 19.72 14.47 17.25 20.63 14.5 29.47 14.5 38.31 14.5 44.47 17.25 44.47 19.72 44.47 22.19 38.34 24.94 29.5 24.94ZM60 50.5C58.6193 50.5 57.5 51.6193 57.5 53 57.4996 53.1784 57.5198 53.3562 57.56 53.53L54.25 55.6C53.7178 55.0913 53.0519 54.7444 52.33 54.6L52.13 50.15C54.8978 49.4715 56.5916 46.6777 55.9131 43.9098 55.6662 42.9026 55.1215 41.9931 54.35 41.3L57.47 36C57.7928 36.1057 58.1303 36.1597 58.47 36.16 60.403 36.16 61.97 34.593 61.97 32.66 61.97 30.727 60.403 29.16 58.47 29.16 56.537 29.16 54.97 30.727 54.97 32.66 54.9661 33.476 55.2533 34.2667 55.78 34.89L52.6 40.24C52.0514 40.0626 51.4763 39.9814 50.9 40 49.9038 39.9948 48.9288 40.2873 48.1 40.84L44.82 37.48C44.9462 37.169 45.0075 36.8355 45 36.5 45 35.1193 43.8807 34 42.5 34 41.1193 34 40 35.1193 40 36.5 40 37.8807 41.1193 39 42.5 39 42.8005 38.9989 43.0984 38.9448 43.38 38.84L46.66 42.19C46.048 43.0475 45.7225 44.0765 45.73 45.13L45.73 45.13 41.86 46C40.7475 44.426 38.5696 44.0519 36.9956 45.1644 35.4216 46.2769 35.0475 48.4548 36.1601 50.0288 37.2726 51.6028 39.4504 51.9769 41.0244 50.8644 41.954 50.2073 42.5047 49.1383 42.5 48 42.5049 47.9669 42.5049 47.9332 42.5 47.9L46.15 47.14C46.8514 48.7985 48.3681 49.9701 50.15 50.23L50.35 54.67C48.2341 55.3051 47.0337 57.5353 47.6689 59.6511 48.304 61.767 50.5341 62.9674 52.65 62.3322 54.342 61.8243 55.5005 60.2666 55.5 58.5 55.5036 58.0922 55.4394 57.6867 55.31 57.3L58.74 55.16C59.1215 55.3852 59.557 55.5027 60 55.5 61.3807 55.5 62.5 54.3807 62.5 53 62.5 51.6193 61.3807 50.5 60 50.5ZM58.5 31.19C59.3284 31.19 60 31.8616 60 32.69 60 33.5184 59.3284 34.19 58.5 34.19 57.6716 34.19 57 33.5184 57 32.69 57 31.8616 57.6716 31.19 58.5 31.19ZM42.5 37C42.2239 37 42 36.7761 42 36.5 42 36.2239 42.2239 36 42.5 36 42.7761 36 43 36.2239 43 36.5 43 36.7761 42.7761 37 42.5 37ZM39 49.5C38.1716 49.5 37.5 48.8284 37.5 48 37.5 47.1716 38.1716 46.5 39 46.5 39.8284 46.5 40.5 47.1716 40.5 48 40.5 48.8284 39.8284 49.5 39 49.5ZM47.73 45.13C47.73 43.3793 49.1493 41.96 50.9 41.96 52.6507 41.96 54.07 43.3793 54.07 45.13 54.07 46.8807 52.6507 48.3 50.9 48.3 49.1493 48.3 47.73 46.8807 47.73 45.13ZM51.5 60.5C50.3954 60.5 49.5 59.6046 49.5 58.5 49.5 57.3954 50.3954 56.5 51.5 56.5 52.6046 56.5 53.5 57.3954 53.5 58.5 53.5 59.6046 52.6046 60.5 51.5 60.5ZM60 53.5C59.7239 53.5 59.5 53.2761 59.5 53 59.5 52.7239 59.7239 52.5 60 52.5 60.2761 52.5 60.5 52.7239 60.5 53 60.5 53.2761 60.2761 53.5 60 53.5Z" fill="#FFFFFF"/></g></svg>