<svg width="75" height="75" viewBox="0 0 75 75" xmlns="http://www.w3.org/2000/svg" xmlns:xlink="http://www.w3.org/1999/xlink" id="Product_Icon" overflow="hidden"><defs><linearGradient x1="-15.54" y1="90.54" x2="90.53" y2="-15.53" gradientUnits="userSpaceOnUse" id="BlueGradient"><stop offset="0" stop-color="#2E27AD"/><stop offset="1" stop-color="#527FFF"/></linearGradient></defs><rect x="0" y="0" width="75" height="75" id="Blue_Gradient" fill="url(#BlueGradient)"/><g id="Icon_Test"><path d="M37.5 62.5C29.26 62.5 20.5 60.11 20.5 55.68L20.5 19.32 22.5 19.32 22.5 55.68C22.5 57.68 28.21 60.5 37.5 60.5 46.79 60.5 52.5 57.7 52.5 55.68L52.5 19.32 54.5 19.32 54.5 55.68C54.5 60.11 45.74 62.5 37.5 62.5Z" fill="#FFFFFF"/><path d="M37.5 62.5C29.26 62.5 20.5 60.11 20.5 55.68L20.5 19.32 22.5 19.32 22.5 55.68C22.5 57.68 28.21 60.5 37.5 60.5 46.79 60.5 52.5 57.7 52.5 55.68L52.5 19.32 54.5 19.32 54.5 55.68C54.5 60.11 45.74 62.5 37.5 62.5Z" fill="#FFFFFF"/><path d="M37.5 26.13C29.26 26.13 20.5 23.74 20.5 19.32 20.5 14.9 29.26 12.5 37.5 12.5 45.74 12.5 54.5 14.89 54.5 19.32 54.5 23.75 45.74 26.13 37.5 26.13ZM37.5 14.5C28.21 14.5 22.5 17.3 22.5 19.32 22.5 21.34 28.21 24.13 37.5 24.13 46.79 24.13 52.5 21.33 52.5 19.32 52.5 17.31 46.79 14.5 37.5 14.5Z" fill="#FFFFFF"/><rect x="36.48" y="38.02" width="2" height="6.22" fill="#FFFFFF" transform="matrix(0.221719 -0.975111 0.975111 0.221719 -10.94 68.55)"/><rect x="42.05" y="35.78" width="6.3" height="2" fill="#FFFFFF" transform="matrix(0.367151 -0.930161 0.930161 0.367151 -5.61 65.32)"/><rect x="27.4" y="43.59" width="5.2" height="2" fill="#FFFFFF" transform="matrix(0.392498 -0.919753 0.919753 0.392498 -22.78 54.68)"/><path d="M28 52.77C26.067 52.77 24.5 51.203 24.5 49.27 24.5 47.337 26.067 45.77 28 45.77 29.933 45.77 31.5 47.337 31.5 49.27 31.5 51.203 29.933 52.77 28 52.77ZM28 47.77C27.1716 47.77 26.5 48.4416 26.5 49.27 26.5 50.0984 27.1716 50.77 28 50.77 28.8284 50.77 29.5 50.0984 29.5 49.27 29.5 48.4416 28.8284 47.77 28 47.77Z" fill="#FFFFFF"/><path d="M32 43.39C30.067 43.39 28.5 41.823 28.5 39.89 28.5 37.957 30.067 36.39 32 36.39 33.933 36.39 35.5 37.957 35.5 39.89 35.5 41.823 33.933 43.39 32 43.39ZM32 38.39C31.1716 38.39 30.5 39.0616 30.5 39.89 30.5 40.7184 31.1716 41.39 32 41.39 32.8284 41.39 33.5 40.7184 33.5 39.89L33.5 39.89C33.5 39.0616 32.8284 38.39 32 38.39Z" fill="#FFFFFF"/><path d="M43 45.5C41.067 45.5 39.5 43.933 39.5 42 39.5 40.067 41.067 38.5 43 38.5 44.933 38.5 46.5 40.067 46.5 42 46.5 43.933 44.933 45.5 43 45.5ZM43 40.5C42.1716 40.5 41.5 41.1716 41.5 42 41.5 42.8284 42.1716 43.5 43 43.5 43.8284 43.5 44.5 42.8284 44.5 42 44.5 41.1716 43.8284 40.5 43 40.5Z" fill="#FFFFFF"/><path d="M47 35C45.067 35 43.5 33.433 43.5 31.5 43.5 29.567 45.067 28 47 28 48.933 28 50.5 29.567 50.5 31.5L50.5 31.55C50.4673 33.4612 48.9114 34.9948 47 35ZM47 30C46.1716 30.0005 45.5004 30.6724 45.5008 31.5008 45.5013 32.3293 46.1732 33.0005 47.0017 33 47.8103 32.9995 48.473 32.3582 48.5 31.55 48.5276 30.722 47.8788 30.0284 47.0508 30.0008 47.0339 30.0003 47.0169 30 47 30Z" fill="#FFFFFF"/></g></svg>