<svg width="75" height="75" viewBox="0 0 75 75" xmlns="http://www.w3.org/2000/svg" xmlns:xlink="http://www.w3.org/1999/xlink" id="Product_Icon" overflow="hidden"><defs><linearGradient x1="112.5" y1="37.5" x2="-37.5" y2="37.5" gradientUnits="userSpaceOnUse" id="BlueGradient" gradientTransform="matrix(-0.707107 0.707107 -0.707107 -0.707107 90.53 37.5)"><stop offset="0" stop-color="#2E27AD"/><stop offset="1" stop-color="#527FFF"/></linearGradient></defs><rect x="0" y="0" width="75" height="75" id="Blue_Gradient" fill="url(#BlueGradient)"/><g id="Icon_Test"><path d="M37.52 27C30.81 27 24 28.75 24 32.1L24 54.9C24 58.25 30.78 60 37.49 60 44.2 60 51 58.25 51 54.9L51 32.1C51 28.75 44.21 27 37.52 27ZM37.52 58C30.08 58 26 56 26 54.9L26 50.09C28.5 51.61 33 52.4 37.49 52.4 41.98 52.4 46.49 51.61 48.97 50.1L48.97 54.9C49 56 44.94 58 37.52 58ZM37.52 50.4C30.08 50.4 26.03 48.4 26.03 47.3L26.03 42.5C28.53 44.01 33.03 44.8 37.52 44.8 42.01 44.8 46.52 44.01 49 42.5L49 47.3C49 48.35 44.94 50.4 37.52 50.4ZM37.52 42.8C30.08 42.8 26.03 40.8 26.03 39.7L26.03 34.89C28.53 36.41 33.03 37.2 37.52 37.2 42.01 37.2 46.52 36.41 49 34.89L49 39.7C49 40.75 44.94 42.8 37.52 42.8ZM37.52 35.2C30.08 35.2 26 33.15 26 32.1 26 31.05 30 29 37.49 29 44.98 29 49 31.05 49 32.1 49 33.15 44.94 35.2 37.52 35.2Z" fill="#FFFFFF"/><path d="M62 19.19C62.5523 19.19 63 18.7423 63 18.19L63 16C63 15.4477 62.5523 15 62 15L13 15C12.4477 15 12 15.4477 12 16L12 18.18C12 18.7323 12.4477 19.18 13 19.18 14.2205 19.2962 15.1158 20.3799 14.9995 21.6005 14.8986 22.6602 14.0597 23.4991 13 23.6 12.4477 23.6 12 24.0477 12 24.6L12 42C12 42.5523 12.4477 43 13 43L22 43 22 41 18 41 18 40 22 40 22 38 17 38C16.4477 38 16 38.4477 16 39L16 41 14 41 14 25.47C16.2506 24.7842 17.519 22.4038 16.8332 20.1532 16.4196 18.7959 15.3573 17.7336 14 17.32L14 17 61 17 61 17.33C58.755 18.0519 57.5202 20.4571 58.2422 22.7022 58.6634 24.0121 59.6901 25.0388 61 25.46L61 41 60 41 60 39C60 38.4477 59.5523 38 59 38L53 38 53 40 58 40 58 41 53 41 53 43 62 43C62.5523 43 63 42.5523 63 42L63 24.6C63 24.0477 62.5523 23.6 62 23.6 60.7822 23.4577 59.9103 22.3552 60.0526 21.1374 60.172 20.1154 60.978 19.3094 62 19.19Z" fill="#FFFFFF"/><path d="M37 25 37 20C37 19.4477 36.5523 19 36 19L29 19C28.4477 19 28 19.4477 28 20L28 26 30 26 30 21 35 21 35 25Z" fill="#FFFFFF"/><path d="M47 26 47 20C47 19.4477 46.5523 19 46 19L39 19C38.4477 19 38 19.4477 38 20L38 25 40 25 40 21 45 21 45 26Z" fill="#FFFFFF"/><path d="M53 34 53 36 56 36C56.5523 36 57 35.5523 57 35L57 20C57 19.4477 56.5523 19 56 19L49 19C48.4477 19 48 19.4477 48 20L48 27 50 27 50 21 55 21 55 34Z" fill="#FFFFFF"/><path d="M20 21 25 21 25 27 27 27 27 20C27 19.4477 26.5523 19 26 19L19 19C18.4477 19 18 19.4477 18 20L18 35C18 35.5523 18.4477 36 19 36L22 36 22 34 20 34Z" fill="#FFFFFF"/></g></svg>