<svg width="75" height="75" viewBox="0 0 75 75" xmlns="http://www.w3.org/2000/svg" xmlns:xlink="http://www.w3.org/1999/xlink" id="Product_Icon" overflow="hidden"><defs><linearGradient x1="90.53" y1="90.54" x2="-15.54" y2="-15.53" gradientUnits="userSpaceOnUse" id="BlueGradient" gradientTransform="matrix(0 1 -1 0 75 0)"><stop offset="0" stop-color="#2E27AD"/><stop offset="1" stop-color="#527FFF"/></linearGradient></defs><rect x="0" y="0" width="75" height="75" id="Blue_Gradient" fill="url(#BlueGradient)"/><g id="Icon_Test"><path d="M35.48 22.8C30.67 22.8 25.48 24.02 25.48 26.7L25.48 43.3C25.48 45.98 30.65 47.2 35.48 47.2 40.31 47.2 45.48 45.98 45.48 43.3L45.48 26.7C45.46 24 40.28 22.8 35.48 22.8ZM27.48 26.7C27.63 26.13 30.48 24.8 35.48 24.8 40.48 24.8 43.32 26.13 43.48 26.7 43.35 27.28 40.48 28.6 35.48 28.6 30.48 28.6 27.62 27.27 27.48 26.71ZM43.48 43.29C43.36 43.86 40.48 45.2 35.48 45.2 30.48 45.2 27.62 43.86 27.48 43.3L27.48 40.65C30.0126 41.6996 32.7399 42.1973 35.48 42.11 38.1971 42.2009 40.9028 41.717 43.42 40.69ZM43.48 38.29C43.1 38.9 40.28 40.11 35.54 40.11 30.54 40.11 27.71 38.79 27.54 38.21L27.54 38.21 27.54 35C30.0726 36.0496 32.7999 36.5473 35.54 36.46 38.2533 36.5354 40.952 36.0379 43.46 35ZM43.48 32.59C43.1 33.2 40.29 34.41 35.54 34.41 30.54 34.41 27.71 33.09 27.54 32.51L27.54 32.51 27.54 29.17C30.0761 30.205 32.8024 30.6923 35.54 30.6 38.2775 30.6905 41.0034 30.2032 43.54 29.17ZM45.48 32.51C45.4948 32.6396 45.4948 32.7704 45.48 32.9L45.48 32.51ZM45.48 38.21C45.4948 38.3396 45.4948 38.4704 45.48 38.6L45.48 38.21ZM21.11 43.13C15.64 41.13 12.5 38.13 12.5 34.78 12.5 31.43 15.64 28.42 21.11 26.42L21.8 28.3C17.23 29.97 14.5 32.39 14.5 34.78 14.5 37.17 17.23 39.59 21.8 41.25ZM49.34 43.32 48.7 41.43C53.58 39.76 56.5 37.28 56.5 34.78 56.5 32.28 53.58 29.78 48.7 28.12L49.34 26.23C55.16 28.23 58.5 31.33 58.5 34.78 58.5 38.23 55.16 41.34 49.34 43.32ZM58.5 13.5 58.5 21.5 56.5 21.5 56.5 15.92 50.21 22.21 48.79 20.79 55.08 14.5 49.5 14.5 49.5 12.5 57.5 12.5C58.0523 12.5 58.5 12.9477 58.5 13.5ZM22.21 20.79 20.79 22.21 14.5 15.92 14.5 21.5 12.5 21.5 12.5 13.5C12.5 12.9477 12.9477 12.5 13.5 12.5L21.5 12.5 21.5 14.5 15.92 14.5ZM15.92 55.5 21.5 55.5 21.5 57.5 13.5 57.5C12.9477 57.5 12.5 57.0523 12.5 56.5L12.5 48.5 14.5 48.5 14.5 54.08 20.79 47.79 22.21 49.21ZM61.5 62.5 37.5 62.5C36.9477 62.5 36.5 62.0523 36.5 61.5L36.5 53.79C36.5004 53.5028 36.6242 53.2296 36.84 53.04L41.84 48.68C42.209 48.3767 42.741 48.3767 43.11 48.68L46.5 51.31 46.5 47.5C46.5 46.9477 46.9477 46.5 47.5 46.5L61.5 46.5C62.0523 46.5 62.5 46.9477 62.5 47.5L62.5 61.5C62.5 62.0523 62.0523 62.5 61.5 62.5ZM38.5 60.5 60.5 60.5 60.5 48.5 48.5 48.5 48.5 53.31C48.497 53.6888 48.2802 54.0333 47.94 54.2 47.6129 54.3488 47.2312 54.3106 46.94 54.1L42.59 50.73 38.59 54.25ZM52.5 53.5 50.5 53.5 50.5 50.5 52.5 50.5ZM55.5 53.5 53.5 53.5 53.5 50.5 55.5 50.5ZM58.5 53.5 56.5 53.5 56.5 50.5 58.5 50.5Z" fill="#FFFFFF"/></g></svg>