<svg width="75" height="75" viewBox="0 0 75 75" xmlns="http://www.w3.org/2000/svg" xmlns:xlink="http://www.w3.org/1999/xlink" id="Product_Icon" overflow="hidden"><defs><linearGradient x1="37.5" y1="-37.5" x2="37.5" y2="112.5" gradientUnits="userSpaceOnUse" id="BlueGradient" gradientTransform="matrix(-0.707107 -0.707107 0.707107 -0.707107 37.5 90.53)"><stop offset="0" stop-color="#2E27AD"/><stop offset="1" stop-color="#527FFF"/></linearGradient></defs><rect x="0" y="0" width="75" height="75" id="Blue_Gradient" fill="url(#BlueGradient)"/><g id="Icon_Test"><path d="M25.38 29.53C17.63 29.53 9.38 27.18 9.38 22.83 9.38 18.48 17.61 16.13 25.38 16.13 33.15 16.13 41.38 18.48 41.38 22.83 41.38 27.18 33.12 29.53 25.38 29.53ZM25.38 18.13C17.38 18.13 11.38 20.61 11.38 22.83 11.38 25.05 17.38 27.53 25.38 27.53 33.38 27.53 39.38 25.05 39.38 22.83 39.38 20.61 33.37 18.13 25.38 18.13Z" fill="#FFFFFF"/><rect x="39.41" y="23.13" width="2" height="17" fill="#FFFFFF"/><path d="M25.37 62C17.63 62 9.37 59.68 9.37 55.37L9.37 23.13 11.37 23.13 11.37 55.39C11.37 57.59 17.37 60.04 25.37 60.04 33.37 60.04 39.37 57.59 39.37 55.39L39.37 52.13 41.37 52.13 41.37 55.39C41.41 59.7 33.12 62 25.37 62Z" fill="#FFFFFF"/><path d="M25.38 40.83C17.64 40.83 9.38 38.48 9.38 34.13L11.38 34.13C11.38 36.35 17.38 38.83 25.38 38.83 33.38 38.83 39.38 36.35 39.38 34.13L41.38 34.13C41.36 38.48 33.13 40.83 25.38 40.83Z" fill="#FFFFFF"/><path d="M25.45 51.83C17.71 51.83 9.45 49.48 9.45 45.13L11.45 45.13C11.45 47.35 17.45 49.83 25.45 49.83 28.7236 49.874 31.9836 49.4016 35.11 48.43L35.75 50.32C32.418 51.3641 28.9415 51.8738 25.45 51.83Z" fill="#FFFFFF"/><path d="M48.85 62.87C48.2977 62.87 47.85 62.4223 47.85 61.87 47.85 55 40 47.13 33.1 47.13 32.5477 47.13 32.1 46.6823 32.1 46.13 32.1 45.5777 32.5477 45.13 33.1 45.13 39.99 45.13 47.85 37.27 47.85 30.38 47.85 29.8277 48.2977 29.38 48.85 29.38 49.4023 29.38 49.85 29.8277 49.85 30.38 49.85 37.27 57.7 45.13 64.6 45.13 65.1523 45.13 65.6 45.5777 65.6 46.13 65.6 46.6823 65.1523 47.13 64.6 47.13 57.7 47.13 49.85 54.98 49.85 61.87 49.85 62.4223 49.4023 62.87 48.85 62.87ZM38 46.13C42.8874 48.2122 46.7768 52.1088 48.85 57 50.9268 52.1008 54.8289 48.2023 59.73 46.13 54.8282 44.0536 50.9264 40.1518 48.85 35.25 46.7771 40.1438 42.8881 44.0436 38 46.13Z" fill="#FFFFFF"/><rect x="53.41" y="22.13" width="2" height="6" fill="#FFFFFF"/><rect x="51.41" y="24.13" width="6" height="2" fill="#FFFFFF"/><rect x="42.41" y="12.13" width="2" height="6" fill="#FFFFFF"/><rect x="40.41" y="14.13" width="6" height="2" fill="#FFFFFF"/></g></svg>