<svg width="75" height="75" viewBox="0 0 75 75" xmlns="http://www.w3.org/2000/svg" xmlns:xlink="http://www.w3.org/1999/xlink" id="Product_Icon" overflow="hidden"><defs><linearGradient x1="37.5" y1="-37.5" x2="37.5" y2="112.5" gradientUnits="userSpaceOnUse" id="BlueGradient" gradientTransform="matrix(-0.707107 -0.707107 0.707107 -0.707107 37.5 90.53)"><stop offset="0" stop-color="#2E27AD"/><stop offset="1" stop-color="#527FFF"/></linearGradient></defs><rect x="0" y="0" width="75" height="75" id="Blue_Gradient" fill="url(#BlueGradient)"/><g id="Icon_Test"><path d="M40.06 51.25 38.76 51.25C38.2077 51.25 37.76 50.8023 37.76 50.25L37.76 28C37.76 27.4477 38.2077 27 38.76 27L50.57 27C50.8537 27.0032 51.1227 27.1268 51.31 27.34L54.31 30.95 52.9 32.24 50.13 29 39.72 29 39.72 49.33 40.06 49.33Z" fill="#FFFFFF"/><path d="M58.32 54.87 42.16 54.87C41.6077 54.87 41.16 54.4223 41.16 53.87L41.16 31.62C41.16 31.0677 41.6077 30.62 42.16 30.62L54.63 30.62C54.884 30.6236 55.1271 30.7237 55.31 30.9L59 34.64C59.1763 34.8229 59.2764 35.066 59.28 35.32L59.28 53.91C59.2595 54.4315 58.8415 54.8495 58.32 54.87ZM43.12 53 57.36 53 57.36 35.72 54.23 32.58 43.12 32.58Z" fill="#FFFFFF"/><path d="M58.32 37.28 53.63 37.28C53.0777 37.28 52.63 36.8323 52.63 36.28L52.63 31.58 54.55 31.58 54.55 35.31 58.28 35.31Z" fill="#FFFFFF"/><path d="M49.38 49.65 48.75 49.65C48.2573 49.6614 47.7862 49.448 47.47 49.07 47.0748 48.4835 46.9274 47.7646 47.06 47.07 47 45.29 46 45 46 45 45.4836 44.8041 45.2238 44.2267 45.4196 43.7104 45.5211 43.4428 45.7324 43.2315 46 43.13 46.09 43.13 47 42.76 47 41 47 39.95 47.49 38.78 48.66 38.74L49.32 38.74 49.32 40.67 49 40.67C48.9848 40.7795 48.9848 40.8905 49 41 49.0683 42.1162 48.711 43.2168 48 44.08 48.7094 44.9401 49.0667 46.0371 49 47.15 49.0099 47.2096 49.0099 47.2704 49 47.33 48.985 47.4729 48.985 47.6171 49 47.76L49.43 47.76Z" fill="#FFFFFF"/><path d="M52.07 49.65 52.07 47.73 52.44 47.73C52.4499 47.6236 52.4499 47.5164 52.44 47.41 52.3717 46.2938 52.729 45.1932 53.44 44.33 52.7306 43.4699 52.3733 42.3729 52.44 41.26 52.4351 41.2001 52.4351 41.1399 52.44 41.08 52.4547 40.9404 52.4547 40.7996 52.44 40.66L52.01 40.66 52.01 38.73 52.64 38.73C53.1318 38.7229 53.6011 38.9356 53.92 39.31 54.3132 39.8973 54.4604 40.6154 54.33 41.31 54.33 43.01 55.33 43.31 55.33 43.37 55.7593 43.5094 56.0421 43.9191 56.02 44.37 56.023 44.8013 55.729 45.178 55.31 45.28 55.23 45.28 54.31 45.65 54.31 47.42 54.31 48.47 53.82 49.64 52.65 49.67Z" fill="#FFFFFF"/><path d="M32.23 27.2C24.23 27.2 15.72 24.74 15.72 20.2 15.72 15.66 24.22 13.2 32.23 13.2 40.24 13.2 48.74 15.66 48.74 20.2 48.74 24.74 40.23 27.2 32.23 27.2ZM32.23 15.08C23.63 15.08 17.64 17.77 17.64 20.18 17.64 22.59 23.64 25.27 32.23 25.27 40.82 25.27 46.81 22.59 46.81 20.18 46.81 17.77 40.82 15.08 32.23 15.08Z" fill="#FFFFFF"/><rect x="46.81" y="20.18" width="1.92" height="6.06" fill="#FFFFFF"/><path d="M32.23 61.84C24.23 61.84 15.72 59.38 15.72 54.84L15.72 20.18 17.64 20.18 17.64 54.82C17.64 57.23 23.64 59.92 32.23 59.92 40.82 59.92 46.81 57.23 46.81 54.82L48.74 54.82C48.74 59.38 40.23 61.84 32.23 61.84Z" fill="#FFFFFF"/><path d="M32.26 39.31C22.87 39.31 15.79 36.31 15.79 32.31L17.72 32.31C17.72 34.72 23.72 37.41 32.26 37.41 33.7003 37.4088 35.1393 37.3253 36.57 37.16L36.79 39.07C35.2859 39.2372 33.7734 39.3174 32.26 39.31Z" fill="#FFFFFF"/><path d="M32.26 51.21C22.87 51.21 15.79 48.21 15.79 44.21L17.72 44.21C17.72 46.62 23.72 49.31 32.26 49.31 33.7 49.3106 35.139 49.2305 36.57 49.07L36.78 51C35.2782 51.1508 33.7693 51.2209 32.26 51.21Z" fill="#FFFFFF"/></g></svg>