<svg width="75" height="75" viewBox="0 0 75 75" xmlns="http://www.w3.org/2000/svg" xmlns:xlink="http://www.w3.org/1999/xlink" id="Product_Icon" overflow="hidden"><defs><linearGradient x1="90.53" y1="-15.53" x2="-15.54" y2="90.54" gradientUnits="userSpaceOnUse" id="BlueGradient" gradientTransform="matrix(-1 0 -0 -1 75 75)"><stop offset="0" stop-color="#2E27AD"/><stop offset="1" stop-color="#527FFF"/></linearGradient></defs><rect x="0" y="0" width="75" height="75" id="Blue_Gradient" fill="url(#BlueGradient)"/><g id="Icon_Test"><path d="M48.45 28.23C48.45 25.33 42.76 23.99 37.45 23.99 32.14 23.99 26.45 25.33 26.45 28.23 26.4456 28.375 26.4625 28.5199 26.5 28.66L26.5 46.71C26.45 49.71 32.15 50.99 37.5 50.99 42.85 50.99 48.5 49.67 48.5 46.77L48.5 28.23ZM37.47 26C43.3 26 46.47 27.59 46.47 28.24 46.47 28.89 43.32 30.48 37.47 30.48 31.62 30.48 28.47 28.9 28.47 28.24 28.47 27.58 31.64 26 37.47 26ZM46.47 46.78C46.47 47.42 43.31 49 37.47 49 31.63 49 28.47 47.42 28.47 46.78L28.47 43.62C30.58 44.77 34.12 45.32 37.47 45.32 40.82 45.32 44.33 44.78 46.47 43.65ZM46.47 41.09C46.47 41.73 43.32 43.33 37.47 43.33 31.62 43.33 28.47 41.73 28.47 41.09L28.5 41.09 28.5 37.27C30.61 38.41 34.15 38.96 37.5 38.96 40.85 38.96 44.36 38.42 46.5 37.29ZM46.47 34.72C46.47 35.37 43.32 36.97 37.47 36.97 31.62 36.97 28.47 35.37 28.47 34.72L28.5 34.72 28.5 30.82C30.63 31.95 34.13 32.47 37.5 32.47 40.87 32.47 44.41 31.93 46.5 30.78Z" fill="#FFFFFF"/><path d="M15.91 60.51 22.5 60.51 22.5 62.51 13.5 62.51C12.9477 62.51 12.5 62.0623 12.5 61.51L12.5 52.51 14.5 52.51 14.5 59.08 22 51.59 23.4 53Z" fill="#FFFFFF"/><path d="M62.5 52.51 62.5 61.51C62.5 62.0623 62.0523 62.51 61.5 62.51L52.5 62.51 52.5 60.51 59.09 60.51 51.7 53.1 53.11 51.7 60.5 59.08 60.5 52.51Z" fill="#FFFFFF"/><path d="M62.5 13.51 62.5 22.51 60.5 22.51 60.5 15.91 53.11 23.3 51.7 21.89 59.08 14.51 52.5 14.51 52.5 12.51 61.5 12.51C62.0523 12.51 62.5 12.9577 62.5 13.51Z" fill="#FFFFFF"/><path d="M23.4 22 22 23.4 14.5 15.91 14.5 22.49 12.5 22.49 12.5 13.49C12.5 12.9377 12.9477 12.49 13.5 12.49L22.5 12.49 22.5 14.49 15.91 14.49Z" fill="#FFFFFF"/><path d="M22.16 46.46C16.05 44.26 12.55 40.9 12.55 37.25 12.55 33.6 16.05 30.25 22.16 28.04L22.84 29.92C17.65 31.79 14.55 34.53 14.55 37.25 14.55 39.97 17.65 42.71 22.84 44.58Z" fill="#FFFFFF"/><path d="M52.28 46.68 51.64 44.78C57.19 42.91 60.5 40.09 60.5 37.25 60.5 34.41 57.19 31.59 51.64 29.71L52.28 27.82C58.77 30 62.5 33.46 62.5 37.25 62.5 41.04 58.77 44.48 52.28 46.68Z" fill="#FFFFFF"/></g></svg>