<svg width="75" height="75" viewBox="0 0 75 75" xmlns="http://www.w3.org/2000/svg" xmlns:xlink="http://www.w3.org/1999/xlink" id="Product_Icon" overflow="hidden"><defs><linearGradient x1="-15.54" y1="90.54" x2="90.53" y2="-15.53" gradientUnits="userSpaceOnUse" id="BlueGradient"><stop offset="0" stop-color="#2E27AD"/><stop offset="1" stop-color="#527FFF"/></linearGradient></defs><rect x="0" y="0" width="75" height="75" id="Blue_Gradient" fill="url(#BlueGradient)"/><g id="Icon_Test"><path d="M31.68 26.75C22.36 26.75 15.06 23.75 15.06 19.82 15.06 15.89 22.36 12.89 31.68 12.89 41 12.89 48.3 15.89 48.3 19.82 48.3 23.75 41 26.75 31.68 26.75ZM31.68 14.39C22.77 14.39 16.56 17.25 16.56 19.82 16.56 22.39 22.77 25.25 31.68 25.25 40.59 25.25 46.8 22.39 46.8 19.82 46.8 17.25 40.59 14.39 31.68 14.39Z" fill="#FFFFFF"/><rect x="46.8" y="19.82" width="1.5" height="11.83" fill="#FFFFFF"/><path d="M31.68 62.11C22.36 62.11 15.06 59.11 15.06 55.18L15.06 19.82 16.56 19.82 16.56 55.18C16.56 57.75 22.77 60.61 31.68 60.61 40.59 60.61 46.8 57.75 46.8 55.18L46.8 51.8 48.3 51.8 48.3 55.18C48.3 59.07 41 62.11 31.68 62.11Z" fill="#FFFFFF"/><path d="M31.72 39.12C22.42 39.12 15.14 36.12 15.14 32.18L16.64 32.18C16.64 34.75 22.83 37.62 31.72 37.62 33.1968 37.6184 34.6724 37.535 36.14 37.37L36.31 38.86C34.7861 39.0333 33.2537 39.1201 31.72 39.12Z" fill="#FFFFFF"/><path d="M31.72 51.27C22.42 51.27 15.14 48.22 15.14 44.33L16.64 44.33C16.64 46.9 22.83 49.77 31.72 49.77 33.1968 49.7668 34.6723 49.6833 36.14 49.52L36.3 51C34.7796 51.1752 33.2505 51.2654 31.72 51.27Z" fill="#FFFFFF"/><path d="M58.78 51.11 38.4 51.11C37.9913 51.1156 37.6556 50.7888 37.65 50.3801 37.6499 50.3734 37.6499 50.3667 37.65 50.36L37.65 30.82 39.15 30.82 39.15 49.61 58.78 49.61Z" fill="#FFFFFF"/><rect x="40.13" y="44.45" width="3.09" height="1.5" fill="#FFFFFF" transform="matrix(0.707107 -0.707107 0.707107 0.707107 -19.76 42.71)"/><path d="M45.48 42.46 44.42 41.4 46.46 39.35 51.55 39.35 58.25 32.66 59.31 33.72 52.18 40.85 47.08 40.85 45.48 42.46Z" fill="#FFFFFF"/><path d="M47.13 37.16 44.64 34.67 40.22 34.67 40.22 33.17 45.26 33.17 47.13 35.04 49.01 33.17 51.45 33.17 54.22 35.94 53.16 37 50.83 34.67 49.63 34.67 47.13 37.16Z" fill="#FFFFFF"/><rect x="56.39" y="37.61" width="1.5" height="4.63" fill="#FFFFFF" transform="matrix(0.707107 -0.707107 0.707107 0.707107 -11.49 52.1)"/><path d="M57.33 48.44 56.27 47.38 57.72 45.93 56.27 44.48 57.33 43.42 59.84 45.93 57.33 48.44Z" fill="#FFFFFF"/><path d="M47.5 47.72 40.05 40.27 41.11 39.21 47.5 45.6 50.41 42.69 52.9 45.18 58.78 45.18 58.78 46.68 52.28 46.68 50.41 44.81 47.5 47.72Z" fill="#FFFFFF"/><path d="M59.94 42.74 56.39 42.74 56.39 41.24 58.44 41.24 58.44 39.19 59.94 39.19 59.94 42.74Z" fill="#FFFFFF"/><path d="M59.94 35.32 58.44 35.32 58.44 33.27 56.39 33.27 56.39 31.77 59.94 31.77 59.94 35.32Z" fill="#FFFFFF"/></g></svg>