<svg width="75" height="75" viewBox="0 0 75 75" xmlns="http://www.w3.org/2000/svg" xmlns:xlink="http://www.w3.org/1999/xlink" id="Product_Icon" overflow="hidden"><defs><linearGradient x1="-37.5" y1="37.5" x2="112.5" y2="37.5" gradientUnits="userSpaceOnUse" id="BlueGradient" gradientTransform="matrix(0.707107 -0.707107 0.707107 0.707107 -15.53 37.5)"><stop offset="0" stop-color="#2E27AD"/><stop offset="1" stop-color="#527FFF"/></linearGradient></defs><rect x="0" y="0" width="75" height="75" id="Blue_Gradient" fill="url(#BlueGradient)"/><g id="Icon_Test"><path d="M28.56 27.56C19.71 27.56 13.04 24.76 13.04 21.05 13.04 17.34 19.71 14.54 28.56 14.54 37.41 14.54 44.09 17.34 44.09 21.05 44.09 24.76 37.41 27.56 28.56 27.56ZM28.56 16.06C20.31 16.06 14.56 18.69 14.56 21.06 14.56 23.43 20.31 26.06 28.56 26.06 36.81 26.06 42.56 23.43 42.56 21.06 42.56 18.69 36.82 16.06 28.56 16.06Z" fill="#FFFFFF"/><rect x="42.57" y="21.05" width="1.52" height="11.09" fill="#FFFFFF"/><path d="M28.56 60.46C19.71 60.46 13 57.66 13 54L13 21.05 14.52 21.05 14.52 54C14.52 56.36 20.27 59 28.52 59 36.77 59 42.52 56.37 42.52 54L42.52 47 44.04 47 44.04 54C44.09 57.66 37.41 60.46 28.56 60.46Z" fill="#FFFFFF"/><path d="M22.13 38.5C16.48 37.44 13.13 35.22 13.13 32.5L14.65 32.5C14.65 34.3 17.78 36.08 22.42 36.95Z" fill="#FFFFFF"/><path d="M28.6 50.37C19.77 50.37 13.11 47.57 13.11 43.86L14.63 43.86C14.63 46.22 20.37 48.86 28.63 48.86 35.25 48.86 38.74 47.3 38.78 47.29L39.41 48.67C39.23 48.73 35.58 50.37 28.6 50.37Z" fill="#FFFFFF"/><path d="M31.77 43 28.39 43C27.4108 42.9945 26.62 42.1992 26.62 41.22L26.62 37.81C26.6034 36.8271 27.3868 36.0168 28.3697 36.0002 28.3765 36.0001 28.3832 36 28.39 36L31.77 36C32.7531 36 33.55 36.7969 33.55 37.78L33.55 41.15C33.5887 42.1323 32.8237 42.96 31.8414 42.9986 31.8176 42.9996 31.7938 43 31.77 43ZM28.39 37.59C28.2503 37.5954 28.1399 37.7102 28.14 37.85L28.14 41.22C28.14 41.3581 28.2519 41.47 28.39 41.47L31.77 41.47C31.9081 41.47 32.02 41.3581 32.02 41.22L32.02 37.81C32.0201 37.6702 31.9097 37.5554 31.77 37.55Z" fill="#FFFFFF"/><path d="M44.67 43 41.29 43C40.3108 42.9945 39.52 42.1992 39.52 41.22L39.52 37.81C39.5034 36.8271 40.2868 36.0168 41.2697 36.0002 41.2765 36.0001 41.2832 36 41.29 36L44.67 36C45.6492 36.0055 46.44 36.8008 46.44 37.78L46.44 41.15C46.4787 42.1323 45.7137 42.96 44.7314 42.9986 44.7109 42.9995 44.6905 42.9999 44.67 43ZM41.29 37.59C41.1503 37.5954 41.0399 37.7102 41.04 37.85L41.04 41.22C41.04 41.3581 41.1519 41.47 41.29 41.47L44.67 41.47C44.8081 41.47 44.92 41.3581 44.92 41.22L44.92 37.81C44.9201 37.6702 44.8097 37.5554 44.67 37.55Z" fill="#FFFFFF"/><path d="M57.56 43 54.19 43C53.2069 43 52.41 42.2031 52.41 41.22L52.41 37.81C52.3934 36.8271 53.1768 36.0168 54.1597 36.0003 54.1698 36.0001 54.1799 36 54.19 36L57.56 36C58.5431 36 59.34 36.7969 59.34 37.78L59.34 41.15C59.3787 42.1323 58.6137 42.96 57.6314 42.9986 57.6076 42.9996 57.5838 43 57.56 43ZM54.19 37.59C54.0464 37.59 53.93 37.7064 53.93 37.85L53.93 41.22C53.9354 41.3597 54.0502 41.4701 54.19 41.47L57.56 41.47C57.6998 41.4701 57.8146 41.3597 57.82 41.22L57.82 37.81C57.82 37.6664 57.7036 37.55 57.56 37.55Z" fill="#FFFFFF"/><path d="M60.43 45.56 51.36 45.56C50.5095 45.5546 49.8245 44.8607 49.8299 44.0102 49.8299 44.0068 49.83 44.0034 49.83 44L49.83 41.6 49.06 41.6 49.06 44C49.06 44.845 48.375 45.53 47.53 45.53L38.46 45.53C37.6173 45.5245 36.9355 44.8427 36.93 44L36.93 41.62 36.12 41.62 36.12 44C36.1145 44.8427 35.4327 45.5245 34.59 45.53L25.52 45.53C24.6812 45.5191 24.0054 44.8389 24 44L24 35C24.0055 34.1573 24.6873 33.4755 25.53 33.47L34.6 33.47C35.4388 33.4809 36.1146 34.1611 36.12 35L36.12 38 36.93 38 36.93 35C36.9355 34.1573 37.6173 33.4755 38.46 33.47L47.53 33.47C48.375 33.47 49.06 34.155 49.06 35L49.06 38 49.83 38 49.83 35C49.8355 34.1573 50.5173 33.4755 51.36 33.47L60.43 33.47C61.2747 33.4479 61.9774 34.1148 61.9995 34.9595 61.9998 34.973 62 34.9865 62 35L62 44C62.0169 44.8448 61.3457 45.5434 60.5008 45.5602 60.4772 45.5607 60.4536 45.5606 60.43 45.56ZM51.36 40.11 51.36 44 60.44 44 60.44 35 51.36 35 51.36 39.52 47.54 39.52 47.54 35 38.46 35 38.46 39.52 34.6 39.52 34.6 35 25.52 35 25.52 44 34.6 44 34.6 40.11 38.46 40.11 38.46 44.11 47.53 44.11 47.53 40.12Z" fill="#FFFFFF"/></g></svg>