<svg width="75" height="75" viewBox="0 0 75 75" xmlns="http://www.w3.org/2000/svg" xmlns:xlink="http://www.w3.org/1999/xlink" id="Product_Icon" overflow="hidden"><defs><linearGradient x1="90.53" y1="90.53" x2="-15.53" y2="-15.53" gradientUnits="userSpaceOnUse" id="BlueGradient" gradientTransform="matrix(0 1 -1 0 75 0)"><stop offset="0" stop-color="#2E27AD"/><stop offset="1" stop-color="#527FFF"/></linearGradient></defs><rect x="0" y="0" width="75" height="75" id="Blue_Gradient" fill="url(#BlueGradient)"/><g id="Icon_Test"><path d="M51.9 17.5C51.6 13.6 44.33 11.5 37.47 11.5 30.61 11.5 23.33 13.6 23 17.5L23 17.5 23 47.5C23 51.55 30.47 53.74 37.5 53.74 44.53 53.74 52 51.56 52 47.51L52 17.51ZM37.47 13.5C45.19 13.5 49.93 15.97 49.93 17.75 49.93 19.53 45.19 22 37.47 22 29.75 22 25 19.52 25 17.75 25 15.98 29.74 13.5 37.47 13.5ZM37.47 51.75C29.74 51.75 25 49.28 25 47.51L25 41.74C27.67 43.74 32.71 44.74 37.53 44.74 42.35 44.74 47.31 43.74 50 41.74L50 47.47C49.93 49.28 45.19 51.75 37.47 51.75ZM37.53 42.75C29.81 42.75 25.07 40.27 25.07 38.5L25 38.5 25 31.74C27.67 33.74 32.71 34.74 37.53 34.74 42.35 34.74 47.31 33.74 50 31.74L50 38.5C50 40.27 45.26 42.75 37.53 42.75ZM37.53 32.75C29.81 32.75 25.07 30.27 25.07 28.5L25 28.5 25 21C27.69 22.94 32.68 24 37.47 24 42.26 24 47.33 23 50 21L50 28.5C50 30.27 45.26 32.75 37.53 32.75Z" fill="#FFFFFF"/><rect x="24" y="55.5" width="2" height="6" fill="#FFFFFF"/><rect x="49" y="55.5" width="2" height="6" fill="#FFFFFF"/><rect x="32" y="57.5" width="2" height="6" fill="#FFFFFF"/><rect x="41" y="57.5" width="2" height="6" fill="#FFFFFF"/></g></svg>