<svg width="75" height="75" viewBox="0 0 75 75" xmlns="http://www.w3.org/2000/svg" xmlns:xlink="http://www.w3.org/1999/xlink" id="Product_Icon" overflow="hidden"><defs><linearGradient x1="-15.54" y1="-15.53" x2="90.53" y2="90.54" gradientUnits="userSpaceOnUse" id="GreenGradient" gradientTransform="matrix(0 -1 1 0 0 75)"><stop offset="0" stop-color="#1B660F"/><stop offset="1" stop-color="#6CAE3E"/></linearGradient></defs><rect x="0" y="0" width="75" height="75" id="Green_Gradient" fill="url(#GreenGradient)"/><g id="Icon_Test"><path d="M36.07 12.5C25.39 12.5 13.5 15.76 13.5 20.43 13.495 20.4732 13.495 20.5168 13.5 20.56L13.56 21C13.5552 21.0432 13.5552 21.0868 13.56 21.13L18.36 56.87C18.49 60.97 29.25 62.5 36.04 62.5 38.367 62.501 40.6917 62.354 43 62.06L42.74 60.06C40.5344 60.3402 38.3133 60.4805 36.09 60.48 26.52 60.48 20.41 58.04 20.41 56.77 20.415 56.7268 20.415 56.6832 20.41 56.64L16 23.8C16.42 24.0542 16.8541 24.2846 17.3 24.49 17.5012 24.592 17.7083 24.6821 17.92 24.76 18.13 24.85 18.34 24.94 18.57 25.02 18.8 25.1 19.35 25.31 19.77 25.44 20.19 25.57 20.52 25.67 20.92 25.78 21.32 25.89 21.71 26 22.12 26.09L22.64 26.21C24.9735 26.7282 27.3386 27.0924 29.72 27.3 30.25 27.35 30.8 27.4 31.34 27.43 32.93 27.54 34.54 27.6 36.11 27.6 37.68 27.6 39.29 27.54 40.88 27.43 41.44 27.43 42 27.35 42.55 27.3 44.55 27.11 46.44 26.85 48.23 26.5L49.08 26.32 49.65 26.2 50.09 26.09C50.71 25.95 51.31 25.79 51.88 25.61L52.44 25.44C52.86 25.3067 53.26 25.1667 53.64 25.02 53.87 24.94 54.08 24.85 54.29 24.76 54.5017 24.6821 54.7088 24.592 54.91 24.49 55.3559 24.2846 55.79 24.0542 56.21 23.8L54.06 39.46 55.17 39.79 56 40 56.29 37.78C55.95 37.57 55.58 37.36 55.16 37.13L55 37.06 56 35.32 56.13 35.39 56.59 35.65 58.54 21.13 58.54 21.13C58.5353 21.0968 58.5353 21.0632 58.54 21.03L58.54 20.59C58.545 20.5468 58.545 20.5032 58.54 20.46 58.63 15.76 46.74 12.5 36.07 12.5ZM55.53 21.85C54.9017 22.2551 54.231 22.5904 53.53 22.85 53.3377 22.9403 53.1407 23.0204 52.94 23.09 52.61 23.22 52.26 23.34 51.88 23.46L51.26 23.65C50.63 23.85 49.94 24.03 49.26 24.2L48.5 24.37 47.15 24.63C46.45 24.76 45.72 24.87 44.95 24.98 44.5367 25.04 44.1167 25.09 43.69 25.13 43.14 25.2 42.57 25.26 41.99 25.3 41.41 25.34 41.07 25.38 40.6 25.41 39.18 25.5 37.69 25.55 36.13 25.55 34.57 25.55 33.13 25.5 31.66 25.41 31.19 25.41 30.72 25.35 30.27 25.3 29.82 25.25 29.12 25.2 28.57 25.13 28.02 25.06 27.72 25.04 27.31 24.98 25.73 24.76 24.31 24.5 23 24.2L21.59 23.84C21.14 23.72 20.72 23.59 20.32 23.46L19.73 23.26C19.35 23.13 19 22.99 18.67 22.85 17.877 22.5457 17.1273 22.1389 16.44 21.64 16.2575 21.5011 16.0899 21.3436 15.94 21.17 15.8801 21.1089 15.8265 21.0419 15.78 20.97 15.7349 20.9065 15.6948 20.8397 15.66 20.77 15.6357 20.7218 15.6157 20.6716 15.6 20.62L15.6 20.62 15.6 20.62 15.6 20.38C15.74 18.28 24.18 14.5 36.17 14.5 48.16 14.5 56.59 18.28 56.73 20.38L56.73 20.62 56.73 20.62 56.73 20.62C56.7143 20.6716 56.6943 20.7218 56.67 20.77 56.6352 20.8397 56.5951 20.9065 56.55 20.97 56.5035 21.0419 56.4499 21.1089 56.39 21.17 56.1433 21.443 55.8526 21.6729 55.53 21.85Z" fill="#FFFFFF"/><path d="M15.54 20.63C15.5522 20.6955 15.5724 20.7593 15.6 20.82 15.5757 20.7718 15.5557 20.7216 15.54 20.67Z" fill="#FFFFFF"/><path d="M16.38 21.69C17.0697 22.1852 17.8189 22.5917 18.61 22.9 17.817 22.5957 17.0673 22.1889 16.38 21.69Z" fill="#FFFFFF"/><path d="M49.2 24.25C49.93 24.08 50.62 23.89 51.2 23.7 50.62 23.9 49.93 24.08 49.2 24.25Z" fill="#FFFFFF"/><path d="M55.53 21.85C54.9017 22.2551 54.231 22.5904 53.53 22.85 54.2293 22.5864 54.8996 22.2513 55.53 21.85Z" fill="#FFFFFF"/><path d="M55.17 39.79 56 40 55.73 42 55.65 42.57 53.65 42.31 53.76 41.46 54.03 39.46Z" fill="#FFFFFF"/><path d="M56.13 35.39 56.59 35.65 56.3 37.79C55.96 37.58 55.59 37.37 55.17 37.14L55 37.06 56 35.32Z" fill="#FFFFFF"/><path d="M56.59 20.63 56.59 20.63C56.5743 20.6816 56.5543 20.7318 56.53 20.78 56.5549 20.7321 56.575 20.6819 56.59 20.63Z" fill="#FFFFFF"/><path d="M61 41.63C60.4085 42.2359 59.5722 42.538 58.73 42.45 57.7164 42.4194 56.7097 42.2718 55.73 42.01L54.62 41.71 53.78 41.47C48.2026 39.5989 42.7514 37.3709 37.46 34.8L36.76 34.47 37.62 32.67 38.32 33C43.4348 35.4617 48.6906 37.6188 54.06 39.46L55.17 39.79 56 40C58.45 40.61 59.24 40.44 59.45 40.35 59.35 40.11 58.87 39.35 56.29 37.78 55.95 37.57 55.58 37.36 55.16 37.13L55 37.06 56 35.32 56.13 35.39 56.59 35.65C59.71 37.41 61.2 38.78 61.45 40.06 61.5455 40.6245 61.38 41.2018 61 41.63Z" fill="#FFFFFF"/><path d="M36.07 35.28C34.8274 35.2799 33.8201 34.2724 33.8202 33.0298 33.8203 31.7872 34.8278 30.7799 36.0704 30.78 37.3013 30.7801 38.3036 31.7692 38.32 33 38.3366 34.2425 37.3427 35.2632 36.1002 35.2798 36.0901 35.2799 36.0801 35.28 36.07 35.28ZM36.07 32.78C35.9319 32.78 35.82 32.8919 35.82 33.03 35.82 33.3 36.32 33.3 36.32 33.03 36.32 32.8919 36.2081 32.78 36.07 32.78Z" fill="#FFFFFF"/><path d="M57.67 54.24 53.7 54.24 55.65 57.62 59 58.56 58.46 60.49 55.74 59.72 55 62.5 53.07 61.98 53.95 58.67 51.97 55.24 51.97 55.24 50.02 58.62 50.88 61.99 48.94 62.49 48.24 59.75 45.47 60.49 44.95 58.56 48.26 57.67 50.24 54.24 46.33 54.24 43.84 56.67 42.45 55.24 44.47 53.27 42.44 51.23 43.85 49.82 46.27 52.24 50.24 52.24 48.29 48.86 44.94 47.92 45.48 45.99 48.2 46.76 48.94 43.98 50.87 44.5 49.99 47.81 51.97 51.24 53.92 47.86 53.06 44.49 55 43.99 55.7 46.73 58.47 45.99 58.99 47.92 55.68 48.81 53.7 52.24 57.61 52.24 60.1 49.81 61.49 51.24 59.47 53.21 61.5 55.25 60.09 56.66 57.67 54.24Z" fill="#FFFFFF"/></g></svg>