<svg width="75" height="75" viewBox="0 0 75 75" xmlns="http://www.w3.org/2000/svg" xmlns:xlink="http://www.w3.org/1999/xlink" id="Product_Icon" overflow="hidden"><defs><linearGradient x1="90.53" y1="-15.53" x2="-15.54" y2="90.54" gradientUnits="userSpaceOnUse" id="GreenGradient" gradientTransform="matrix(-1 0 -0 -1 75 75)"><stop offset="0" stop-color="#1B660F"/><stop offset="1" stop-color="#6CAE3E"/></linearGradient></defs><rect x="0" y="0" width="75" height="75" id="Green_Gradient" fill="url(#GreenGradient)"/><g id="Icon_Test"><path d="M61.82 45.92 60.4 45.92C60.4 41.92 58.13 37.92 53.06 37.92 47.65 37.92 45.72 42.06 45.72 45.92L44.3 45.92C44.3 41.57 46.6 36.49 53.06 36.49 59.08 36.49 61.82 41.38 61.82 45.92Z" fill="#FFFFFF"/><path d="M53.06 46 47 46 47 45.29C47.0839 41.9714 49.7515 39.2994 53.07 39.21 53.7871 39.2102 54.4983 39.3389 55.17 39.59L54.68 40.92C54.165 40.7277 53.6197 40.6295 53.07 40.63 50.8079 40.7197 48.9059 42.3565 48.48 44.58L53.07 44.58Z" fill="#FFFFFF"/><path d="M59.46 37.46 52.55 44.83 53.58 45.67 59.46 37.46Z" fill="#FFFFFF"/><path d="M53.71 46.7 51.51 44.9 58.95 36.97 60.04 37.87 53.71 46.7Z" fill="#FFFFFF"/><path d="M53.06 46.63C52.2978 46.63 51.68 46.0122 51.68 45.25 51.68 44.4878 52.2978 43.87 53.06 43.87 53.8222 43.87 54.44 44.4878 54.44 45.25 54.44 46.0122 53.8222 46.63 53.06 46.63ZM53.06 45.21 53.06 45.21 53.06 45.21Z" fill="#FFFFFF"/><path d="M13.18 45.69 13.18 28.69 22.71 28.69 22.71 30 14.62 30 14.62 36.5 21.46 36.5 21.46 37.8 14.62 37.8 14.62 45.69Z" fill="#FFFFFF"/><path d="M27.41 37.12C26.3591 36.7636 25.4091 36.16 24.64 35.36 24.0423 34.6633 23.7282 33.7674 23.76 32.85 23.721 31.5884 24.2583 30.3776 25.22 29.56 26.2983 28.6833 27.6618 28.2347 29.05 28.3 29.8134 28.3029 30.5743 28.3867 31.32 28.55 32.0884 28.7207 32.8385 28.9652 33.56 29.28L33.56 30.53C32.1437 29.9869 30.6461 29.6861 29.13 29.64 28.0981 29.5744 27.0748 29.8637 26.23 30.46 25.5476 31.0396 25.1773 31.9062 25.23 32.8 25.2061 33.2828 25.3132 33.7631 25.54 34.19 25.7819 34.6037 26.1263 34.9481 26.54 35.19 27.1754 35.5606 27.8452 35.8687 28.54 36.11L31.16 37.11C32.1479 37.4376 33.0335 38.0166 33.73 38.79 34.285 39.4948 34.572 40.3735 34.54 41.27 34.5806 42.6328 33.9857 43.9372 32.93 44.8 31.7323 45.7445 30.2335 46.224 28.71 46.15 27.0387 46.1858 25.3808 45.844 23.86 45.15L23.86 43.83C25.371 44.4112 26.9714 44.7258 28.59 44.76 29.7527 44.8076 30.8964 44.4546 31.83 43.76 32.6335 43.1463 33.0885 42.1803 33.05 41.17 33.0584 40.5314 32.8181 39.9146 32.38 39.45 31.773 38.8739 31.0454 38.4401 30.25 38.18Z" fill="#FFFFFF"/><path d="M40.74 35.99 37.85 31.86 35.79 31.86 39.7 37.38 40.74 35.99Z" fill="#FFFFFF"/><path d="M44.08 40.64 42.53 38.43 47.23 31.86 45.29 31.86 41.57 37.17 40.57 38.55 43.4 42.61C43.5512 41.9297 43.7794 41.2688 44.08 40.64Z" fill="#FFFFFF"/><path d="M40.62 40.98 37.33 45.78 35.35 45.78 39.73 39.72 40.62 40.98Z" fill="#FFFFFF"/></g></svg>