<svg width="75" height="75" viewBox="0 0 75 75" xmlns="http://www.w3.org/2000/svg" xmlns:xlink="http://www.w3.org/1999/xlink" id="Product_Icon" overflow="hidden"><defs><linearGradient x1="37.5" y1="112.5" x2="37.5" y2="-37.5" gradientUnits="userSpaceOnUse" id="GreenGradient" gradientTransform="matrix(0.707107 0.707107 -0.707107 0.707107 37.5 -15.53)"><stop offset="0" stop-color="#1B660F"/><stop offset="1" stop-color="#6CAE3E"/></linearGradient></defs><rect x="0" y="0" width="75" height="75" id="Green_Gradient" fill="url(#GreenGradient)"/><g id="Icon_Test"><path d="M14.5 15.91 21.79 23.21 23.21 21.79 15.91 14.5 21.5 14.5 21.5 12.5 13.5 12.5C12.9477 12.5 12.5 12.9477 12.5 13.5L12.5 21.5 14.5 21.5Z" fill="#FFFFFF"/><path d="M61.5 12.5 53.5 12.5 53.5 14.5 59.09 14.5 51.79 21.79 53.21 23.21 60.5 15.91 60.5 21.5 62.5 21.5 62.5 13.5C62.5 12.9477 62.0523 12.5 61.5 12.5Z" fill="#FFFFFF"/><path d="M21.79 51.79 14.5 59.09 14.5 53.5 12.5 53.5 12.5 61.5C12.5 62.0523 12.9477 62.5 13.5 62.5L21.5 62.5 21.5 60.5 15.91 60.5 23.21 53.21Z" fill="#FFFFFF"/><path d="M60.5 59.09 53.21 51.79 51.79 53.21 59.09 60.5 53.5 60.5 53.5 62.5 61.5 62.5C62.0523 62.5 62.5 62.0523 62.5 61.5L62.5 53.5 60.5 53.5Z" fill="#FFFFFF"/><path d="M29.6 23.24C33.2238 21.6321 37.4667 22.4678 40.21 25.33 41.4029 26.5421 42.3056 28.0088 42.85 29.62 43.038 30.1393 43.6114 30.4079 44.1307 30.2199 44.3136 30.1537 44.4732 30.0356 44.59 29.88 45.2058 29.0207 46.193 28.5048 47.25 28.49 48.79 28.49 50.65 29.67 50.84 32.99 50.8673 33.4426 51.1956 33.8201 51.64 33.91 55.53 34.73 57.5 36.91 57.5 40.31 57.5 43.53 56.09 45.44 53.18 46.15L53.65 48.09C57.42 47.18 59.5 44.41 59.5 40.31 59.5 36.21 57.12 33.31 52.77 32.12 52.26 28.24 49.69 26.49 47.25 26.49 46.1358 26.4799 45.0483 26.8307 44.15 27.49 43.5233 26.1456 42.6672 24.9206 41.62 23.87 38.299 20.4455 33.2018 19.4412 28.83 21.35 24.7832 23.2534 22.1586 27.2793 22.05 31.75 22.05 31.93 22.05 32.11 22.05 32.3 18.6251 33.3892 16.3469 36.6286 16.48 40.22 16.48 40.41 16.48 40.6 16.48 40.79 16.6949 44.1614 18.934 47.0651 22.14 48.13L22.8 46.24C20.3581 45.4427 18.6449 43.2428 18.47 40.68 18.47 40.53 18.47 40.38 18.47 40.22 18.3099 37.207 20.4122 34.5439 23.38 34 23.8332 33.8832 24.1448 33.4678 24.13 33 24.0815 32.6118 24.0547 32.2212 24.05 31.83 24.1454 28.1533 26.2873 24.838 29.6 23.24Z" fill="#FFFFFF"/><path d="M53.45 42.82C53.5506 42.5149 53.4985 42.1801 53.31 41.92 53.1233 41.6578 52.8219 41.5015 52.5 41.5L49.5 41.5C49.394 40.6385 48.9992 39.8383 48.38 39.23 47.897 38.7444 47.2346 38.4802 46.55 38.5L36.27 38.5C36.01 37.69 35.51 36.67 34.74 36.5L34.55 36.5 30.55 36.5C29.66 36.5 29.07 37.62 28.77 38.5L27.56 38.5C26.8577 38.4692 26.1738 38.7297 25.67 39.22 24.923 39.9523 24.5014 40.9539 24.5 42L24.5 54.5C24.5 55.0523 24.9477 55.5 25.5 55.5L48.5 55.5C48.9289 55.4954 49.3071 55.2178 49.44 54.81L49.44 54.81ZM51.11 43.5 49.5 48.34 49.5 43.5ZM47.5 53.5 26.5 53.5 26.5 42C26.4894 41.5148 26.6688 41.0447 27 40.69 27.117 40.5608 27.2859 40.491 27.46 40.5L29.46 40.5C29.9897 40.501 30.4282 40.0887 30.46 39.56 30.5588 39.1902 30.7032 38.8341 30.89 38.5L34.1 38.5C34.2596 38.821 34.3901 39.1557 34.49 39.5 34.49 40.0523 34.9377 40.5 35.49 40.5L46.57 40.5C46.7208 40.506 46.8623 40.5749 46.96 40.69 47.304 41.0395 47.4977 41.5096 47.5 42Z" fill="#FFFFFF"/></g></svg>