<svg width="75" height="75" viewBox="0 0 75 75" xmlns="http://www.w3.org/2000/svg" xmlns:xlink="http://www.w3.org/1999/xlink" id="Product_Icon" overflow="hidden"><defs><linearGradient x1="-15.53" y1="-15.53" x2="90.53" y2="90.53" gradientUnits="userSpaceOnUse" id="GreenGradient" gradientTransform="matrix(0 -1 1 0 0 75)"><stop offset="0" stop-color="#1B660F"/><stop offset="1" stop-color="#6CAE3E"/></linearGradient></defs><rect x="0" y="0" width="75" height="75" id="Green_Gradient" fill="url(#GreenGradient)"/><g id="Icon_Test"><path d="M12.91 49.6 12.91 25.4 26.48 25.4 26.48 27.25 15 27.25 15 36.51 24.7 36.51 24.7 38.36 15 38.36 15 49.6Z" fill="#FFFFFF"/><path d="M33.19 37.38C31.693 36.8732 30.3387 36.0161 29.24 34.88 28.3997 33.8802 27.9581 32.6054 28 31.3 27.9422 29.5035 28.7038 27.778 30.07 26.61 31.6099 25.3577 33.5574 24.7169 35.54 24.81 36.6269 24.8159 37.7099 24.94 38.77 25.18 39.8644 25.4047 40.9332 25.7397 41.96 26.18L41.96 28C39.9392 27.2277 37.8025 26.8017 35.64 26.74 34.1729 26.6436 32.7175 27.0569 31.52 27.91 30.5482 28.7348 30.0189 29.9673 30.09 31.24 30.0569 31.9339 30.2087 32.6241 30.53 33.24 30.9035 33.7972 31.4083 34.2539 32 34.57 32.9055 35.0909 33.856 35.5293 34.84 35.88L38.58 37.31C39.9845 37.7802 41.2447 38.6031 42.24 39.7 43.0335 40.7055 43.4446 41.9599 43.4 43.24 43.4473 45.1704 42.6025 47.0149 41.11 48.24 39.4066 49.5819 37.276 50.2637 35.11 50.16 32.7247 50.2038 30.361 49.7009 28.2 48.69L28.2 46.94C30.3488 47.7717 32.6263 48.2218 34.93 48.27 36.5832 48.357 38.2165 47.8773 39.56 46.91 40.6994 46.0276 41.3435 44.6501 41.29 43.21 41.3068 42.3004 40.9656 41.4206 40.34 40.76 39.486 39.9424 38.4615 39.3242 37.34 38.95Z" fill="#FFFFFF"/><path d="M52.18 35.78 48.06 29.89 45.13 29.89 50.71 37.75 52.18 35.78Z" fill="#FFFFFF"/><path d="M59.13 49.73 62.09 49.73 54.73 39.24 61.44 29.89 58.66 29.89 53.36 37.46 51.94 39.43 59.13 49.73Z" fill="#FFFFFF"/><path d="M52.01 42.88 47.32 49.73 44.51 49.73 50.74 41.09 52.01 42.88Z" fill="#FFFFFF"/></g></svg>