<svg width="75" height="75" viewBox="0 0 75 75" xmlns="http://www.w3.org/2000/svg" xmlns:xlink="http://www.w3.org/1999/xlink" id="Product_Icon" overflow="hidden"><defs><linearGradient x1="37.5" y1="112.5" x2="37.5" y2="-37.5" gradientUnits="userSpaceOnUse" id="GreenGradient" gradientTransform="matrix(0.707107 0.707107 -0.707107 0.707107 37.5 -15.53)"><stop offset="0" stop-color="#1B660F"/><stop offset="1" stop-color="#6CAE3E"/></linearGradient></defs><rect x="0" y="0" width="75" height="75" id="Green_Gradient" fill="url(#GreenGradient)"/><g id="Icon_Test"><path d="M50 47.67C49.5017 47.6682 49.0241 47.4706 48.67 47.12 48.3156 46.7684 48.1174 46.2892 48.12 45.79L48.12 44.33 62 44.33 62 45.15C62.0055 46.5362 60.8862 47.6645 59.5 47.67 59.4967 47.67 59.4933 47.67 59.49 47.67ZM49.54 45.75 49.54 45.75C49.5421 45.8691 49.5885 45.9832 49.67 46.07 49.7572 46.1584 49.8758 46.2088 50 46.21L59.49 46.21C59.7806 46.2081 60.0582 46.0891 60.26 45.88 60.312 45.8279 60.3589 45.771 60.4 45.71Z" fill="#FFFFFF"/><path d="M50.2 45.04 50.19 37.51 59.91 37.5 59.92 45.03 61.34 45.03 61.33 36.08 48.77 36.09 48.78 45.04 50.2 45.04Z" fill="#FFFFFF"/><path d="M13 46.52 14.59 46.52 14.59 37.82 22.13 37.82 22.13 36.38 14.59 36.38 14.59 29.22 23.51 29.22 23.51 27.79 13 27.79 13 46.52Z" fill="#FFFFFF"/><path d="M32.83 37 29.94 35.9C29.1791 35.631 28.443 35.2964 27.74 34.9 27.2907 34.6404 26.9101 34.2769 26.63 33.84 26.3862 33.368 26.269 32.8408 26.29 32.31 26.2365 31.3238 26.6471 30.3693 27.4 29.73 28.3301 29.076 29.4553 28.7586 30.59 28.83 32.2646 28.8862 33.9178 29.2243 35.48 29.83L35.48 28.41C34.6818 28.0644 33.851 27.7997 33 27.62 32.1794 27.4343 31.3413 27.3371 30.5 27.33 28.9674 27.2602 27.4625 27.7548 26.27 28.72 25.2078 29.6254 24.6153 30.965 24.66 32.36 24.6369 33.3756 24.9934 34.3634 25.66 35.13 26.5052 36.0111 27.5519 36.6734 28.71 37.06L31.84 38.28C32.7208 38.5658 33.527 39.044 34.2 39.68 34.6767 40.1924 34.935 40.8703 34.92 41.57 34.9638 42.6849 34.469 43.7528 33.59 44.44 32.5473 45.1874 31.2812 45.5577 30 45.49 28.215 45.4635 26.4484 45.1251 24.78 44.49L24.78 45.87C26.454 46.6493 28.2839 47.0358 30.13 47 31.812 47.08 33.4664 46.551 34.79 45.51 35.9515 44.5581 36.6054 43.121 36.56 41.62 36.5992 40.6298 36.2835 39.6582 35.67 38.88 34.9029 38.0171 33.924 37.3691 32.83 37Z" fill="#FFFFFF"/><path d="M43.4 35.82 40.21 31.26 37.95 31.26 42.26 37.35 43.4 35.82Z" fill="#FFFFFF"/><path d="M37.46 46.62 39.64 46.62 43.27 41.32 42.29 39.93 37.46 46.62Z" fill="#FFFFFF"/><path d="M47.2 41.11 45.37 38.51 50.56 31.26 48.42 31.26 44.31 37.12 43.22 38.65 47.2 44.35 47.2 41.45 47.2 41.11Z" fill="#FFFFFF"/></g></svg>