<svg width="75" height="75" viewBox="0 0 75 75" xmlns="http://www.w3.org/2000/svg" xmlns:xlink="http://www.w3.org/1999/xlink" id="Product_Icon" overflow="hidden"><defs><linearGradient x1="90.53" y1="90.53" x2="-15.53" y2="-15.53" gradientUnits="userSpaceOnUse" id="GreenGradient" gradientTransform="matrix(0 1 -1 0 75 0)"><stop offset="0" stop-color="#1B660F"/><stop offset="1" stop-color="#6CAE3E"/></linearGradient></defs><rect x="0" y="0" width="75" height="75" id="Green_Gradient" fill="url(#GreenGradient)"/><g id="Icon_Test"><path d="M49.47 25.89C49.4496 25.758 49.4195 25.6276 49.38 25.5 48.49 22.78 42.96 21.37 37.5 21.37 32.04 21.37 26.5 22.78 25.62 25.5 25.5805 25.6276 25.5505 25.758 25.53 25.89 25.5201 26.0165 25.5201 26.1435 25.53 26.27L25.53 48.6C25.53 51.82 31.53 53.5 37.53 53.5 43.53 53.5 49.53 51.82 49.53 48.6L49.53 26.27C49.5201 26.1419 49.5 26.0149 49.47 25.89ZM37.47 23.37C43.19 23.37 46.61 24.87 47.33 25.89 46.59 26.89 43.17 28.4 37.47 28.4 31.77 28.4 28.35 26.92 27.61 25.89 28.36 24.87 31.78 23.37 37.5 23.37ZM47.47 48.6C47.47 49.6 43.94 51.5 37.47 51.5 31 51.5 27.47 49.58 27.47 48.6L27.47 28.34C29.74 29.7 33.62 30.4 37.47 30.4 41.32 30.4 45.2 29.7 47.47 28.34Z" fill="#FFFFFF"/><path d="M25.62 25.5C25.5805 25.6276 25.5505 25.758 25.53 25.89 25.5201 25.7602 25.5201 25.6298 25.53 25.5Z" fill="#FFFFFF"/><path d="M49.5 25.5C49.5099 25.6298 49.5099 25.7602 49.5 25.89 49.4795 25.758 49.4495 25.6276 49.41 25.5Z" fill="#FFFFFF"/><path d="M23.21 21.79 21.79 23.21 14.5 15.92 14.5 21.5 12.5 21.5 12.5 13.5C12.5 12.9477 12.9477 12.5 13.5 12.5L21.5 12.5 21.5 14.5 15.92 14.5Z" fill="#FFFFFF"/><path d="M62.5 13.5 62.5 21.5 60.5 21.5 60.5 15.92 53.21 23.21 51.79 21.79 59.08 14.5 53.5 14.5 53.5 12.5 61.5 12.5C62.0523 12.5 62.5 12.9477 62.5 13.5Z" fill="#FFFFFF"/><path d="M15.92 60.5 21.5 60.5 21.5 62.5 13.5 62.5C12.9477 62.5 12.5 62.0523 12.5 61.5L12.5 53.5 14.5 53.5 14.5 59.08 21.79 51.79 23.21 53.21Z" fill="#FFFFFF"/><path d="M62.5 53.5 62.5 61.5C62.5 62.0523 62.0523 62.5 61.5 62.5L53.5 62.5 53.5 60.5 59.08 60.5 51.79 53.21 53.21 51.79 60.5 59.08 60.5 53.5Z" fill="#FFFFFF"/></g></svg>