<svg width="75" height="75" viewBox="0 0 75 75" xmlns="http://www.w3.org/2000/svg" xmlns:xlink="http://www.w3.org/1999/xlink" id="Product_Icon" overflow="hidden"><defs><linearGradient x1="-15.54" y1="90.54" x2="90.53" y2="-15.53" gradientUnits="userSpaceOnUse" id="GreenGradient"><stop offset="0" stop-color="#1B660F"/><stop offset="1" stop-color="#6CAE3E"/></linearGradient></defs><rect x="0" y="0" width="75" height="75" id="Green_Gradient" fill="url(#GreenGradient)"/><g id="Icon_Test"><rect x="19.75" y="34.76" width="1.98" height="20.72" fill="#FFFFFF" transform="matrix(0.955793 -0.29404 0.29404 0.955793 -12.35 8.1)"/><rect x="17.54" y="23.56" width="18.59" height="1.98" fill="#FFFFFF" transform="matrix(0.82 -0.57 0.57 0.82 -9.23 19.83)"/><rect x="47.17" y="15.25" width="1.98" height="18.59" fill="#FFFFFF" transform="matrix(0.573433 -0.819252 0.819252 0.573433 0.43 49.93)"/><rect x="43.9" y="44.13" width="20.72" height="1.98" fill="#FFFFFF" transform="matrix(0.29 -0.96 0.96 0.29 -4.82 83.71)"/><rect x="28.36" y="56.31" width="18.28" height="1.98" fill="#FFFFFF"/><path d="M37.5 21.73C35.2909 21.73 33.5 19.9391 33.5 17.73 33.5 15.5209 35.2909 13.73 37.5 13.73 39.7091 13.73 41.5 15.5209 41.5 17.73 41.5 19.9391 39.7091 21.73 37.5 21.73ZM37.5 15.64C36.3623 15.64 35.44 16.5623 35.44 17.7 35.44 18.8377 36.3623 19.76 37.5 19.76 38.6377 19.76 39.56 18.8377 39.56 17.7 39.56 16.5623 38.6377 15.64 37.5 15.64Z" fill="#FFFFFF"/><path d="M25.31 61.34C23.1009 61.34 21.31 59.5491 21.31 57.34 21.31 55.1309 23.1009 53.34 25.31 53.34 27.5191 53.34 29.31 55.1309 29.31 57.34 29.31 59.5491 27.5191 61.34 25.31 61.34ZM25.31 55.25C24.1723 55.2505 23.2504 56.1732 23.2509 57.3109 23.2514 58.4486 24.174 59.3705 25.3117 59.37 26.4495 59.3695 27.3714 58.4468 27.3709 57.3091 27.3709 57.2894 27.3706 57.2697 27.37 57.25 27.3428 56.1335 26.4268 55.2442 25.31 55.25Z" fill="#FFFFFF"/><path d="M49.69 61.34C47.4809 61.34 45.69 59.5491 45.69 57.34 45.69 55.1309 47.4809 53.34 49.69 53.34 51.8991 53.34 53.69 55.1309 53.69 57.34 53.69 59.5491 51.8991 61.34 49.69 61.34ZM49.69 55.25C48.5523 55.245 47.6259 56.1632 47.6209 57.3009 47.6159 58.4385 48.534 59.3649 49.6717 59.37 50.8094 59.375 51.7358 58.4568 51.7409 57.3191 51.741 57.2961 51.7407 57.273 51.74 57.25 51.7129 56.1374 50.8029 55.2497 49.69 55.25Z" fill="#FFFFFF"/><path d="M16.94 36.21C14.7309 36.21 12.94 34.4191 12.94 32.21 12.94 30.0009 14.7309 28.21 16.94 28.21 19.1491 28.21 20.94 30.0009 20.94 32.21 20.94 34.4191 19.1491 36.21 16.94 36.21ZM16.94 30.11C15.8028 30.0769 14.854 30.9719 14.8209 32.1091 14.7877 33.2463 15.6828 34.1951 16.82 34.2283 17.9572 34.2614 18.906 33.3663 18.9391 32.2291 18.9397 32.2094 18.94 32.1897 18.94 32.17 18.9405 31.0553 18.0542 30.1425 16.94 30.11Z" fill="#FFFFFF"/><path d="M58.06 36.21C55.8509 36.21 54.06 34.4191 54.06 32.21 54.06 30.0009 55.8509 28.21 58.06 28.21 60.2691 28.21 62.06 30.0009 62.06 32.21 62.06 34.4191 60.2691 36.21 58.06 36.21ZM58.06 30.11C56.9223 30.11 56 31.0323 56 32.17 56 33.3077 56.9223 34.23 58.06 34.23 59.1977 34.23 60.12 33.3077 60.12 32.17 60.12 31.0323 59.1977 30.11 58.06 30.11Z" fill="#FFFFFF"/><rect x="36.51" y="20.74" width="1.98" height="5.33" fill="#FFFFFF"/><rect x="21.66" y="31.93" width="1.98" height="5.8" fill="#FFFFFF" transform="matrix(0.394102 -0.919067 0.919067 0.394102 -18.29 41.92)"/><rect x="25.61" y="51.74" width="5.49" height="1.98" fill="#FFFFFF" transform="matrix(0.554699 -0.832051 0.832051 0.554699 -31.25 47.08)"/><rect x="45.65" y="49.99" width="1.98" height="5.49" fill="#FFFFFF" transform="matrix(0.832051 -0.554699 0.554699 0.832051 -21.42 34.73)"/><rect x="49.45" y="33.84" width="5.8" height="1.98" fill="#FFFFFF" transform="matrix(0.919067 -0.394102 0.394102 0.919067 -9.49 23.45)"/><path d="M29.58 35.24C29.061 35.2421 28.6267 34.8469 28.58 34.33L28.3 30.53 30.3 30.39 30.5 33.19 33.3 33 33.45 35 29.65 35.28Z" fill="#FFFFFF"/><path d="M37.49 49.51C31.8651 49.5156 27.293 44.9748 27.26 39.35L29.26 39.35C29.2583 41.9435 30.491 44.383 32.58 45.92 36.237 48.6393 41.4054 47.8831 44.13 44.23 46.8532 40.577 46.0995 35.4081 42.4465 32.6848 42.4443 32.6832 42.4422 32.6816 42.44 32.68 38.783 29.9607 33.6146 30.7169 30.89 34.37L29.3 33.18C32.6745 28.6417 39.0891 27.6982 43.6274 31.0726 48.1657 34.4471 49.1092 40.8617 45.7348 45.4 43.799 48.0034 40.7442 49.5355 37.5 49.53Z" fill="#FFFFFF"/></g></svg>