<svg width="75" height="75" viewBox="0 0 75 75" xmlns="http://www.w3.org/2000/svg" xmlns:xlink="http://www.w3.org/1999/xlink" id="Product_Icon" overflow="hidden"><defs><linearGradient x1="-15.53" y1="90.53" x2="90.53" y2="-15.53" gradientUnits="userSpaceOnUse" id="GreenGradient"><stop offset="0" stop-color="#1B660F"/><stop offset="1" stop-color="#6CAE3E"/></linearGradient></defs><rect x="0" y="0" width="75" height="75" id="Green_Gradient" fill="url(#GreenGradient)"/><g id="Icon_Test"><path d="M55.32 53 19.68 53C17.926 52.9945 16.5055 51.574 16.5 49.82L16.5 25.18C16.5055 23.426 17.926 22.0055 19.68 22L29.5 22C29.9299 21.9989 30.3124 22.2727 30.45 22.68L31.58 26 43.41 26 44.55 22.68C44.693 22.2546 45.1018 21.9766 45.55 22L55.38 22C57.1307 22 58.55 23.4193 58.55 25.17L58.55 49.82C58.5446 51.5818 57.112 53.0056 55.3503 53.0002 55.3402 53.0002 55.3301 53.0001 55.32 53ZM19.68 24C19.0283 24 18.5 24.5283 18.5 25.18L18.5 49.82C18.5 50.4717 19.0283 51 19.68 51L55.32 51C55.9717 51 56.5 50.4717 56.5 49.82L56.5 25.17C56.4946 24.5261 55.9739 24.0054 55.33 24L46.21 24 45.07 27.32C44.9336 27.7238 44.5562 27.9968 44.13 28L30.87 28C30.4401 28.0011 30.0576 27.7273 29.92 27.32L28.79 24Z" fill="#FFFFFF"/><path d="M57.12 57 17.88 57C14.8648 56.9561 12.4561 54.4763 12.5 51.4612 12.5 51.4608 12.5 51.4604 12.5 51.46L12.5 23.54C12.4555 20.5249 14.8637 18.0445 17.8788 18 17.8792 18 17.8796 18 17.88 18L57.12 18C60.1352 18.0439 62.5439 20.5237 62.5 23.5388 62.5 23.5392 62.5 23.5396 62.5 23.54L62.5 51.46C62.5445 54.4751 60.1363 56.9555 57.1212 57 57.1208 57 57.1204 57 57.12 57ZM17.88 20C15.9713 20.0491 14.4608 21.631 14.5 23.54L14.5 51.46C14.4609 53.3689 15.9713 54.9509 17.88 55L57.12 55C59.0287 54.9509 60.5391 53.3689 60.5 51.46L60.5 23.54C60.5392 21.6311 59.0287 20.0491 57.12 20Z" fill="#FFFFFF"/><path d="M50.5 46 24.5 46C23.9477 46 23.5 45.5523 23.5 45L23.5 32C23.5 31.4477 23.9477 31 24.5 31L50.5 31C51.0523 31 51.5 31.4477 51.5 32L51.5 45C51.5 45.5523 51.0523 46 50.5 46ZM25.5 44 49.5 44 49.5 33 25.5 33Z" fill="#FFFFFF"/><rect x="33.5" y="22" width="8" height="2" fill="#FFFFFF"/></g></svg>