<svg width="75" height="75" viewBox="0 0 75 75" xmlns="http://www.w3.org/2000/svg" xmlns:xlink="http://www.w3.org/1999/xlink" id="Product_Icon" overflow="hidden"><defs><linearGradient x1="37.5" y1="112.5" x2="37.5" y2="-37.5" gradientUnits="userSpaceOnUse" id="GreenGradient" gradientTransform="matrix(0.707107 0.707107 -0.707107 0.707107 37.5 -15.53)"><stop offset="0" stop-color="#1B660F"/><stop offset="1" stop-color="#6CAE3E"/></linearGradient></defs><rect x="0" y="0" width="75" height="75" id="Green_Gradient" fill="url(#GreenGradient)"/><g id="Icon_Test"><path d="M36.91 48.4 19.08 48.4C17.3293 48.4 15.91 46.9808 15.91 45.23 15.91 45.2267 15.91 45.2233 15.91 45.22L15.91 20.58C15.91 18.8276 17.3276 17.4055 19.08 17.4L28.91 17.4C29.3362 17.4032 29.7136 17.6762 29.85 18.08L31 21.4 42.82 21.4 44 18.08C44.1376 17.6727 44.5201 17.3989 44.95 17.4L54.78 17.4C56.5301 17.411 57.9445 18.8299 57.95 20.58L57.95 36.4 55.95 36.4 55.95 20.58C55.9447 19.9344 55.4255 19.4108 54.78 19.4L45.62 19.4 44.48 22.73C44.3402 23.1299 43.9636 23.3983 43.54 23.4L30.28 23.4C29.8345 23.4248 29.4265 23.1514 29.28 22.73L28.19 19.4 19.08 19.4C18.4345 19.4108 17.9153 19.9344 17.91 20.58L17.91 45.22C17.9153 45.8656 18.4345 46.3892 19.08 46.4L36.91 46.4Z" fill="#FFFFFF"/><path d="M36.9 52.4 17.28 52.4C14.2668 52.3507 11.861 49.8734 11.9 46.86L11.9 18.94C11.8665 15.9288 14.2691 13.4548 17.28 13.4L56.53 13.4C59.5409 13.4548 61.9435 15.9288 61.91 18.94L61.91 39.4 59.91 39.4 59.91 18.94C59.9492 17.031 58.4387 15.4491 56.53 15.4L17.28 15.4C15.3713 15.4491 13.8609 17.031 13.9 18.94L13.9 46.86C13.8553 48.7704 15.3678 50.3553 17.2782 50.4 17.2788 50.4 17.2794 50.4 17.28 50.4L36.9 50.4Z" fill="#FFFFFF"/><path d="M39.91 41.4 23.91 41.4C23.3577 41.4 22.91 40.9523 22.91 40.4L22.91 27.4C22.91 26.8477 23.3577 26.4 23.91 26.4L50.91 26.4C51.4623 26.4 51.91 26.8477 51.91 27.4L51.91 35.4 49.91 35.4 49.91 28.4 24.91 28.4 24.91 39.4 39.91 39.4Z" fill="#FFFFFF"/><rect x="32.9" y="17.4" width="8" height="2" fill="#FFFFFF"/><path d="M50.73 39.4 51.35 39.45 51.98 39.45 52.6 39.45 53.48 41.45C54.3043 41.713 55.0833 42.1008 55.79 42.6L58 42.17 58.41 42.64 58.82 43.11 59.23 43.58 58.4 45.66C58.8012 46.4175 59.0781 47.2346 59.22 48.08L61.15 49.23 61.1 49.85 61.1 50.47 61.1 51.1 58.91 52C58.656 52.818 58.2747 53.5908 57.78 54.29L58.33 56.47 57.86 56.88 57.39 57.29 56.92 57.7 54.83 56.87C54.0731 57.2645 53.2604 57.541 52.42 57.69L51.27 59.6 50.65 59.55 50.03 59.55 49.4 59.55 48.52 57.49C47.6989 57.2362 46.9227 56.8549 46.22 56.36L44.05 56.91 43.64 56.44 43.23 55.97 42.82 55.5 43.64 53.43C43.2422 52.663 42.9624 51.8404 42.81 50.99L40.9 49.77 40.95 49.15 40.95 48.52 40.95 47.9 42.95 47.02C43.2027 46.1935 43.5877 45.4134 44.09 44.71L43.55 42.55 44.02 42.14 44.49 41.73 44.96 41.32 47.02 42.14C47.7873 41.7348 48.6144 41.4546 49.47 41.31L50.61 39.4M50.61 37.4C49.8998 37.4043 49.2451 37.7849 48.89 38.4L48.2 39.56C47.7798 39.6789 47.366 39.8191 46.96 39.98L45.7 39.48C45.4637 39.3893 45.2131 39.3419 44.96 39.34 44.4752 39.3379 44.0061 39.5121 43.64 39.83L43.17 40.25 42.7 40.66 42.23 41.07C41.663 41.5666 41.4233 42.3398 41.61 43.07L41.94 44.39C41.7228 44.7677 41.5291 45.1585 41.36 45.56L40.12 46.1C39.4736 46.4149 39.046 47.0525 39 47.77L39 48.39 39 49 39 49.62C38.9561 50.3763 39.3432 51.0925 40 51.47L41.17 52.17C41.2799 52.5864 41.4203 52.9942 41.59 53.39L41 54.68C40.7202 55.3779 40.8554 56.1737 41.35 56.74L41.77 57.21 42.18 57.68 42.59 58.15C42.9691 58.5816 43.5155 58.8293 44.09 58.83 44.2552 58.8298 44.4197 58.8097 44.58 58.77L45.92 58.43C46.2702 58.638 46.6306 58.8283 47 59L47.54 60.26C47.8363 60.9535 48.4975 61.4213 49.25 61.47L49.87 61.47 50.5 61.47 51.12 61.47 51.25 61.47C51.9602 61.4657 52.6149 61.0851 52.97 60.47L53.68 59.28C54.0885 59.2107 54.4926 59.1172 54.89 59L56.18 59.52C56.4163 59.6107 56.6669 59.6581 56.92 59.66 57.4049 59.6621 57.8739 59.4879 58.24 59.17L58.71 58.75 59.18 58.34 59.65 57.93C60.217 57.4334 60.4567 56.6602 60.27 55.93L59.93 54.58C60.1385 54.2146 60.3255 53.8373 60.49 53.45L61.76 52.9C62.4531 52.619 62.9314 51.9747 63 51.23L63 50.61 63 49.99 63 49.36C63.0439 48.6037 62.6568 47.8875 62 47.51L60.82 46.81C60.7089 46.3984 60.572 45.9943 60.41 45.6L61 44.32C61.2798 43.6221 61.1446 42.8263 60.65 42.26L60.23 41.79 59.82 41.32 59.41 40.85C59.0309 40.4184 58.4845 40.1707 57.91 40.17 57.7448 40.1702 57.5803 40.1903 57.42 40.23L56.09 40.57C55.7383 40.3585 55.3743 40.1682 55 40L54.45 38.75C54.1553 38.0596 53.4988 37.5923 52.75 37.54L52.13 37.54 51.51 37.54 50.88 37.54Z" fill="#FFFFFF"/><path d="M51 54.18C48.4153 54.18 46.32 52.0847 46.32 49.5 46.32 46.9153 48.4153 44.82 51 44.82 53.5847 44.82 55.68 46.9153 55.68 49.5 55.6745 52.0824 53.5824 54.1745 51 54.18ZM51 46.82C49.5199 46.82 48.32 48.0199 48.32 49.5 48.32 50.9801 49.5199 52.18 51 52.18 52.4801 52.18 53.68 50.9801 53.68 49.5 53.68 48.0199 52.4801 46.82 51 46.82Z" fill="#FFFFFF"/></g></svg>