<svg width="75" height="75" viewBox="0 0 75 75" xmlns="http://www.w3.org/2000/svg" xmlns:xlink="http://www.w3.org/1999/xlink" id="Product_Icon" overflow="hidden"><defs><linearGradient x1="90.53" y1="-15.53" x2="-15.53" y2="90.53" gradientUnits="userSpaceOnUse" id="GreenGradient" gradientTransform="matrix(-1 0 -0 -1 75 75)"><stop offset="0" stop-color="#1B660F"/><stop offset="1" stop-color="#6CAE3E"/></linearGradient></defs><rect x="0" y="0" width="75" height="75" id="Green_Gradient" fill="url(#GreenGradient)"/><g id="Icon_Test"><path d="M54.61 26.07C54.21 22.95 52.53 20.68 50.02 19.91 48.1587 19.3343 46.1333 19.708 44.6 20.91 43.8732 19.3101 42.856 17.8589 41.6 16.63 36.4841 11.4363 28.1266 11.3733 22.9329 16.4892 20.494 18.8916 19.0838 22.1476 19 25.57L19 26.3C15.003 27.4219 12.3083 31.1529 12.5 35.3L12.5 36C12.7866 40.3416 16.1703 43.8395 20.5 44.27L20.5 42.27C17.2352 41.8074 14.7359 39.129 14.5 35.84L14.5 35.29C14.5 30.29 18.08 28.63 20.26 28.07 20.7898 27.9828 21.1562 27.4928 21.09 26.96 21.0275 26.4993 20.9975 26.0349 21 25.57 21.1816 19.3926 26.3366 14.5321 32.514 14.7137 35.4171 14.7991 38.1732 16.0098 40.2 18.09 41.6057 19.4985 42.6726 21.2083 43.32 23.09 43.5111 23.6082 44.0861 23.8733 44.6043 23.6821 44.6062 23.6814 44.6081 23.6807 44.61 23.68 44.7846 23.6133 44.9371 23.499 45.05 23.35 46.0447 21.9414 47.8301 21.3288 49.48 21.83 51.38 22.41 52.56 24.27 52.72 26.94 52.7473 27.3926 53.0756 27.7701 53.52 27.86 58.17 28.8 60.52 31.31 60.52 35.32 60.52 39.33 58.52 41.72 54.52 42.19L54.52 44.19C59.7 43.67 62.52 40.56 62.52 35.31 62.48 30.59 59.69 27.29 54.61 26.07Z" fill="#FFFFFF"/><path d="M51.48 62.29 46.48 62.29C45.9277 62.29 45.48 61.8423 45.48 61.29L45.48 36.91C43.1181 35.6172 40.4725 34.93 37.78 34.91 34.8601 34.9305 31.9973 35.7204 29.48 37.2L29.48 61.29C29.48 61.8423 29.0323 62.29 28.48 62.29L23.48 62.29C22.9277 62.29 22.48 61.8423 22.48 61.29L22.48 34.09C22.4865 33.8041 22.6093 33.5333 22.82 33.34 26.5 30.09 31.96 28.23 37.82 28.23 42.953 28.131 47.9743 29.7344 52.1 32.79 52.3387 32.9786 52.4786 33.2657 52.48 33.57L52.48 61.29C52.48 61.8423 52.0323 62.29 51.48 62.29ZM47.48 60.29 50.48 60.29 50.48 34.07C46.7623 31.4808 42.3196 30.1364 37.79 30.23 32.9899 30.106 28.2923 31.6307 24.48 34.55L24.48 60.29 27.48 60.29 27.48 36.61C27.4567 36.2538 27.6394 35.9158 27.95 35.74 30.9099 33.9225 34.3069 32.9411 37.78 32.9 40.9895 32.9404 44.1342 33.8083 46.91 35.42 47.2477 35.5806 47.4676 35.9162 47.48 36.29Z" fill="#FFFFFF"/></g></svg>