<svg width="75" height="75" viewBox="0 0 75 75" xmlns="http://www.w3.org/2000/svg" xmlns:xlink="http://www.w3.org/1999/xlink" overflow="hidden"><defs><linearGradient x1="-20.7107%" y1="120.711%" x2="120.711%" y2="-20.7107%" id="linearGradient-1"><stop offset="0" stop-color="#1A660E"/><stop offset="1" stop-color="#6BAE3D"/></linearGradient></defs><g id="EFS-Standard_primary" stroke="none" stroke-width="1" fill="none" fill-rule="evenodd"><g id="Group-8"><path d="M0 75 75 75 75 0 0 0Z" id="Fill-1" fill="url(#linearGradient-1)"/><g id="Group-7" fill="#FFFFFF" transform="translate(13 12)"><path d="M36.4419 27.0859 36.4419 13.5129 46.4419 8.7769 46.4419 22.0709 36.4419 27.0859ZM24.4419 48.3079 24.4419 34.8279C24.4669 34.8189 24.4959 34.8219 24.5209 34.8109L34.4419 30.3709 34.4419 43.3079 24.4419 48.3079ZM13.4419 29.9509 22.4419 34.2129 22.4419 48.0599 13.4419 43.3229 13.4419 29.9509ZM2.4419 9.0889 11.4419 13.3519 11.4419 26.5699 2.4419 22.0699 2.4419 9.0889ZM47.9079 6.4619 36.6969 0.5619C36.4139 0.4139 36.0749 0.4089 35.7879 0.5499L27.6369 4.5769 28.5239 6.3699 36.2159 2.5689 45.0549 7.2209 35.9019 11.5559 31.1179 9.4149 30.3009 11.2399 34.4419 13.0939 34.4419 26.9749 30.6079 25.0579 29.7129 26.8469 33.3539 28.6669 24.1249 32.7969 14.9009 28.4289 18.3459 26.6159 17.4149 24.8459 13.4419 26.9369 13.4419 13.2469 18.7309 10.8799 17.9149 9.0539 12.3239 11.5559 3.5169 7.3849 12.6679 2.5689 21.1229 6.7459 22.0089 4.9529 13.0959 0.5499C12.8069 0.4079 12.4699 0.4139 12.1869 0.5619L0.9759 6.4619C0.6479 6.6349 0.4419 6.9759 0.4419 7.3469L0.4419 22.6879C0.4419 23.0669 0.6559 23.4129 0.9949 23.5829L11.4419 28.8059 11.4419 28.9999 11.4419 43.9259C11.4419 44.2969 11.6479 44.6379 11.9759 44.8109L23.1809 50.7089C23.3269 50.7849 23.4869 50.8239 23.6469 50.8239 23.7999 50.8239 23.9539 50.7889 24.0939 50.7179L35.8889 44.8209C36.2279 44.6509 36.4419 44.3049 36.4419 43.9259L36.4419 29.3229 47.8899 23.5819C48.2279 23.4119 48.4419 23.0659 48.4419 22.6879L48.4419 7.3469C48.4419 6.9759 48.2359 6.6349 47.9079 6.4619L47.9079 6.4619Z" id="Fill-3"/><path d="M27.8442 21.8867C27.8442 23.3717 26.8192 24.6117 25.4422 24.9637L25.4422 18.9437C26.6922 19.3927 27.8442 20.3307 27.8442 21.8867M21.4722 13.5147C21.4722 12.1887 22.2872 11.0517 23.4422 10.5727L23.4422 16.2797C22.3722 15.7787 21.4722 14.8877 21.4722 13.5147M19.4722 13.5147C19.4722 15.7917 21.0292 17.6707 23.4422 18.4337L23.4422 24.8287C22.2872 24.3497 21.4722 23.2127 21.4722 21.8867 21.4722 21.3347 21.0252 20.8867 20.4722 20.8867 19.9192 20.8867 19.4722 21.3347 19.4722 21.8867 19.4722 24.3247 21.1702 26.3627 23.4422 26.9137L23.4422 28.9997C23.4422 29.5527 23.8892 29.9997 24.4422 29.9997 24.9942 29.9997 25.4422 29.5527 25.4422 28.9997L25.4422 26.9937C27.9282 26.6117 29.8442 24.4777 29.8442 21.8867 29.8442 19.4807 28.0932 17.5337 25.4422 16.8637L25.4422 10.4377C26.8192 10.7897 27.8442 12.0297 27.8442 13.5147 27.8442 14.0667 28.2912 14.5147 28.8442 14.5147 29.3972 14.5147 29.8442 14.0667 29.8442 13.5147 29.8442 10.9237 27.9282 8.7897 25.4422 8.4077L25.4422 4.9997C25.4422 4.4477 24.9942 3.9997 24.4422 3.9997 23.8892 3.9997 23.4422 4.4477 23.4422 4.9997L23.4422 8.4877C21.1702 9.0387 19.4722 11.0757 19.4722 13.5147" id="Fill-5"/></g></g></g></svg>