<svg width="75" height="75" viewBox="0 0 75 75" xmlns="http://www.w3.org/2000/svg" xmlns:xlink="http://www.w3.org/1999/xlink" overflow="hidden"><defs><linearGradient x1="-20.7107%" y1="120.711%" x2="120.711%" y2="-20.7107%" id="linearGradient-1"><stop offset="0" stop-color="#1A660E"/><stop offset="1" stop-color="#6BAE3D"/></linearGradient></defs><g id="EFS-Standard_primary" stroke="none" stroke-width="1" fill="none" fill-rule="evenodd"><g id="Group-18"><path d="M0 75 75 75 75 0 0 0Z" id="Fill-1" fill="url(#linearGradient-1)"/><g id="Group-17" fill="#FFFFFF" transform="translate(11 11)"><path d="M41 30.3491 41 18.6151 49 14.8251 49 26.1391 41 30.3491ZM31 48.7401 31 37.0931 39 33.5131 39 44.7401 31 48.7401ZM21 33.6531 29 37.4421 29 48.9651 21 44.7541 21 33.6531ZM10 14.7261 18 18.5161 18 30.1801 10 26.1801 10 14.7261ZM18.839 9.3051 27.119 13.3951 19.274 16.9061 11.444 13.1971 18.839 9.3051ZM29 14.7441 29 26.1581 20 30.8941 20 18.7721 29 14.7441ZM39 30.4061 31 26.4071 31 15.0981 39 18.6781 39 30.4061ZM29.616 35.5211 22.188 32.0031 29.755 28.0201 37.606 31.9461 29.616 35.5211ZM40.242 9.4031 47.6 13.2751 39.936 16.9061 32.128 13.4121 40.242 9.4031ZM50.466 12.5241 40.723 7.3951C40.439 7.2471 40.101 7.2421 39.813 7.3841L29.591 12.4331 29.61 12.3941 19.268 7.2861C18.981 7.1431 18.643 7.1481 18.359 7.2971L8.534 12.4681C8.206 12.6411 8 12.9821 8 13.3531L8 26.7981C8 27.1771 8.214 27.5231 8.553 27.6921L18.895 32.8631 19 32.6531 19 45.3581C19 45.7291 19.206 46.0701 19.534 46.2431L29.277 51.3711C29.423 51.4481 29.583 51.4861 29.743 51.4861 29.896 51.4861 30.05 51.4511 30.19 51.3811L30.952 51.0001 31 51.0001 31 50.9761 40.447 46.2521C40.786 46.0831 41 45.7371 41 45.3581L41 32.6091 50.466 27.6271C50.794 27.4541 51 27.1131 51 26.7421L51 13.4091C51 13.0371 50.794 12.6971 50.466 12.5241L50.466 12.5241Z" id="Fill-3"/><path d="M17.189 4.2256 11.539 0.9296 10.531 2.6566 16.181 5.9536Z" id="Fill-5"/><path d="M12.5679 6.5674 7.2809 3.6434 6.3139 5.3934 11.5999 8.3174Z" id="Fill-7"/><path d="M8.4131 10.1333 2.1741 6.5433 1.1771 8.2763 7.4161 11.8663Z" id="Fill-9"/><path d="M5.4766 17.6118 6.4686 15.8758 3.5846 14.2278 2.5926 15.9638Z" id="Fill-11"/><path d="M3.3574 29.7769 11.3574 33.9629 12.2844 32.1909 4.2844 28.0049Z" id="Fill-13"/><path d="M6.7866 23.4072 1.6146 20.4852 0.6316 22.2262 5.8036 25.1482Z" id="Fill-15"/></g></g></g></svg>