<svg width="75" height="75" viewBox="0 0 75 75" xmlns="http://www.w3.org/2000/svg" xmlns:xlink="http://www.w3.org/1999/xlink" id="Product_Icon" overflow="hidden"><defs><linearGradient x1="90.53" y1="-15.53" x2="-15.54" y2="90.54" gradientUnits="userSpaceOnUse" id="TurquoiseGradient" gradientTransform="matrix(-1 0 -0 -1 75 75)"><stop offset="0" stop-color="#055F4E"/><stop offset="1" stop-color="#56C0A7"/></linearGradient></defs><rect x="0" y="0" width="75" height="75" id="Turquoise_Gradient" fill="url(#TurquoiseGradient)"/><g id="Icon_Test"><path d="M13.76 62.5C13.0641 62.4982 12.5015 61.9326 12.5033 61.2367 12.5039 61.0321 12.5542 60.8308 12.65 60.65L16.85 52.47C15.3809 50.0312 14.6063 47.2371 14.61 44.39 14.6665 35.5812 21.8532 28.4861 30.6619 28.5426 34.0824 28.5645 37.4052 29.6855 40.14 31.74L38.94 33.34C32.8578 28.6741 24.1448 29.8222 19.4789 35.9044 15.9092 40.5577 15.6494 46.9525 18.83 51.88 19.0244 52.1804 19.0434 52.5617 18.88 52.88L15.44 59.58 22.32 56.16C22.6383 55.9966 23.0196 56.0156 23.32 56.21 29.7334 60.0985 38.072 58.2421 42.23 52L43.89 53.11C39.2545 60.0812 30.0288 62.3004 22.73 58.2L14.33 62.37C14.1522 62.4557 13.9574 62.5002 13.76 62.5ZM14.43 61.56 14.43 61.56ZM39.5 40.63 37.5 40.63 37.5 46.5 39.5 46.5ZM36.5 36.54 34.5 36.54 34.5 50.54 36.5 50.54ZM33.5 39.54 31.5 39.54 31.5 47.54 33.5 47.54ZM30.5 36.54 28.5 36.54 28.5 50.54 30.5 50.54ZM27.5 38.54 25.5 38.54 25.5 48.54 27.5 48.54ZM24.5 37.54 22.5 37.54 22.5 49.54 24.5 49.54ZM21.5 40.54 19.5 40.54 19.5 47.54 21.5 47.54ZM62.5 51.54 62.5 35.54 60.5 35.54 60.5 50.54 45.5 50.54 45.5 52.54 61.5 52.54C62.0523 52.5404 62.5004 52.0931 62.5008 51.5408 62.5008 51.5272 62.5005 51.5136 62.5 51.5ZM62.2 22.8 52.12 12.8C51.9555 12.6325 51.7344 12.5327 51.5 12.52L33.5 12.52C32.9477 12.52 32.5 12.9677 32.5 13.52L32.5 26.52 34.5 26.52 34.5 14.52 50.5 14.52 50.5 23.52C50.4388 24.0077 50.7846 24.4527 51.2723 24.5138 51.3213 24.52 51.3707 24.522 51.42 24.52L60.5 24.52 60.5 29.52 62.5 29.52 62.5 23.52C62.5128 23.2355 62.4037 22.9591 62.2 22.76ZM52.5 22.54 52.5 15.89 59.06 22.5ZM51.42 12.54 51.42 12.54ZM56.5 26.54 46.5 26.54 46.5 28.54 56.5 28.54ZM55.5 30.54 42.5 30.54 42.5 32.54 55.5 32.54ZM46.5 20.54 38.5 20.54 38.5 22.54 46.5 22.54ZM44.5 26.54 38.5 26.54 38.5 28.54 44.5 28.54ZM42.5 37.54 40.5 37.54 40.5 49.54 42.5 49.54ZM45.5 39.54 43.5 39.54 43.5 47.54 45.5 47.54Z" fill="#FFFFFF"/></g></svg>