<svg width="75" height="75" viewBox="0 0 75 75" xmlns="http://www.w3.org/2000/svg" xmlns:xlink="http://www.w3.org/1999/xlink" id="Product_Icon" overflow="hidden"><defs><linearGradient x1="37.5" y1="112.5" x2="37.5" y2="-37.5" gradientUnits="userSpaceOnUse" id="TurquoiseGradient" gradientTransform="matrix(0.707107 0.707107 -0.707107 0.707107 37.5 -15.53)"><stop offset="0" stop-color="#055F4E"/><stop offset="1" stop-color="#56C0A7"/></linearGradient></defs><rect x="0" y="0" width="75" height="75" id="Turquoise_Gradient" fill="url(#TurquoiseGradient)"/><g id="Icon_Test"><path d="M27.54 50.5 13.54 50.5C12.9877 50.5 12.54 50.0523 12.54 49.5L12.54 41.5 14.54 41.5 14.54 48.5 27.54 48.5Z" fill="#FFFFFF"/><path d="M39.25 22.79 29.25 12.79C29.0613 12.6028 28.8058 12.4985 28.54 12.5L13.54 12.5C12.9877 12.5 12.54 12.9477 12.54 13.5L12.54 36.5 14.54 36.5 14.54 14.5 27.54 14.5 27.54 23.5C27.54 24.0523 27.9877 24.5 28.54 24.5L37.54 24.5 37.54 26.5 39.54 26.5 39.54 23.5C39.5415 23.2342 39.4372 22.9787 39.25 22.79ZM29.54 22.5 29.54 15.91 36.13 22.5Z" fill="#FFFFFF"/><rect x="16.54" y="29.5" width="8" height="2" fill="#FFFFFF"/><path d="M61.19 62.5C60.9988 62.5023 60.81 62.4576 60.64 62.37L52.28 58.19C44.635 62.4879 34.9534 59.7746 30.6555 52.1296 29.6834 50.4005 29.0439 48.5046 28.77 46.54L30.77 46.27C31.8222 53.8632 38.8307 59.1656 46.4238 58.1134 48.3187 57.8508 50.1388 57.1994 51.77 56.2 52.0794 56.0214 52.4606 56.0214 52.77 56.2L59.6 59.62 56.17 52.9C55.9914 52.5906 55.9914 52.2094 56.17 51.9 57.6239 49.6772 58.3924 47.076 58.38 44.42 58.4202 36.7599 52.2431 30.5176 44.583 30.4774 42.2882 30.4654 40.0263 31.0229 38 32.1L37.06 30.34C44.8015 26.242 54.3993 29.1957 58.4973 36.9372 59.7047 39.2181 60.3372 41.7592 60.34 44.34 60.3467 47.1849 59.5793 49.9779 58.12 52.42L62.31 60.63C62.5577 61.1101 62.469 61.695 62.09 62.08 61.8602 62.3373 61.5349 62.4891 61.19 62.5ZM60.54 61.56 60.54 61.56Z" fill="#FFFFFF"/><rect x="42.54" y="40.5" width="2" height="8" fill="#FFFFFF"/><rect x="45.54" y="39.5" width="2" height="10" fill="#FFFFFF"/><rect x="48.54" y="38.5" width="2" height="12" fill="#FFFFFF"/><rect x="51.54" y="41.5" width="2" height="7" fill="#FFFFFF"/><rect x="36.54" y="40.5" width="2" height="8" fill="#FFFFFF"/><rect x="16.54" y="34.5" width="19" height="2" fill="#FFFFFF"/><rect x="16.54" y="39.5" width="14" height="2" fill="#FFFFFF"/><rect x="26.54" y="29.5" width="4" height="2" fill="#FFFFFF"/><rect x="39.54" y="42.5" width="2" height="4" fill="#FFFFFF"/><rect x="37.54" y="34.5" width="6" height="1.9" fill="#FFFFFF"/></g></svg>