<svg width="75" height="75" viewBox="0 0 75 75" xmlns="http://www.w3.org/2000/svg" xmlns:xlink="http://www.w3.org/1999/xlink" id="Product_Icon" overflow="hidden"><defs><linearGradient x1="-37.5" y1="37.5" x2="112.5" y2="37.5" gradientUnits="userSpaceOnUse" id="TurquoiseGradient" gradientTransform="matrix(0.707107 -0.707107 0.707107 0.707107 -15.53 37.49)"><stop offset="0" stop-color="#055F4E"/><stop offset="1" stop-color="#56C0A7"/></linearGradient></defs><rect x="0" y="0" width="75" height="75" id="Turquoise_Gradient" fill="url(#TurquoiseGradient)"/><g id="Icon_Test"><path d="M61.44 56.6 59.44 56.6 59.44 55.1 60.71 55.1 60.71 23.56 53.94 17.67 33.7 17.67 33.7 18.82 32.2 18.82 32.2 16.92C32.1944 16.5113 32.5212 16.1756 32.9299 16.17 32.9366 16.1699 32.9433 16.1699 32.95 16.17L54.2 16.17C54.3801 16.1666 54.5549 16.2308 54.69 16.35L61.94 22.65C62.0993 22.7925 62.1903 22.9962 62.19 23.21L62.19 55.85C62.19 56.2642 61.8542 56.6 61.44 56.6Z" fill="#FFFFFF"/><path d="M58.27 58.83 30.71 58.83C30.2958 58.83 29.96 58.4942 29.96 58.08L29.96 52.55 31.46 52.55 31.46 57.33 57.52 57.33 57.52 26.7 51.66 20.84 31.46 20.84 31.46 26.73 30 26.73 30 20.09C30.0054 19.678 30.338 19.3454 30.75 19.34L52 19.34C52.1988 19.3402 52.3895 19.4193 52.53 19.56L58.83 25.86C58.9707 26.0005 59.0498 26.1912 59.05 26.39L59.05 58.08C59.0503 58.4942 58.7148 58.8303 58.3006 58.8306 58.2904 58.8306 58.2802 58.8304 58.27 58.83Z" fill="#FFFFFF"/><path d="M58.27 27.14 52 27.14C51.588 27.1346 51.2554 26.802 51.25 26.39L51.25 20.09 52.75 20.09 52.75 25.64 58.3 25.64Z" fill="#FFFFFF"/><rect x="32.88" y="39.74" width="7.26" height="1.5" fill="#FFFFFF"/><rect x="30.75" y="43.53" width="8.05" height="1.5" fill="#FFFFFF"/><rect x="42.88" y="39.76" width="11.75" height="1.5" fill="#FFFFFF"/><rect x="45.86" y="44.34" width="8.6" height="1.5" fill="#FFFFFF"/><rect x="40.01" y="30.99" width="14.45" height="1.5" fill="#FFFFFF"/><rect x="45.93" y="34.98" width="8.53" height="1.5" fill="#FFFFFF"/><rect x="23.3" y="39.54" width="4.12" height="1.5" fill="#FFFFFF"/><rect x="14.01" y="39.54" width="5.63" height="1.5" fill="#FFFFFF"/><rect x="17.81" y="36.4" width="5.34" height="1.5" fill="#FFFFFF"/><rect x="16.68" y="42.76" width="7.42" height="1.5" fill="#FFFFFF"/><path d="M31.53 48.92C26.4269 48.92 22.29 44.7831 22.29 39.68 22.29 34.5769 26.4269 30.44 31.53 30.44 36.6331 30.44 40.77 34.5769 40.77 39.68 40.77 44.7831 36.6331 48.92 31.53 48.92ZM31.53 31.92C27.2553 31.92 23.79 35.3853 23.79 39.66 23.79 43.9347 27.2553 47.4 31.53 47.4 35.8047 47.4 39.27 43.9347 39.27 39.66 39.2535 35.3954 35.7946 31.9455 31.53 31.94Z" fill="#FFFFFF"/><path d="M31.53 51.87C24.7976 51.87 19.34 46.4123 19.34 39.68 19.34 32.9477 24.7976 27.49 31.53 27.49 38.2624 27.49 43.72 32.9476 43.72 39.68 43.709 46.4078 38.2578 51.859 31.53 51.87ZM31.53 28.99C25.6261 28.99 20.84 33.7761 20.84 39.68 20.84 45.5839 25.6261 50.37 31.53 50.37 37.4339 50.37 42.22 45.5839 42.22 39.68 42.209 33.7823 37.4277 29.0055 31.53 29Z" fill="#FFFFFF"/><rect x="30" y="36.1" width="1.5" height="4.15" fill="#FFFFFF"/><path d="M34 37.15 32.5 37.15 32.5 36.75 28.93 36.75 28.93 37.15 27.43 37.15 27.43 36C27.43 35.5858 27.7658 35.25 28.18 35.25L33.26 35.25C33.6687 35.25 34 35.5812 34.0001 35.9899 34.0001 35.9933 34 35.9966 34 36Z" fill="#FFFFFF"/><rect x="29.44" y="39.67" width="2.46" height="1.5" fill="#FFFFFF"/><path d="M15 42.81 13 40.81C12.7045 40.5197 12.7003 40.0449 12.9906 39.7494 12.9937 39.7462 12.9968 39.7431 13 39.74L15 37.74 16.06 38.8 14.61 40.25 16.06 41.71Z" fill="#FFFFFF"/></g></svg>