<svg width="75" height="75" viewBox="0 0 75 75" xmlns="http://www.w3.org/2000/svg" xmlns:xlink="http://www.w3.org/1999/xlink" id="Product_Icon" overflow="hidden"><defs><linearGradient x1="-37.5" y1="37.5" x2="112.5" y2="37.5" gradientUnits="userSpaceOnUse" id="TurquoiseGradient" gradientTransform="matrix(0.707107 -0.707107 0.707107 0.707107 -15.53 37.5)"><stop offset="0" stop-color="#055F4E"/><stop offset="1" stop-color="#56C0A7"/></linearGradient></defs><rect x="0" y="0" width="75" height="75" id="Turquoise_Gradient" fill="url(#TurquoiseGradient)"/><g id="Icon_Test"><path d="M43.4 12.51 14.6 12.51C13.4386 12.5155 12.5 13.4586 12.5 14.62L12.5 33.4C12.5 34.5614 13.4386 35.5045 14.6 35.51L18.44 35.51 18.5 35.62 18.5 41C18.5521 41.6049 18.9382 42.1299 19.5 42.36 19.6817 42.4311 19.8749 42.4684 20.07 42.47 20.4685 42.4686 20.8513 42.3147 21.14 42.04L26.48 36.84 26.48 34.06 26.48 34.06 20.48 39.91 20.48 35.69C20.5375 35.1387 20.3637 34.5883 20 34.17 19.6059 33.75 19.056 33.5112 18.48 33.51L14.6 33.51C14.5432 33.5048 14.4998 33.4571 14.5 33.4L14.5 14.62C14.4998 14.5629 14.5432 14.5152 14.6 14.51L43.4 14.51C43.4568 14.5152 43.5002 14.5629 43.5 14.62L43.5 30.51 45.5 30.51 45.5 14.62C45.5 13.4586 44.5614 12.5155 43.4 12.51ZM34.5 19.51 17.5 19.51 17.5 17.51 34.5 17.51ZM40.5 19.51 36.5 19.51 36.5 17.51 40.5 17.51ZM26.5 24.51 17.5 24.51 17.5 22.51 26.5 22.51ZM40.5 24.51 29.5 24.51 29.5 22.51 40.5 22.51ZM31.5 29.51 17.5 29.51 17.5 27.51 31.5 27.51ZM37.5 29.51 33.5 29.51 33.5 27.51 37.5 27.51ZM53 62.49C52.6277 62.4805 52.2718 62.3346 52 62.08L45.2 55.5 30.57 55.5C29.4153 55.4367 28.5088 54.4864 28.5 53.33L28.5 34.1C28.4889 32.6807 29.6305 31.5211 31.0498 31.51 31.0499 31.51 31.0499 31.51 31.05 31.51L60.53 31.51C61.6346 31.5069 62.5325 32.3998 62.5356 33.5044 62.5358 33.5563 62.5339 33.6082 62.53 33.66L62.53 53.38C62.5411 54.536 61.6159 55.4835 60.46 55.5L54.58 55.5C54.5262 55.5262 54.4915 55.5802 54.49 55.64L54.49 60.93C54.5139 61.5492 54.1571 62.1201 53.59 62.37 53.4026 62.4465 53.2024 62.4872 53 62.49ZM52.52 60.94 52.52 60.94ZM45.3 53.51C45.7687 53.5082 46.2201 53.6873 46.56 54.01L52.56 59.84 52.56 55.62C52.5599 54.4663 53.4864 53.5264 54.64 53.51L60.49 53.51C60.5361 53.4835 60.5633 53.4331 60.56 53.38L60.56 33.66C60.56 33.5716 60.4884 33.5 60.4 33.5L30.94 33.5C30.64 33.5 30.5 33.65 30.5 33.98L30.5 53.28C30.5 53.38 30.66 53.51 30.73 53.51ZM46.19 51.51 44.89 51.51C44.5221 51.5167 44.1802 51.3208 44 51L43.48 50C43.1383 49.8809 42.8043 49.7406 42.48 49.58L41.4 49.93C41.0479 50.0407 40.6635 49.9484 40.4 49.69L39.48 48.76C39.2181 48.4986 39.1219 48.1139 39.23 47.76L39.58 46.7C39.3841 46.3562 39.2297 45.9903 39.12 45.61L38.12 45.12C37.7844 44.9462 37.5754 44.5979 37.58 44.22L37.58 42.92C37.5792 42.5456 37.7876 42.2022 38.12 42.03L39.12 41.52C39.2398 41.1529 39.3869 40.7952 39.56 40.45L39.22 39.38C39.1119 39.0261 39.2081 38.6414 39.47 38.38L40.39 37.46C40.6514 37.1981 41.0361 37.1019 41.39 37.21L42.45 37.56C42.7733 37.3502 43.1108 37.1631 43.46 37L44 36C44.1694 35.6637 44.5134 35.4511 44.89 35.45L46.19 35.45C46.5666 35.4511 46.9105 35.6637 47.08 36L47.58 37C47.9529 37.1129 48.3144 37.2602 48.66 37.44L49.66 37.1C50.0139 36.9919 50.3986 37.0881 50.66 37.35L51.58 38.27C51.8384 38.5335 51.9307 38.9179 51.82 39.27L51.48 40.34C51.691 40.6877 51.8652 41.0563 52 41.44L53 42C53.3363 42.1694 53.5489 42.5134 53.55 42.89L53.55 44.19C53.5204 44.5374 53.312 44.8443 53 45L52 45.5C51.8811 45.869 51.7306 46.227 51.55 46.57L51.9 47.64C52.0107 47.9921 51.9184 48.3765 51.66 48.64L50.74 49.57C50.4765 49.8284 50.0921 49.9207 49.74 49.81L48.67 49.46C48.3487 49.6298 48.0143 49.7736 47.67 49.89L47.16 50.89C46.9943 51.284 46.5965 51.5292 46.17 51.5ZM45.5 49.51 45.57 49.51 46 48.66C46.133 48.3982 46.3743 48.208 46.66 48.14 47.1342 48.0225 47.5865 47.8301 48 47.57 48.2514 47.414 48.559 47.3774 48.84 47.47L49.74 47.77 49.79 47.71 49.5 46.81C49.4105 46.532 49.4471 46.2288 49.6 45.98 49.8518 45.5563 50.0404 45.0981 50.16 44.62 50.228 44.3343 50.4182 44.093 50.68 43.96L51.52 43.53 51.52 43.45 50.67 43C50.4104 42.8692 50.2206 42.6319 50.15 42.35 50.039 41.8722 49.8498 41.4161 49.59 41 49.4371 40.7512 49.4005 40.448 49.49 40.17L49.78 39.27 49.73 39.22 48.84 39.5C48.562 39.5895 48.2588 39.5529 48.01 39.4 47.5842 39.1429 47.1225 38.9508 46.64 38.83 46.3562 38.7642 46.1152 38.578 45.98 38.32L45.56 37.48 45.48 37.48 45.05 38.32C44.9238 38.5632 44.7032 38.7439 44.44 38.82 43.9381 38.9537 43.4545 39.1485 43 39.4 42.7512 39.5529 42.448 39.5895 42.17 39.5L41.28 39.22 41.22 39.27 41.51 40.17C41.5995 40.448 41.5629 40.7512 41.41 41 41.1564 41.4264 40.9677 41.8881 40.85 42.37 40.7794 42.6519 40.5896 42.8892 40.33 43.02L39.5 43.45 39.5 43.53 40.34 43.96C40.6176 44.1012 40.8135 44.3637 40.87 44.67 40.9677 45.1492 41.1654 45.6023 41.45 46 41.6029 46.2488 41.6395 46.552 41.55 46.83L41.25 47.73 41.31 47.79 42.21 47.49C42.488 47.4005 42.7912 47.4371 43.04 47.59 43.4813 47.8371 43.9516 48.0286 44.44 48.16 44.7051 48.2384 44.9259 48.423 45.05 48.67ZM45.5 46.51C43.8431 46.51 42.5 45.1669 42.5 43.51 42.5 41.8531 43.8431 40.51 45.5 40.51 47.1569 40.51 48.5 41.8531 48.5 43.51 48.4946 45.1552 47.1651 46.489 45.52 46.5ZM45.5 42.3C44.8318 42.2945 44.2856 42.8318 44.2801 43.5 44.2746 44.1682 44.8118 44.7144 45.4801 44.7199 46.1483 44.7254 46.6945 44.1882 46.7 43.5199 46.7001 43.5133 46.7001 43.5066 46.7 43.5 46.7056 42.8411 46.1788 42.301 45.52 42.29Z" fill="#FFFFFF"/></g></svg>