<svg width="75" height="75" viewBox="0 0 75 75" xmlns="http://www.w3.org/2000/svg" xmlns:xlink="http://www.w3.org/1999/xlink" id="Product_Icon" overflow="hidden"><defs><linearGradient x1="37.5" y1="-37.5" x2="37.5" y2="112.5" gradientUnits="userSpaceOnUse" id="TurquoiseGradient" gradientTransform="matrix(-0.707107 -0.707107 0.707107 -0.707107 37.5 90.53)"><stop offset="0" stop-color="#055F4E"/><stop offset="1" stop-color="#56C0A7"/></linearGradient></defs><rect x="0" y="0" width="75" height="75" id="Turquoise_Gradient" fill="url(#TurquoiseGradient)"/><g id="Icon_Test"><path d="M62 58.88 60 58.88C60 53.1583 55.3617 48.52 49.64 48.52 43.9183 48.52 39.28 53.1583 39.28 58.88L37.28 58.88C37.28 52.0538 42.8138 46.52 49.64 46.52 56.4662 46.52 62 52.0538 62 58.88Z" fill="#FFFFFF"/><path d="M49.64 59.88 41.07 59.88 41.07 58.88C41.1856 54.194 44.9541 50.4211 49.64 50.3 54.3763 50.3055 58.2145 54.1437 58.22 58.88L56.22 58.88C56.2145 55.2482 53.2718 52.3055 49.64 52.3 46.4431 52.4215 43.7546 54.7366 43.16 57.88L49.64 57.88Z" fill="#FFFFFF"/><path d="M58.67 47.88 48.92 58.28 50.37 59.47 58.67 47.88Z" fill="#FFFFFF"/><path d="M50.37 60.47C50.1363 60.4705 49.9099 60.3891 49.73 60.24L48.28 59.05C47.8537 58.6989 47.7926 58.0687 48.1437 57.6424 48.1585 57.6244 48.174 57.6069 48.19 57.59L58 47.19C58.3772 46.7866 59.01 46.7654 59.4134 47.1426 59.7817 47.487 59.836 48.0518 59.54 48.46L51.18 60.05C51.0196 60.2747 50.7735 60.423 50.5 60.46Z" fill="#FFFFFF"/><circle cx="49.64" cy="58.88" r="0.95" fill="#FFFFFF"/><path d="M49.64 60.82C48.5634 60.7924 47.713 59.8972 47.7407 58.8206 47.7683 57.744 48.6634 56.8937 49.74 56.9213 50.8008 56.9485 51.6451 57.8189 51.64 58.88 51.6405 59.9514 50.7724 60.8204 49.7009 60.8209 49.6806 60.8209 49.6603 60.8206 49.64 60.82ZM49.64 58.82 49.64 58.93 49.7 58.93C49.7304 58.9134 49.7416 58.8754 49.725 58.845 49.7084 58.8146 49.6704 58.8034 49.64 58.82Z" fill="#FFFFFF"/><path d="M30.32 60.77C30.1362 60.7687 29.9563 60.7168 29.8 60.62L19 54C18.7032 53.8193 18.5215 53.4975 18.52 53.15L18.52 46.61 13.52 43.77C13.2017 43.5958 13.0026 43.2629 13 42.9L13 32C13.0006 31.6392 13.1955 31.3068 13.51 31.13L18.51 28.29 18.51 21.77C18.508 21.419 18.6901 21.0925 18.99 20.91L29.8 14.32C30.1094 14.1414 30.4906 14.1414 30.8 14.32L36.03 17.44 41.24 14.32C41.5494 14.1414 41.9306 14.1414 42.24 14.32L53.05 20.91C53.3468 21.0907 53.5285 21.4125 53.53 21.76L53.53 28.33 58.53 31.16C58.8476 31.3385 59.043 31.6757 59.04 32.04L59.04 42.91C59.0394 43.2708 58.8445 43.6032 58.53 43.78L53.09 46.9 52.09 45.16 56.04 42.92 52.8 41.13C51.6435 42.0801 49.9358 41.9127 48.9858 40.7562 48.5796 40.2619 48.3615 39.6397 48.37 39 48.461 37.5005 49.7504 36.3588 51.2499 36.4498 52.6223 36.5332 53.7167 37.6276 53.8 39 53.8 39.12 53.8 39.24 53.8 39.35L57.13 41.19 57.13 32.63 52.13 29.79C51.8194 29.6107 51.6286 29.2787 51.63 28.92L51.63 26.41 49.18 26.41C48.6277 27.807 47.0475 28.4918 45.6505 27.9395 44.2535 27.3872 43.5687 25.807 44.121 24.41 44.6733 23.013 46.2535 22.3282 47.6505 22.8805 48.3498 23.157 48.9035 23.7106 49.18 24.41L51.6 24.41 51.6 22.33 41.78 16.33 37.05 19.16 37.05 29.16 42.05 32.06C42.5097 31.7277 43.0627 31.5492 43.63 31.55 45.1267 31.55 46.34 32.7633 46.34 34.26 46.34 35.7567 45.1267 36.97 43.63 36.97 42.1333 36.97 40.92 35.7567 40.92 34.26 40.9213 34.0888 40.938 33.9181 40.97 33.75L35.53 30.6C35.2194 30.4207 35.0286 30.0887 35.03 29.73L35.03 19.18 30.3 16.35 26 19 26 25.44 24 25.44 24 20.19 20.48 22.33 20.48 28.33 25 30.89 29.51 28.33 29.51 23.69 31.51 23.69 31.51 28.92C31.5094 29.2808 31.3145 29.6132 31 29.79L26 32.63 26 36.9 31 40.19C31.2862 40.3736 31.4594 40.69 31.46 41.03L31.46 44 34.97 41.93 34.97 38.1 30.16 35.26 31.16 33.54 36.47 36.66C36.7737 36.8401 36.9599 37.1669 36.96 37.52L36.96 49.21 39.62 49.21 39.62 51.21 37.05 51.21 37.05 56.34 37.05 56.34C37.0485 56.6875 36.8668 57.0093 36.57 57.19L30.83 60.63C30.6756 60.7216 30.4995 60.7699 30.32 60.77ZM26.63 56.35 30.32 58.6 35.05 55.77 35.05 44.22 24.91 50.22 23.91 48.5 29.55 45.18 29.55 41.57 25 38.57 19.89 41.43 18.89 39.69 24 36.86 24 32.63 19.48 30.07 15 32.63 15 35.78 18.8 33.54 19.8 35.26 15 38.1 15 42.32 19.5 44.87 24.11 42.16 25.11 43.88 20.51 46.6 20.51 52.6 24.6 55.09 29.35 52.29 29.35 52.38 29.58 52.25 30.58 53.97ZM51.08 38.35C50.6824 38.35 50.36 38.6724 50.3601 39.0701 50.3601 39.4677 50.6825 39.79 51.0801 39.79 51.4778 39.79 51.8001 39.4676 51.8001 39.0699 51.8001 39.0666 51.8 39.0633 51.8 39.06 51.8166 38.6682 51.5125 38.3372 51.1207 38.3206 51.1072 38.32 51.0936 38.3198 51.08 38.32ZM43.65 33.62C43.2579 33.6255 42.9445 33.9478 42.9501 34.3399 42.9556 34.732 43.2779 35.0454 43.67 35.0399 44.0582 35.0344 44.37 34.7182 44.37 34.33 44.3866 33.9382 44.0825 33.6072 43.6907 33.5906 43.6772 33.59 43.6636 33.5898 43.65 33.59ZM46.65 24.72C46.2524 24.7145 45.9256 25.0323 45.9201 25.4299 45.9145 25.8275 46.2324 26.1543 46.63 26.1599 47.0276 26.1654 47.3544 25.8475 47.3599 25.4499 47.36 25.4466 47.36 25.4433 47.36 25.44 47.3821 25.0485 47.0827 24.7132 46.6912 24.6911 46.6808 24.6905 46.6704 24.6901 46.66 24.69Z" fill="#FFFFFF"/></g></svg>