<svg width="75" height="75" viewBox="0 0 75 75" xmlns="http://www.w3.org/2000/svg" xmlns:xlink="http://www.w3.org/1999/xlink" id="Product_Icon" overflow="hidden"><defs><linearGradient x1="-37.5" y1="37.5" x2="112.5" y2="37.5" gradientUnits="userSpaceOnUse" id="TurquoiseGradient" gradientTransform="matrix(0.707107 -0.707107 0.707107 0.707107 -15.53 37.5)"><stop offset="0" stop-color="#055F4E"/><stop offset="1" stop-color="#56C0A7"/></linearGradient></defs><rect x="0" y="0" width="75" height="75" id="Turquoise_Gradient" fill="url(#TurquoiseGradient)"/><g id="Icon_Test"><path d="M37.5 51.88C29.5581 51.88 23.12 45.4419 23.12 37.5 23.12 29.5581 29.5581 23.12 37.5 23.12 45.4419 23.12 51.88 29.5581 51.88 37.5 51.869 45.4373 45.4373 51.869 37.5 51.88ZM37.5 25.12C30.6627 25.12 25.12 30.6627 25.12 37.5 25.12 44.3373 30.6627 49.88 37.5 49.88 44.3373 49.88 49.88 44.3373 49.88 37.5 49.869 30.6673 44.3327 25.131 37.5 25.12Z" fill="#FFFFFF"/><path d="M19.12 30.59 17.25 29.88C20.4746 21.4721 28.535 15.9104 37.54 15.88 38.0923 15.8823 38.5381 16.3319 38.5358 16.8842 38.5347 17.1494 38.4283 17.4033 38.24 17.59L34.9 20.93 33.49 19.51 35 18.06C27.8116 19.0137 21.7195 23.8206 19.12 30.59Z" fill="#FFFFFF"/><path d="M58.23 38.58C57.9642 38.5815 57.7087 38.4772 57.52 38.29L54.19 35 55.6 33.58 57.06 35C56.0887 27.8251 51.2806 21.7517 44.52 19.16L45.23 17.29C53.6379 20.5146 59.1996 28.575 59.23 37.58 59.23 38.1323 58.7823 38.58 58.23 38.58Z" fill="#FFFFFF"/><path d="M37.54 59.27C36.9877 59.2677 36.5419 58.8182 36.5441 58.2659 36.5452 58.0056 36.6478 57.7559 36.83 57.57L40.17 54.23 41.58 55.64 40.12 57.1C47.3049 56.138 53.3932 51.3341 56 44.57L57.87 45.28C54.6346 53.6957 46.5562 59.2548 37.54 59.27Z" fill="#FFFFFF"/><path d="M29.84 57.87C21.4321 54.6454 15.8704 46.585 15.84 37.58 15.8368 37.0277 16.2819 36.5774 16.8342 36.5742 17.1028 36.5726 17.3608 36.6792 17.55 36.87L20.89 40.21 19.47 41.62 18 40.17C18.9786 47.3426 23.7897 53.4112 30.55 56Z" fill="#FFFFFF"/><rect x="13.12" y="38.71" width="4.79" height="2" fill="#FFFFFF" transform="matrix(0.523242 -0.852184 0.852184 0.523242 -26.44 32.16)"/><rect x="57.09" y="34.63" width="4.79" height="2" fill="#FFFFFF" transform="matrix(0.523391 -0.852093 0.852093 0.523391 -2.01 67.66)"/><rect x="34.77" y="12.68" width="2" height="4.79" fill="#FFFFFF" transform="matrix(0.689999 -0.723811 0.723811 0.689999 0.18 30.57)"/><rect x="38.27" y="57.53" width="2" height="4.79" fill="#FFFFFF" transform="matrix(0.689999 -0.723811 0.723811 0.689999 -31.2 47)"/><path d="M37.45 37.51C34.7935 37.5155 32.6355 35.3665 32.63 32.71 32.6245 30.0535 34.7735 27.8955 37.43 27.89 40.0865 27.8845 42.2445 30.0335 42.25 32.69 42.25 32.6933 42.25 32.6967 42.25 32.7 42.2445 35.3503 40.1003 37.499 37.45 37.51ZM37.45 29.9C35.8981 29.8945 34.6355 31.1481 34.63 32.7 34.6245 34.2519 35.8781 35.5145 37.43 35.52 38.9819 35.5255 40.2445 34.2719 40.25 32.72 40.25 32.7133 40.25 32.7067 40.25 32.7 40.2445 31.1559 38.9941 29.9055 37.45 29.9Z" fill="#FFFFFF"/><path d="M44.14 44.67 30.76 44.67C30.2077 44.67 29.76 44.2223 29.76 43.67 29.7467 40.9064 31.1607 38.3316 33.5 36.86 34.6994 36.112 36.0865 35.7201 37.5 35.73 41.8128 35.8067 45.2513 39.357 45.19 43.67 45.1907 44.2223 44.7435 44.6706 44.1912 44.6712 44.1742 44.6713 44.1571 44.6708 44.14 44.67ZM31.84 42.67 43.06 42.67C42.6497 39.873 40.2764 37.7832 37.45 37.73 36.425 37.7321 35.4209 38.0195 34.55 38.56 33.1003 39.4793 32.1138 40.9754 31.84 42.67Z" fill="#FFFFFF"/></g></svg>