<svg width="75" height="75" viewBox="0 0 75 75" xmlns="http://www.w3.org/2000/svg" xmlns:xlink="http://www.w3.org/1999/xlink" id="Product_Icon" overflow="hidden"><defs><linearGradient x1="-15.54" y1="-15.53" x2="90.53" y2="90.54" gradientUnits="userSpaceOnUse" id="TurquoiseGradient" gradientTransform="matrix(0 -1 1 0 0 75)"><stop offset="0" stop-color="#055F4E"/><stop offset="1" stop-color="#56C0A7"/></linearGradient></defs><rect x="0" y="0" width="75" height="75" id="Turquoise_Gradient" fill="url(#TurquoiseGradient)"/><g id="Icon_Test"><path d="M39.5 18.5C30.1112 18.5 22.5 26.1112 22.5 35.5 22.5029 38.2678 23.1899 40.9919 24.5 43.43L14 54C12.3431 56.2091 12.7909 59.3431 15 61 16.7778 62.3333 19.2222 62.3333 21 61L23 59.06 31.46 50.57 31.55 50.48C39.8344 54.898 50.1318 51.7637 54.5498 43.4793 58.9678 35.1949 55.8335 24.8976 47.5491 20.4795 45.0604 19.1523 42.2805 18.4651 39.46 18.48ZM19.62 59.62C18.4078 60.7495 16.5095 60.6825 15.38 59.4703 14.3064 58.3182 14.3064 56.5321 15.38 55.38L25.56 45.2C26.7122 46.8523 28.1477 48.2878 29.8 49.44ZM39.5 50.5C31.2157 50.5 24.5 43.7843 24.5 35.5 24.5 27.2157 31.2157 20.5 39.5 20.5 47.7843 20.5 54.5 27.2157 54.5 35.5 54.5 43.7843 47.7843 50.5 39.5 50.5Z" fill="#FFFFFF"/><path d="M39.5 12.5C36.1918 12.4932 32.9221 13.21 29.92 14.6L30.75 16.42C41.2759 11.5498 53.7569 16.1347 58.627 26.6606 63.4972 37.1865 58.9123 49.6675 48.3864 54.5377 42.7048 57.1665 36.1466 57.1233 30.5 54.42L29 55.93C40.2832 61.7647 54.16 57.3478 59.9947 46.0645 65.8294 34.7813 61.4125 20.9045 50.1293 15.0698 46.8443 13.3711 43.1982 12.4896 39.5 12.5ZM21.23 25.17 19.5 24.17C15.6718 30.9051 15.51 39.1194 19.07 46L20.56 44.48C17.5935 38.318 17.844 31.0918 21.23 25.15Z" fill="#FFFFFF"/><path d="M48.5 44.5 43.5 44.5 43.5 42.5 46.5 42.5 46.5 39.5 48.5 39.5 48.5 44.5Z" fill="#FFFFFF"/><path d="M48.5 31.5 46.5 31.5 46.5 28.5 43.5 28.5 43.5 26.5 48.5 26.5 48.5 31.5Z" fill="#FFFFFF"/><path d="M32.5 31.5 30.5 31.5 30.5 26.5 35.5 26.5 35.5 28.5 32.5 28.5 32.5 31.5Z" fill="#FFFFFF"/><path d="M35.5 44.5 30.5 44.5 30.5 39.5 32.5 39.5 32.5 42.5 35.5 42.5 35.5 44.5Z" fill="#FFFFFF"/><path d="M34.5 40.5 37.72 40.5 34.5 37.28 34.5 40.5Z" fill="#FFFFFF"/><path d="M34.5 30.5 34.5 33.72 37.72 30.5 34.5 30.5Z" fill="#FFFFFF"/><path d="M44.5 30.5 41.28 30.5 44.5 33.72 44.5 30.5Z" fill="#FFFFFF"/><path d="M44.5 40.5 44.5 37.28 41.28 40.5 44.5 40.5Z" fill="#FFFFFF"/></g></svg>