<svg width="75" height="75" viewBox="0 0 75 75" xmlns="http://www.w3.org/2000/svg" xmlns:xlink="http://www.w3.org/1999/xlink" id="Product_Icon" overflow="hidden"><defs><linearGradient x1="-15.53" y1="90.53" x2="90.53" y2="-15.53" gradientUnits="userSpaceOnUse" id="TurquoiseGradient"><stop offset="0" stop-color="#055F4E"/><stop offset="1" stop-color="#56C0A7"/></linearGradient></defs><rect x="0" y="0" width="75" height="75" id="Turquoise_Gradient" fill="url(#TurquoiseGradient)"/><g id="Icon_Test"><path d="M43.74 62.76C43.5605 62.7599 43.3844 62.7116 43.23 62.62L37.5 59.19 31.77 62.62C31.4606 62.7986 31.0794 62.7986 30.77 62.62L19 55.44C18.707 55.2569 18.5293 54.9355 18.53 54.59L18.53 47.39 13 44.28C12.6855 44.1032 12.4906 43.7708 12.49 43.41L12.49 31.59C12.4906 31.2292 12.6855 30.8968 13 30.72L18.5 27.61 18.5 20.41C18.4958 20.0609 18.674 19.735 18.97 19.55L30.73 12.38C31.0394 12.2014 31.4206 12.2014 31.73 12.38L37.46 15.81 43.19 12.38C43.4994 12.2014 43.8806 12.2014 44.19 12.38L56 19.56C56.2968 19.7407 56.4785 20.0625 56.48 20.41L56.48 27.61 62 30.72C62.3145 30.8968 62.5094 31.2292 62.51 31.59L62.51 43.41C62.5094 43.7708 62.3145 44.1032 62 44.28L56.5 47.39 56.5 54.59C56.502 54.941 56.3199 55.2675 56.02 55.45L44.26 62.62C44.1014 62.7102 43.9224 62.7584 43.74 62.76ZM38.49 57.46 43.74 60.59 54.5 54 54.5 46.81C54.5006 46.4492 54.6955 46.1168 55.01 45.94L59.44 43.42 55.72 41.37C54.5176 42.4028 52.7056 42.2652 51.6728 41.0628 50.6401 39.8604 50.7776 38.0484 51.98 37.0157 53.1824 35.9829 54.9944 36.1204 56.0272 37.3228 56.4758 37.8452 56.7217 38.5114 56.72 39.2 56.7298 39.3398 56.7298 39.4802 56.72 39.62L60.54 41.72 60.54 32.17 55 29.06C54.6855 28.8832 54.4906 28.5508 54.49 28.19L54.49 25.5 51.73 25.5C51.1777 26.9916 49.5208 27.7531 48.0292 27.2008 46.5376 26.6485 45.7761 24.9916 46.3284 23.5 46.8807 22.0084 48.5376 21.2469 50.0292 21.7992 50.8171 22.0909 51.4383 22.7121 51.73 23.5L54.5 23.5 54.5 21 43.73 14.41 38.5 17.54 38.5 28.54 44.06 31.76C45.322 30.8101 47.1151 31.063 48.065 32.325 49.0149 33.587 48.762 35.3801 47.5 36.33 46.238 37.2799 44.4449 37.027 43.495 35.765 43.1228 35.2706 42.9211 34.6688 42.92 34.05 42.9192 33.8485 42.9393 33.6474 42.98 33.45L37 30C36.6925 29.8224 36.5021 29.4951 36.5 29.14L36.5 17.54 31.26 14.41 26.49 17.31 26.49 24.37 24.49 24.37 24.49 18.53 20.5 21 20.5 27.64 25.5 30.47 30.5 27.64 30.5 22.5 32.5 22.5 32.5 28.19C32.4994 28.5508 32.3045 28.8832 31.99 29.06L26.49 32.17 26.49 36.93 32 40.53C32.2862 40.7136 32.4594 41.03 32.46 41.37L32.46 44.73 36.46 42.37 36.46 38.13 31.21 35 32.21 33.28 38 36.69C38.2999 36.8725 38.482 37.199 38.48 37.55L38.48 50.55 43.07 50.55C43.6215 49.0699 45.2685 48.3171 46.7486 48.8686 47.8683 49.2858 48.6106 50.3551 48.61 51.55 48.5068 53.1483 47.1275 54.3603 45.5292 54.2571 44.4564 54.1879 43.51 53.5309 43.07 52.55L38.47 52.55ZM27.08 58 31.26 60.55 36.51 57.42 36.51 44.69 25.33 51.27 24.33 49.54 30.5 45.9 30.5 41.9 25.5 38.63 19.9 41.77 18.9 40.02 24.52 36.87 24.52 32.17 19.52 29.34 14.52 32.17 14.52 35.81 18.8 33.3 19.8 35.02 14.5 38.13 14.5 42.82 19.5 45.65 24.56 42.65 25.56 44.37 20.5 47.37 20.5 54 25 56.79 30.22 53.72 30.28 53.81 30.52 53.67 31.52 55.39ZM45.77 50.59C45.2895 50.5845 44.8956 50.9695 44.8901 51.4499 44.8845 51.9304 45.2695 52.3244 45.75 52.3299 46.2305 52.3354 46.6244 51.9504 46.6299 51.4699 46.63 51.4666 46.63 51.4633 46.63 51.46 46.6138 50.9968 46.2335 50.6297 45.77 50.63ZM53.85 38.29C53.3695 38.29 52.98 38.6795 52.98 39.16 52.98 39.6405 53.3695 40.03 53.85 40.03 54.3305 40.03 54.72 39.6405 54.72 39.16 54.6986 38.6952 54.3153 38.3295 53.85 38.33ZM45.77 33.14C45.2895 33.1345 44.8956 33.5195 44.8901 33.9999 44.8845 34.4804 45.2695 34.8744 45.75 34.8799 46.2305 34.8854 46.6244 34.5004 46.6299 34.0199 46.63 34.0166 46.63 34.0133 46.63 34.01 46.6138 33.5468 46.2335 33.1797 45.77 33.18ZM49 23.63C48.5195 23.63 48.13 24.0195 48.13 24.5 48.13 24.9805 48.5195 25.37 49 25.37 49.4805 25.37 49.87 24.9805 49.87 24.5 49.8756 24.0251 49.495 23.6356 49.0201 23.63 49.0134 23.6299 49.0067 23.6299 49 23.63Z" fill="#FFFFFF"/></g></svg>