<svg width="75" height="75" viewBox="0 0 75 75" xmlns="http://www.w3.org/2000/svg" xmlns:xlink="http://www.w3.org/1999/xlink" id="Product_Icon" overflow="hidden"><defs><linearGradient x1="-37.5" y1="37.5" x2="112.5" y2="37.5" gradientUnits="userSpaceOnUse" id="TurquoiseGradient" gradientTransform="matrix(0.707107 -0.707107 0.707107 0.707107 -15.53 37.5)"><stop offset="0" stop-color="#055F4E"/><stop offset="1" stop-color="#56C0A7"/></linearGradient></defs><rect x="0" y="0" width="75" height="75" id="Turquoise_Gradient" fill="url(#TurquoiseGradient)"/><g id="Icon_Test"><path d="M34 46.5 16 46.5C15.4477 46.5 15 46.0523 15 45.5L15 39.5 17 39.5 17 44.5 34 44.5ZM39 21.5 39 26.5 37 26.5 37 22.5 30 22.5C29.4477 22.5 29 22.0523 29 21.5L29 14.5 17 14.5 17 34.5 15 34.5 15 13.5C15 12.9477 15.4477 12.5 16 12.5L30.09 12.5C30.3244 12.5127 30.5455 12.6125 30.71 12.78L38.71 20.78C38.8997 20.9712 39.0042 21.2307 39 21.5ZM35.59 20.5 31 15.91 31 20.5ZM30 12.5 30 12.5ZM32.7 39 27.58 25.11 25.38 25.11 20.26 39 22.36 39 23.6 35.32 29.3 35.32 30.58 39ZM26.44 27 28.78 33.8 24.12 33.8ZM60 37.5 60 61.5C60 62.0523 59.5523 62.5 59 62.5L37 62.5C36.4477 62.5 36 62.0523 36 61.5L36 29.5C36 28.9477 36.4477 28.5 37 28.5L51 28.5C51.0495 28.4903 51.1005 28.4903 51.15 28.5 51.3621 28.5231 51.5598 28.6184 51.71 28.77L59.71 36.77C59.9022 36.9636 60.0069 37.2273 60 37.5ZM52 36.5 56.59 36.5 52 31.91ZM58 38.5 51 38.5C50.4477 38.5 50 38.0523 50 37.5L50 30.5 38 30.5 38 60.5 58 60.5ZM51 28.5C51.0495 28.4903 51.1005 28.4903 51.15 28.5L51.15 28.5ZM54.39 54.84C54.5551 54.5341 54.7602 54.2516 55 54 55.1308 53.8692 55.1805 53.6779 55.13 53.5 55.0762 53.3268 54.9359 53.1941 54.76 53.15 52.8635 52.7452 51.0763 51.9369 49.52 50.78 50.8396 49.2895 51.8584 47.5576 52.52 45.68 52.676 45.635 52.8108 45.5357 52.9 45.4L54.46 45.4C54.7361 45.4 54.96 45.1761 54.96 44.9L54.96 44C54.96 43.7239 54.7361 43.5 54.46 43.5L49 43.5 49 42.16C49.1457 42.0497 49.2454 41.8894 49.28 41.71 49.3 41.5703 49.2601 41.4286 49.17 41.32 49.0777 41.2159 48.9487 41.1514 48.81 41.14L47.57 41.06C47.4304 41.0457 47.2916 41.0932 47.19 41.19 47.0881 41.2861 47.0303 41.4199 47.03 41.56L47.03 43.51 41.64 43.51C41.3639 43.51 41.14 43.7339 41.14 44.01L41.14 44.93C41.14 45.2061 41.3639 45.43 41.64 45.43L43.36 45.43C44.0623 47.4158 45.1383 49.2488 46.53 50.83 44.9793 51.9531 43.2328 52.7772 41.38 53.26 41.2193 53.3075 41.0923 53.4308 41.04 53.59 40.9882 53.7518 41.0221 53.9288 41.13 54.06 41.3212 54.2793 41.4796 54.5252 41.6 54.79 41.701 55.0268 41.9626 55.1511 42.21 55.08 44.301 54.49 46.2643 53.5168 48 52.21 49.7091 53.597 51.7085 54.5813 53.85 55.09 53.8894 55.0998 53.9306 55.0998 53.97 55.09 54.144 55.0854 54.303 54.9908 54.39 54.84ZM50.5 45.43C49.9266 46.9024 49.0896 48.2579 48.03 49.43 46.9392 48.2645 46.0715 46.9087 45.47 45.43ZM31 60.5C28.7909 60.5 27 58.7091 27 56.5L27 51.91 30.29 55.21 31.71 53.79 26.71 48.79C26.3211 48.3979 25.6879 48.3953 25.2958 48.7842 25.2939 48.7861 25.2919 48.7881 25.29 48.79L20.29 53.79 21.71 55.21 25 51.91 25 56.46C25 59.7737 27.6863 62.46 31 62.46L34 62.46 34 60.46ZM53.29 19.79 50 23.09 50 18.54C50 15.2263 47.3137 12.54 44 12.54L40 12.54 40 14.54 44 14.54C46.2091 14.54 48 16.3309 48 18.54L48 23.09 44.71 19.79 43.29 21.21 48.29 26.21C48.6789 26.6021 49.3121 26.6047 49.7042 26.2158 49.7061 26.2139 49.7081 26.2119 49.71 26.21L54.71 21.21Z" fill="#FFFFFF"/></g></svg>