<svg width="75" height="75" viewBox="0 0 75 75" xmlns="http://www.w3.org/2000/svg" xmlns:xlink="http://www.w3.org/1999/xlink" id="Product_Icon" overflow="hidden"><defs><linearGradient x1="112.5" y1="37.5" x2="-37.5" y2="37.5" gradientUnits="userSpaceOnUse" id="TurquoiseGradient" gradientTransform="matrix(-0.707107 0.707107 -0.707107 -0.707107 90.53 37.5)"><stop offset="0" stop-color="#055F4E"/><stop offset="1" stop-color="#56C0A7"/></linearGradient></defs><rect x="0" y="0" width="75" height="75" id="Turquoise_Gradient" fill="url(#TurquoiseGradient)"/><g id="Icon_Test"><path d="M57.96 59.53 51.03 59.53 51.03 57.53 55.96 57.53 55.96 26.05 57.96 26.05 57.96 59.53Z" fill="#FFFFFF"/><path d="M51.03 59.53 13.59 59.53 13.59 17.42 49.57 17.42 49.57 19.42 15.59 19.42 15.59 57.53 51.03 57.53 51.03 59.53Z" fill="#FFFFFF"/><path d="M27.17 38.38 18.48 38.38 18.48 36.38 26.48 36.38 29.17 29.29C29.3197 28.9019 29.6941 28.6471 30.11 28.65L39.11 28.65 42.45 22.65C42.6268 22.3355 42.9592 22.1406 43.32 22.14L52.46 22.14 58.88 16.78 60.16 18.32 53.47 23.91C53.2901 24.0591 53.0637 24.1405 52.83 24.14L43.88 24.14 40.54 30.14C40.3658 30.4583 40.0329 30.6574 39.67 30.66L30.8 30.66 28.1 37.75C27.9484 38.1307 27.5798 38.3804 27.17 38.38Z" fill="#FFFFFF"/><path d="M61.41 20.91 59.41 20.91 59.41 17.47 55.98 17.47 55.98 15.47 61.41 15.47 61.41 20.91Z" fill="#FFFFFF"/><path d="M27.51 55.23 18.7 55.23 18.7 40.65 27.51 40.65ZM20.7 53.23 25.51 53.23 25.51 42.65 20.7 42.65Z" fill="#FFFFFF"/><path d="M40 55.23 31.18 55.23 31.18 32.9 40 32.9ZM33.19 53.23 38 53.23 38 34.9 33.18 34.9Z" fill="#FFFFFF"/><path d="M52.59 55.23 43.78 55.23 43.78 26.48 52.59 26.48ZM45.78 53.23 50.59 53.23 50.59 28.48 45.78 28.48Z" fill="#FFFFFF"/></g></svg>