<svg width="75" height="75" viewBox="0 0 75 75" xmlns="http://www.w3.org/2000/svg" xmlns:xlink="http://www.w3.org/1999/xlink" id="Product_Icon" overflow="hidden"><defs><linearGradient x1="-15.54" y1="-15.53" x2="90.53" y2="90.54" gradientUnits="userSpaceOnUse" id="TurquoiseGradient" gradientTransform="matrix(0 -1 1 0 0 75)"><stop offset="0" stop-color="#055F4E"/><stop offset="1" stop-color="#56C0A7"/></linearGradient></defs><rect x="0" y="0" width="75" height="75" id="Turquoise_Gradient" fill="url(#TurquoiseGradient)"/><g id="Icon_Test"><path d="M44.5 34.2 44.5 24.5C44.5015 24.2342 44.3972 23.9787 44.21 23.79L33.21 12.79C33.0213 12.6028 32.7658 12.4985 32.5 12.5L13.5 12.5C12.9477 12.5 12.5 12.9477 12.5 13.5L12.5 56.5C12.5 57.0523 12.9477 57.5 13.5 57.5L43.5 57.5C44.0523 57.5 44.5 57.0523 44.5 56.5L44.5 52.06C43.7367 51.383 43.0644 50.6099 42.5 49.76L42.5 55.5 14.5 55.5 14.5 14.5 31.5 14.5 31.5 24.5C31.5 25.0523 31.9477 25.5 32.5 25.5L42.5 25.5 42.5 36.5C43.0622 35.6484 43.7347 34.875 44.5 34.2ZM33.5 23.5 33.5 15.91 41.09 23.5ZM23.5 31.5 17.5 31.5 17.5 29.5 23.5 29.5ZM39.5 31.5 25.5 31.5 25.5 29.5 39.5 29.5ZM39.5 37.5 17.5 37.5 17.5 35.5 39.5 35.5ZM54.94 62.5 50.06 62.5C49.6527 62.502 49.2848 62.2568 49.13 61.88L47.92 58.88C47.7909 58.5713 47.8246 58.2185 48.01 57.94 48.1963 57.6644 48.5074 57.4995 48.84 57.5L56.16 57.5C56.4926 57.4995 56.8037 57.6644 56.99 57.94 57.1754 58.2185 57.2091 58.5713 57.08 58.88L55.87 61.88C55.7152 62.2568 55.3473 62.502 54.94 62.5ZM50.73 60.5 54.27 60.5 54.67 59.5 50.33 59.5ZM62.37 41.5C61.4824 36.0489 56.3439 32.3495 50.8928 33.2371 46.0493 34.0258 42.4937 38.2126 42.5 43.12 42.5008 46.3885 44.099 49.4504 46.78 51.32 47.0428 51.4871 47.2845 51.6852 47.5 51.91L47.5 55.5C47.5 56.0523 47.9477 56.5 48.5 56.5L56.5 56.5C57.0523 56.5 57.5 56.0523 57.5 55.5L57.5 51.9C57.716 51.6856 57.954 51.4945 58.21 51.33 60.9055 49.472 62.5107 46.4038 62.5 43.13 62.5015 42.5774 62.458 42.0256 62.37 41.48ZM57.05 49.7C56.47 50.1 55.5 50.77 55.5 51.8L55.5 54.5 53.5 54.5 53.5 47.5 55.5 47.5 55.5 45.5 49.5 45.5 49.5 47.5 51.5 47.5 51.5 54.5 49.5 54.5 49.5 51.82C49.5 50.82 48.5 50.09 47.92 49.68 44.2845 47.1692 43.3727 42.1866 45.8835 38.5511 48.3943 34.9156 53.3769 34.0038 57.0124 36.5146 57.3625 36.7564 57.6927 37.0257 58 37.32 59.2666 38.5066 60.1067 40.0777 60.39 41.79 60.9058 44.8514 59.6038 47.9348 57.05 49.7ZM28.5 25.5 17.5 25.5 17.5 23.5 28.5 23.5ZM29.5 43.5 17.5 43.5 17.5 41.5 29.5 41.5ZM39.5 43.5 31.5 43.5 31.5 41.5 39.5 41.5ZM30.5 49.5 17.5 49.5 17.5 47.5 30.5 47.5Z" fill="#FFFFFF"/></g></svg>