<svg width="75" height="75" viewBox="0 0 75 75" xmlns="http://www.w3.org/2000/svg" xmlns:xlink="http://www.w3.org/1999/xlink" id="Product_Icon" overflow="hidden"><defs><linearGradient x1="37.5" y1="-37.5" x2="37.5" y2="112.5" gradientUnits="userSpaceOnUse" id="TurquoiseGradient" gradientTransform="matrix(-0.707107 -0.707107 0.707107 -0.707107 37.5 90.53)"><stop offset="0" stop-color="#055F4E"/><stop offset="1" stop-color="#56C0A7"/></linearGradient></defs><rect x="0" y="0" width="75" height="75" id="Turquoise_Gradient" fill="url(#TurquoiseGradient)"/><g id="Icon_Test"><path d="M48.46 57.23 47.46 55.53 53.15 52.06 53.15 45.44C53.1506 45.0792 53.3455 44.7468 53.66 44.57L57.66 42.31 54.39 40.51C53.904 40.9133 53.2916 41.1328 52.66 41.13 51.1578 41.1245 49.9445 39.9022 49.95 38.4 49.9555 36.8978 51.1778 35.6845 52.68 35.69 54.1783 35.6955 55.39 36.9117 55.39 38.41 55.4002 38.5264 55.4002 38.6436 55.39 38.76L58.75 40.61 58.75 32 53.75 29.15C53.4355 28.9732 53.2406 28.6408 53.24 28.28L53.24 25.72 50.68 25.72C50.1277 27.117 48.5475 27.8018 47.1505 27.2495 45.7535 26.6972 45.0687 25.117 45.621 23.72 46.1733 22.323 47.7535 21.6382 49.1505 22.1905 49.8498 22.467 50.4035 23.0206 50.68 23.72L53.11 23.72 53.11 21.63 43.25 15.63 38.5 18.47 38.5 28.53 43.5 31.45C44.7188 30.5719 46.4187 30.8481 47.2969 32.0669 48.175 33.2857 47.8988 34.9856 46.68 35.8638 45.4612 36.7419 43.7613 36.4657 42.8831 35.2469 42.5501 34.7847 42.3707 34.2296 42.37 33.66 42.3715 33.4855 42.3882 33.3116 42.42 33.14L37 30C36.6925 29.8224 36.5021 29.4951 36.5 29.14L36.5 18.47 31.75 15.62 27.43 18.26 27.43 24.72 25.43 24.72 25.43 19.48 21.89 21.63 21.89 27.63 26.43 30.2 31 27.67 31 23 33 23 33 28.25C33.0014 28.6087 32.8106 28.9407 32.5 29.12L27.5 31.97 27.5 36.84C27.5195 37.2964 27.2273 37.7079 26.79 37.84L21.33 40.9 20.33 39.15 25.48 36.27 25.48 32 20.89 29.4 16.35 32 16.35 35.18 20.18 32.93 21.18 34.65 16.34 37.5 16.34 41.74 21.34 44.6C21.6545 44.7768 21.8494 45.1092 21.85 45.47L21.85 52.09 27.54 55.56 26.54 57.26 20.37 53.5C20.0732 53.3193 19.8915 52.9975 19.89 52.65L19.89 46 14.89 43.15C14.5755 42.9732 14.3806 42.6408 14.38 42.28L14.38 31.39C14.3806 31.0292 14.5755 30.6968 14.89 30.52L19.89 27.67 19.89 21.07C19.8914 20.7225 20.0732 20.4007 20.37 20.22L31.22 13.6C31.5294 13.4214 31.9106 13.4214 32.22 13.6L37.46 16.74 42.7 13.6C43.0094 13.4214 43.3906 13.4214 43.7 13.6L54.55 20.22C54.8468 20.4007 55.0285 20.7225 55.03 21.07L55.03 27.67 60.03 30.52C60.3445 30.6968 60.5394 31.0292 60.54 31.39L60.54 42.3C60.5394 42.6608 60.3445 42.9932 60.03 43.17L55.03 46.02 55.03 52.62C55.0285 52.9675 54.8468 53.2893 54.55 53.47ZM52.59 37.69C52.1924 37.6955 51.8745 38.0223 51.8801 38.4199 51.8856 38.8175 52.2124 39.1354 52.61 39.1299 53.0037 39.1244 53.32 38.8037 53.32 38.41 53.32 38.0124 52.9977 37.69 52.6001 37.6899 52.5967 37.6899 52.5934 37.69 52.59 37.69ZM45.13 32.94C44.7324 32.94 44.41 33.2624 44.41 33.66 44.41 34.0576 44.7324 34.38 45.13 34.38 45.5276 34.38 45.85 34.0576 45.85 33.66 45.85 33.2624 45.5276 32.94 45.13 32.94ZM48.13 24C47.7269 23.9945 47.3956 24.3169 47.3901 24.72 47.3847 25.1231 47.707 25.4544 48.1101 25.4599 48.5133 25.4653 48.8445 25.143 48.85 24.7399 48.8501 24.7332 48.8501 24.7266 48.85 24.72 48.8502 24.33 48.5398 24.0108 48.15 24Z" fill="#FFFFFF"/><path d="M45.35 61.55 29.65 61.55C29.0977 61.55 28.65 61.1023 28.65 60.55L28.65 44.85C28.6515 44.5281 28.8078 44.2267 29.07 44.04L36.92 38.43C37.2672 38.1828 37.7328 38.1828 38.08 38.43L45.93 44C46.1922 44.1867 46.3485 44.4881 46.35 44.81L46.35 60.51C46.3721 61.0618 45.9426 61.5271 45.3908 61.5492 45.3772 61.5497 45.3636 61.55 45.35 61.55ZM30.65 59.55 44.35 59.55 44.35 45.37 37.5 40.48 30.65 45.37Z" fill="#FFFFFF"/><path d="M42.44 56 32.66 56C32.1077 56 31.66 55.5523 31.66 55L31.66 49.13C31.66 48.5777 32.1077 48.13 32.66 48.13L42.44 48.13C42.9923 48.13 43.44 48.5777 43.44 49.13L43.44 55C43.44 55.5523 42.9923 56 42.44 56ZM33.66 54 41.44 54 41.44 50.13 33.66 50.13Z" fill="#FFFFFF"/><rect x="34.16" y="51.13" width="6.64" height="2" fill="#FFFFFF"/><path d="M37.55 46.75C36.2853 46.75 35.26 45.7247 35.26 44.46 35.26 43.1953 36.2853 42.17 37.55 42.17 38.8147 42.17 39.84 43.1953 39.84 44.46 39.8345 45.7225 38.8125 46.7445 37.55 46.75ZM37.55 44.17C37.3898 44.17 37.26 44.2998 37.26 44.46 37.26 44.6202 37.3898 44.75 37.55 44.75 37.7102 44.75 37.84 44.6202 37.84 44.46 37.84 44.2998 37.7102 44.17 37.55 44.17Z" fill="#FFFFFF"/><rect x="27.92" y="35.52" width="2" height="6.1" fill="#FFFFFF" transform="matrix(0.544785 -0.838575 0.838575 0.544785 -19.18 41.81)"/></g></svg>