<svg width="75" height="75" viewBox="0 0 75 75" xmlns="http://www.w3.org/2000/svg" xmlns:xlink="http://www.w3.org/1999/xlink" id="Product_Icon" overflow="hidden"><defs><linearGradient x1="-15.54" y1="90.54" x2="90.53" y2="-15.53" gradientUnits="userSpaceOnUse" id="TurquoiseGradient"><stop offset="0" stop-color="#055F4E"/><stop offset="1" stop-color="#56C0A7"/></linearGradient></defs><rect x="0" y="0" width="75" height="75" id="Turquoise_Gradient" fill="url(#TurquoiseGradient)"/><g id="Icon_Test"><path d="M16.51 53.92C16.0899 53.9235 15.6728 53.8489 15.28 53.7 13.28 52.92 12.38 50.7 12.68 47.53L12.68 47.53C12.68 47.53 12.68 47.35 12.81 46.11 12.931 45.3143 13.1115 44.5287 13.35 43.76L13.43 43.52 13.29 43.52C12.942 43.3787 12.7025 43.0542 12.67 42.68 12.5992 41.551 12.6799 40.4176 12.91 39.31L12.91 39.18C13.0428 38.5745 13.22 37.9796 13.44 37.4 14.4287 34.6766 16.9931 32.8437 19.89 32.79 21.3875 32.9354 22.867 32.3732 23.89 31.27L25.53 28.37C27.96 24.43 34.45 18.47 50.76 22.37 51.1597 22.4643 51.4612 22.7935 51.52 23.2L53.88 23.2 54.08 23.2C56.1587 23.3181 58.0812 24.3415 59.34 26 60.6807 27.6938 61.2795 29.8579 61 32L60.12 38.8C59.9197 40.3834 59.5441 41.9396 59 43.44L58.36 45.24 57.43 47.49C57.3617 47.661 57.2475 47.8098 57.1 47.92L57.1 48.21C57.3053 49.1605 57.0701 50.1528 56.46 50.91 55.7395 51.7651 54.6677 52.2439 53.55 52.21L42.15 52.21C41.1549 52.2012 40.213 51.7595 39.57 51 39.3019 50.707 39.0885 50.3683 38.94 50 38.624 50.5626 38.2521 51.0919 37.83 51.58 37.24 52.25 35.13 54.42 33 53.79 30.26 52.98 29.27 48.7 30.71 43.79 32.15 38.88 35.28 35.85 38.02 36.66 38.3075 36.7455 38.5805 36.8736 38.83 37.04L37.75 38.72C37.6596 38.6613 37.5622 38.6143 37.46 38.58 36.1 38.19 33.74 40.58 32.63 44.35 31.52 48.12 32.2 51.42 33.56 51.82 34.26 52.02 35.51 51.14 36.33 50.2 37.3089 48.9807 38.0148 47.5655 38.4 46.05 38.9024 44.4341 39.0592 42.7305 38.86 41.05 38.7578 40.4977 39.1227 39.9672 39.675 39.865 40.2273 39.7628 40.7578 40.1277 40.86 40.68 41.0293 41.4934 41.1297 42.3197 41.16 43.15L43 42.6C43.27 43.6 43.49 44.49 43.67 45.26 43.74 45.57 43.8 45.86 43.86 46.11L46 46.11C45.9953 46.0735 45.9953 46.0365 46 46 46.6146 44.8725 47.7959 44.1707 49.08 44.17L53.3 44.17C53.9945 44.1749 54.631 44.5583 54.96 45.17 55.1363 45.4738 55.2294 45.8187 55.23 46.17L55.79 46.17 56.44 44.58 57.07 42.83C57.5577 41.4473 57.893 40.0155 58.07 38.56L59 31.7C59.2166 30.0969 58.7767 28.4742 57.78 27.2 56.8552 25.992 55.4402 25.2588 53.92 25.2L53.75 25.2 50.75 25.2C49.1271 25.155 47.5835 25.9007 46.61 27.2 46.2717 27.6365 45.6435 27.7161 45.207 27.3778 44.955 27.1824 44.8113 26.8787 44.82 26.56 44.9918 25.3408 45.671 24.2511 46.69 23.56 34.25 21.56 29.2 26.19 27.25 29.35L25.58 32.35C25.5513 32.4029 25.5178 32.4531 25.48 32.5 24.1087 34.0708 22.08 34.9075 20 34.76 17.9202 34.803 16.0843 36.1291 15.39 38.09 15.2161 38.5501 15.0725 39.0211 14.96 39.5 14.9496 39.5951 14.9295 39.689 14.9 39.78 14.9 39.97 14.83 40.15 14.81 40.33L15.27 39.94C15.6879 39.579 16.3194 39.6251 16.6805 40.043 16.9768 40.386 17.0053 40.8855 16.75 41.26 16.1314 42.2267 15.6469 43.2729 15.31 44.37 15.1036 45.0233 14.9498 45.6921 14.85 46.37L14.72 47.71C14.6 49.01 14.61 51.27 16.06 51.83 17.01 52.2 18.25 51.4 19.06 50.53 20.2233 49.2287 21.0749 47.6795 21.55 46 22.36 43.44 22.34 40.86 21.55 39.44L23.28 38.44C24.39 40.35 24.47 43.44 23.49 46.6 22.9021 48.5672 21.8765 50.3757 20.49 51.89 19.4905 53.0746 18.0558 53.8064 16.51 53.92ZM41.13 43.42C41.1514 45.1473 41.0276 46.8734 40.76 48.58 40.6887 48.9858 40.8065 49.4019 41.08 49.71 41.3463 50.0252 41.7374 50.2079 42.15 50.21L53.54 50.21C54.0527 50.2389 54.5515 50.0372 54.9 49.66 55.1379 49.3387 55.2187 48.9274 55.12 48.54 55.1151 48.4868 55.1151 48.4332 55.12 48.38L55.12 48.11 54 48.11C53.448 48.1276 52.9862 47.6944 52.9686 47.1424 52.9656 47.0472 52.9762 46.9522 53 46.86L53.15 46.28C53.1457 46.2401 53.1457 46.1999 53.15 46.16L49.11 46.16C48.595 46.1615 48.1163 46.4254 47.84 46.86L47.7 47.37C47.5793 47.8192 47.1649 48.1259 46.7 48.11L43.28 48.11C42.7855 48.2056 42.297 47.9186 42.14 47.44 42.01 47.04 41.87 46.44 41.7 45.72 41.53 45 41.36 44.25 41.13 43.42ZM16.75 51.18C15.55 49.98 15.25 47.66 16.01 45.25 16.91 42.37 19.01 40.43 20.92 40.63L20.71 42.63C19.9 42.54 18.55 43.85 17.92 45.86 17.35 47.68 17.62 49.23 18.16 49.76ZM34.17 50.31C33.04 49.12 32.77 46.81 33.47 44.42 34.32 41.53 36.28 39.57 38.16 39.78L37.94 41.78C37.31 41.7 36 42.89 35.39 45 34.85 46.84 35.11 48.41 35.62 49ZM51.81 40.31C50.7434 40.3169 49.7233 39.874 49 39.09 48.2672 38.2739 47.9307 37.1766 48.08 36.09L48.8 30.41C49.0441 28.3756 50.8911 26.9243 52.9255 27.1684 54.9599 27.4124 56.4112 29.2595 56.1672 31.2939 56.1649 31.3126 56.1625 31.3313 56.16 31.35L55.44 37.03C55.2083 38.8487 53.6828 40.2254 51.85 40.27ZM52.46 29.21 52.41 29.21C51.5647 29.2241 50.8599 29.8606 50.76 30.7L50 36.38C49.9408 36.8772 50.0973 37.3759 50.43 37.75 51.0438 38.4678 52.1232 38.5521 52.841 37.9383 53.1729 37.6545 53.3837 37.2543 53.43 36.82L54.16 31.13 54.16 31.13C54.2176 30.636 54.0611 30.1411 53.73 29.77 53.4072 29.409 52.9443 29.2049 52.46 29.21Z" fill="#FFFFFF"/><path d="M54.66 53.83C53.84 53.83 53.19 53.83 53.19 53.83 52.6379 53.816 52.2017 53.3571 52.2157 52.8049 52.2232 52.5105 52.3601 52.2342 52.59 52.05L53.26 51.52 53.52 51.84 55.08 51.84C56.94 51.84 58.08 51.18 58.68 49.84 59.52 47.84 58.86 44.84 57.85 42.61L59.66 41.76C60.83 44.27 61.66 47.91 60.53 50.62 59.91 52.07 58.47 53.81 55.1 53.83Z" fill="#FFFFFF"/><path d="M29.2 40.29 27.47 39.29C30.22 34.57 33.06 32.13 35.89 32.07 37.8195 32.1149 39.6065 33.0961 40.68 34.7L39 35.78C38.2793 34.7782 37.151 34.1481 35.92 34.06 33.86 34.12 31.54 36.27 29.2 40.29Z" fill="#FFFFFF"/><rect x="21.19" y="48.34" width="6.17" height="2" fill="#FFFFFF"/><path d="M51.44 36.53C49.9047 36.5355 48.6555 35.2953 48.65 33.76 48.6445 32.2247 49.8847 30.9755 51.42 30.97 52.9554 30.9645 54.2045 32.2047 54.21 33.74 54.21 33.7467 54.21 33.7533 54.21 33.76 54.21 35.2898 52.9698 36.53 51.44 36.53ZM51.44 32.98C51.0092 32.98 50.66 33.3292 50.66 33.76 50.66 34.1853 51.0047 34.53 51.4299 34.5301 51.4333 34.5301 51.4366 34.53 51.44 34.53 51.8597 34.5356 52.2044 34.1998 52.21 33.7801 52.2101 33.7734 52.2101 33.7667 52.21 33.76 52.2045 33.3386 51.8614 33 51.44 33Z" fill="#FFFFFF"/><rect x="16.79" y="22.92" width="14.97" height="2" fill="#FFFFFF"/><rect x="21.25" y="26.52" width="6.33" height="2" fill="#FFFFFF"/><rect x="13.96" y="29.68" width="11.17" height="2" fill="#FFFFFF"/></g></svg>