<svg width="75" height="75" viewBox="0 0 75 75" xmlns="http://www.w3.org/2000/svg" xmlns:xlink="http://www.w3.org/1999/xlink" id="Product_Icon" overflow="hidden"><defs><linearGradient x1="37.5" y1="112.5" x2="37.5" y2="-37.5" gradientUnits="userSpaceOnUse" id="TurquoiseGradient" gradientTransform="matrix(0.707107 0.707107 -0.707107 0.707107 37.5 -15.53)"><stop offset="0" stop-color="#055F4E"/><stop offset="1" stop-color="#56C0A7"/></linearGradient></defs><rect x="0" y="0" width="75" height="75" id="Turquoise_Gradient" fill="url(#TurquoiseGradient)"/><g id="Icon_Test"><path d="M54.5 62.5C52.1237 62.5005 50.0753 60.8283 49.6 58.5L33.4 58.5C32.8505 61.2062 30.2112 62.9545 27.505 62.405 25.1728 61.9315 23.4976 59.8798 23.5 57.5 23.5188 56.1812 24.0579 54.9232 25 54L18.89 42.3C18.4386 42.4328 17.9705 42.5001 17.5 42.5 14.7386 42.5 12.5 40.2614 12.5 37.5 12.5 34.7386 14.7386 32.5 17.5 32.5 17.9705 32.4999 18.4386 32.5672 18.89 32.7L25 21.05C23.0394 19.1054 23.0263 15.9396 24.9709 13.979 25.9046 13.0376 27.1741 12.5056 28.5 12.5 30.8763 12.4995 32.9247 14.1717 33.4 16.5L49.6 16.5C50.1499 13.7939 52.7894 12.0459 55.4955 12.5958 58.2016 13.1456 59.9496 15.7852 59.3997 18.4913 58.8499 21.1974 56.2104 22.9454 53.5042 22.3955 52.3961 22.1703 51.397 21.5762 50.67 20.71L40 26.5 40.88 27.37 39.46 28.79 38.17 27.49 29.5 32.15 29.5 34.5 27.5 34.5 27.5 33.23 22.29 36.05C22.29 36.2 22.37 36.35 22.4 36.5L36.5 36.5 36.5 38.5 22.4 38.5C22.4 38.65 22.33 38.8 22.29 38.95L27.5 41.77 27.5 40.5 29.5 40.5 29.5 42.85 38.09 47.49 39.39 46.19 40.81 47.61 39.93 48.49 50.67 54.29C52.4428 52.1728 55.5963 51.8936 57.7135 53.6665 59.8307 55.4393 60.1099 58.5928 58.337 60.71 57.3862 61.8455 55.981 62.501 54.5 62.5ZM54.5 54.5C52.8431 54.5 51.5 55.8431 51.5 57.5 51.5 59.1569 52.8431 60.5 54.5 60.5 56.1569 60.5 57.5 59.1569 57.5 57.5 57.5 55.8431 56.1569 54.5 54.5 54.5ZM28.5 54.5C26.8431 54.5 25.5 55.8431 25.5 57.5 25.5 59.1569 26.8431 60.5 28.5 60.5 30.1569 60.5 31.5 59.1569 31.5 57.5 31.5 55.8431 30.1569 54.5 28.5 54.5ZM33.4 56.5 49.6 56.5C49.6 56.35 49.67 56.2 49.71 56.05L38.45 50 33 55.38C33.1738 55.7376 33.3079 56.1132 33.4 56.5ZM29.5 52.6C30.3619 52.7759 31.1622 53.176 31.82 53.76L36.62 49 29.5 45.12ZM20.66 41.37 26.66 52.85C26.9283 52.7412 27.2062 52.6575 27.49 52.6L27.49 44 21.32 40.67C21.1248 40.9255 20.9036 41.1601 20.66 41.37ZM17.5 34.5C15.8431 34.5 14.5 35.8431 14.5 37.5 14.5 39.1569 15.8431 40.5 17.5 40.5 19.1569 40.5 20.5 39.1569 20.5 37.5 20.5 35.8431 19.1569 34.5 17.5 34.5ZM20.66 33.63C20.9051 33.8268 21.1295 34.0479 21.33 34.29L27.5 31 27.5 22.4C27.2162 22.3425 26.9383 22.2588 26.67 22.15ZM29.5 22.4 29.5 29.88 36.64 26 31.83 21.2C31.1758 21.8029 30.3707 22.2176 29.5 22.4ZM33 19.6C34.56 21.17 36.47 23.06 38.44 25.02L49.71 19C49.71 18.85 49.63 18.7 49.6 18.55L33.4 18.55C33.3046 18.9133 33.1705 19.2653 33 19.6ZM54.5 14.5C52.8431 14.5 51.5 15.8431 51.5 17.5 51.5 19.1569 52.8431 20.5 54.5 20.5 56.1569 20.5 57.5 19.1569 57.5 17.5 57.5 15.8431 56.1569 14.5 54.5 14.5ZM28.5 14.5C26.8431 14.5 25.5 15.8431 25.5 17.5 25.5 19.1569 26.8431 20.5 28.5 20.5 30.1569 20.5 31.5 19.1569 31.5 17.5 31.5 15.8431 30.1569 14.5 28.5 14.5ZM52.79 49.5 48.21 49.5C47.6577 49.5 47.21 49.0523 47.21 48.5L47.21 46.63C46.9236 46.5331 46.6431 46.4196 46.37 46.29L45.05 47.61C44.6611 48.0021 44.0279 48.0047 43.6358 47.6158 43.6339 47.6139 43.6319 47.6119 43.63 47.61L40.39 44.37C39.9979 43.9811 39.9953 43.3479 40.3842 42.9558 40.3861 42.9539 40.3881 42.9519 40.39 42.95L41.71 41.63C41.5804 41.3569 41.4669 41.0764 41.37 40.79L39.5 40.79C38.9477 40.79 38.5 40.3423 38.5 39.79L38.5 35.21C38.5 34.6577 38.9477 34.21 39.5 34.21L41.37 34.21C41.4669 33.9236 41.5804 33.6431 41.71 33.37L40.39 32.05C39.9979 31.6611 39.9953 31.0279 40.3842 30.6358 40.3861 30.6339 40.3881 30.6319 40.39 30.63L43.63 27.39C44.0189 26.9979 44.6521 26.9953 45.0442 27.3842 45.0461 27.3861 45.0481 27.3881 45.05 27.39L46.37 28.71C46.6431 28.5804 46.9236 28.4669 47.21 28.37L47.21 26.5C47.21 25.9477 47.6577 25.5 48.21 25.5L52.79 25.5C53.3423 25.5 53.79 25.9477 53.79 26.5L53.79 28.37C54.0764 28.4669 54.3569 28.5804 54.63 28.71L56 27.39C56.3889 26.9979 57.0221 26.9953 57.4142 27.3842 57.4161 27.3861 57.4181 27.3881 57.42 27.39L60.66 30.63C61.0521 31.0189 61.0547 31.6521 60.6658 32.0442 60.6639 32.0461 60.6619 32.0481 60.66 32.05L59.34 33.37C59.4696 33.6431 59.5831 33.9236 59.68 34.21L61.5 34.21C62.0523 34.21 62.5 34.6577 62.5 35.21L62.5 39.79C62.5 40.3423 62.0523 40.79 61.5 40.79L59.63 40.79C59.5331 41.0764 59.4196 41.3569 59.29 41.63L60.61 43C61.0021 43.3889 61.0047 44.0221 60.6158 44.4142 60.6139 44.4161 60.6119 44.4181 60.61 44.42L57.37 47.66C56.9811 48.0521 56.3479 48.0547 55.9558 47.6658 55.9539 47.6639 55.9519 47.6619 55.95 47.66L54.63 46.34C54.3569 46.4696 54.0764 46.5831 53.79 46.68L53.79 48.5C53.79 49.0523 53.3423 49.5 52.79 49.5ZM49.21 47.5 51.79 47.5 51.79 45.9C51.7741 45.4351 52.0808 45.0207 52.53 44.9 53.1565 44.7281 53.7581 44.476 54.32 44.15 54.7105 43.9277 55.2014 43.9931 55.52 44.31L56.66 45.45 58.49 43.62 57.35 42.48C57.0331 42.1614 56.9676 41.6705 57.19 41.28 57.516 40.7181 57.768 40.1164 57.94 39.49 58.0607 39.0408 58.4751 38.7341 58.94 38.75L60.54 38.75 60.54 36.21 58.9 36.21C58.4351 36.2259 58.0207 35.9192 57.9 35.47 57.7281 34.8435 57.476 34.2419 57.15 33.68 56.9277 33.2895 56.9931 32.7986 57.31 32.48L58.45 31.34 56.62 29.51 55.48 30.65C55.1614 30.9669 54.6705 31.0324 54.28 30.81 53.7181 30.484 53.1164 30.232 52.49 30.06 52.0408 29.9393 51.7341 29.5249 51.75 29.06L51.75 27.5 49.21 27.5 49.21 29.1C49.2259 29.5649 48.9192 29.9793 48.47 30.1 47.8435 30.272 47.2419 30.524 46.68 30.85 46.2895 31.0724 45.7986 31.0069 45.48 30.69L44.34 29.55 42.51 31.38 43.65 32.52C43.9669 32.8386 44.0324 33.3295 43.81 33.72 43.484 34.2819 43.232 34.8836 43.06 35.51 42.9393 35.9592 42.5249 36.2659 42.06 36.25L40.5 36.25 40.5 38.83 42.1 38.83C42.5649 38.8141 42.9793 39.1208 43.1 39.57 43.2719 40.1965 43.524 40.7981 43.85 41.36 44.0723 41.7505 44.0069 42.2414 43.69 42.56L42.55 43.7 44.38 45.53 45.52 44.39C45.8386 44.0731 46.3295 44.0076 46.72 44.23 47.2819 44.556 47.8836 44.808 48.51 44.98 48.9592 45.1007 49.2659 45.5151 49.25 45.98ZM50.5 42.62C47.6723 42.62 45.38 40.3277 45.38 37.5 45.38 34.6723 47.6723 32.38 50.5 32.38 53.3277 32.38 55.62 34.6723 55.62 37.5 55.62 40.3277 53.3277 42.62 50.5 42.62ZM50.5 34.38C48.7769 34.38 47.38 35.7769 47.38 37.5 47.38 39.2231 48.7769 40.62 50.5 40.62 52.2231 40.62 53.62 39.2231 53.62 37.5 53.62 35.7769 52.2231 34.38 50.5 34.38Z" fill="#FFFFFF"/></g></svg>