<svg viewBox="0 0 75 75" xmlns="http://www.w3.org/2000/svg" xmlns:xlink="http://www.w3.org/1999/xlink" overflow="hidden"><defs><linearGradient x1="-710.15" y1="-1718.47" x2="-710.15" y2="-1868.47" gradientUnits="userSpaceOnUse" id="Turquoise_Gradient" gradientTransform="matrix(0.707107 0.707107 -0.707107 0.707107 -728.53 1807.82)"><stop offset="0" stop-color="#055F4E"/><stop offset="1" stop-color="#56C0A7"/></linearGradient></defs><g id="Reference"><rect x="0" y="0" width="75" height="75" id="Green_Gradient" fill="url(#Turquoise_Gradient)"/><path d="M65.22 36.79C63.13 34.71 59.58 34.42 57.69 34.44 57.98 30.44 54.85 27.62 52.98 26.62 52.5808 26.4077 52.0888 26.4897 51.78 26.82 49.2944 29.794 48.6133 33.8806 50 37.5L10.51 37.5C9.95772 37.5 9.51 37.9477 9.51 38.5 9.51 46.77 12.56 52.87 18.57 56.63 24 60 30.24 60.5 33.51 60.5 48.85 60.5 55.76 45.97 57.18 42.5 60.5552 42.6072 63.7151 40.8465 65.4 37.92 65.5827 37.5428 65.5109 37.0917 65.22 36.79ZM56.61 40.5C56.1645 40.4752 55.7565 40.7486 55.61 41.17 55.56 41.35 49.43 58.5 33.56 58.5 28.49 58.5 12.17 57.11 11.56 39.5L51.56 39.5C51.9055 39.5007 52.2269 39.323 52.41 39.03 52.5886 38.7206 52.5886 38.3394 52.41 38.03 50.8367 35.1215 50.963 31.5887 52.74 28.8 53.99 29.71 56.36 31.94 55.54 35.22 55.3774 35.7474 55.6727 36.3069 56.2 36.47 56.3541 36.5102 56.5159 36.5102 56.67 36.47 56.67 36.47 60.84 36.06 63.24 37.68 61.7024 39.7496 59.1673 40.8279 56.61 40.5Z" fill="#FFFFFF"/><path d="M12.65 34C12.8301 34.3037 13.1569 34.4899 13.51 34.49L43.51 34.49C43.8631 34.4899 44.1899 34.3037 44.37 34L47.37 29C47.5486 28.6906 47.5486 28.3094 47.37 28L42.37 19C42.195 18.6886 41.8672 18.4942 41.51 18.49L35.13 18.49 33.4 15.05C33.2306 14.7137 32.8866 14.5011 32.51 14.5L24.51 14.5C24.1334 14.5011 23.7894 14.7137 23.62 15.05L21.89 18.5 15.51 18.5C15.1492 18.5006 14.8168 18.6955 14.64 19.01L9.64 28.01C9.46137 28.3194 9.46137 28.7006 9.64 29.01ZM25.13 16.5 31.89 16.5 33.62 20C33.7894 20.3363 34.1334 20.5489 34.51 20.55L40.92 20.55 43 24.26 40.5 29.26 42.29 30.16 44.2 26.34 45.35 28.46 42.93 32.46 35.43 32.46 39.67 25.04 37.93 24.04 35.93 27.45 31.67 27.45 29.62 23.32 31.88 20 30.22 18.89 27.79 22.5 25.3 22.5 23.64 19.5ZM13.27 25.58 18.13 25.58 18.13 23.58 14.39 23.58 16.1 20.5 21.92 20.5 23.51 23.33 21.39 27.5 15.51 27.5 15.51 29.5 22 29.5C22.3693 29.5124 22.7154 29.3202 22.9 29L25.13 24.55 28 24.55 30.21 28.99C30.3767 29.3302 30.7212 29.547 31.1 29.55L34.89 29.55 33.18 32.55 14.18 32.55 11.71 28.55Z" fill="#FFFFFF"/></g></svg>