<svg width="75" height="75" viewBox="0 0 75 75" xmlns="http://www.w3.org/2000/svg" xmlns:xlink="http://www.w3.org/1999/xlink" id="Product_Icon" overflow="hidden"><defs><linearGradient x1="-37.5" y1="37.5" x2="112.5" y2="37.5" gradientUnits="userSpaceOnUse" id="TurquoiseGradient" gradientTransform="matrix(0.707107 -0.707107 0.707107 0.707107 -15.53 37.5)"><stop offset="0" stop-color="#055F4E"/><stop offset="1" stop-color="#56C0A7"/></linearGradient></defs><rect x="0" y="0" width="75" height="75" id="Turquoise_Gradient" fill="url(#TurquoiseGradient)"/><g id="Icon_Test"><path d="M49.5 62.5 47.5 62.5 47.5 48.71C47.4672 47.6234 47.2992 46.5451 47 45.5L44.5 45.5 44.5 43.5 46.28 43.5C45.83 42.39 45.28 41.57 44.97 41.5L42.5 41.5 42.5 39.5 45 39.5C48.06 39.5 49.52 46.89 49.52 48.71ZM45.5 62.5 43.5 62.5 43.5 50.5 45.5 50.5ZM31.5 62.5 29.5 62.5 29.5 54.5 31.5 54.5ZM27.5 53.5 25.5 53.5 25.5 48.71C25.5 46.89 27 39.5 30 39.5L32.5 39.5 32.5 41.5 30 41.5C29.64 41.57 29.15 42.39 28.7 43.5L39.4 43.5 39.4 45.5 28 45.5C27.6872 46.5434 27.5058 47.6217 27.46 48.71ZM31.5 52.5 29.5 52.5 29.5 48.5 31.5 48.5ZM43.5 45.5 41.42 45.5 41.42 43.5 43.5 43.5ZM41.5 42.5 39.5 42.5 39.5 40.5 35.5 40.5 35.5 42.5 33.5 42.5 33.5 38.5 28.79 38.5C26.9753 38.4945 25.5055 37.0247 25.5 35.21L25.5 15.79C25.5055 13.9753 26.9753 12.5055 28.79 12.5L37.5 12.5 37.5 14.5 28.79 14.5C28.0831 14.4945 27.5055 15.063 27.5 15.7699 27.4999 15.7766 27.4999 15.7833 27.5 15.79L27.5 35.21C27.4945 35.9169 28.063 36.4945 28.7699 36.5 28.7766 36.5001 28.7833 36.5001 28.79 36.5L46.21 36.5C46.9169 36.5055 47.4945 35.937 47.5 35.2301 47.5001 35.2234 47.5001 35.2167 47.5 35.21L47.5 15.79C47.5055 15.0831 46.937 14.5055 46.2301 14.5 46.2234 14.4999 46.2167 14.4999 46.21 14.5L43.5 14.5 43.5 12.5 46.21 12.5C48.0247 12.5055 49.4945 13.9753 49.5 15.79L49.5 35.21C49.4945 37.0247 48.0247 38.4945 46.21 38.5L41.5 38.5ZM37.5 31.5C34.1863 31.5 31.5 28.8137 31.5 25.5 31.5 22.1863 34.1863 19.5 37.5 19.5 40.8137 19.5 43.5 22.1863 43.5 25.5 43.5 28.8137 40.8137 31.5 37.5 31.5ZM37.5 21.5C35.2909 21.5 33.5 23.2909 33.5 25.5 33.5 27.7091 35.2909 29.5 37.5 29.5 39.7091 29.5 41.5 27.7091 41.5 25.5 41.5 23.2909 39.7091 21.5 37.5 21.5ZM41.5 14.5 39.5 14.5 39.5 12.5 41.5 12.5ZM37.5 49.5C36.6716 49.5 36 50.1716 36 51 36 51.8284 36.6716 52.5 37.5 52.5 38.3284 52.5 39 51.8284 39 51 39 50.1716 38.3284 49.5 37.5 49.5ZM37.5 54.5C36.6716 54.5 36 55.1716 36 56 36 56.8284 36.6716 57.5 37.5 57.5 38.3284 57.5 39 56.8284 39 56 39 55.1716 38.3284 54.5 37.5 54.5ZM37.5 59.5C36.6716 59.5 36 60.1716 36 61 36 61.8284 36.6716 62.5 37.5 62.5 38.3284 62.5 39 61.8284 39 61 39 60.1716 38.3284 59.5 37.5 59.5ZM37.5 24C36.6716 24 36 24.6716 36 25.5 36 26.3284 36.6716 27 37.5 27 38.3284 27 39 26.3284 39 25.5 39 24.6716 38.3284 24 37.5 24Z" fill="#FFFFFF"/></g></svg>