<svg width="75" height="75" viewBox="0 0 75 75" xmlns="http://www.w3.org/2000/svg" xmlns:xlink="http://www.w3.org/1999/xlink" id="Product_Icon" overflow="hidden"><defs><linearGradient x1="-15.53" y1="-15.53" x2="90.53" y2="90.53" gradientUnits="userSpaceOnUse" id="PinkGradient" gradientTransform="matrix(0 -1 1 0 0 75)"><stop offset="0" stop-color="#B0084D"/><stop offset="1" stop-color="#FF4F8B"/></linearGradient></defs><rect x="0" y="0" width="75" height="75" id="Pink_Gradient" fill="url(#PinkGradient)"/><g id="Icon_Test"><path d="M31.5 48 20.5 48C19.3873 47.9785 18.3015 47.6535 17.36 47.06 14.2757 45.1705 12.4256 41.7863 12.5 38.17 12.2907 33.9795 14.9767 30.1903 19 29 19 28.74 19 28.48 19 28.22 19.1118 23.0383 22.1382 18.3633 26.82 16.14 31.875 13.9035 37.7895 15.0752 41.61 19.07 42.8636 20.3467 43.8795 21.8367 44.61 23.47 45.6521 22.6289 46.9508 22.1701 48.29 22.17 51.01 22.17 54.07 24.23 54.63 28.75 57.2 29.36 62.48 31.46 62.48 38.26 62.6583 41.736 60.8164 45.0032 57.75 46.65L56.75 44.9C59.1677 43.5925 60.6101 41.0039 60.45 38.26 60.45 32.38 55.58 30.92 53.45 30.56 53.1857 30.5129 52.9515 30.3616 52.8 30.14 52.6534 29.9306 52.5925 29.6729 52.63 29.42 52.34 25.79 50.22 24.17 48.23 24.17 46.9443 24.1815 45.7425 24.8103 45 25.86 44.7817 26.1588 44.4163 26.3127 44.05 26.26 43.685 26.2028 43.3812 25.9491 43.26 25.6 42.608 23.6807 41.5352 21.9313 40.12 20.48 36.8796 17.1174 31.8882 16.1279 27.61 18 23.6842 19.9096 21.1393 23.8367 21 28.2 21.0009 28.6611 21.0276 29.1219 21.08 29.58 21.1472 30.1063 20.7917 30.5935 20.27 30.69 16.7569 31.408 14.2985 34.5894 14.49 38.17 14.4045 41.1034 15.9065 43.8552 18.42 45.37 19.0419 45.7679 19.7618 45.986 20.5 46L31.5 46Z" fill="#FFFFFF"/><path d="M61.39 54 54.29 46.87C56.6734 41.5169 54.2659 35.2452 48.9128 32.8618 43.5596 30.4784 37.2879 32.8859 34.9046 38.2391 32.5212 43.5922 34.9287 49.8639 40.2818 52.2472 43.2118 53.5518 46.5747 53.4609 49.43 52L56.43 59C57.0979 59.6515 57.9971 60.0112 58.93 60 59.8603 60.0129 60.757 59.6528 61.42 59 62.7925 57.6232 62.789 55.3945 61.4122 54.022 61.4049 54.0146 61.3974 54.0073 61.39 54ZM44.6 51.17C39.8559 51.17 36.01 47.3241 36.01 42.58 36.01 37.8359 39.8559 33.99 44.6 33.99 49.3441 33.99 53.19 37.8359 53.19 42.58 53.19 47.3241 49.3441 51.17 44.6 51.17ZM60 57.55C59.3944 58.124 58.4456 58.124 57.84 57.55L51.18 50.89C51.9933 50.252 52.7077 49.4971 53.3 48.65L60 55.39C60.5896 55.9893 60.5896 56.9507 60 57.55Z" fill="#FFFFFF"/><path d="M47.35 37.93 46.16 39.54C44.6645 38.432 42.554 38.7462 41.446 40.2417 40.9148 40.9587 40.6897 41.8572 40.82 42.74 40.9321 43.6447 41.4135 44.4627 42.15 45L41 46.56C38.6492 44.7519 38.2093 41.3803 40.0174 39.0295 41.779 36.7393 45.0369 36.2534 47.39 37.93Z" fill="#FFFFFF"/></g></svg>