<svg width="75" height="75" viewBox="0 0 75 75" xmlns="http://www.w3.org/2000/svg" xmlns:xlink="http://www.w3.org/1999/xlink" id="Product_Icon" overflow="hidden"><defs><linearGradient x1="37.5" y1="-37.5" x2="37.5" y2="112.5" gradientUnits="userSpaceOnUse" id="PinkGradient" gradientTransform="matrix(-0.707107 -0.707107 0.707107 -0.707107 37.5 90.53)"><stop offset="0" stop-color="#B0084D"/><stop offset="1" stop-color="#FF4F8B"/></linearGradient></defs><rect x="0" y="0" width="75" height="75" id="Pink_Gradient" fill="url(#PinkGradient)"/><g id="Icon_Test"><path d="M53.87 21.07 47.63 21.07C47.0777 21.07 46.63 20.6223 46.63 20.07L46.63 13.84 48.63 13.84 48.63 19.07 53.87 19.07Z" fill="#FFFFFF"/><path d="M53.87 56.93 44.52 56.93 44.52 54.93 52.87 54.93 52.87 20.49 47.22 14.84 22.13 14.84 22.13 54.93 30.48 54.93 30.48 56.93 21.13 56.93C20.5777 56.93 20.13 56.4823 20.13 55.93L20.13 13.84C20.13 13.2877 20.5777 12.84 21.13 12.84L47.63 12.84C47.8958 12.8385 48.1513 12.9428 48.34 13.13L54.58 19.37C54.7647 19.5563 54.8689 19.8077 54.87 20.07L54.87 55.93C54.87 56.4823 54.4223 56.93 53.87 56.93Z" fill="#FFFFFF"/><path d="M42.18 62.16C41.9463 62.1605 41.7199 62.0791 41.54 61.93L37.54 58.57 33.54 61.93C33.2434 62.1775 32.8307 62.232 32.48 62.07 32.1255 61.906 31.899 61.5506 31.9 61.16L31.9 52.81 33.9 52.81 33.9 59 36.9 56.47C37.2708 56.1612 37.8092 56.1612 38.18 56.47L41.18 59 41.18 52.81 43.18 52.81 43.18 61.16C43.18 61.7123 42.7323 62.16 42.18 62.16Z" fill="#FFFFFF"/><path d="M37.5 53.81C36.144 53.806 34.9241 52.9848 34.41 51.73 34.01 51.5916 33.6192 51.4279 33.24 51.24 32.8579 51.3911 32.4509 51.4692 32.04 51.47 30.1993 51.4645 28.71 49.9707 28.71 48.13 28.7075 47.723 28.7821 47.3192 28.93 46.94 28.7453 46.5606 28.5849 46.1698 28.45 45.77 26.7434 45.0698 25.9276 43.1187 26.6279 41.4121 26.9671 40.5855 27.6233 39.9292 28.45 39.59 28.5814 39.1889 28.7418 38.7978 28.93 38.42 28.2541 36.7155 29.088 34.7859 30.7924 34.11 31.5785 33.7983 32.4539 33.7983 33.24 34.11 33.6192 33.9221 34.01 33.7584 34.41 33.62 35.1102 31.9134 37.0613 31.0976 38.7679 31.7979 39.5945 32.1371 40.2508 32.7933 40.59 33.62 40.99 33.7584 41.3808 33.9221 41.76 34.11 42.1421 33.9589 42.5491 33.8808 42.96 33.88 44.8101 33.8919 46.3003 35.4013 46.2884 37.2514 46.2859 37.6509 46.2119 38.0466 46.07 38.42 46.2582 38.7978 46.4186 39.1889 46.55 39.59 48.2566 40.2902 49.0723 42.2413 48.3721 43.9479 48.0329 44.7745 47.3767 45.4308 46.55 45.77 46.4151 46.1698 46.2547 46.5606 46.07 46.94 46.2179 47.3192 46.2925 47.723 46.29 48.13 46.2902 49.9553 44.8251 51.4427 43 51.47 42.5891 51.4692 42.1821 51.3911 41.8 51.24 41.4208 51.4279 41.03 51.5916 40.63 51.73 40.1104 52.9984 38.8706 53.8223 37.5 53.81ZM33.26 49.12C33.4315 49.1227 33.5997 49.1673 33.75 49.25 34.2918 49.5593 34.8694 49.8011 35.47 49.97 35.8368 50.0691 36.1158 50.3674 36.19 50.74 36.3457 51.4635 37.0585 51.9238 37.782 51.768 38.2969 51.6572 38.6992 51.255 38.81 50.74 38.8842 50.3674 39.1632 50.0691 39.53 49.97 40.1306 49.8011 40.7082 49.5593 41.25 49.25 41.5594 49.0714 41.9406 49.0714 42.25 49.25 42.8845 49.62 43.6989 49.4057 44.0689 48.7711 44.186 48.5704 44.2484 48.3424 44.25 48.11 44.2523 47.8654 44.1828 47.6255 44.05 47.42 43.8714 47.1106 43.8714 46.7294 44.05 46.42 44.3537 45.8767 44.592 45.2993 44.76 44.7 44.8623 44.3371 45.16 44.0626 45.53 43.99 46.1499 43.8586 46.595 43.3137 46.6 42.68 46.6027 42.0436 46.1542 41.4944 45.53 41.37 45.1574 41.2958 44.8591 41.0168 44.76 40.65 44.5903 40.0513 44.352 39.4741 44.05 38.93 43.8714 38.6206 43.8714 38.2394 44.05 37.93 44.1828 37.7245 44.2523 37.4846 44.25 37.24 44.2623 36.526 43.7125 35.9279 43 35.88 42.753 35.8828 42.5112 35.9519 42.3 36.08 41.9906 36.2586 41.6094 36.2586 41.3 36.08 40.7599 35.7696 40.1817 35.5309 39.58 35.37 39.2132 35.2709 38.9342 34.9726 38.86 34.6 38.7331 33.8765 38.0437 33.3929 37.3202 33.5198 36.7686 33.6165 36.3368 34.0484 36.24 34.6 36.1658 34.9726 35.8868 35.2709 35.52 35.37 34.9183 35.5309 34.3401 35.7696 33.8 36.08 33.4906 36.2586 33.1094 36.2586 32.8 36.08 32.5888 35.9519 32.347 35.8828 32.1 35.88 31.3638 35.8855 30.77 36.4838 30.77 37.22 30.7677 37.4646 30.8372 37.7045 30.97 37.91 31.1486 38.2194 31.1486 38.6006 30.97 38.91 30.6663 39.4533 30.428 40.0307 30.26 40.63 30.1609 40.9968 29.8626 41.2758 29.49 41.35 28.8658 41.4744 28.4173 42.0236 28.42 42.66 28.4056 43.29 28.8289 43.8461 29.44 44 29.81 44.0726 30.1077 44.3471 30.21 44.71 30.3762 45.31 30.6146 45.8875 30.92 46.43 31.0986 46.7394 31.0986 47.1206 30.92 47.43 30.7872 47.6355 30.7177 47.8754 30.72 48.12 30.7249 48.8545 31.3243 49.446 32.0589 49.4411 32.2913 49.4395 32.5192 49.3771 32.72 49.26 32.8831 49.1631 33.0704 49.1145 33.26 49.12Z" fill="#FFFFFF"/><rect x="25.03" y="17.27" width="9.35" height="2" fill="#FFFFFF"/><rect x="25.03" y="22.19" width="24.94" height="2" fill="#FFFFFF"/><rect x="25.03" y="25.31" width="24.94" height="2" fill="#FFFFFF"/><rect x="25.03" y="28.43" width="24.94" height="2" fill="#FFFFFF"/><path d="M36.64 45.33C36.3742 45.3315 36.1187 45.2272 35.93 45.04L34.25 43.36 35.67 42 36.67 43 39.32 40.35 40.73 41.76 37.35 45C37.168 45.2019 36.9117 45.3211 36.64 45.33Z" fill="#FFFFFF"/><path d="M37.48 49.53C33.6803 49.5355 30.5955 46.4597 30.59 42.66 30.5845 38.8603 33.6603 35.7755 37.46 35.77 41.2597 35.7645 44.3445 38.8403 44.35 42.64 44.35 42.6433 44.35 42.6467 44.35 42.65 44.35 46.4458 41.2758 49.5245 37.48 49.53ZM37.48 37.78C34.7849 37.7745 32.5955 39.9549 32.59 42.65 32.5845 45.3451 34.7649 47.5345 37.46 47.54 40.1552 47.5455 42.3445 45.3651 42.35 42.67 42.35 42.6633 42.35 42.6567 42.35 42.65 42.3445 39.9627 40.1673 37.7855 37.48 37.78Z" fill="#FFFFFF"/></g></svg>