<svg width="75" height="75" viewBox="0 0 75 75" xmlns="http://www.w3.org/2000/svg" xmlns:xlink="http://www.w3.org/1999/xlink" id="Product_Icon" overflow="hidden"><defs><linearGradient x1="90.53" y1="90.53" x2="-15.53" y2="-15.53" gradientUnits="userSpaceOnUse" id="PinkGradient" gradientTransform="matrix(0 1 -1 0 75 0)"><stop offset="0" stop-color="#B0084D"/><stop offset="1" stop-color="#FF4F8B"/></linearGradient></defs><rect x="0" y="0" width="75" height="75" id="Pink_Gradient" fill="url(#PinkGradient)"/><g id="Icon_Test"><path d="M55.48 35C55.4616 32.5086 53.9055 30.2878 51.57 29.42 49.8194 28.8395 47.8955 29.1534 46.42 30.26 45.7679 28.8384 44.8671 27.5447 43.76 26.44 40.289 22.8724 34.969 21.8323 30.41 23.83 26.1787 25.8027 23.4395 30.0123 23.35 34.68L23.35 35.22C20.8857 35.9633 18.9081 37.8116 18 40.22L20.18 40.22C21.1083 38.5113 22.738 37.2945 24.64 36.89 25.0932 36.7732 25.4048 36.3578 25.39 35.89L25.31 34.62C25.436 30.7841 27.6823 27.3356 31.14 25.67 34.9636 23.9962 39.4247 24.8732 42.33 27.87 43.5785 29.1342 44.5224 30.6663 45.09 32.35 45.2159 32.698 45.5236 32.948 45.89 33 46.251 33.0511 46.6112 32.9016 46.83 32.61 47.7656 31.346 49.4071 30.8257 50.9 31.32 52.55 31.87 53.49 33.48 53.49 35.66 53.4057 36.2003 53.771 36.7081 54.31 36.8 56.15 37.12 60.45 38.4 60.45 43.5 60.45 49.59 54.45 50.23 54.27 50.25L33.52 50.25 33.52 52.25 54.4 52.25C57.2 52 62.48 49.85 62.48 43.5 62.48 38.43 59 35.82 55.48 35ZM14.48 52.25 12.48 52.25 12.48 50.25 14.48 50.25ZM23.48 52.25 16.48 52.25 16.48 50.25 23.48 50.25ZM31.48 52.25 25.48 52.25 25.48 50.25 31.48 50.25ZM22.48 48.25 13.48 48.25 13.48 46.25 22.48 46.25ZM41.48 48.25 29.48 48.25 29.48 46.25 41.48 46.25ZM31.48 44.25 25.48 44.25 25.48 42.25 31.48 42.25ZM23.48 44.25 15.48 44.25 15.48 42.25 23.48 42.25ZM27.48 48.25 24.48 48.25 24.48 46.25 27.48 46.25Z" fill="#FFFFFF"/></g></svg>