<svg width="75" height="75" viewBox="0 0 75 75" xmlns="http://www.w3.org/2000/svg" xmlns:xlink="http://www.w3.org/1999/xlink" id="Product_Icon" overflow="hidden"><defs><linearGradient x1="-15.54" y1="90.54" x2="90.53" y2="-15.53" gradientUnits="userSpaceOnUse" id="PinkGradient"><stop offset="0" stop-color="#B0084D"/><stop offset="1" stop-color="#FF4F8B"/></linearGradient></defs><rect x="0" y="0" width="75" height="75" id="Pink_Gradient" fill="url(#PinkGradient)"/><g id="Icon_Test"><path d="M55.5 12.5 13.5 12.5C12.9477 12.5 12.5 12.9477 12.5 13.5L12.5 51.5C12.5 52.0523 12.9477 52.5 13.5 52.5L34 52.5C33.8391 51.8427 33.7288 51.1741 33.67 50.5L14.5 50.5 14.5 14.5 54.5 14.5 54.5 34.5C55.1888 34.7521 55.8574 35.0563 56.5 35.41L56.5 13.5C56.5 12.9477 56.0523 12.5 55.5 12.5Z" fill="#FFFFFF"/><path d="M51.5 21.5 50.5 21.5 50.5 17.5C50.5 16.9477 50.0523 16.5 49.5 16.5L45.5 16.5C44.9477 16.5 44.5 16.9477 44.5 17.5L44.5 21.5 43.5 21.5C42.9477 21.5 42.5 21.9477 42.5 22.5L42.5 26.5C42.5 27.0523 42.9477 27.5 43.5 27.5L44.5 27.5 44.5 34.2C45.1535 33.9896 45.8221 33.8291 46.5 33.72L46.5 27.5 48.5 27.5 48.5 33.5 49.09 33.5C49.5609 33.4979 50.0316 33.5212 50.5 33.57L50.5 27.5 51.5 27.5C52.0523 27.5 52.5 27.0523 52.5 26.5L52.5 22.5C52.5 21.9477 52.0523 21.5 51.5 21.5ZM46.5 18.5 48.5 18.5 48.5 21.5 46.5 21.5ZM50.5 25.5 44.5 25.5 44.5 23.5 50.5 23.5Z" fill="#FFFFFF"/><path d="M38.5 32.5 37.5 32.5 37.5 17.5C37.5 16.9477 37.0523 16.5 36.5 16.5L32.5 16.5C31.9477 16.4993 31.4994 16.9465 31.4988 17.4987 31.4987 17.5158 31.4991 17.5329 31.5 17.55L31.5 32.55 30.5 32.55C29.9477 32.55 29.5 32.9977 29.5 33.55L29.5 37.55C29.5 38.1023 29.9477 38.55 30.5 38.55L31.5 38.55 31.5 47.55C31.5 48.1023 31.9477 48.55 32.5 48.55L33.64 48.55C33.6577 47.8798 33.7212 47.2116 33.83 46.55L33.5 46.55 33.5 38.55 35.5 38.55 35.5 41.61C36.0544 40.5891 36.7256 39.636 37.5 38.77L37.5 38.5 37.7 38.5C38.2529 37.8916 38.855 37.3297 39.5 36.82L39.5 33.5C39.5 32.9477 39.0523 32.5 38.5 32.5ZM33.5 18.5 35.5 18.5 35.5 32.5 33.5 32.5ZM37.5 36.5 31.5 36.5 31.5 34.5 37.5 34.5Z" fill="#FFFFFF"/><path d="M25.5 24.5 24.5 24.5 24.5 17.5C24.5 16.9477 24.0523 16.5 23.5 16.5L19.5 16.5C18.9477 16.5 18.5 16.9477 18.5 17.5L18.5 24.5 17.5 24.5C16.9477 24.5 16.5 24.9477 16.5 25.5L16.5 29.5C16.5 30.0523 16.9477 30.5 17.5 30.5L18.5 30.5 18.5 47.5C18.5 48.0523 18.9477 48.5 19.5 48.5L23.5 48.5C24.0523 48.5 24.5 48.0523 24.5 47.5L24.5 30.5 25.5 30.5C26.0523 30.5 26.5 30.0523 26.5 29.5L26.5 25.5C26.5 24.9477 26.0523 24.5 25.5 24.5ZM20.5 18.5 22.5 18.5 22.5 24.5 20.5 24.5ZM22.5 46.5 20.5 46.5 20.5 30.5 22.5 30.5ZM24.5 28.5 18.5 28.5 18.5 26.5 24.5 26.5Z" fill="#FFFFFF"/><path d="M62.19 45.79C61.9882 45.5999 61.7166 45.5022 61.44 45.52L60.18 45.59C59.9601 44.8709 59.6721 44.1744 59.32 43.51L60.26 42.66C60.468 42.4826 60.5885 42.2234 60.59 41.95 60.5997 41.6739 60.4948 41.406 60.3 41.21L56.79 37.7C56.5902 37.51 56.3257 37.4028 56.05 37.4 55.7733 37.4088 55.5126 37.5319 55.33 37.74L54.49 38.69C53.827 38.3322 53.1303 38.0408 52.41 37.82L52.48 36.56C52.4978 36.2834 52.4001 36.0118 52.21 35.81 52.0198 35.6105 51.7557 35.4983 51.48 35.5L46.48 35.5C45.9277 35.499 45.4792 35.9459 45.4782 36.4982 45.4782 36.5188 45.4788 36.5394 45.48 36.56L45.55 37.82C44.8309 38.0399 44.1344 38.3279 43.47 38.68L42.62 37.74C42.4374 37.5319 42.1767 37.4088 41.9 37.4 41.6258 37.3957 41.3619 37.5041 41.17 37.7L37.7 41.21C37.5016 41.4043 37.3929 41.6724 37.4 41.95 37.4115 42.2232 37.5344 42.4798 37.74 42.66L38.68 43.51C38.3279 44.1744 38.0399 44.8709 37.82 45.59L36.56 45.52C36.2834 45.5022 36.0118 45.5999 35.81 45.79 35.6105 45.9802 35.4983 46.2443 35.5 46.52L35.5 51.52C35.4983 51.7957 35.6105 52.0598 35.81 52.25 36.0118 52.4401 36.2834 52.5378 36.56 52.52L37.81 52.45C38.0307 53.1735 38.3221 53.8736 38.68 54.54L37.74 55.38C37.5344 55.5602 37.4115 55.8168 37.4 56.09 37.3929 56.3676 37.5016 56.6357 37.7 56.83L41.21 60.34C41.4019 60.5359 41.6658 60.6443 41.94 60.64 42.2167 60.6312 42.4774 60.5081 42.66 60.3L43.5 59.36C44.1664 59.7179 44.8665 60.0093 45.59 60.23L45.52 61.48C45.4869 62.0313 45.9069 62.5051 46.4582 62.5382 46.4788 62.5394 46.4994 62.54 46.52 62.54L51.52 62.54C51.7957 62.5417 52.0598 62.4295 52.25 62.23 52.4401 62.0282 52.5378 61.7566 52.52 61.48L52.45 60.23C53.1735 60.0093 53.8736 59.7179 54.54 59.36L55.37 60.3C55.5526 60.5081 55.8133 60.6312 56.09 60.64 56.3661 60.6392 56.6313 60.5317 56.83 60.34L60.34 56.83C60.5347 56.634 60.6397 56.3661 60.63 56.09 60.6285 55.8166 60.508 55.5574 60.3 55.38L59.36 54.54C59.7105 53.8713 59.9983 53.1717 60.22 52.45L61.48 52.52C61.7566 52.5378 62.0282 52.4401 62.23 52.25 62.4295 52.0598 62.5417 51.7957 62.54 51.52L62.54 46.52C62.5315 46.2382 62.4044 45.9731 62.19 45.79ZM60.5 50.43 59.5 50.37C59.0233 50.3583 58.6048 50.6848 58.5 51.15 58.2567 52.2137 57.834 53.2282 57.25 54.15 56.9891 54.5633 57.0653 55.1047 57.43 55.43L58.19 56.1 56.19 58.1 55.52 57.34C55.1947 56.9753 54.6533 56.8991 54.24 57.16 53.3178 57.7454 52.3036 58.1714 51.24 58.42 50.7788 58.5288 50.4573 58.9463 50.47 59.42L50.52 60.42 47.57 60.42 47.63 59.42C47.6417 58.9433 47.3152 58.5248 46.85 58.42 45.7872 58.1687 44.7735 57.7429 43.85 57.16 43.4367 56.8991 42.8953 56.9753 42.57 57.34L41.9 58.1 39.9 56.1 40.66 55.43C41.0247 55.1047 41.1009 54.5633 40.84 54.15 40.2545 53.229 39.8316 52.2143 39.59 51.15 39.4852 50.6848 39.0667 50.3584 38.59 50.37L37.59 50.43 37.59 47.57 38.59 47.63C39.0667 47.6417 39.4852 47.3152 39.59 46.85 39.8305 45.7854 40.2534 44.7704 40.84 43.85 41.1009 43.4367 41.0247 42.8953 40.66 42.57L39.9 41.89 41.9 39.89 42.58 40.65C42.9053 41.0147 43.4467 41.0909 43.86 40.83 44.7851 40.2525 45.7985 39.8303 46.86 39.58 47.3252 39.4752 47.6516 39.0567 47.64 38.58L47.58 37.58 50.43 37.58 50.38 38.58C50.3673 39.0537 50.6888 39.4712 51.15 39.58 52.2143 39.8216 53.229 40.2445 54.15 40.83 54.5633 41.0909 55.1047 41.0147 55.43 40.65L56.11 39.88 58.11 41.88 57.35 42.56C56.9853 42.8853 56.9091 43.4267 57.17 43.84 57.7524 44.7626 58.175 45.7768 58.42 46.84 58.5248 47.3052 58.9433 47.6316 59.42 47.62L60.42 47.56Z" fill="#FFFFFF"/><path d="M56.52 44.79 55.22 47.87C55.0635 48.2395 54.7013 48.4797 54.3 48.48L54.19 48.48 50.86 48.13 51.07 46.13 52.59 46.29C51.1166 44.3023 48.3108 43.8854 46.3231 45.3588 45.4192 46.0289 44.8004 47.0146 44.59 48.12L42.59 47.72C43.3041 44.2132 46.7258 41.9492 50.2326 42.6632 51.7852 42.9794 53.1681 43.8534 54.12 45.12L54.67 44Z" fill="#FFFFFF"/><path d="M55.39 50.32C54.6774 53.8271 51.2566 56.0926 47.7495 55.38 46.3152 55.0886 45.0219 54.3202 44.08 53.2L43.86 54.04 41.92 53.52 42.79 50.26C42.9219 49.7662 43.405 49.4513 43.91 49.53L47.11 50.01 46.81 52.01 45.53 51.82C47.0536 53.7625 49.8634 54.1021 51.8059 52.5786 52.6445 51.9208 53.2205 50.985 53.43 49.94Z" fill="#FFFFFF"/></g></svg>