<svg width="75" height="75" viewBox="0 0 75 75" xmlns="http://www.w3.org/2000/svg" xmlns:xlink="http://www.w3.org/1999/xlink" id="Product_Icon" overflow="hidden"><defs><linearGradient x1="37.5" y1="112.5" x2="37.5" y2="-37.5" gradientUnits="userSpaceOnUse" id="PinkGradient" gradientTransform="matrix(0.707107 0.707107 -0.707107 0.707107 37.5 -15.53)"><stop offset="0" stop-color="#B0084D"/><stop offset="1" stop-color="#FF4F8B"/></linearGradient></defs><rect x="0" y="0" width="75" height="75" id="Pink_Gradient" fill="url(#PinkGradient)"/><g id="Icon_Test"><path d="M57.5 62.5 51.5 62.5C50.9477 62.5 50.5 62.0523 50.5 61.5L50.5 51.5C50.5 50.9477 50.9477 50.5 51.5 50.5L53.5 50.5 53.5 48.5 38.5 48.5 38.5 50.5 40.5 50.5C41.0523 50.5 41.5 50.9477 41.5 51.5L41.5 61.5C41.5 62.0523 41.0523 62.5 40.5 62.5L34.5 62.5C33.9477 62.5 33.5 62.0523 33.5 61.5L33.5 51.5C33.5 50.9477 33.9477 50.5 34.5 50.5L36.5 50.5 36.5 48.5 21.5 48.5 21.5 50.5 23.5 50.5C24.0523 50.5 24.5 50.9477 24.5 51.5L24.5 61.5C24.5 62.0523 24.0523 62.5 23.5 62.5L17.5 62.5C16.9477 62.5 16.5 62.0523 16.5 61.5L16.5 51.5C16.5 50.9477 16.9477 50.5 17.5 50.5L19.5 50.5 19.5 47.5C19.5 46.9477 19.9477 46.5 20.5 46.5L36.5 46.5 36.5 42.5 38.5 42.5 38.5 46.5 54.5 46.5C55.0523 46.5 55.5 46.9477 55.5 47.5L55.5 50.5 57.5 50.5C58.0523 50.5 58.5 50.9477 58.5 51.5L58.5 61.5C58.5 62.0523 58.0523 62.5 57.5 62.5ZM52.5 60.5 56.5 60.5 56.5 52.5 52.5 52.5ZM35.5 60.5 39.5 60.5 39.5 52.5 35.5 52.5ZM18.5 60.5 22.5 60.5 22.5 52.5 18.5 52.5ZM40.08 40.5 34.92 40.5C34.6443 40.5017 34.3802 40.3895 34.19 40.19 34.0025 39.9907 33.905 39.7232 33.92 39.45L34 38.1C33.2316 37.867 32.488 37.5588 31.78 37.18L30.89 38.18C30.7103 38.3907 30.4469 38.5114 30.17 38.51 29.8973 38.5169 29.6336 38.4122 29.44 38.22L25.78 34.57C25.3796 34.1896 25.3634 33.5567 25.7437 33.1562 25.7555 33.1439 25.7676 33.1318 25.78 33.12L26.78 32.22C26.4136 31.5111 26.1188 30.7674 25.9 30L24.56 30.08C24.0087 30.1131 23.5349 29.6931 23.5018 29.1418 23.5006 29.1212 23.5 29.1006 23.5 29.08L23.5 23.91C23.499 23.3577 23.9459 22.9092 24.4982 22.9082 24.5188 22.9082 24.5394 22.9088 24.56 22.91L25.9 23C26.1295 22.2335 26.4378 21.4929 26.82 20.79L25.82 19.89C25.6156 19.7056 25.4962 19.4452 25.49 19.17 25.4831 18.8973 25.5878 18.6336 25.78 18.44L29.44 14.78C29.6336 14.5878 29.8973 14.4831 30.17 14.49 30.4452 14.4962 30.7056 14.6156 30.89 14.82L31.79 15.82C32.4946 15.4413 33.2348 15.1331 34 14.9L33.93 13.56C33.9122 13.2834 34.0099 13.0118 34.2 12.81 34.3902 12.6105 34.6543 12.4983 34.93 12.5L40.09 12.5C40.3657 12.4983 40.6298 12.6105 40.82 12.81 41.0101 13.0118 41.1078 13.2834 41.09 13.56L41 14.9C41.7636 15.1375 42.5035 15.4454 43.21 15.82L44.11 14.82C44.2944 14.6156 44.5548 14.4962 44.83 14.49 45.1027 14.4831 45.3664 14.5878 45.56 14.78L49.22 18.44C49.4122 18.6336 49.5169 18.8973 49.51 19.17 49.5038 19.4452 49.3844 19.7056 49.18 19.89L48.18 20.79C48.5622 21.4929 48.8705 22.2335 49.1 23L50.44 22.93C50.7166 22.9122 50.9882 23.0099 51.19 23.2 51.387 23.3878 51.499 23.6478 51.5 23.92L51.5 29.09C51.5017 29.3657 51.3895 29.6298 51.19 29.82 50.9836 30.0023 50.7153 30.0989 50.44 30.09L49.1 30C48.8684 30.7689 48.5602 31.5126 48.18 32.22L49.18 33.12C49.5804 33.5004 49.5966 34.1333 49.2163 34.5337 49.2045 34.5461 49.1924 34.5582 49.18 34.57L45.52 38.22C45.3264 38.4122 45.0627 38.5169 44.79 38.51 44.5131 38.5114 44.2497 38.3907 44.07 38.18L43.18 37.18C42.4854 37.5577 41.7552 37.8659 41 38.1L41.07 39.44C41.085 39.7132 40.9875 39.9807 40.8 40.18 40.6122 40.377 40.3522 40.489 40.08 40.49ZM35.98 38.5 38.98 38.5 39 37.4C38.9883 36.9233 39.3148 36.5048 39.78 36.4 40.9011 36.1492 41.9703 35.706 42.94 35.09 43.3533 34.8291 43.8947 34.9053 44.22 35.27L44.95 36.09 47.1 33.93 46.28 33.2C45.9153 32.8747 45.8391 32.3333 46.1 31.92 46.7177 30.9548 47.1611 29.8886 47.41 28.77 47.5148 28.3048 47.9333 27.9784 48.41 27.99L49.51 28.05 49.51 25 48.4 25C47.9263 25.0127 47.5088 24.6912 47.4 24.23 47.1422 23.1143 46.6994 22.0495 46.09 21.08 45.8291 20.6667 45.9053 20.1253 46.27 19.8L47.09 19.06 44.94 16.91 44.2 17.73C43.8747 18.0947 43.3333 18.1709 42.92 17.91 41.9521 17.2996 40.8866 16.8599 39.77 16.61 39.3048 16.5052 38.9784 16.0867 38.99 15.61L39 14.5 36 14.5 36 15.6C36.0117 16.0767 35.6852 16.4952 35.22 16.6 34.1034 16.8499 33.0379 17.2896 32.07 17.9 31.6567 18.1609 31.1153 18.0847 30.79 17.72L30.05 16.89 27.9 19.05 28.72 19.79C29.0847 20.1153 29.1609 20.6567 28.9 21.07 28.2906 22.0395 27.8478 23.1043 27.59 24.22 27.4812 24.6812 27.0637 25.0027 26.59 24.99L25.5 25 25.5 28 26.6 28C27.0767 27.9883 27.4952 28.3148 27.6 28.78 27.8489 29.8986 28.2923 30.9648 28.91 31.93 29.1709 32.3433 29.0947 32.8847 28.73 33.21L27.91 33.94 30.06 36.1 30.79 35.28C31.1153 34.9153 31.6567 34.8391 32.07 35.1 33.044 35.7078 34.1117 36.1504 35.23 36.41 35.6952 36.5148 36.0216 36.9333 36.01 37.41ZM37.5 32.7C34.0758 32.7 31.3 29.9242 31.3 26.5 31.3 23.0758 34.0758 20.3 37.5 20.3 40.9242 20.3 43.7 23.0758 43.7 26.5 43.6945 29.9219 40.9219 32.6945 37.5 32.7ZM37.5 22.3C35.1804 22.3 33.3 24.1804 33.3 26.5 33.3 28.8196 35.1804 30.7 37.5 30.7 39.8196 30.7 41.7 28.8196 41.7 26.5 41.7 24.1804 39.8196 22.3 37.5 22.3Z" fill="#FFFFFF"/></g></svg>