<svg width="75" height="75" viewBox="0 0 75 75" xmlns="http://www.w3.org/2000/svg" xmlns:xlink="http://www.w3.org/1999/xlink" id="Product_Icon" overflow="hidden"><defs><linearGradient x1="37.49" y1="-37.49" x2="37.49" y2="112.51" gradientUnits="userSpaceOnUse" id="PinkGradient" gradientTransform="matrix(-0.707107 -0.707107 0.707107 -0.707107 37.49 90.53)"><stop offset="0" stop-color="#B0084D"/><stop offset="1" stop-color="#FF4F8B"/></linearGradient></defs><rect x="0" y="0" width="75" height="75" id="Pink_Gradient" fill="url(#PinkGradient)"/><g id="Icon_Test"><path d="M37.5 21.62 33.08 17.19 37.5 12.77 41.92 17.19ZM35.91 17.19 37.5 18.79 39.09 17.19 37.5 15.6Z" fill="#FFFFFF"/><path d="M57.81 41.92 53.38 37.5 57.81 33.08 62.23 37.5ZM56.21 37.5 57.81 39.09 59.4 37.5 57.81 35.91Z" fill="#FFFFFF"/><path d="M17.19 41.92 12.77 37.5 17.19 33.08 21.62 37.5ZM15.6 37.5 17.19 39.09 18.79 37.5 17.19 35.91Z" fill="#FFFFFF"/><path d="M37.5 62.23 33.08 57.81 37.5 53.38 41.92 57.81ZM35.91 57.81 37.5 59.4 39.09 57.81 37.5 56.21Z" fill="#FFFFFF"/><rect x="24.71" y="36.5" width="25.57" height="2" fill="#FFFFFF"/><rect x="36.5" y="24.72" width="2" height="25.57" fill="#FFFFFF"/><path d="M27.39 41.59 23.3 37.5 27.39 33.41 28.81 34.82 26.13 37.5 28.81 40.18 27.39 41.59Z" fill="#FFFFFF"/><path d="M40.18 28.81 37.5 26.13 34.82 28.81 33.41 27.39 37.5 23.3 41.59 27.39 40.18 28.81Z" fill="#FFFFFF"/><path d="M37.5 51.7 33.41 47.61 34.82 46.19 37.5 48.87 40.18 46.19 41.59 47.61 37.5 51.7Z" fill="#FFFFFF"/><path d="M47.61 41.59 46.19 40.18 48.87 37.5 46.19 34.82 47.61 33.41 51.7 37.5 47.61 41.59Z" fill="#FFFFFF"/><path d="M37.5 44.08C33.8604 44.0853 30.9057 41.1392 30.9003 37.4997 30.895 33.8601 33.8411 30.9054 37.4807 30.9 41.1202 30.8947 44.075 33.8408 44.0803 37.4803 44.0829 39.2315 43.3883 40.9118 42.15 42.15 40.9209 43.39 39.2459 44.0852 37.5 44.08ZM37.5 32.92C34.9705 32.92 32.92 34.9705 32.92 37.5 32.9137 38.7161 33.3965 39.8836 34.26 40.74 36.0478 42.5294 38.9477 42.5307 40.7371 40.7429 40.7381 40.7419 40.739 40.741 40.74 40.74 42.525 38.9488 42.525 36.0512 40.74 34.26 39.8805 33.4013 38.715 32.9192 37.5 32.92Z" fill="#FFFFFF"/><path d="M21.18 35.2 19.77 33.78 22.6 31 24 32.37ZM26.84 29.54 25.43 28.13 28.25 25.3 29.67 26.71ZM32.5 23.89 31.08 22.47 33.5 20.06 34.91 21.47Z" fill="#FFFFFF"/><path d="M41.59 55.13 40.18 53.71 43 50.89 44.41 52.3ZM47.25 49.47 45.83 48.06 48.66 45.23 50.08 46.64ZM52.9 43.81 51.49 42.4 53.91 40 55.32 41.41Z" fill="#FFFFFF"/><path d="M53.91 34.44 51.08 31.62 52.49 30.2 55.32 33ZM48.25 28.79 45.42 26 46.83 24.58 49.66 27.41ZM42.59 23.13 40.18 20.72 41.59 19.3 44 21.72Z" fill="#FFFFFF"/><path d="M33.5 55.41 30.67 52.58 32.08 51.16 34.91 54ZM27.84 49.75 25 46.92 26.42 45.51 29.24 48.33ZM22.18 44.09 19.77 41.68 21.18 40.26 23.6 42.68Z" fill="#FFFFFF"/></g></svg>