<svg width="75" height="75" viewBox="0 0 75 75" xmlns="http://www.w3.org/2000/svg" xmlns:xlink="http://www.w3.org/1999/xlink" id="Product_Icon" overflow="hidden"><defs><linearGradient x1="90.53" y1="90.53" x2="-15.53" y2="-15.53" gradientUnits="userSpaceOnUse" id="PinkGradient" gradientTransform="matrix(0 1 -1 0 75 0)"><stop offset="0" stop-color="#B0084D"/><stop offset="1" stop-color="#FF4F8B"/></linearGradient></defs><rect x="0" y="0" width="75" height="75" id="Pink_Gradient" fill="url(#PinkGradient)"/><g id="Icon_Test"><path d="M58.5 48.85C57.7952 48.8631 57.1059 49.0596 56.5 49.42L53.3 45.58C56.5173 43.1149 59.1159 39.9342 60.89 36.29L59.09 35.41C53.2557 47.3117 38.8778 52.2303 26.976 46.396 22.1972 44.0534 18.3326 40.1888 15.99 35.41L14.19 36.29C15.9246 39.8572 18.4525 42.9802 21.58 45.42L18.36 49.29C17.7958 49.0039 17.1726 48.8532 16.54 48.85 14.3309 48.85 12.54 50.6409 12.54 52.85 12.54 55.0591 14.3309 56.85 16.54 56.85 18.7491 56.85 20.54 55.0591 20.54 52.85 20.5415 52.0601 20.3007 51.2887 19.85 50.64L23.21 46.64C27.1185 49.1855 31.6398 50.6328 36.3 50.83L36.3 56C34.1915 56.6591 33.0165 58.9027 33.6756 61.0112 34.3347 63.1197 36.5783 64.2947 38.6868 63.6357 40.7953 62.9766 41.9703 60.733 41.3112 58.6244 40.8773 57.2364 39.7244 56.1933 38.3 55.9L38.3 50.8C43.0311 50.6764 47.6365 49.2508 51.61 46.68L55 50.85C54.6475 51.4577 54.4612 52.1475 54.46 52.85 54.46 55.0591 56.2509 56.85 58.46 56.85 60.6691 56.85 62.46 55.0591 62.46 52.85 62.46 50.6409 60.6691 48.85 58.46 48.85ZM16.5 54.85C15.3954 54.85 14.5 53.9546 14.5 52.85 14.5 51.7454 15.3954 50.85 16.5 50.85 17.6046 50.85 18.5 51.7454 18.5 52.85 18.5 53.9546 17.6046 54.85 16.5 54.85ZM39.5 59.85C39.5 60.9546 38.6046 61.85 37.5 61.85 36.3954 61.85 35.5 60.9546 35.5 59.85 35.5 58.7454 36.3954 57.85 37.5 57.85 38.6046 57.85 39.5 58.7454 39.5 59.85ZM58.5 54.85C57.3954 54.85 56.5 53.9546 56.5 52.85 56.5 51.7454 57.3954 50.85 58.5 50.85 59.6046 50.85 60.5 51.7454 60.5 52.85 60.5 53.9546 59.6046 54.85 58.5 54.85ZM50.85 16 37.85 11.18C37.6235 11.0999 37.3765 11.0999 37.15 11.18L24.15 16C23.758 16.1465 23.4986 16.5215 23.5 16.94L23.5 31.35C23.5775 34.0211 24.1576 36.6537 25.21 39.11 27.1806 44.1254 32.1162 47.3382 37.5 47.11 51.34 47.11 51.5 32.42 51.5 32.26L51.5 17C51.5276 16.5598 51.2635 16.1535 50.85 16ZM49.5 32.23C49.4282 34.4705 48.9186 36.6752 48 38.72 46 42.94 42.5 45.08 37.53 45.08 25.7 45.08 25.53 31.91 25.53 31.35L25.53 17.66 37.53 13.22 49.53 17.66ZM46.86 18.7 37.86 15.17C37.6267 15.09 37.3733 15.09 37.14 15.17L28.14 18.7C27.7553 18.8484 27.5012 19.2177 27.5 19.63L27.5 32.83C27.4951 32.8899 27.4951 32.9501 27.5 33.01 27.58 33.44 29.5 43.51 37.5 43.51 45.5 43.51 47.4 33.44 47.5 33.01 47.5049 32.9501 47.5049 32.8899 47.5 32.83L47.5 19.63C47.4988 19.2177 47.2447 18.8484 46.86 18.7ZM36.5 41.42C31.34 40.61 29.68 33.58 29.5 32.72L29.5 20.32 36.5 17.58ZM45.5 32.72C45.32 33.58 43.68 40.61 38.5 41.42L38.5 17.58 45.5 20.32Z" fill="#FFFFFF"/></g></svg>