<svg width="75" height="75" viewBox="0 0 75 75" xmlns="http://www.w3.org/2000/svg" xmlns:xlink="http://www.w3.org/1999/xlink" id="Product_Icon" overflow="hidden"><defs><linearGradient x1="-15.54" y1="-15.53" x2="90.53" y2="90.54" gradientUnits="userSpaceOnUse" id="PinkGradient" gradientTransform="matrix(0 -1 1 0 0 75)"><stop offset="0" stop-color="#B0084D"/><stop offset="1" stop-color="#FF4F8B"/></linearGradient></defs><rect x="0" y="0" width="75" height="75" id="Pink_Gradient" fill="url(#PinkGradient)"/><g id="Icon_Test"><path d="M36.72 48.06C36.4841 48.0631 36.2557 47.9775 36.08 47.82 35.8644 47.641 35.7338 47.3798 35.72 47.1L35.65 45.35C35.0412 45.2439 34.4424 45.0867 33.86 44.88L33 46.36C32.8519 46.6013 32.6084 46.7684 32.33 46.82 32.0516 46.8713 31.7646 46.8023 31.54 46.63L27.7 43.72C27.4819 43.5494 27.3443 43.2959 27.32 43.02 27.2939 42.7429 27.3845 42.4675 27.57 42.26L28.75 41C28.389 40.4856 28.0744 39.9401 27.81 39.37L26.15 39.77C25.8741 39.8357 25.5833 39.7812 25.35 39.62 25.1154 39.4613 24.9592 39.2105 24.92 38.93L24.29 34.14C24.212 33.5933 24.592 33.0868 25.1387 33.0088 25.169 33.0045 25.1995 33.0015 25.23 33L27 32.89C27.081 32.2474 27.225 31.6144 27.43 31L26 30.12C25.5331 29.825 25.3937 29.2074 25.6886 28.7405 25.7017 28.7198 25.7155 28.6997 25.73 28.68L28.62 24.82C28.7891 24.5919 29.0473 24.4465 29.33 24.42 29.6134 24.3964 29.8934 24.4946 30.1 24.69L31.35 25.85C31.8555 25.469 32.3944 25.1343 32.96 24.85L32.57 23.15C32.5073 22.8773 32.5617 22.5907 32.72 22.36 32.8765 22.1278 33.1231 21.9718 33.4 21.93L38.13 21.26C38.4108 21.2227 38.6943 21.3063 38.91 21.49 39.1256 21.669 39.2562 21.9302 39.27 22.21L39.31 24C39.9188 24.1061 40.5176 24.2633 41.1 24.47L42 23C42.2893 22.5295 42.9052 22.3827 43.3756 22.672 43.4047 22.6899 43.4329 22.7092 43.46 22.73L47.25 25.64C47.4719 25.8088 47.6133 26.0625 47.64 26.34 47.6634 26.6185 47.5691 26.8941 47.38 27.1L46.22 28.39C46.5761 28.9006 46.8904 29.439 47.16 30L48.81 29.61C49.3476 29.4836 49.8859 29.8169 50.0124 30.3545 50.0198 30.386 50.0257 30.4179 50.03 30.45L50.67 35.23C50.7073 35.5108 50.6237 35.7943 50.44 36.01 50.261 36.2256 49.9998 36.3562 49.72 36.37L48 36.46C47.9002 37.0907 47.7395 37.7103 47.52 38.31L48.98 39.23C49.4469 39.525 49.5863 40.1426 49.2914 40.6095 49.2783 40.6302 49.2645 40.6503 49.25 40.67L46.36 44.53C46.0306 44.9733 45.4042 45.0657 44.9609 44.7363 44.9291 44.7127 44.8988 44.6872 44.87 44.66L43.63 43.5C43.1275 43.8854 42.5882 44.2204 42.02 44.5L42.41 46.2C42.5372 46.7374 42.2046 47.2762 41.6672 47.4034 41.6384 47.4102 41.6093 47.4158 41.58 47.42L36.86 48.09ZM33.46 42.63C33.6015 42.6307 33.7412 42.6613 33.87 42.72 34.7643 43.1277 35.7211 43.3813 36.7 43.47 37.2169 43.5167 37.6121 43.951 37.61 44.47L37.67 45.96 40.22 45.6 39.89 44.14C39.7775 43.6527 40.0423 43.1572 40.51 42.98 41.4223 42.609 42.2644 42.0848 43 41.43 43.3791 41.0925 43.9509 41.0925 44.33 41.43L45.39 42.43 47 40.34 45.76 39.56C45.3359 39.2943 45.1735 38.7559 45.38 38.3 45.7949 37.3872 46.0486 36.4094 46.13 35.41 46.1745 34.9118 46.5803 34.523 47.08 34.5L48.54 34.44 48.2 31.83 46.8 32.17C46.3034 32.2927 45.7943 32.0209 45.62 31.54 45.2786 30.6156 44.7814 29.7565 44.15 29 43.8242 28.6241 43.8242 28.0659 44.15 27.69L45.15 26.59 43.12 25 42.36 26.25C42.0967 26.6831 41.551 26.8506 41.09 26.64 40.1957 26.2323 39.2389 25.9787 38.26 25.89 37.7578 25.8503 37.3636 25.4432 37.34 24.94L37.28 23.46 34.73 23.82 35.06 25.28C35.1682 25.7613 34.9092 26.2496 34.45 26.43 33.5259 26.79 32.6677 27.3002 31.91 27.94 31.5309 28.2775 30.9591 28.2775 30.58 27.94L29.52 26.94 28 29 29.25 29.78C29.6741 30.0457 29.8365 30.5841 29.63 31.04 29.2164 31.9498 28.9627 32.924 28.88 33.92 28.8403 34.4222 28.4332 34.8164 27.93 34.84L26.46 34.9 26.81 37.51 28.22 37.17C28.7133 37.053 29.2161 37.3238 29.39 37.8 29.7324 38.73 30.2293 39.5955 30.86 40.36 31.1858 40.7359 31.1858 41.2941 30.86 41.67L29.86 42.78 31.86 44.36 32.63 43.1C32.8093 42.813 33.1216 42.6361 33.46 42.63Z" fill="#FFFFFF"/><path d="M37.57 41.15C37.2048 41.1494 36.8403 41.1194 36.48 41.06 32.9509 40.4656 30.5719 37.1228 31.1663 33.5937 31.7608 30.0646 35.1036 27.6856 38.6327 28.28 42.1618 28.8745 44.5408 32.2173 43.9463 35.7463 43.4217 38.8608 40.7283 41.1433 37.57 41.15ZM37.57 30.23C35.1068 30.231 33.1108 32.2286 33.1118 34.6918 33.1128 37.155 35.1104 39.151 37.5736 39.15 39.7506 39.1491 41.6088 37.5768 41.97 35.43 42.3682 33.0024 40.7343 30.7078 38.31 30.29 38.062 30.25 37.8112 30.23 37.56 30.23Z" fill="#FFFFFF"/><path d="M53.46 61.11C53.0064 61.1308 52.5957 60.8433 52.46 60.41L52.15 59.41C51.4624 59.3305 50.7892 59.1555 50.15 58.89L49.4 59.61C49.0112 59.9911 48.3888 59.9911 48 59.61L45.5 57.06C45.1189 56.6712 45.1189 56.0488 45.5 55.66L46.21 54.9C45.9372 54.2619 45.7555 53.5887 45.67 52.9L44.67 52.6C44.1778 52.4418 43.8873 51.9346 44 51.43L44.92 47.92C45.0575 47.3983 45.584 47.0797 46.11 47.2L47.11 47.43C47.3108 47.1574 47.5314 46.9001 47.77 46.66 47.9998 46.4255 48.2436 46.2051 48.5 46L48.25 45C48.1228 44.4738 48.4375 43.9419 48.96 43.8L52.46 42.8C52.9809 42.6572 53.521 42.9539 53.68 43.47L53.99 44.47C54.6822 44.5481 55.3593 44.7266 56 45L56.75 44.28C57.1376 43.9053 57.7524 43.9053 58.14 44.28L60.72 46.82C61.0947 47.2076 61.0947 47.8224 60.72 48.21L60 49C60.2759 49.6377 60.4611 50.3109 60.55 51L61.55 51.3C62.0693 51.4505 62.3749 51.9865 62.24 52.51L61.32 56C61.1825 56.5217 60.6559 56.8403 60.13 56.72L59.13 56.49C58.9229 56.7603 58.6991 57.0175 58.46 57.26 58.2187 57.4998 57.9651 57.7268 57.7 57.94L57.94 58.94C58.0679 59.4632 57.7584 59.9938 57.24 60.14L53.74 61.14C53.6456 61.1458 53.551 61.1357 53.46 61.11ZM50 56.7C50.1675 56.6992 50.3326 56.7404 50.48 56.82 51.2348 57.2221 52.0748 57.4381 52.93 57.45 53.3643 57.4574 53.7441 57.7443 53.87 58.16L54.1 58.89 55.73 58.44 55.55 57.71C55.447 57.2875 55.6289 56.8468 56 56.62 56.7233 56.1567 57.3347 55.5384 57.79 54.81 58.0114 54.4434 58.4416 54.2584 58.86 54.35L59.6 54.52 60.03 52.88 59.29 52.66C58.8738 52.5388 58.5831 52.1633 58.57 51.73 58.5474 50.8713 58.3175 50.0307 57.9 49.28 57.6924 48.9034 57.7488 48.4364 58.04 48.12L58.56 47.56 57.36 46.38 56.81 46.91C56.4959 47.2045 56.0286 47.2649 55.65 47.06 54.89 46.6606 54.0483 46.4416 53.19 46.42 52.7584 46.414 52.3794 46.1317 52.25 45.72L52.05 45 50.42 45.45 50.6 46.18C50.7049 46.6003 50.5273 47.0403 50.16 47.27 49.7961 47.4961 49.4604 47.7646 49.16 48.07 48.8604 48.373 48.5955 48.7084 48.37 49.07 48.1473 49.4407 47.7116 49.6263 47.29 49.53L46.56 49.36 46.13 51 46.86 51.22C47.2762 51.3412 47.5669 51.7167 47.58 52.15 47.6073 53.008 47.8368 53.8475 48.25 54.6 48.4576 54.9766 48.4012 55.4436 48.11 55.76L47.6 56.31 48.8 57.49 49.34 56.97C49.5193 56.802 49.7543 56.7058 50 56.7Z" fill="#FFFFFF"/><path d="M53.09 55.84C50.9416 55.8504 49.1917 54.1172 49.1813 51.9688 49.1763 50.9309 49.5863 49.9341 50.32 49.2L50.32 49.2C51.8333 47.6673 54.3026 47.6515 55.8353 49.1648 57.368 50.6781 57.3838 53.1474 55.8705 54.6802 55.1437 55.4162 54.1544 55.8334 53.12 55.84ZM51.74 50.61C51.0055 51.3594 51.0175 52.5623 51.7668 53.2969 52.1203 53.6433 52.595 53.8382 53.09 53.84L53.09 53.84C53.5912 53.8329 54.0692 53.628 54.42 53.27 54.786 52.9197 54.9951 52.4366 55 51.93 55.0026 51.4259 54.8005 50.9423 54.44 50.59 53.6988 49.8472 52.4958 49.8458 51.753 50.587 51.752 50.588 51.751 50.589 51.75 50.59Z" fill="#FFFFFF"/><path d="M56.6 25.4 54.82 26.31C49.9288 16.7338 38.2007 12.9359 28.6245 17.8271 23.1185 20.6394 19.2754 25.8996 18.27 32L20 30.25 21.42 31.66 17.92 35.16 17.7 35.38C17.5129 35.5709 17.2572 35.6789 16.99 35.68 16.7228 35.6789 16.4671 35.5709 16.28 35.38L12.56 31.66 14 30.25 16.2 32.44C17.6058 21.7779 26.7258 13.828 37.48 13.89 45.5198 13.7925 52.9235 18.2494 56.6 25.4Z" fill="#FFFFFF"/><path d="M16.01 35.09 16.08 35.16 16.01 35.16 16.01 35.09Z" fill="#FFFFFF"/><path d="M18.01 35.09 18.01 35.16 17.94 35.16 18.01 35.09Z" fill="#FFFFFF"/><path d="M62.42 37.82 61 39.24 58.9 37.13C58.7222 39.031 58.2952 40.9003 57.63 42.69L55.76 42C56.3096 40.5059 56.6789 38.9516 56.86 37.37L55 39.24 53.58 37.82 57.3 34.1C57.6889 33.7079 58.3221 33.7053 58.7142 34.0942 58.7161 34.0961 58.7181 34.0981 58.72 34.1Z" fill="#FFFFFF"/><path d="M37.53 56.28C29.4518 56.2991 22.052 51.7656 18.4 44.56L20.18 43.65C24.3347 51.8637 33.6804 56.0378 42.57 53.65L43.1 55.58C41.2827 56.06 39.4095 56.2954 37.53 56.28Z" fill="#FFFFFF"/></g></svg>