<svg width="75" height="75" viewBox="0 0 75 75" xmlns="http://www.w3.org/2000/svg" xmlns:xlink="http://www.w3.org/1999/xlink" id="Product_Icon" overflow="hidden"><defs><linearGradient x1="-37.5" y1="37.5" x2="112.5" y2="37.5" gradientUnits="userSpaceOnUse" id="PinkGradient" gradientTransform="matrix(0.707107 -0.707107 0.707107 0.707107 -15.53 37.5)"><stop offset="0" stop-color="#B0084D"/><stop offset="1" stop-color="#FF4F8B"/></linearGradient></defs><rect x="0" y="0" width="75" height="75" id="Pink_Gradient" fill="url(#PinkGradient)"/><g id="Icon_Test"><path d="M43.5 50.5 55.5 50.5 55.5 52.5 43.5 52.5 43.5 53.5 41.5 53.5 41.5 52.5 38.5 52.5 38.5 50.5 41.5 50.5 41.5 49.5 43.5 49.5ZM47.5 44.5 45.5 44.5 45.5 45.5 38.5 45.5 38.5 47.5 45.5 47.5 45.5 48.5 47.5 48.5 47.5 47.5 55.5 47.5 55.5 45.5 47.5 45.5ZM18.43 42.87C15.9165 41.3504 14.4151 38.5959 14.5 35.66 14.3098 32.0561 16.8064 28.8638 20.35 28.18 20.8032 28.0632 21.1148 27.6478 21.1 27.18L21 25.69C21.1234 21.3195 23.6672 17.3804 27.6 15.47 31.9122 13.5615 36.9588 14.5749 40.2 18 41.6162 19.4505 42.6892 21.2001 43.34 23.12 43.4642 23.4652 43.7674 23.7146 44.13 23.77 44.4943 23.8249 44.8594 23.6751 45.08 23.38 46.1373 21.9262 48.0074 21.3136 49.72 21.86 51.6 22.48 52.72 24.31 52.72 26.86 52.6659 27.1232 52.7199 27.3971 52.87 27.62 53.0238 27.8438 53.2621 27.9954 53.53 28.04 55.63 28.41 60.53 29.88 60.53 35.75 60.53 35.99 60.53 36.21 60.53 36.43L62.53 36.51C62.53 36.27 62.53 36.02 62.53 35.75 62.53 29 57.31 26.88 54.73 26.25 54.52 23.11 52.92 20.78 50.38 19.94 48.4261 19.2956 46.2794 19.6709 44.66 20.94 43.9315 19.3026 42.9154 17.809 41.66 16.53 37.8395 12.5352 31.925 11.3635 26.87 13.6 22.148 15.8221 19.0971 20.5322 19 25.75L19 26.47C14.9537 27.6494 12.2446 31.4503 12.45 35.66 12.3741 39.2793 14.2241 42.6672 17.31 44.56 18.1781 45.1594 19.2051 45.4867 20.26 45.5L28.37 45.5 28.37 43.5 20.31 43.5C19.6336 43.4877 18.9773 43.2677 18.43 42.87ZM51.5 39.5 49.5 39.5 49.5 40.5 38.5 40.5 38.5 42.5 49.5 42.5 49.5 43.5 51.5 43.5 51.5 42.5 55.5 42.5 55.5 40.5 51.5 40.5ZM62.19 42.79C62.387 42.9778 62.499 43.2378 62.5 43.51L62.5 49.51C62.499 49.7822 62.387 50.0422 62.19 50.23 61.9899 50.4237 61.7181 50.5252 61.44 50.51L59.77 50.41C59.4907 51.3684 59.1084 52.2938 58.63 53.17L59.88 54.28C60.0907 54.4597 60.2114 54.7231 60.21 55 60.2169 55.2727 60.1122 55.5364 59.92 55.73L55.71 59.95C55.5066 60.1331 55.2436 60.2361 54.97 60.24 54.6948 60.2338 54.4343 60.1144 54.25 59.91L53.14 58.66C52.265 59.1434 51.3394 59.529 50.38 59.81L50.48 61.47C50.495 61.7432 50.3975 62.0107 50.21 62.21 50.0215 62.4132 49.7572 62.5291 49.48 62.53L43.48 62.53C43.2028 62.5291 42.9385 62.4132 42.75 62.21 42.5625 62.0107 42.465 61.7432 42.48 61.47L42.58 59.81C41.6206 59.529 40.695 59.1434 39.82 58.66L38.71 59.91C38.5256 60.1144 38.2652 60.2338 37.99 60.24 37.7156 60.2399 37.4514 60.1364 37.25 59.95L33.08 55.7C32.8878 55.5064 32.7831 55.2427 32.79 54.97 32.7886 54.6931 32.9093 54.4297 33.12 54.25L34.36 53.14C33.8816 52.2638 33.4993 51.3384 33.22 50.38L31.56 50.48C31.2847 50.4889 31.0164 50.3923 30.81 50.21 30.6105 50.0198 30.4983 49.7557 30.5 49.48L30.5 43.48C30.499 42.9277 30.9459 42.4792 31.4982 42.4782 31.5188 42.4782 31.5394 42.4788 31.56 42.48L33.23 42.57C33.5112 41.6154 33.8933 40.6935 34.37 39.82L33.12 38.7C32.912 38.5226 32.7915 38.2634 32.79 37.99 32.7803 37.7139 32.8852 37.446 33.08 37.25L37.29 33.03C37.4908 32.8428 37.7554 32.7391 38.03 32.74 38.3067 32.7488 38.5674 32.8719 38.75 33.08L39.87 34.33C40.7419 33.8499 41.6642 33.4676 42.62 33.19L42.52 31.51C42.505 31.2368 42.6025 30.9693 42.79 30.77 42.9802 30.5705 43.2443 30.4583 43.52 30.46L49.52 30.46C49.7957 30.4583 50.0598 30.5705 50.25 30.77 50.4375 30.9693 50.535 31.2368 50.52 31.51L50.42 33.19C51.3758 33.4676 52.2981 33.8499 53.17 34.33L54.29 33.08C54.4726 32.8719 54.7333 32.7488 55.01 32.74 55.2846 32.7391 55.5492 32.8428 55.75 33.03L59.96 37.25C60.1547 37.446 60.2597 37.7139 60.25 37.99 60.2485 38.2634 60.128 38.5226 59.92 38.7L58.67 39.82C59.1501 40.6919 59.5324 41.6142 59.81 42.57L61.48 42.48C61.7487 42.4837 62.0046 42.5955 62.19 42.79ZM60.5 44.57 59.07 44.66C58.5933 44.6716 58.1748 44.3452 58.07 43.88 57.7765 42.5726 57.2625 41.3248 56.55 40.19 56.2891 39.7767 56.3653 39.2353 56.73 38.91L57.76 38 55 35.24 54 36.31C53.6747 36.6747 53.1333 36.7509 52.72 36.49 51.6121 35.7948 50.3951 35.2911 49.12 35 48.6549 34.8952 48.3284 34.4767 48.34 34L48.42 32.56 44.58 32.56 44.66 33.99C44.6716 34.4667 44.3452 34.8852 43.88 34.99 42.5752 35.2817 41.3304 35.7959 40.2 36.51 39.7867 36.7709 39.2453 36.6947 38.92 36.33L37.92 35.26 35.24 38 36.32 39C36.6847 39.3253 36.7609 39.8667 36.5 40.28 35.7978 41.3854 35.2905 42.6031 35 43.88 34.8952 44.3451 34.4767 44.6716 34 44.66L32.57 44.57 32.57 48.42 34 48.34C34.4767 48.3284 34.8952 48.6548 35 49.12 35.2952 50.4253 35.8128 51.6701 36.53 52.8 36.7909 53.2133 36.7147 53.7547 36.35 54.08L35.28 55.08 38 57.75 38.95 56.69C39.2753 56.3253 39.8167 56.2491 40.23 56.51 41.3547 57.2075 42.5885 57.7112 43.88 58 44.3452 58.1048 44.6716 58.5233 44.66 59L44.58 60.43 48.42 60.43 48.34 59C48.3284 58.5233 48.6548 58.1048 49.12 58 50.4279 57.703 51.6757 57.1857 52.81 56.47 53.2233 56.2091 53.7647 56.2853 54.09 56.65L55 57.75 57.76 55 56.69 54C56.3253 53.6747 56.2491 53.1333 56.51 52.72 57.2032 51.6111 57.7068 50.3944 58 49.12 58.1048 48.6549 58.5233 48.3284 59 48.34L60.43 48.42Z" fill="#FFFFFF"/></g></svg>