<svg width="75" height="75" viewBox="0 0 75 75" xmlns="http://www.w3.org/2000/svg" xmlns:xlink="http://www.w3.org/1999/xlink" id="Product_Icon" overflow="hidden"><defs><linearGradient x1="90.53" y1="90.53" x2="-15.53" y2="-15.53" gradientUnits="userSpaceOnUse" id="PinkGradient" gradientTransform="matrix(0 1 -1 0 75 0)"><stop offset="0" stop-color="#B0084D"/><stop offset="1" stop-color="#FF4F8B"/></linearGradient></defs><rect x="0" y="0" width="75" height="75" id="Pink_Gradient" fill="url(#PinkGradient)"/><g id="Icon_Test"><path d="M61.5 61.5 54.5 61.5 54.5 59.5 60.5 59.5 60.5 23.5 14.5 23.5 14.5 59.5 42.5 59.5 42.5 61.5 13.5 61.5C12.9477 61.5 12.5 61.0523 12.5 60.5L12.5 14.5C12.5 13.9477 12.9477 13.5 13.5 13.5L61.5 13.5C62.0523 13.5 62.5 13.9477 62.5 14.5L62.5 60.5C62.5 61.0523 62.0523 61.5 61.5 61.5ZM14.5 21.5 60.5 21.5 60.5 15.5 14.5 15.5ZM40.18 56.42 34.82 56.42C34.2677 56.42 33.82 55.9723 33.82 55.42L33.82 54.53C32.9154 54.2602 32.0408 53.8983 31.21 53.45L30.58 54.08C30.19 54.4677 29.56 54.4677 29.17 54.08L25.38 50.3C25.1928 50.1113 25.0885 49.8558 25.09 49.59 25.0885 49.3242 25.1928 49.0687 25.38 48.88L26.02 48.25C25.5628 47.4222 25.1973 46.5471 24.93 45.64L24 45.64C23.4477 45.64 23 45.1923 23 44.64L23 39.29C23 38.7377 23.4477 38.29 24 38.29L24.9 38.29C25.1744 37.3839 25.5431 36.5092 26 35.68L25.38 35C24.9923 34.61 24.9923 33.98 25.38 33.59L29.17 29.8C29.3563 29.6153 29.6077 29.5111 29.87 29.51L29.87 29.51C30.1358 29.5085 30.3913 29.6128 30.58 29.8L31.22 30.44C32.0473 29.9918 32.9186 29.6299 33.82 29.36L33.82 28.46C33.82 27.9077 34.2677 27.46 34.82 27.46L40.18 27.46C40.7323 27.46 41.18 27.9077 41.18 28.46L41.18 29.37C42.0845 29.6312 42.9567 29.9935 43.78 30.45L44.42 29.8C44.6087 29.6128 44.8642 29.5085 45.13 29.51L45.13 29.51C45.3923 29.5111 45.6437 29.6153 45.83 29.8L49.62 33.59C50.0077 33.98 50.0077 34.61 49.62 35L48.98 35.64C49.4383 36.466 49.8007 37.3417 50.06 38.25L51 38.25C51.5523 38.25 52 38.6977 52 39.25L52 44.6C52 45.1523 51.5523 45.6 51 45.6L50.1 45.6C49.8354 46.5223 49.4663 47.4114 49 48.25L49.64 48.88C50.0321 49.2689 50.0347 49.9021 49.6458 50.2942 49.6439 50.2961 49.6419 50.2981 49.64 50.3L45.85 54.08C45.46 54.4677 44.83 54.4677 44.44 54.08L43.81 53.45C42.9812 53.9025 42.1062 54.2645 41.2 54.53L41.2 55.42C41.2001 55.9723 40.7525 56.4201 40.2002 56.4202 40.1935 56.4202 40.1867 56.4201 40.18 56.42ZM35.82 54.42 39.18 54.42 39.18 53.76C39.1673 53.2863 39.4888 52.8688 39.95 52.76 41.1788 52.4815 42.3518 51.9981 43.42 51.33 43.8153 51.0814 44.3301 51.1395 44.66 51.47L45.13 51.94 47.5 49.57 47 49.11C46.6695 48.7801 46.6114 48.2653 46.86 47.87 47.5362 46.8132 48.0203 45.6453 48.29 44.42 48.3948 43.9548 48.8133 43.6283 49.29 43.64L50 43.64 50 40.29 49.33 40.29C48.8533 40.3017 48.4348 39.9752 48.33 39.51 48.0559 38.283 47.5721 37.1125 46.9 36.05 46.6409 35.6637 46.6823 35.1498 47 34.81L47.48 34.33 45.13 32 44.65 32.49C44.316 32.8224 43.7952 32.8766 43.4 32.62 42.3595 31.9407 41.2091 31.4467 40 31.16 39.5388 31.0512 39.2173 30.6337 39.23 30.16L39.23 29.5 35.82 29.5 35.82 30.18C35.8316 30.6567 35.5052 31.0752 35.04 31.18 33.8181 31.4604 32.652 31.9438 31.59 32.61 31.1947 32.8586 30.6799 32.8005 30.35 32.47L29.87 32 27.5 34.33 27.98 34.81C28.3157 35.1415 28.374 35.6625 28.12 36.06 27.4502 37.1201 26.9665 38.2869 26.69 39.51 26.5852 39.9752 26.1667 40.3017 25.69 40.29L25 40.29 25 43.64 25.67 43.64C26.1467 43.6283 26.5652 43.9548 26.67 44.42 26.9484 45.6456 27.4319 46.8154 28.1 47.88 28.3591 48.2663 28.3177 48.7802 28 49.12L27.52 49.59 29.87 52 30.35 51.52C30.6824 51.1928 31.1969 51.1388 31.59 51.39 32.6414 52.0398 33.7939 52.5096 35 52.78 35.4652 52.8848 35.7916 53.3033 35.78 53.78ZM37.5 47.34C34.5287 47.3399 32.1201 44.9311 32.1201 41.9599 32.1202 38.9886 34.529 36.5799 37.5003 36.58 40.4716 36.5801 42.8802 38.9889 42.8801 41.9601 42.8801 41.9734 42.8801 41.9867 42.88 42 42.8526 44.9534 40.4535 47.3346 37.5 47.34ZM37.5 38.59C35.6333 38.5901 34.1201 40.1034 34.1201 41.9701 34.1202 43.8369 35.6335 45.3501 37.5003 45.35 39.3552 45.3499 40.8635 43.8549 40.88 42 40.8966 40.1334 39.3968 38.6067 37.5301 38.5901 37.5201 38.59 37.51 38.59 37.5 38.59ZM26.5 19.5 24.5 19.5 24.5 17.5 26.5 17.5ZM22.5 19.5 20.5 19.5 20.5 17.5 22.5 17.5ZM18.5 19.5 16.5 19.5 16.5 17.5 18.5 17.5Z" fill="#FFFFFF"/></g></svg>