<svg width="75" height="75" viewBox="0 0 75 75" xmlns="http://www.w3.org/2000/svg" xmlns:xlink="http://www.w3.org/1999/xlink" id="Product_Icon" overflow="hidden"><defs><linearGradient x1="37.5" y1="112.5" x2="37.5" y2="-37.5" gradientUnits="userSpaceOnUse" id="PinkGradient" gradientTransform="matrix(0.707107 0.707107 -0.707107 0.707107 37.5 -15.53)"><stop offset="0" stop-color="#B0084D"/><stop offset="1" stop-color="#FF4F8B"/></linearGradient></defs><rect x="0" y="0" width="75" height="75" id="Pink_Gradient" fill="url(#PinkGradient)"/><g id="Icon_Test"><path d="M62.5 35C62.5725 39.2763 59.2686 42.8533 55 43.12L40.5 43.12 40.5 41.12 55 41.12C55.14 41.12 60.55 40.52 60.55 34.99 60.55 30.35 56.67 29.19 55.01 28.9 54.4709 28.8081 54.1057 28.3003 54.19 27.76 54.19 25.76 53.35 24.33 51.88 23.85 50.5428 23.3903 49.0622 23.8568 48.23 25 48.0006 25.313 47.6108 25.4651 47.23 25.39 46.8674 25.3346 46.5642 25.0852 46.44 24.74 45.9399 23.2126 45.1065 21.8156 44 20.65 41.3937 17.917 37.3512 17.1165 33.9 18.65 31.9448 19.5642 30.3832 21.1506 29.5 23.12L27.3 23.12C28.3141 20.3304 30.3977 18.0597 33.09 16.81 37.2888 14.9595 42.1962 15.9258 45.38 19.23 46.3706 20.2312 47.1823 21.3947 47.78 22.67 49.14 21.7127 50.8758 21.4637 52.45 22 54.6216 22.7894 56.0786 24.8396 56.11 27.15 59.33 27.92 62.5 30.35 62.5 35ZM34.5 34.13 34.5 27.13 14.5 27.13 14.5 57.13 34.5 57.13 34.5 40.13 36.5 40.13 36.5 58.13C36.5 58.6823 36.0523 59.13 35.5 59.13L13.5 59.13C12.9477 59.13 12.5 58.6823 12.5 58.13L12.5 26.13C12.5 25.5777 12.9477 25.13 13.5 25.13L35.5 25.13C36.0523 25.13 36.5 25.5777 36.5 26.13L36.5 34.13ZM47.5 36.13 17.5 36.13 17.5 38.13 47.5 38.13ZM25.5 31.13 17.5 31.13 17.5 33.13 25.5 33.13ZM28.5 41.13 17.5 41.13 17.5 43.13 28.5 43.13ZM24.41 46.13 17.54 46.13 17.54 48.13 24.41 48.13ZM31.5 46.13 26.5 46.13 26.5 48.13 31.5 48.13ZM53.5 36.13 49.5 36.13 49.5 38.13 53.5 38.13Z" fill="#FFFFFF"/></g></svg>