<svg viewBox="0 0 75 75" xmlns="http://www.w3.org/2000/svg" xmlns:xlink="http://www.w3.org/1999/xlink" overflow="hidden"><defs><linearGradient x1="-2290.47" y1="-2316.47" x2="-2396.53" y2="-2422.53" gradientUnits="userSpaceOnUse" id="PinkGradient" gradientTransform="matrix(0 1 -1 0 -2332 2381)"><stop offset="0" stop-color="#B0084D"/><stop offset="1" stop-color="#FF4F8B"/></linearGradient></defs><g id="Reference"><rect x="0" y="0" width="75" height="75" id="Pink_Gradient" fill="url(#PinkGradient)"/><g id="Icon_Test"><path d="M49 19 38 12.63C37.6906 12.4514 37.3094 12.4514 37 12.63L26 19C25.6894 19.1793 25.4986 19.5113 25.5 19.87L25.5 32.57C25.4986 32.9287 25.6894 33.2607 26 33.44L37 39.79C37.3094 39.9686 37.6906 39.9686 38 39.79L49 33.44C49.3106 33.2607 49.5014 32.9287 49.5 32.57L49.5 19.85C49.4943 19.4985 49.3045 19.1757 49 19ZM36.5 37.17 27.5 32 27.5 21.59 36.5 26.78ZM37.5 25.05 28.5 19.85 37.5 14.65 46.5 19.85ZM47.5 32 38.5 37.19 38.5 26.78 47.5 21.59Z" fill="#FFFFFF"/><path d="M61.5 50.5 57.5 50.5 57.5 45.5C57.5 44.9477 57.0523 44.5 56.5 44.5L38.5 44.5 38.5 41.5 36.5 41.5 36.5 44.5 18.5 44.5C17.9477 44.5 17.5 44.9477 17.5 45.5L17.5 50.5 13.5 50.5C12.9477 50.5 12.5 50.9477 12.5 51.5L12.5 61.5C12.5 62.0523 12.9477 62.5 13.5 62.5L23.5 62.5C24.0523 62.5 24.5 62.0523 24.5 61.5L24.5 51.5C24.5 50.9477 24.0523 50.5 23.5 50.5L19.5 50.5 19.5 46.5 36.5 46.5 36.5 50.5 32.5 50.5C31.9477 50.5 31.5 50.9477 31.5 51.5L31.5 61.5C31.5 62.0523 31.9477 62.5 32.5 62.5L42.5 62.5C43.0523 62.5 43.5 62.0523 43.5 61.5L43.5 51.5C43.5 50.9477 43.0523 50.5 42.5 50.5L38.5 50.5 38.5 46.5 55.5 46.5 55.5 50.5 51.5 50.5C50.9477 50.5 50.5 50.9477 50.5 51.5L50.5 61.5C50.5 62.0523 50.9477 62.5 51.5 62.5L61.5 62.5C62.0523 62.5 62.5 62.0523 62.5 61.5L62.5 51.5C62.5 50.9477 62.0523 50.5 61.5 50.5ZM22.5 52.5 22.5 60.5 14.5 60.5 14.5 52.5ZM41.5 52.5 41.5 60.5 33.5 60.5 33.5 52.5ZM60.5 60.5 52.5 60.5 52.5 52.5 60.5 52.5Z" fill="#FFFFFF"/></g></g></svg>