<svg width="75" height="75" viewBox="0 0 75 75" xmlns="http://www.w3.org/2000/svg" xmlns:xlink="http://www.w3.org/1999/xlink" id="Product_Icon" overflow="hidden"><defs><linearGradient x1="37.5" y1="112.5" x2="37.5" y2="-37.5" gradientUnits="userSpaceOnUse" id="PinkGradient" gradientTransform="matrix(0.707107 0.707107 -0.707107 0.707107 37.5 -15.53)"><stop offset="0" stop-color="#B0084D"/><stop offset="1" stop-color="#FF4F8B"/></linearGradient></defs><rect x="0" y="0" width="75" height="75" id="Pink_Gradient" fill="url(#PinkGradient)"/><g id="Icon_Test"><path d="M52 35.8 45.5 32.05 45.5 24.54C45.5014 24.1813 45.3106 23.8493 45 23.67L38 19.67C37.6906 19.4914 37.3094 19.4914 37 19.67L30 23.67C29.6894 23.8493 29.4986 24.1813 29.5 24.54L29.5 32.05 23 35.8C22.6894 35.9793 22.4986 36.3113 22.5 36.67L22.5 44.75C22.4986 45.1087 22.6894 45.4407 23 45.62L30 49.62C30.3094 49.7986 30.6906 49.7986 31 49.62L37.5 45.87 44 49.66C44.3094 49.8386 44.6906 49.8386 45 49.66L52 45.66C52.3106 45.4807 52.5014 45.1487 52.5 44.79L52.5 36.67C52.5014 36.3113 52.3106 35.9793 52 35.8ZM29.5 47.06 24.5 44.17 24.5 38.4 29.5 41.28ZM30.5 39.55 25.5 36.66 30.5 33.78 35.5 36.66ZM36.5 44.17 31.5 47.06 31.5 41.28 36.5 38.4ZM36.5 34.93 31.5 32.05 31.5 26.28 36.5 29.16ZM32.5 24.54 37.5 21.65 42.5 24.54 37.5 27.43ZM43.5 26.28 43.5 32.05 38.5 34.93 38.5 29.16ZM43.5 47.06 38.5 44.17 38.5 38.4 43.5 41.28ZM44.5 39.55 39.5 36.66 44.5 33.78 49.5 36.66ZM50.5 44.17 45.5 47.06 45.5 41.28 50.5 38.4ZM60.5 32.56 58.5 32.86C58.6428 33.8334 58.713 34.8162 58.71 35.8 58.7209 44.9875 52.8208 53.1395 44.09 56 43.5223 56.1963 42.9449 56.3632 42.36 56.5 41.8394 53.7881 39.2189 52.0117 36.507 52.5324 34.1308 52.9885 32.4223 55.0806 32.45 57.5 32.4439 57.6032 32.4439 57.7068 32.45 57.81 32.6214 60.5661 34.9947 62.6614 37.7508 62.4899 39.9721 62.3517 41.8346 60.762 42.32 58.59 43.1335 58.4269 43.9353 58.2097 44.72 57.94 54.2854 54.804 60.7445 45.8663 60.72 35.8 60.7312 34.7166 60.6643 33.6338 60.52 32.56ZM40.44 57.69C40.4234 59.3469 39.0669 60.6766 37.41 60.66 35.7531 60.6434 34.4234 59.2869 34.44 57.63L34.44 57.5C34.44 55.8431 35.7831 54.5 37.44 54.5 39.0969 54.5 40.44 55.8431 40.44 57.5 40.4434 57.5633 40.4434 57.6267 40.44 57.69ZM57.5 21C56.8912 20.9973 56.2874 21.1093 55.72 21.33 55.2418 20.726 54.731 20.1485 54.19 19.6 45.2603 10.3497 30.5225 10.0899 21.2722 19.0196 21.0954 19.1903 20.9213 19.3638 20.75 19.54L22.19 21C30.3669 12.5583 43.839 12.3437 52.2806 20.5206 52.443 20.6779 52.6028 20.8377 52.76 21 53.1993 21.4535 53.6133 21.9309 54 22.43 53.035 23.3663 52.4933 24.6555 52.5 26 52.5 28.7614 54.7386 31 57.5 31 58.1011 31 58.6973 30.8916 59.26 30.68 61.8447 29.708 63.152 26.8247 62.18 24.24 61.447 22.2908 59.5825 21 57.5 21ZM58.5 28.81C58.1808 28.933 57.8421 28.9974 57.5 29 55.8431 29 54.5 27.6569 54.5 26 54.517 24.9454 55.0865 23.9772 56 23.45 56.4495 23.1658 56.9683 23.0101 57.5 23 59.1566 23.0274 60.4774 24.3925 60.45 26.0492 60.4296 27.2829 59.6559 28.3783 58.5 28.81ZM16.1 35.81C16.0965 34.8062 16.1666 33.8035 16.31 32.81 16.4 32.18 16.52 31.55 16.66 30.94 16.9214 30.9802 17.1855 31.0003 17.45 31 20.2114 30.9992 22.4493 28.76 22.4485 25.9985 22.448 24.234 21.5175 22.6004 20 21.7 19.2428 21.2506 18.3804 21.0091 17.5 21 14.7386 21.0065 12.5052 23.2503 12.5117 26.0117 12.5157 27.7182 13.3897 29.3048 14.83 30.22 14.6397 30.9782 14.4895 31.746 14.38 32.52 12.7918 43.6993 19.4445 54.4095 30.17 57.94L30.79 56.04C22.0372 53.1819 16.1246 45.0076 16.15 35.8ZM14.5 26C14.5 24.3431 15.8431 23 17.5 23 18.0324 22.9982 18.555 23.1436 19.01 23.42 19.9288 23.9552 20.4956 24.9367 20.5 26 20.5 27.6569 19.1569 29 17.5 29 17.1155 29.0043 16.7343 28.9295 16.38 28.78 15.2451 28.3233 14.5013 27.2233 14.5 26Z" fill="#FFFFFF" opacity="0.99"/></g></svg>