<svg width="75" height="75" viewBox="0 0 75 75" xmlns="http://www.w3.org/2000/svg" xmlns:xlink="http://www.w3.org/1999/xlink" id="Product_Icon" overflow="hidden"><defs><linearGradient x1="37.5" y1="112.5" x2="37.5" y2="-37.5" gradientUnits="userSpaceOnUse" id="PinkGradient" gradientTransform="matrix(0.707107 0.707107 -0.707107 0.707107 37.5 -15.53)"><stop offset="0" stop-color="#B0084D"/><stop offset="1" stop-color="#FF4F8B"/></linearGradient></defs><rect x="0" y="0" width="75" height="75" id="Pink_Gradient" fill="url(#PinkGradient)"/><path d="M34.16 39.21C33.9057 38.7041 33.3753 38.3976 32.81 38.43L21.32 38.43C20.8767 38.4149 20.4642 38.6562 20.26 39.05L20.09 39.33 18.65 41.83C17.4 44 15.99 46.45 14.59 48.83 14.219 49.3872 14.219 50.1128 14.59 50.67 16.59 54.05 18.36 57.15 20.08 60.17 20.3617 60.7643 20.973 61.1311 21.63 61.1L21.63 61.1C22.92 61.1 24.19 61.1 25.5 61.1L28.8 61.1C30.06 61.1 31.36 61.1 32.63 61.1L32.69 61.1C33.3395 61.1333 33.9458 60.7749 34.23 60.19 36.23 56.76 38.23 53.26 39.82 50.6 40.1558 50.094 40.1558 49.436 39.82 48.93 37.82 45.53 35.85 42.13 34.16 39.21ZM32.53 59.12 25.53 59.12C24.3 59.12 23.03 59.12 21.76 59.12 20.12 56.25 18.35 53.19 16.36 49.77 17.75 47.39 19.15 44.96 20.36 42.77L21.7 40.43 21.7 40.43 32.5 40.43C34.24 43.43 36.11 46.66 37.94 49.78 36.58 52.09 34.55 55.53 32.52 59.07L32.52 59Z" fill="#FFFFFF"/><path d="M35.42 48.28C34.56 46.84 33.54 45.15 32.56 43.45 32.0481 42.5229 31.0584 41.9623 30 42L29.89 42C29.26 42 28.62 42 28 42L24.2 42C23.22 41.9832 22.3114 42.5107 21.84 43.37 20.91 45 19.92 46.7 18.91 48.42 18.3842 49.2829 18.3842 50.3671 18.91 51.23 19.85 52.83 20.81 54.49 21.76 56.16 22.2616 57.0851 23.2379 57.6524 24.29 57.63 26.2 57.63 28.08 57.63 30.03 57.63 31.0716 57.6522 32.0375 57.0881 32.53 56.17 33.45 54.58 34.42 52.95 35.4 51.33 36.0136 50.4081 36.0214 49.2099 35.42 48.28ZM33.68 50.28C32.68 51.91 31.73 53.55 30.8 55.16 30.6545 55.4595 30.3423 55.6413 30.01 55.62L24.27 55.62C23.942 55.6443 23.634 55.4603 23.5 55.16 22.5 53.46 21.57 51.79 20.64 50.16 20.4755 49.9187 20.4755 49.6013 20.64 49.36 21.64 47.68 22.64 45.98 23.57 44.31 23.7031 44.0943 23.9479 43.9738 24.2 44L28 44C28.66 44 29.31 44 30 44L30 44C30.3504 43.9679 30.6831 44.1602 30.83 44.48 31.83 46.2 32.83 47.84 33.71 49.36 33.8813 49.6353 33.8694 49.9868 33.68 50.25Z" fill="#FFFFFF"/><path d="M36.55 35.28 36.55 35.28 36.49 35.38C36.4322 35.4724 36.382 35.5694 36.34 35.67 36.2167 35.9364 36.2167 36.2436 36.34 36.51 36.4861 36.7612 36.7344 36.9364 37.02 36.99 37.1429 37.0045 37.2671 37.0045 37.39 36.99L38.67 36.99C39.4 36.99 40.16 36.99 40.91 36.99L41 36.99C41.5862 37.0204 42.1321 36.6921 42.38 36.16 43.02 35 43.7 33.84 44.38 32.71L45.11 31.44 45.23 31.44 45.71 31.44 51.28 31.44C51.6424 31.402 51.9871 31.6048 52.13 31.94 52.6 32.78 53.13 33.64 53.58 34.46L53.58 34.51 54.58 36.29C54.784 36.7358 55.2297 37.0213 55.72 37.02L59.57 37.02C59.9653 37.0804 60.3586 36.8995 60.57 36.56 60.751 36.2015 60.7242 35.7732 60.5 35.44L60.38 35.24 59.12 33.05C57.92 30.97 56.67 28.82 55.46 26.7 55.2193 26.208 54.7068 25.9084 54.16 25.94L42.81 25.94C42.2655 25.9066 41.7537 26.2019 41.51 26.69 40.19 29.01 38.83 31.35 37.51 33.62ZM39 35 39.2 34.67C40.52 32.38 41.82 30.14 43.09 27.92L53.87 27.92C55 29.92 56.17 31.92 57.29 33.86L58 35 56.21 35 55.44 33.67 55.31 33.44C54.84 32.63 54.31 31.79 53.88 30.95 53.3665 29.9757 52.3407 29.3812 51.24 29.42L45.68 29.42 45.09 29.42 43.91 29.49 42.58 31.79C41.98 32.79 41.36 33.89 40.77 34.96L39 34.96Z" fill="#FFFFFF"/><path d="M15.39 24.89C15.5864 24.9581 15.7922 24.9953 16 25L19.53 25C20.0653 25.026 20.5632 24.7256 20.79 24.24L22 22.15 22.06 22.06C22.48 21.34 22.91 20.6 23.32 19.86 23.4528 19.5538 23.7678 19.3681 24.1 19.4L24.1 19.4 27.02 19.4C27.95 19.4 28.77 19.4 29.53 19.4L29.62 19.4C30.0861 19.3527 30.5225 19.6354 30.67 20.08 30.6896 20.1221 30.713 20.1623 30.74 20.2L31.35 21.2C31.92 22.2 32.5 23.2 33.07 24.2 33.2824 24.663 33.7508 24.9543 34.26 24.94L34.34 24.94C34.72 24.94 35.11 24.94 35.54 24.94L38.1 24.94C38.4652 24.9565 38.8103 24.7725 39 24.46 39.1835 24.1341 39.1835 23.7359 39 23.41L38.88 23.21 37.56 21C36.32 18.86 35.09 16.72 33.87 14.58 33.6291 14.1084 33.1279 13.8282 32.6 13.87L21.27 13.87C20.7023 13.8262 20.1646 14.1306 19.91 14.64 18.91 16.46 17.83 18.27 16.78 20.08L15.47 22.36 15.33 22.59C15.16 22.89 14.96 23.22 14.8 23.59 14.6797 23.8396 14.6797 24.1304 14.8 24.38 14.9195 24.6228 15.1324 24.8069 15.39 24.89ZM27 17.43C26 17.43 25.07 17.43 24.11 17.43L24.04 17.43C22.9793 17.3948 21.9936 17.9753 21.51 18.92 21.1 19.66 20.67 20.4 20.28 21.06L20.19 21.22C19.85 21.81 19.51 22.39 19.19 22.99L17.44 22.99 18.66 20.88C19.61 19.23 20.56 17.59 21.52 15.88L32.3 15.88C33.4733 17.92 34.6467 19.96 35.82 22L36.38 23 34.64 23C34.13 22.1 33.64 21.22 33.1 20.33L32.49 19.28C32.0092 18.1189 30.8557 17.3805 29.6 17.43L29.46 17.43C28.72 17.42 27.92 17.43 27 17.43Z" fill="#FFFFFF"/><path d="M59.71 37.58 59.71 37.58 58.37 37.58C57.55 37.58 56.69 37.58 55.86 37.58L55.86 37.58C55.3449 37.5633 54.8708 37.8597 54.66 38.33 54.29 38.98 53.91 39.63 53.53 40.33 53.15 41.03 52.65 41.84 52.21 42.62 52.0304 43.002 51.6302 43.2301 51.21 43.19L48.26 43.19C47.4 43.19 46.64 43.19 45.94 43.19L45.88 43.19C45.3722 43.2325 44.8938 42.947 44.69 42.48 44.26 41.7 43.8 40.91 43.4 40.21 43 39.51 42.71 39.03 42.4 38.43 42.1716 37.8669 41.606 37.5154 41 37.56L41 37.56C40.57 37.56 40.12 37.56 39.57 37.56L37.39 37.56C36.8404 37.5054 36.3506 37.9066 36.296 38.4562 36.2719 38.6989 36.3373 38.9421 36.48 39.14L38.4 42.5 38.54 42.74C39.54 44.46 40.54 46.18 41.54 47.9 41.7794 48.3791 42.2863 48.6642 42.82 48.62 44.18 48.62 45.58 48.62 46.92 48.62L51.59 48.62C52.51 48.62 53.27 48.62 53.97 48.62L54 48.62C54.6599 48.6525 55.2748 48.2859 55.56 47.69 56.56 45.83 57.7 43.96 58.75 42.14L58.92 41.85 60.33 39.4 60.39 39.3C60.46 39.1887 60.5202 39.0716 60.57 38.95 60.8021 38.4794 60.6087 37.9099 60.1381 37.6778 60.002 37.6107 59.8518 37.5771 59.7 37.58ZM48.26 45.12 51.16 45.12C52.3073 45.1567 53.3749 44.5355 53.91 43.52 54.33 42.78 54.76 42.03 55.21 41.27L55.29 41.13C55.59 40.61 55.9 40.13 56.2 39.56L57.93 39.56 57.24 40.76C56.19 42.57 55 44.61 53.88 46.6 53.2 46.6 52.46 46.6 51.56 46.6L43.08 46.6 40.08 41.37 39.08 39.57 40.8 39.57 41.7 41.13 41.77 41.25C42.15 41.91 42.59 42.66 42.99 43.39 43.5382 44.5029 44.6903 45.1887 45.93 45.14L46 45.14C46.7 45.12 47.44 45.12 48.26 45.12Z" fill="#FFFFFF"/><path d="M15 27.24 15.11 27.18 15 27.24 15.06 27.34 15.98 28.94 16.88 30.49C17.88 32.28 18.94 34.06 19.96 35.85 20.1307 36.2579 20.5186 36.5333 20.96 36.56L24.96 36.56C25.256 36.571 25.5417 36.4501 25.74 36.23 25.9089 36.0543 25.9897 35.8119 25.96 35.57 25.9264 35.3436 25.8483 35.126 25.73 34.93L24.59 32.93 23.21 30.55C22.38 29.11 21.52 27.63 20.69 26.16 20.4863 25.7404 20.0563 25.4785 19.59 25.49L19.49 25.49C19.07 25.49 18.64 25.49 18.23 25.49L16.84 25.49C16.43 25.49 16.01 25.49 15.6 25.49 15.2907 25.4886 15.0014 25.6426 14.83 25.9 14.6715 26.1708 14.6492 26.5004 14.77 26.79 14.84 27 14.91 27.11 15 27.24ZM17.47 27.52 19.19 27.52 21.41 31.36 22.89 34 23.24 34.61 21.52 34.61 18.6 29.49Z" fill="#FFFFFF"/><path d="M34 34.7C34.3403 34.6917 34.6531 34.5109 34.83 34.22 34.98 33.98 35.12 33.74 35.23 33.53L35.67 32.69C35.9 32.25 36.14 31.8 36.39 31.36 36.79 30.68 37.2 30.01 37.61 29.36L38.94 27C39.1376 26.7014 39.1604 26.32 39 26 38.7896 25.6842 38.429 25.502 38.05 25.52L34.23 25.52C33.718 25.5043 33.2459 25.7954 33.03 26.26 32.5 27.26 31.91 28.26 31.18 29.48 30.8951 29.9068 30.8951 30.4632 31.18 30.89L31.47 31.38 32.28 32.77 32.69 33.49 32.83 33.74 32.89 33.85C32.96 33.97 33.04 34.09 33.12 34.21 33.3037 34.5199 33.6398 34.7071 34 34.7ZM34 31.63C33.76 31.2 33.51 30.77 33.26 30.34L33.16 30.18C33.74 29.18 34.23 28.37 34.69 27.53L36.39 27.53 35.92 28.31C35.51 28.99 35.1 29.68 34.7 30.37 34.37 30.78 34.14 31.21 33.92 31.63Z" fill="#FFFFFF"/><path d="M32.36 34.12 31.92 33.37C31.59 32.81 31.26 32.24 30.92 31.67 30.7114 31.268 30.2812 31.0312 29.83 31.07 29.44 31.07 29.03 31.07 28.64 31.07L26 31.07C25.6483 31.0464 25.3101 31.2098 25.11 31.5 24.9429 31.8124 24.9429 32.1876 25.11 32.5L25.17 32.61 25.8 33.71 25.8 33.77C26.21 34.47 26.61 35.18 27.01 35.88 27.2219 36.3039 27.667 36.5599 28.14 36.53L31.85 36.53C32.2597 36.5638 32.6575 36.382 32.9 36.05 33.0446 35.7076 33.0148 35.3165 32.82 35ZM30.3 34.56 28.58 34.56 27.72 33.08 29.44 33.08 30.19 34.38Z" fill="#FFFFFF"/></svg>