<svg width="75" height="75" viewBox="0 0 75 75" xmlns="http://www.w3.org/2000/svg" xmlns:xlink="http://www.w3.org/1999/xlink" id="Product_Icon" overflow="hidden"><defs><linearGradient x1="37.5" y1="-37.5" x2="37.5" y2="112.5" gradientUnits="userSpaceOnUse" id="PinkGradient" gradientTransform="matrix(-0.707107 -0.707107 0.707107 -0.707107 37.5 90.53)"><stop offset="0" stop-color="#B0084D"/><stop offset="1" stop-color="#FF4F8B"/></linearGradient></defs><rect x="0" y="0" width="75" height="75" id="Pink_Gradient" fill="url(#PinkGradient)"/><g id="Icon_Test"><path d="M37.56 46.5C37.9677 46.4763 38.32 46.2071 38.45 45.82L44.39 28 47.53 39.78C47.6507 40.2292 48.0651 40.5359 48.53 40.52L62.53 40.52 62.53 38.52 49.27 38.52 45.47 24.26C45.355 23.8324 44.9726 23.5314 44.53 23.52 44.0819 23.4966 43.673 23.7746 43.53 24.2L37.33 42.81 32.41 32.08C32.2522 31.7384 31.916 31.5142 31.54 31.5 31.1671 31.4838 30.8163 31.6766 30.63 32L26.92 38.5 16.5 38.5 16.5 40.5 27.5 40.5C27.8587 40.5014 28.1907 40.3106 28.37 40L31.37 34.68 36.55 45.92C36.714 46.2745 37.0694 46.501 37.46 46.5ZM14.5 38.5 12.5 38.5 12.5 40.5 14.5 40.5ZM52.94 42.5 52.45 43.12 38.29 61.12C37.9514 61.5563 37.3232 61.6355 36.8869 61.2969 36.8208 61.2456 36.7613 61.1861 36.71 61.12L22.17 42.5 24.71 42.5 37.5 58.88 50.42 42.5ZM62.5 26.12C62.5031 28.1434 62.0049 30.1361 61.05 31.92 60.7467 32.5174 60.3955 33.0893 60 33.63L59.18 34.63 57.69 36.53 55.19 36.53 58.44 32.41C58.7693 31.9649 59.0667 31.4971 59.33 31.01 60.1274 29.5144 60.5431 27.8449 60.54 26.15 60.4305 20.1818 55.5084 15.4297 49.54 15.53 44.06 15.53 38.54 18.36 38.54 24.7 38.54 25.2523 38.0923 25.7 37.54 25.7 36.9877 25.7 36.54 25.2523 36.54 24.7 36.54 18.36 31.02 15.53 25.54 15.53 19.5716 15.4297 14.6495 20.1818 14.54 26.15 14.5238 27.8384 14.9257 29.5047 15.71 31L20 36.5 17.49 36.5 14.08 32.13 14 32C13.015 30.1972 12.5024 28.1743 12.51 26.12 12.6251 19.0496 18.4393 13.4054 25.51 13.5 31.2 13.5 35.62 16.04 37.51 20.05 39.4 16.05 43.82 13.5 49.51 13.5 56.5768 13.4109 62.3849 19.0536 62.5 26.12Z" fill="#FFFFFF"/></g></svg>