<svg width="75" height="75" viewBox="0 0 75 75" xmlns="http://www.w3.org/2000/svg" xmlns:xlink="http://www.w3.org/1999/xlink" id="Product_Icon" overflow="hidden"><defs><linearGradient x1="-15.53" y1="90.53" x2="90.53" y2="-15.53" gradientUnits="userSpaceOnUse" id="RedGradient"><stop offset="0" stop-color="#BD0816"/><stop offset="1" stop-color="#FF5252"/></linearGradient></defs><rect x="0" y="0" width="75" height="75" id="Red_Gradient" fill="url(#RedGradient)"/><g id="Icon_Test"><path d="M37.61 60.23C33.7977 60.2285 30.0479 59.2618 26.71 57.42L27.71 55.67C37.7337 61.1561 50.3068 57.4777 55.7929 47.4541 59.3618 40.9333 59.1584 32.9993 55.26 26.67L54.26 31.67 52.26 31.28 53.71 24C53.8158 23.4593 54.339 23.1061 54.88 23.21L62.22 24.66 61.83 26.66 56.93 25.66C63.4746 36.366 60.1012 50.3503 49.3952 56.895 45.8462 59.0645 41.7696 60.2181 37.61 60.23ZM20.28 51.51C20.197 51.5198 20.113 51.5198 20.03 51.51L12.78 49.69 13.27 47.75 17.93 48.92C11.6144 38.0965 15.2687 24.2026 26.0922 17.8869 32.966 13.8761 41.4386 13.7596 48.42 17.58L47.42 19.33C37.3706 13.8911 24.8149 17.6287 19.3761 27.6781 15.8956 34.109 16.0681 41.8995 19.83 48.17L21.13 43 23.07 43.48 21.25 50.73C21.1476 51.1841 20.7455 51.5074 20.28 51.51ZM45.52 47.2C43.6971 47.1986 42.1057 45.965 41.65 44.2L33.4 44.2C32.8477 46.339 30.666 47.6253 28.527 47.073 26.388 46.5207 25.1017 44.339 25.654 42.2 26.1094 40.4364 27.6986 39.2032 29.52 39.2 29.8846 39.1996 30.2476 39.2467 30.6 39.34L34.78 32.1C33.1758 30.5812 33.1065 28.0495 34.6253 26.4453 36.144 24.841 38.6758 24.7717 40.28 26.2905 41.8842 27.8093 41.9535 30.341 40.4347 31.9453 40.3846 31.9982 40.333 32.0498 40.28 32.1L44.46 39.34C44.8059 39.248 45.1621 39.201 45.52 39.2 47.7291 39.2 49.52 40.9909 49.52 43.2 49.52 45.4091 47.7291 47.2 45.52 47.2ZM45.52 41.2C44.4154 41.2 43.52 42.0954 43.52 43.2 43.52 44.3046 44.4154 45.2 45.52 45.2 46.6246 45.2 47.52 44.3046 47.52 43.2 47.52 42.0954 46.6246 41.2 45.52 41.2ZM29.52 41.2C28.4154 41.2 27.52 42.0954 27.52 43.2 27.52 44.3046 28.4154 45.2 29.52 45.2 30.6246 45.2 31.52 44.3046 31.52 43.2 31.52 42.0954 30.6246 41.2 29.52 41.2ZM33.4 42.2 41.65 42.2C41.8318 41.4894 42.2054 40.8425 42.73 40.33L38.53 33.06C37.8741 33.2294 37.1859 33.2294 36.53 33.06L32.34 40.34C32.8573 40.8549 33.2239 41.5016 33.4 42.21ZM37.52 27.2C36.4154 27.2 35.52 28.0954 35.52 29.2 35.52 30.3046 36.4154 31.2 37.52 31.2 38.6246 31.2 39.52 30.3046 39.52 29.2 39.52 28.0954 38.6246 27.2 37.52 27.2Z" fill="#FFFFFF"/></g></svg>