<svg width="75" height="75" viewBox="0 0 75 75" xmlns="http://www.w3.org/2000/svg" xmlns:xlink="http://www.w3.org/1999/xlink" id="Product_Icon" overflow="hidden"><defs><linearGradient x1="-37.5" y1="37.5" x2="112.5" y2="37.5" gradientUnits="userSpaceOnUse" id="RedGradient" gradientTransform="matrix(0.707107 -0.707107 0.707107 0.707107 -15.53 37.5)"><stop offset="0" stop-color="#BD0816"/><stop offset="1" stop-color="#FF5252"/></linearGradient></defs><rect x="0" y="0" width="75" height="75" id="Red_Gradient" fill="url(#RedGradient)"/><g id="Icon_Test"><path d="M40.4 55.88 14.32 55.88C13.7677 55.8791 13.3208 55.4306 13.3217 54.8783 13.322 54.7072 13.3662 54.5391 13.45 54.39L26.23 31.56C26.4014 31.2547 26.72 31.0612 27.07 31.05 27.4186 31.038 27.7483 31.2085 27.94 31.5L31.52 37C31.7144 37.3004 31.7334 37.6817 31.57 38L26.37 48 37.5 48C37.8824 47.9992 38.2317 48.2166 38.4 48.56L41.3 54.56C41.4604 54.88 41.4376 55.2614 41.24 55.56 41.0264 55.7936 40.7149 55.9123 40.4 55.88ZM16 53.88 38.8 53.88 36.87 49.88 24.72 49.88C24.369 49.882 24.0425 49.6999 23.86 49.4 23.6814 49.0906 23.6814 48.7094 23.86 48.4L29.56 37.51 27.17 34Z" fill="#FFFFFF"/><path d="M50.45 55.88 44.15 55.88C43.7857 55.883 43.4485 55.6876 43.27 55.37L28.79 29.12C28.6507 28.8397 28.6507 28.5103 28.79 28.23L31.14 23C31.2917 22.6606 31.619 22.4334 31.99 22.41 32.3643 22.388 32.7194 22.5771 32.91 22.9L51.31 54.43C51.5862 54.9083 51.4223 55.5199 50.944 55.796 50.7937 55.8828 50.6235 55.929 50.45 55.93ZM44.74 53.88 48.74 53.88 32.16 25.53 30.78 28.59Z" fill="#FFFFFF"/><path d="M60.68 55.88 54.2 55.88C53.8413 55.8814 53.5093 55.6906 53.33 55.38L33.39 20.62C33.2114 20.3106 33.2114 19.9294 33.39 19.62 33.5676 19.3125 33.8949 19.1221 34.25 19.12L40.4 19.12C40.7531 19.1201 41.0799 19.3063 41.26 19.61L61.54 54.38C61.8162 54.8583 61.6523 55.4699 61.174 55.746 61.0237 55.8328 60.8535 55.879 60.68 55.88ZM54.78 53.88 58.93 53.88 39.82 21.12 36 21.12Z" fill="#FFFFFF"/></g></svg>