<svg width="75" height="75" viewBox="0 0 75 75" xmlns="http://www.w3.org/2000/svg" xmlns:xlink="http://www.w3.org/1999/xlink" id="Product_Icon" overflow="hidden"><defs><linearGradient x1="37.49" y1="112.51" x2="37.49" y2="-37.49" gradientUnits="userSpaceOnUse" id="RedGradient" gradientTransform="matrix(0.707107 0.707107 -0.707107 0.707107 37.51 -15.53)"><stop offset="0" stop-color="#BD0816"/><stop offset="1" stop-color="#FF5252"/></linearGradient></defs><rect x="0" y="0" width="75" height="75" id="Red_Gradient" fill="url(#RedGradient)"/><g id="Icon_Test"><path d="M37.62 24.13C35.5489 24.13 33.87 22.4511 33.87 20.38 33.87 18.3089 35.5489 16.63 37.62 16.63 39.6911 16.63 41.37 18.3089 41.37 20.38 41.37 22.4511 39.6911 24.13 37.62 24.13ZM37.62 18.63C36.6535 18.63 35.87 19.4135 35.87 20.38 35.87 21.3465 36.6535 22.13 37.62 22.13 38.5865 22.13 39.37 21.3465 39.37 20.38 39.37 19.4135 38.5865 18.63 37.62 18.63Z" fill="#FFFFFF"/><path d="M52.55 50C50.4789 50 48.8 48.3211 48.8 46.25 48.8 44.1789 50.4789 42.5 52.55 42.5 54.6211 42.5 56.3 44.1789 56.3 46.25 56.3 48.3211 54.6211 50 52.55 50ZM52.55 44.5C51.5835 44.5 50.8 45.2835 50.8 46.25 50.8 47.2165 51.5835 48 52.55 48 53.5165 48 54.3 47.2165 54.3 46.25 54.3 45.2819 53.5181 44.4955 52.55 44.49Z" fill="#FFFFFF"/><path d="M22.69 50C20.6189 50 18.94 48.3211 18.94 46.25 18.94 44.1789 20.6189 42.5 22.69 42.5 24.7611 42.5 26.44 44.1789 26.44 46.25 26.44 48.3211 24.7611 50 22.69 50ZM22.69 44.5C21.7235 44.5 20.94 45.2835 20.94 46.25 20.94 47.2165 21.7235 48 22.69 48 23.6565 48 24.44 47.2165 24.44 46.25 24.44 45.2819 23.6581 44.4955 22.69 44.49Z" fill="#FFFFFF"/><path d="M60 23.93 38 11.22C37.6906 11.0414 37.3094 11.0414 37 11.22L15 23.93C14.6925 24.1076 14.5021 24.4349 14.5 24.79L14.5 50.2C14.5021 50.5551 14.6925 50.8825 15 51.06L37 63.76C37.3094 63.9386 37.6906 63.9386 38 63.76L60 51.06C60.3075 50.8825 60.4979 50.5551 60.5 50.2L60.5 24.79C60.4979 24.4349 60.3075 24.1076 60 23.93ZM58.5 49.62 37.5 61.74 16.5 49.62 16.5 25.37 37.5 13.24 58.5 25.37Z" fill="#FFFFFF"/><path d="M52.55 25.25C50.4789 25.25 48.8 26.9289 48.8 29 48.7991 29.2626 48.8293 29.5245 48.89 29.78 49.0238 30.4449 49.3427 31.0584 49.81 31.55 50.5145 32.3168 51.5087 32.7522 52.55 32.75 54.6211 32.75 56.3 31.0711 56.3 29 56.3 26.9289 54.6211 25.25 52.55 25.25ZM52.55 30.75C51.5835 30.75 50.8 29.9665 50.8 29 50.8 28.0335 51.5835 27.25 52.55 27.25 53.5165 27.25 54.3 28.0335 54.3 29 54.2945 29.9642 53.5142 30.7445 52.55 30.75Z" fill="#FFFFFF"/><path d="M41.37 37.65C41.3696 37.2703 41.3123 36.8927 41.2 36.53L49.81 31.53C49.3427 31.0384 49.0238 30.4249 48.89 29.76L40.11 34.84C39.4354 34.2052 38.5463 33.8481 37.62 33.84 36.6603 33.8287 35.733 34.1867 35.03 34.84L26.32 29.84C26.4004 29.5468 26.4408 29.244 26.44 28.94 26.4441 26.8634 24.764 25.1767 22.6874 25.1726 20.6108 25.1685 18.9241 26.8486 18.92 28.9252 18.9159 31.0018 20.596 32.6885 22.6726 32.6926 23.6779 32.6946 24.6422 32.2939 25.35 31.58L34.01 36.58C33.9171 36.9052 33.87 37.2418 33.87 37.58 33.8695 39.2201 34.9348 40.6702 36.5 41.16L36.5 51.16C34.5157 51.7723 33.4035 53.8773 34.0159 55.8615 34.6282 57.8458 36.7331 58.958 38.7174 58.3457 40.7016 57.7333 41.8138 55.6284 41.2015 53.6441 40.8114 52.3798 39.7854 51.4137 38.5 51.1L38.5 41.29C40.1839 40.8872 41.3712 39.3814 41.37 37.65ZM23.57 30.5C23.3063 30.6651 23.0011 30.7518 22.69 30.75 22.2776 30.7531 21.8787 30.6035 21.57 30.33 21.1714 30.0034 20.9402 29.5153 20.94 29 20.94 28.0335 21.7235 27.25 22.69 27.25 22.8705 27.2499 23.0497 27.2803 23.22 27.34 23.9478 27.5624 24.441 28.2391 24.43 29 24.4347 29.0163 24.4347 29.0337 24.43 29.05 24.4142 29.6498 24.0887 30.1985 23.57 30.5ZM39.37 54.85C39.37 55.8165 38.5865 56.6 37.62 56.6 36.6535 56.6 35.87 55.8165 35.87 54.85 35.87 53.8835 36.6535 53.1 37.62 53.1 38.5865 53.1 39.37 53.8835 39.37 54.85ZM37.62 39.4C36.6535 39.4 35.87 38.6165 35.87 37.65 35.87 36.6835 36.6535 35.9 37.62 35.9 38.5865 35.9 39.37 36.6835 39.37 37.65 39.3645 38.6142 38.5842 39.3945 37.62 39.4Z" fill="#FFFFFF"/><rect x="21.5" y="35.09" width="2" height="5" fill="#FFFFFF"/><rect x="51.5" y="35.09" width="2" height="5" fill="#FFFFFF"/><rect x="27.78" y="23.59" width="4.52" height="2" fill="#FFFFFF" transform="matrix(0.870871 -0.491512 0.491512 0.870871 -8.2 17.94)"/><rect x="43.99" y="22.27" width="2" height="4.52" fill="#FFFFFF" transform="matrix(0.505281 -0.862955 0.862955 0.505281 1.09 50.96)"/><rect x="29.05" y="48.24" width="2" height="4.52" fill="#FFFFFF" transform="matrix(0.491816 -0.870699 0.870699 0.491816 -28.7 51.82)"/><rect x="42.72" y="49.55" width="4.52" height="2" fill="#FFFFFF" transform="matrix(0.86 -0.51 0.51 0.86 -19.38 29.65)"/></g></svg>