<svg width="75" height="75" viewBox="0 0 75 75" xmlns="http://www.w3.org/2000/svg" xmlns:xlink="http://www.w3.org/1999/xlink" id="Product_Icon" overflow="hidden"><defs><linearGradient x1="37.5" y1="112.5" x2="37.5" y2="-37.5" gradientUnits="userSpaceOnUse" id="GreenGradient" gradientTransform="matrix(0.707107 0.707107 -0.707107 0.707107 37.5 -15.53)"><stop offset="0" stop-color="#1B660F"/><stop offset="1" stop-color="#6CAE3E"/></linearGradient></defs><rect x="0" y="0" width="75" height="75" id="Green_Gradient" fill="url(#GreenGradient)"/><path d="M62.5 23.5 62.5 21.5 58.5 21.5 58.5 18.5C58.5 17.9477 58.0523 17.5 57.5 17.5L17.5 17.5C16.9477 17.5 16.5 17.9477 16.5 18.5L16.5 21.5 12.5 21.5 12.5 23.5 16.5 23.5 16.5 26.5 12.5 26.5 12.5 28.5 16.5 28.5 16.5 31.5 12.5 31.5 12.5 33.5 16.5 33.5 16.5 36.5 12.5 36.5 12.5 38.5 16.5 38.5 16.5 41.5 12.5 41.5 12.5 43.5 16.5 43.5 16.5 46.5 12.5 46.5 12.5 48.5 16.5 48.5 16.5 51.5 12.5 51.5 12.5 53.5 16.5 53.5 16.5 56.5C16.5 57.0523 16.9477 57.5 17.5 57.5L57.5 57.5C58.0523 57.5 58.5 57.0523 58.5 56.5L58.5 53.5 62.5 53.5 62.5 51.5 58.5 51.5 58.5 48.5 62.5 48.5 62.5 46.5 58.5 46.5 58.5 43.5 62.5 43.5 62.5 41.5 58.5 41.5 58.5 38.5 62.5 38.5 62.5 36.5 58.5 36.5 58.5 33.5 62.5 33.5 62.5 31.5 58.5 31.5 58.5 28.5 62.5 28.5 62.5 26.5 58.5 26.5 58.5 23.5ZM56.5 55.5 18.5 55.5 18.5 19.5 56.5 19.5Z" fill="#FFFFFF"/><path d="M48.61 33.39C47.4511 30.0986 44.8847 27.4955 41.61 26.29 41.4516 24.0201 39.483 22.3084 37.2131 22.4669 35.1638 22.6099 33.533 24.2407 33.39 26.29 30.1186 27.506 27.5549 30.1101 26.39 33.4 24.1201 33.6245 22.462 35.6466 22.6865 37.9164 22.8848 39.9211 24.5004 41.4903 26.51 41.63 26.9307 42.7122 27.5141 43.7238 28.24 44.63L28.46 44.9C29.5478 46.2163 30.9139 47.2751 32.46 48L32.46 52.5 34.46 52.5 34.46 48.74C35.1141 48.9215 35.7837 49.042 36.46 49.1L36.46 52.5 38.46 52.5 38.46 49.1C39.136 49.0452 39.8055 48.9281 40.46 48.75L40.46 52.5 42.46 52.5 42.46 48C45.2015 46.7078 47.3472 44.419 48.46 41.6 50.7354 41.4418 52.4518 39.4689 52.2936 37.1935 52.1538 35.1839 50.5847 33.5683 48.58 33.37ZM27.1 39.6C26.9769 39.6103 26.8531 39.6103 26.73 39.6 25.5536 39.6 24.6 38.6464 24.6 37.47 24.6 36.2936 25.5536 35.34 26.73 35.34 26.8629 35.3247 26.9971 35.3247 27.13 35.34 28.287 35.5524 29.0528 36.6625 28.8405 37.8195 28.6808 38.6895 28 39.3703 27.13 39.53ZM32.5 45.76C31.5488 45.1972 30.7028 44.473 30 43.62 30 43.62 29.92 43.53 29.85 43.43 29.3089 42.7604 28.8615 42.0203 28.52 41.23 29.6327 40.6999 30.448 39.6974 30.74 38.5L32.5 38.5ZM36.5 47.09C35.8194 47.0219 35.1485 46.8776 34.5 46.66L34.5 37.5C34.5 36.9477 34.0523 36.5 33.5 36.5L30.73 36.5C30.4278 35.2615 29.5666 34.234 28.4 33.72 29.3734 31.271 31.2958 29.3198 33.73 28.31 34.2481 29.4657 35.2701 30.3179 36.5 30.62ZM37.5 28.75C36.4739 28.7432 35.597 28.009 35.41 27 35.3947 26.8638 35.3947 26.7262 35.41 26.59 35.41 25.4136 36.3636 24.46 37.54 24.46 38.7164 24.46 39.67 25.4136 39.67 26.59 39.6799 26.6998 39.6799 26.8102 39.67 26.92 39.5221 27.9957 38.5852 28.7857 37.5 28.75ZM41.5 36.5C40.9477 36.5 40.5 36.9477 40.5 37.5L40.5 46.66C39.8518 46.8789 39.1808 47.0231 38.5 47.09L38.5 30.62C39.7343 30.3158 40.7598 29.46 41.28 28.3 43.7124 29.3143 45.6311 31.2692 46.6 33.72 45.4334 34.234 44.5722 35.2615 44.27 36.5ZM42.5 45.76 42.5 38.5 44.27 38.5C44.5629 39.7001 45.3825 40.7035 46.5 41.23 45.6658 43.1164 44.2686 44.6987 42.5 45.76ZM48.33 39.63 48.27 39.63C47.0936 39.63 46.14 38.6764 46.14 37.5 46.14 36.3236 47.0936 35.37 48.27 35.37L48.27 35.37C49.4464 35.37 50.4 36.3236 50.4 37.5 50.4 38.6764 49.4464 39.63 48.27 39.63Z" fill="#FFFFFF"/></svg>