<svg width="75" height="75" viewBox="0 0 75 75" xmlns="http://www.w3.org/2000/svg" xmlns:xlink="http://www.w3.org/1999/xlink" id="Product_Icon" overflow="hidden"><defs><linearGradient x1="-15.53" y1="90.53" x2="90.53" y2="-15.53" gradientUnits="userSpaceOnUse" id="GreenGradient"><stop offset="0" stop-color="#1B660F"/><stop offset="1" stop-color="#6CAE3E"/></linearGradient></defs><rect x="0" y="0" width="75" height="75" id="Green_Gradient" fill="url(#GreenGradient)"/><g id="Icon_Test"><path d="M36.22 62.38C33.7347 62.38 31.72 60.3653 31.72 57.88 31.72 55.3947 33.7347 53.38 36.22 53.38L37.68 47.38 26.41 47.38C26.099 47.3807 25.7883 47.3606 25.48 47.32L20.78 52C22.0952 54.1088 21.4518 56.8844 19.3431 58.1996 17.2343 59.5148 14.4586 58.8715 13.1435 56.7627 11.8283 54.6539 12.4716 51.8783 14.5804 50.5631 16.0476 49.648 17.9093 49.6546 19.37 50.58L23.25 46.71C20.8113 45.6706 19.1589 43.3542 18.97 40.71 18.97 40.55 18.97 40.39 18.97 40.22 18.8678 37.1685 20.8092 34.4219 23.72 33.5 23.72 33.39 23.72 33.28 23.72 33.16 23.7544 31.2926 24.3312 29.4755 25.38 27.93L21.5 23C20.7115 23.4175 19.8322 23.6339 18.94 23.63 15.9024 23.6311 13.4391 21.1695 13.438 18.132 13.437 15.0944 15.8985 12.6311 18.9361 12.63 21.9736 12.6289 24.437 15.0905 24.438 18.128 24.4385 19.4647 23.9522 20.7558 23.07 21.76L26.66 26.32C27.4914 25.4666 28.4839 24.7868 29.58 24.32 33.354 22.6889 37.7417 23.5339 40.64 26.45 41.5076 27.2919 42.2246 28.2761 42.76 29.36 43.7063 28.7092 44.864 28.4412 46 28.61L49.26 22.07C47.0785 20.3769 46.6825 17.236 48.3756 15.0545 50.0686 12.8729 53.2096 12.477 55.3911 14.17 57.5726 15.8631 57.9686 19.0041 56.2755 21.1856 55.3315 22.402 53.8797 23.1156 52.34 23.12 51.9199 23.1327 51.5 23.0924 51.09 23L47.91 29.38C49.197 30.3127 50.0261 31.7491 50.19 33.33 53.92 34.33 55.96 36.76 55.96 40.33 56.1112 42.8336 54.8019 45.199 52.6 46.4L55.92 51C58.1256 49.8075 60.8804 50.6288 62.0729 52.8345 63.2654 55.0401 62.4441 57.7949 60.2384 58.9873 58.0328 60.1798 55.278 59.3585 54.0855 57.1529 53.2535 55.614 53.3797 53.7339 54.41 52.32L50.66 47.13C49.9187 47.3008 49.1607 47.388 48.4 47.39L39.72 47.39 38.16 53.83C40.4023 54.9018 41.3511 57.5884 40.2793 59.8307 39.5319 61.3943 37.953 62.3897 36.22 62.39ZM36.22 55.38C34.8393 55.38 33.72 56.4993 33.72 57.88 33.72 59.2607 34.8393 60.38 36.22 60.38 37.6007 60.38 38.72 59.2607 38.72 57.88 38.72 56.4993 37.6007 55.38 36.22 55.38ZM58 52.46C56.6193 52.46 55.5 53.5793 55.5 54.96 55.5 56.3407 56.6193 57.46 58 57.46 59.3807 57.46 60.5 56.3407 60.5 54.96 60.5 53.5793 59.3807 52.46 58 52.46ZM17 51.88C15.6193 51.88 14.5 52.9993 14.5 54.38 14.5 55.7607 15.6193 56.88 17 56.88 18.3807 56.88 19.5 55.7607 19.5 54.38 19.5 52.9993 18.3807 51.88 17 51.88ZM25 35.2C22.6068 35.6367 20.9007 37.7693 21 40.2 21 40.33 21 40.46 21 40.58 21.2626 43.3649 23.6441 45.4662 26.44 45.38L48.44 45.38C50.11 45.38 54 44.88 54 40.25 54 37.47 52.36 35.73 49.12 35.08 48.6756 34.9901 48.3473 34.6126 48.32 34.16 48.21 32.33 47.41 31.06 46.14 30.67 45.0561 30.3547 43.8911 30.755 43.23 31.67 43.0089 31.9579 42.6491 32.1033 42.29 32.05 41.9298 31.9964 41.6271 31.7513 41.5 31.41 41.0414 30.0864 40.2854 28.8856 39.29 27.9 36.2921 24.7452 31.3044 24.618 28.1496 27.6159 26.6314 29.0586 25.75 31.0463 25.7 33.14 25.6976 33.4743 25.7176 33.8084 25.76 34.14 25.8037 34.6327 25.4806 35.0832 25 35.2ZM19 14.62C17.067 14.62 15.5 16.187 15.5 18.12 15.5 20.053 17.067 21.62 19 21.62 20.933 21.62 22.5 20.053 22.5 18.12 22.4947 16.1815 20.9189 14.6143 18.9804 14.6197 18.9669 14.6197 18.9535 14.6198 18.94 14.62ZM52.44 15.12C50.7831 15.12 49.44 16.4631 49.44 18.12 49.44 19.7769 50.7831 21.12 52.44 21.12 54.0969 21.12 55.44 19.7769 55.44 18.12 55.4403 16.4631 54.0975 15.1197 52.4406 15.1194 52.4204 15.1194 52.4002 15.1196 52.38 15.12Z" fill="#FFFFFF"/></g></svg>