<svg width="75" height="75" viewBox="0 0 75 75" xmlns="http://www.w3.org/2000/svg" xmlns:xlink="http://www.w3.org/1999/xlink" id="Product_Icon" overflow="hidden"><defs><linearGradient x1="-37.5" y1="37.5" x2="112.5" y2="37.5" gradientUnits="userSpaceOnUse" id="GreenGradient" gradientTransform="matrix(0.707107 -0.707107 0.707107 0.707107 -15.53 37.5)"><stop offset="0" stop-color="#1B660F"/><stop offset="1" stop-color="#6CAE3E"/></linearGradient></defs><rect x="0" y="0" width="75" height="75" id="Green_Gradient" fill="url(#GreenGradient)"/><g id="Icon_Test"><path d="M20.7 48.44C20.5401 48.4406 20.3823 48.4029 20.24 48.33L13.56 44.85C13.2323 44.69 13.0177 44.3642 13 44 13.0029 43.6292 13.2108 43.2905 13.54 43.12L17.4 41.12 18.3 42.9 16.21 44 20.7 46.34 25.37 44 23 42.74 24 41 28 43.08C28.3285 43.2549 28.5327 43.5978 28.53 43.97 28.5308 44.3444 28.3224 44.6878 27.99 44.86L21.13 48.33C20.9979 48.4016 20.8502 48.4394 20.7 48.44Z" fill="#FFFFFF"/><path d="M37.41 56.46C37.2497 56.464 37.0911 56.4261 36.95 56.35L30.27 52.87C29.9415 52.6951 29.7373 52.3522 29.74 51.98 29.7429 51.6092 29.9508 51.2705 30.28 51.1L34.28 49.1 35.19 50.88 32.92 52 37.41 54.34 42.08 52 39.9 50.84 40.82 49.07 44.73 51.07C45.0585 51.2449 45.2627 51.5878 45.26 51.96 45.2608 52.3344 45.0524 52.6778 44.72 52.85L37.86 56.32C37.7249 56.4054 37.5697 56.4537 37.41 56.46Z" fill="#FFFFFF"/><path d="M54.12 48.44C53.9601 48.4406 53.8023 48.4029 53.66 48.33L47 44.85C46.6715 44.6751 46.4673 44.3322 46.47 43.96 46.4729 43.5892 46.6808 43.2505 47.01 43.08L50.86 41.13 51.76 42.91 49.63 44 54.12 46.34 58.79 44 56.46 42.79 57.38 41 61.44 43.11C61.7802 43.2767 61.997 43.6212 62 44 62.0008 44.3744 61.7924 44.7178 61.46 44.89L54.6 48.36C54.4502 48.4297 54.2843 48.4574 54.12 48.44Z" fill="#FFFFFF"/><path d="M54.14 44.26C51.7155 44.2655 49.7455 42.3045 49.74 39.88 49.7345 37.4555 51.6955 35.4855 54.12 35.48 56.5445 35.4745 58.5145 37.4355 58.52 39.86 58.52 39.8667 58.52 39.8733 58.52 39.88 58.5145 42.2967 56.5567 44.2545 54.14 44.26ZM54.14 37.49C52.82 37.4845 51.7455 38.55 51.74 39.87 51.7345 41.1899 52.8001 42.2644 54.12 42.27 55.4399 42.2755 56.5145 41.2099 56.52 39.89 56.52 39.8867 56.52 39.8833 56.52 39.88 56.52 38.5639 55.4561 37.4955 54.14 37.49Z" fill="#FFFFFF"/><path d="M20.75 44.26C18.3255 44.26 16.36 42.2945 16.36 39.87 16.36 37.4455 18.3255 35.48 20.75 35.48 23.1746 35.48 25.14 37.4455 25.14 39.87 25.14 39.8733 25.14 39.8767 25.14 39.88 25.1345 42.3006 23.1706 44.26 20.75 44.26ZM20.75 37.49C19.43 37.49 18.36 38.56 18.36 39.88 18.36 41.2 19.43 42.27 20.75 42.27 22.07 42.27 23.14 41.2 23.14 39.88 23.14 38.56 22.07 37.49 20.75 37.49Z" fill="#FFFFFF"/><path d="M37.54 52.45C35.1155 52.45 33.15 50.4845 33.15 48.06 33.15 45.6355 35.1155 43.67 37.54 43.67 39.9646 43.67 41.93 45.6355 41.93 48.06 41.93 48.0633 41.93 48.0667 41.93 48.07 41.9245 50.4906 39.9606 52.45 37.54 52.45ZM37.54 45.68C36.22 45.68 35.15 46.75 35.15 48.07 35.15 49.39 36.22 50.46 37.54 50.46 38.86 50.46 39.93 49.39 39.93 48.07 39.93 46.75 38.86 45.68 37.54 45.68Z" fill="#FFFFFF"/><rect x="46.58" y="29.64" width="2" height="9.27" fill="#FFFFFF" transform="matrix(0.682509 -0.730877 0.730877 0.682509 -9.94 45.66)"/><rect x="21.62" y="33.2" width="11.28" height="2" fill="#FFFFFF" transform="matrix(0.732543 -0.680721 0.680721 0.732543 -15.99 27.71)"/><path d="M37.73 35.15C33.1406 35.1721 29.4022 31.4695 29.3801 26.8801 29.358 22.2907 33.0606 18.5523 37.65 18.5302 42.2394 18.5081 45.9778 22.2107 45.9999 26.8001 46 26.8167 46 26.8334 46 26.85 45.9946 31.42 42.3 35.128 37.73 35.15ZM37.73 20.54C34.2452 20.5179 31.4022 23.325 31.3801 26.8099 31.358 30.2947 34.1652 33.1377 37.65 33.1597 41.1348 33.1818 43.9778 30.3747 43.9999 26.8899 44 26.8766 44 26.8633 44 26.85 43.9946 23.3829 41.197 20.5674 37.73 20.54Z" fill="#FFFFFF"/><rect x="36.54" y="34.74" width="2" height="9.61" fill="#FFFFFF"/></g></svg>