<svg width="75" height="75" viewBox="0 0 75 75" xmlns="http://www.w3.org/2000/svg" xmlns:xlink="http://www.w3.org/1999/xlink" id="Product_Icon" overflow="hidden"><defs><linearGradient x1="90.53" y1="90.53" x2="-15.53" y2="-15.53" gradientUnits="userSpaceOnUse" id="GreenGradient" gradientTransform="matrix(0 1 -1 0 75 0)"><stop offset="0" stop-color="#1B660F"/><stop offset="1" stop-color="#6CAE3E"/></linearGradient></defs><rect x="0" y="0" width="75" height="75" id="Green_Gradient" fill="url(#GreenGradient)"/><g id="Icon_Test"><path d="M23 46.29 22.86 46.29C17.1384 46.2629 12.5221 41.6026 12.5492 35.881 12.5691 31.6908 15.1111 27.9251 18.99 26.34 19.3266 18.9581 25.5837 13.2468 32.9656 13.5833 37.8552 13.8063 42.2328 16.6814 44.38 21.08 47.5427 19.138 51.6809 20.1277 53.6229 23.2904 54.1896 24.2134 54.5248 25.2596 54.6 26.34 59.1917 27.1949 62.5161 31.2095 62.5 35.88 62.5178 38.477 61.4264 40.9582 59.5 42.7L58.13 41.24C59.6423 39.8856 60.5046 37.9501 60.5 35.92 60.527 31.9188 57.4848 28.5637 53.5 28.2 52.9633 28.1523 52.5609 27.688 52.59 27.15L52.59 27C52.5953 26.9334 52.5953 26.8666 52.59 26.8 52.5955 24.1805 50.4794 22.051 47.86 22.04 46.643 22.0394 45.4737 22.5129 44.6 23.36 44.3573 23.5971 44.0109 23.695 43.68 23.62 43.3661 23.5361 43.1125 23.3049 43 23 40.8139 17.1016 34.2601 14.0921 28.3616 16.2782 23.8804 17.9391 20.9125 22.2209 20.93 27 20.9311 27.4299 20.6573 27.8124 20.25 27.95 15.8648 29.3948 13.4811 34.121 14.926 38.5062 16.0501 41.9179 19.2279 44.2302 22.82 44.25L23 44.25Z" fill="#FFFFFF"/><path d="M52.89 41.06C51.7052 37.5889 49.0146 34.8396 45.57 33.58 45.373 31.2411 43.3172 29.5047 40.9782 29.7018 38.9127 29.8758 37.274 31.5145 37.1 33.58 33.6594 34.8458 30.9711 37.5928 29.78 41.06 27.4436 41.2168 25.6766 43.238 25.8335 45.5744 25.9812 47.7763 27.7934 49.4967 30 49.53 31.1988 52.5571 33.5462 54.9872 36.53 56.29L36.53 61.43 38.53 61.43 38.53 57C39.1858 57.164 39.8553 57.2677 40.53 57.31L40.53 61.48 42.53 61.48 42.53 57.24C43.2068 57.174 43.8762 57.0468 44.53 56.86L44.53 61.43 46.53 61.43 46.53 56.14C49.3694 54.8123 51.5919 52.4467 52.74 49.53 55.0811 49.4775 56.9364 47.5371 56.8838 45.196 56.8345 42.9982 55.1137 41.2026 52.92 41.06ZM30.14 47.54C28.8974 47.54 27.89 46.5326 27.89 45.29 27.89 44.0474 28.8974 43.04 30.14 43.04 31.3826 43.04 32.39 44.0474 32.39 45.29 32.39 46.5326 31.3826 47.54 30.14 47.54ZM36.5 54.07C34.4993 52.9608 32.9183 51.2252 32 49.13 33.1246 48.6048 33.9592 47.609 34.28 46.41L36.5 46.41ZM40.5 55.26C39.8228 55.2025 39.1529 55.0786 38.5 54.89L38.5 45.42C38.5 44.8677 38.0523 44.42 37.5 44.42L34.3 44.42C34.0037 43.07 33.0665 41.9499 31.79 41.42 32.7929 38.7949 34.8384 36.7024 37.44 35.64 37.992 36.9162 39.136 37.8397 40.5 38.11ZM41.34 36.16C40.0974 36.16 39.09 35.1526 39.09 33.91 39.09 32.6674 40.0974 31.66 41.34 31.66 42.5826 31.66 43.59 32.6674 43.59 33.91 43.59 35.1526 42.5826 36.16 41.34 36.16ZM45.53 44.43C44.9777 44.43 44.53 44.8777 44.53 45.43L44.53 54.79C43.8789 55.0003 43.2092 55.1476 42.53 55.23L42.53 38C43.7549 37.6578 44.7588 36.7789 45.26 35.61 47.8651 36.6673 49.9123 38.7616 50.91 41.39 49.6355 41.9227 48.6994 43.0415 48.4 44.39ZM46.53 53.89 46.53 46.43 48.47 46.43C48.8019 47.6215 49.6386 48.6081 50.76 49.13 49.8716 51.1224 48.382 52.7869 46.5 53.89ZM52.53 47.54C51.2874 47.54 50.28 46.5326 50.28 45.29 50.28 44.0474 51.2874 43.04 52.53 43.04 53.7726 43.04 54.78 44.0474 54.78 45.29 54.7746 46.5265 53.7765 47.5291 52.54 47.54Z" fill="#FFFFFF"/></g></svg>