<svg width="75" height="75" viewBox="0 0 75 75" xmlns="http://www.w3.org/2000/svg" xmlns:xlink="http://www.w3.org/1999/xlink" id="Product_Icon" overflow="hidden"><defs><linearGradient x1="90.53" y1="90.53" x2="-15.53" y2="-15.53" gradientUnits="userSpaceOnUse" id="GreenGradient" gradientTransform="matrix(0 1 -1 0 75 0)"><stop offset="0" stop-color="#1B660F"/><stop offset="1" stop-color="#6CAE3E"/></linearGradient></defs><rect x="0" y="0" width="75" height="75" id="Green_Gradient" fill="url(#GreenGradient)"/><g id="Icon_Test"><path d="M53.58 19.28C53.8848 18.6571 54.0454 17.9735 54.05 17.28 54.0707 14.6402 51.9475 12.4833 49.3077 12.4626 46.6679 12.4419 44.511 14.5651 44.4903 17.2049 44.4718 19.5617 46.1739 21.5803 48.5 21.96L48.5 25.5 50.5 25.5 50.5 21.83C51.1896 21.6465 51.8266 21.304 52.36 20.83 57.5369 25.0574 60.5282 31.3964 60.5 38.08 60.3963 50.5612 50.1943 60.5952 37.7131 60.4915 31.1859 60.4373 25.0008 57.5636 20.75 52.61 21.3097 52.0182 21.706 51.2911 21.9 50.5L25.5 50.5 25.5 48.5 22 48.5C21.5204 45.9209 19.0408 44.2188 16.4617 44.6984 13.8826 45.178 12.1805 47.6576 12.6601 50.2367 13.1397 52.8158 15.6193 54.5179 18.1984 54.0383 18.521 53.9783 18.8366 53.885 19.14 53.76 27.7042 64.2286 43.1334 65.7724 53.602 57.2082 64.0706 48.6439 65.6144 33.2148 57.0502 22.7462 56.0124 21.4776 54.8498 20.3164 53.58 19.28ZM49.28 20.01C47.7557 20.0045 46.5245 18.7643 46.53 17.24 46.5355 15.7157 47.7757 14.4845 49.3 14.49 50.8204 14.4955 52.05 15.7296 52.05 17.25 52.0336 18.7697 50.7998 19.9946 49.28 20ZM14.5 49.37C14.4834 47.8347 15.7146 46.5767 17.2498 46.5602 18.7851 46.5436 20.0431 47.7747 20.0597 49.31 20.0762 50.8453 18.8451 52.1033 17.3098 52.1198 17.2999 52.1199 17.2899 52.12 17.28 52.12 15.754 52.1255 14.511 50.8959 14.5 49.37Z" fill="#FFFFFF"/><path d="M22.28 27C23.1763 26.997 24.0534 26.7404 24.81 26.26L47.09 48.5 44.5 48.5 44.5 50.5 49.5 50.5C50.0523 50.5 50.5 50.0523 50.5 49.5L50.5 44.5 48.5 44.5 48.5 47.09 26.25 24.84C26.7745 24.0635 27.0532 23.1471 27.05 22.21 27.0445 19.5701 24.8999 17.4345 22.26 17.44 19.6201 17.4456 17.4845 19.5901 17.49 22.23 17.4956 24.8699 19.6401 27.0055 22.28 27ZM22.28 19.49C23.8043 19.5011 25.031 20.7457 25.0199 22.2699 25.0089 23.7942 23.7642 25.0209 22.24 25.0099 20.7196 24.9988 19.4945 23.7604 19.5 22.24 19.4945 20.7102 20.7301 19.4655 22.26 19.46 22.2666 19.46 22.2733 19.46 22.28 19.46Z" fill="#FFFFFF"/><rect x="28.5" y="48.5" width="5" height="2" fill="#FFFFFF"/><rect x="36.5" y="48.5" width="5" height="2" fill="#FFFFFF"/><rect x="48.5" y="28.5" width="2" height="5" fill="#FFFFFF"/><rect x="48.5" y="36.5" width="2" height="5" fill="#FFFFFF"/></g></svg>