<svg width="75" height="75" viewBox="0 0 75 75" xmlns="http://www.w3.org/2000/svg" xmlns:xlink="http://www.w3.org/1999/xlink" id="Product_Icon" overflow="hidden"><defs><linearGradient x1="90.53" y1="90.53" x2="-15.53" y2="-15.53" gradientUnits="userSpaceOnUse" id="GreenGradient" gradientTransform="matrix(0 1 -1 0 75 0)"><stop offset="0" stop-color="#1B660F"/><stop offset="1" stop-color="#6CAE3E"/></linearGradient></defs><rect x="0" y="0" width="75" height="75" id="Green_Gradient" fill="url(#GreenGradient)"/><g id="Icon_Test"><path d="M61.38 62.5 51.38 62.5 51.38 60.5 60.38 60.5 60.38 51.5 62.38 51.5 62.38 61.5C62.38 62.0523 61.9323 62.5 61.38 62.5Z" fill="#FFFFFF"/><path d="M23.38 62.5 13.38 62.5C12.8277 62.5 12.38 62.0523 12.38 61.5L12.38 51.5 14.38 51.5 14.38 60.5 23.38 60.5Z" fill="#FFFFFF"/><path d="M62.38 23.5 60.38 23.5 60.38 14.5 51.38 14.5 51.38 12.5 61.38 12.5C61.9323 12.5 62.38 12.9477 62.38 13.5Z" fill="#FFFFFF"/><path d="M14.38 23.5 12.38 23.5 12.38 13.5C12.38 12.9477 12.8277 12.5 13.38 12.5L23.38 12.5 23.38 14.5 14.38 14.5Z" fill="#FFFFFF"/><path d="M52.62 49.5 22.29 49.5C15.6626 49.5 10.29 44.1274 10.29 37.5 10.29 30.8726 15.6626 25.5 22.29 25.5L52.71 25.5C59.3374 25.5 64.71 30.8726 64.71 37.5 64.71 44.1274 59.3374 49.5 52.71 49.5ZM22.47 47.5 52.62 47.5C58.1428 47.5 62.62 43.0228 62.62 37.5 62.62 31.9772 58.1428 27.5 52.62 27.5L22.38 27.5C16.8572 27.5 12.38 31.9772 12.38 37.5 12.38 43.0228 16.8572 47.5 22.38 47.5Z" fill="#FFFFFF"/><path d="M52.45 45.5C48.0317 45.5 44.45 41.9183 44.45 37.5 44.45 33.0817 48.0317 29.5 52.45 29.5 56.8683 29.5 60.45 33.0817 60.45 37.5 60.45 41.9183 56.8683 45.5 52.45 45.5ZM52.45 31.5C49.1363 31.5 46.45 34.1863 46.45 37.5 46.45 40.8137 49.1363 43.5 52.45 43.5 55.7637 43.5 58.45 40.8137 58.45 37.5 58.45 34.1863 55.7637 31.5 52.45 31.5Z" fill="#FFFFFF"/><path d="M38.88 39.5C37.4993 39.5 36.38 38.3807 36.38 37 36.38 35.6193 37.4993 34.5 38.88 34.5 40.2607 34.5 41.38 35.6193 41.38 37 41.38 38.3807 40.2607 39.5 38.88 39.5Z" fill="#FFFFFF"/></g></svg>