<svg width="75" height="75" viewBox="0 0 75 75" xmlns="http://www.w3.org/2000/svg" xmlns:xlink="http://www.w3.org/1999/xlink" id="Product_Icon" overflow="hidden"><defs><linearGradient x1="-15.53" y1="-15.53" x2="90.53" y2="90.53" gradientUnits="userSpaceOnUse" id="GreenGradient" gradientTransform="matrix(0 -1 1 0 0 75)"><stop offset="0" stop-color="#1B660F"/><stop offset="1" stop-color="#6CAE3E"/></linearGradient></defs><rect x="0" y="0" width="75" height="75" id="Green_Gradient" fill="url(#GreenGradient)"/><g id="Icon_Test"><path d="M57.54 17.51C46.01 17.42 38.89 14.61 38.54 13.51 38.54 12.9577 38.0923 12.51 37.54 12.51 37.0314 12.5063 36.601 12.885 36.54 13.39 36.5307 13.4261 36.5307 13.4639 36.54 13.5 36.13 14.64 29.01 17.43 17.54 17.5 16.9877 17.5 16.54 17.9477 16.54 18.5L16.54 33.86C17.1444 33.3564 17.8179 32.9422 18.54 32.63L18.54 19.49C26.54 19.31 34.76 17.7 37.54 15.3 40.33 17.7 48.54 19.3 56.54 19.49L56.54 32.65C57.2653 32.9645 57.9395 33.3858 58.54 33.9L58.54 18.51C58.54 17.9577 58.0923 17.51 57.54 17.51Z" fill="#FFFFFF"/><path d="M47.71 39.5C47.9591 42.3852 50.374 44.6004 53.27 44.6 54.439 44.6044 55.5784 44.2327 56.52 43.54 57.4433 42.8833 58.1416 41.9579 58.52 40.89 58.9736 39.6846 58.9736 38.3554 58.52 37.15 58.1388 36.0836 57.441 35.159 56.52 34.5 55.5784 33.8073 54.439 33.4356 53.27 33.44 50.7741 33.4485 48.5828 35.1021 47.89 37.5L42.52 37.5C41.9677 37.5 41.52 37.9477 41.52 38.5L41.52 58.38 38.52 59.88 38.52 30.56C41.5462 30.0077 43.5518 27.1067 42.9995 24.0805 42.4472 21.0543 39.5462 19.0487 36.52 19.601 33.4938 20.1533 31.4882 23.0543 32.0405 26.0805 32.4565 28.3601 34.2404 30.144 36.52 30.56L36.52 59.88 33.52 58.38 33.52 38.5C33.52 37.9477 33.0723 37.5 32.52 37.5L27.1 37.5C26.2405 34.5405 23.1447 32.8381 20.1852 33.6976 19.5894 33.8706 19.0266 34.1418 18.52 34.5 17.6145 35.1321 16.9181 36.02 16.52 37.05 16.0189 38.3363 16.0189 39.7637 16.52 41.05 16.9206 42.0813 17.6163 42.9717 18.52 43.61 21.038 45.3772 24.5118 44.7686 26.279 42.2506 26.845 41.4441 27.187 40.5018 27.27 39.52L31.52 39.52 31.52 57.38 21.4 52.32C19.6316 51.4463 18.5143 49.6425 18.52 47.67L18.52 46.44C17.7959 46.1275 17.1219 45.7097 16.52 45.2L16.52 47.67C16.5204 50.4001 18.0713 52.893 20.52 54.1L37.09 62.39C37.2293 62.4614 37.3835 62.4991 37.54 62.5 37.6996 62.4981 37.8568 62.4605 38 62.39L54.55 54.1C57.0004 52.8948 58.5519 50.4007 58.55 47.67L58.55 45.16C57.9494 45.6767 57.2754 46.1014 56.55 46.42L56.55 47.67C56.5604 49.6438 55.4418 51.45 53.67 52.32L43.52 57.38 43.52 39.5ZM53.27 35.44C54.6678 35.4445 55.9359 36.26 56.52 37.53 56.9805 38.477 56.9805 39.583 56.52 40.53 55.7034 42.3307 53.5816 43.1284 51.781 42.3117 50.4845 41.7237 49.6596 40.4234 49.68 39 49.7019 37.0313 51.3012 35.4453 53.27 35.44ZM21.73 42.6C20.3658 42.6014 19.12 41.8252 18.52 40.6 18.0136 39.5934 18.0136 38.4066 18.52 37.4 19.4037 35.6313 21.5538 34.9138 23.3226 35.7974 25.0913 36.6811 25.8088 38.8313 24.9251 40.6 24.3201 41.811 23.0837 42.5772 21.73 42.58ZM37.49 28.66C35.5128 28.66 33.91 27.0572 33.91 25.08 33.91 23.1028 35.5128 21.5 37.49 21.5 39.4672 21.5 41.07 23.1028 41.07 25.08 41.0755 27.0516 39.4817 28.6545 37.51 28.66 37.5034 28.66 37.4967 28.66 37.49 28.66Z" fill="#FFFFFF"/></g></svg>