<svg width="75" height="75" viewBox="0 0 75 75" xmlns="http://www.w3.org/2000/svg" xmlns:xlink="http://www.w3.org/1999/xlink" id="Product_Icon" overflow="hidden"><defs><linearGradient x1="90.53" y1="90.53" x2="-15.53" y2="-15.53" gradientUnits="userSpaceOnUse" id="GreenGradient" gradientTransform="matrix(0 1 -1 0 75 0)"><stop offset="0" stop-color="#1B660F"/><stop offset="1" stop-color="#6CAE3E"/></linearGradient></defs><rect x="0" y="0" width="75" height="75" id="Green_Gradient" fill="url(#GreenGradient)"/><g id="Icon_Test"><path d="M57 32.72C56.4649 32.7193 55.9326 32.7967 55.42 32.95 54.4359 30.1776 52.9057 27.6307 50.92 25.46L51.18 25.2C53.6879 26.9236 57.1182 26.2879 58.8418 23.78 60.5655 21.2721 59.9297 17.8418 57.4218 16.1182 54.914 14.3945 51.4836 15.0303 49.76 17.5382 48.4679 19.4182 48.4679 21.9 49.76 23.78L49.5 24.04C47.3262 22.0581 44.7755 20.5345 42 19.56 42.1329 19.0915 42.2002 18.6069 42.2 18.12 42.2 15.0824 39.7376 12.62 36.7 12.62 33.6624 12.62 31.2 15.0824 31.2 18.12 31.2 18.26 31.2 18.4 31.2 18.53 19.1881 20.3584 10.9328 31.5783 12.7612 43.5902 13.1747 46.3067 14.0935 48.9218 15.47 51.3 13.3515 53.4769 13.3989 56.959 15.5759 59.0775 17.6737 61.1189 21.0029 61.1596 23.15 59.17 31.8221 64.4451 42.9774 63.1023 50.15 55.92 53.4588 52.6021 55.6296 48.32 56.35 43.69 56.5399 43.7 56.7301 43.7 56.92 43.69 59.9576 43.69 62.42 41.2276 62.42 38.19 62.42 35.1524 59.9576 32.69 56.92 32.69ZM54.25 17.17C56.183 17.17 57.75 18.737 57.75 20.67 57.75 22.603 56.183 24.17 54.25 24.17 52.317 24.17 50.75 22.603 50.75 20.67 50.75 18.737 52.317 17.17 54.25 17.17ZM53.58 33.89C52.2411 34.9273 51.4582 36.5263 51.46 38.22 51.4571 38.6204 51.5007 39.0197 51.59 39.41L24.54 53.29C24.4174 52.9382 24.2529 52.6025 24.05 52.29L49.46 26.88C51.3063 28.9044 52.7096 31.292 53.58 33.89ZM41.14 21.38C43.6816 22.2566 46.0164 23.6453 48 25.46L22.7 50.8C22.3934 50.5585 22.0574 50.3569 21.7 50.2L35.44 23.47C35.8591 23.5709 36.2889 23.6213 36.72 23.62 38.4661 23.6201 40.1077 22.7882 41.14 21.38ZM36.72 14.62C38.653 14.62 40.22 16.187 40.22 18.12 40.22 20.053 38.653 21.62 36.72 21.62 34.787 21.62 33.22 20.053 33.22 18.12 33.22 16.187 34.787 14.62 36.72 14.62ZM14.54 40.32C14.5489 30.3451 21.8856 21.8922 31.76 20.48 32.1744 21.3539 32.8126 22.1026 33.61 22.65L19.74 49.65C19.6202 49.64 19.4998 49.64 19.38 49.65 18.6032 49.6471 17.8352 49.8144 17.13 50.14 15.4306 47.1463 14.5381 43.7624 14.54 40.32ZM19.38 58.67C17.447 58.67 15.88 57.103 15.88 55.17 15.88 53.237 17.447 51.67 19.38 51.67 21.313 51.67 22.88 53.237 22.88 55.17 22.88 57.103 21.313 58.67 19.38 58.67ZM48.77 54.5C42.2775 60.9908 32.1996 62.2279 24.33 57.5 24.6666 56.8213 24.8509 56.0773 24.87 55.32L52.38 41.26C52.9015 42.0463 53.6182 42.6838 54.46 43.11 53.8547 47.4251 51.8568 51.4245 48.77 54.5ZM57 41.72C55.067 41.72 53.5 40.153 53.5 38.22 53.5 36.287 55.067 34.72 57 34.72 58.933 34.72 60.5 36.287 60.5 38.22 60.5 40.153 58.933 41.72 57 41.72Z" fill="#FFFFFF"/></g></svg>