<svg width="75" height="75" viewBox="0 0 75 75" xmlns="http://www.w3.org/2000/svg" xmlns:xlink="http://www.w3.org/1999/xlink" id="Product_Icon" overflow="hidden"><defs><linearGradient x1="-15.54" y1="-15.53" x2="90.53" y2="90.54" gradientUnits="userSpaceOnUse" id="GreenGradient" gradientTransform="matrix(0 -1 1 0 0 75)"><stop offset="0" stop-color="#1B660F"/><stop offset="1" stop-color="#6CAE3E"/></linearGradient></defs><rect x="0" y="0" width="75" height="75" id="Green_Gradient" fill="url(#GreenGradient)"/><g id="Icon_Test"><path d="M60 23.93 38 11.22C37.6906 11.0414 37.3094 11.0414 37 11.22L15 23.93C14.6925 24.1076 14.5021 24.4349 14.5 24.79L14.5 50.2C14.5021 50.5551 14.6925 50.8825 15 51.06L37 63.76C37.3094 63.9386 37.6906 63.9386 38 63.76L60 51.06C60.3075 50.8825 60.4979 50.5551 60.5 50.2L60.5 24.79C60.4979 24.4349 60.3075 24.1076 60 23.93ZM58.5 49.62 37.5 61.74 16.5 49.62 16.5 25.37 37.5 13.25 58.5 25.37Z" fill="#FFFFFF"/><path d="M49.15 30.57C48.7728 24.1359 43.2512 19.2258 36.8171 19.6029 30.9095 19.9492 26.1963 24.6624 25.85 30.57 20.406 34.0098 18.7813 41.2115 22.2211 46.6555 25.4682 51.7943 32.1184 53.5765 37.5 50.75 43.2011 53.7443 50.2502 51.55 53.2445 45.8489 56.071 40.4672 54.2889 33.817 49.15 30.57ZM40.63 40.57C40.63 39.355 41.615 38.37 42.83 38.37 44.045 38.37 45.03 39.355 45.03 40.57 45.03 41.785 44.045 42.77 42.83 42.77 41.615 42.77 40.63 41.785 40.63 40.57ZM38.63 40.92C37.8666 41.02 37.0934 41.02 36.33 40.92 36.3399 40.8035 36.3399 40.6865 36.33 40.57 36.3276 38.9141 35.3524 37.4142 33.84 36.74 34.1442 35.975 34.5513 35.255 35.05 34.6 36.4968 35.6137 38.4232 35.6137 39.87 34.6 40.3687 35.255 40.7758 35.975 41.08 36.74 39.5676 37.4142 38.5924 38.9141 38.59 40.57 38.5999 40.6882 38.62 40.8053 38.65 40.92ZM34.35 40.57C34.35 41.785 33.365 42.77 32.15 42.77 30.935 42.77 29.95 41.785 29.95 40.57 29.95 39.355 30.935 38.37 32.15 38.37 33.3705 38.3645 34.3645 39.3494 34.37 40.57 34.37 40.57 34.37 40.57 34.37 40.57ZM35.28 31.16C35.28 29.945 36.265 28.96 37.48 28.96 38.695 28.96 39.68 29.945 39.68 31.16 39.68 32.375 38.695 33.36 37.48 33.36 36.2751 33.3437 35.3053 32.365 35.3 31.16ZM43.11 36.38C42.6648 35.1748 42.0265 34.0501 41.22 33.05 41.5265 32.4674 41.6845 31.8183 41.68 31.16 41.68 31.03 41.68 30.91 41.68 30.78 43.5602 30.5579 45.4643 30.888 47.16 31.73 47.0795 33.6827 46.4024 35.5639 45.22 37.12 44.602 36.691 43.8803 36.4355 43.13 36.38ZM37.5 21.64C42.1297 21.6574 46.1046 24.9377 47 29.48 45.0883 28.7541 43.0208 28.537 41 28.85 39.7178 26.917 37.1114 26.3894 35.1784 27.6716 34.7108 27.9818 34.3101 28.3825 34 28.85 31.9792 28.5361 29.9115 28.7532 28 29.48 28.8954 24.9377 32.8703 21.6574 37.5 21.64ZM33.32 30.78C33.32 30.91 33.32 31.03 33.32 31.16 33.3155 31.8183 33.4735 32.4674 33.78 33.05 32.9735 34.0501 32.3352 35.1748 31.89 36.38 31.1397 36.4355 30.418 36.691 29.8 37.12 28.6176 35.5639 27.9405 33.6827 27.86 31.73 29.5498 30.8919 31.4464 30.5619 33.32 30.78ZM32.17 50C26.8299 49.9249 22.5619 45.535 22.637 40.1949 22.6759 37.4257 23.9004 34.8061 26 33 26.2976 35.0847 27.1586 37.0485 28.49 38.68 28.178 39.2618 28.0099 39.9099 28 40.57 28.0028 42.8098 29.7627 44.6533 32 44.76 32.7355 46.595 33.9304 48.21 35.47 49.45 34.4104 49.8241 33.2936 50.0102 32.17 50ZM34 44.33C34.6802 43.9967 35.2573 43.4852 35.67 42.85 36.8684 43.0499 38.0916 43.0499 39.29 42.85 39.7136 43.4907 40.3051 44.0027 41 44.33 40.2601 46.0039 39.0514 47.4279 37.52 48.43 35.9738 47.4338 34.7507 46.0092 34 44.33ZM42.83 50C41.6939 50.0009 40.5666 49.8012 39.5 49.41 41.0451 48.1848 42.2502 46.5838 43 44.76 45.2373 44.6533 46.9972 42.8098 47 40.57 47.0011 39.9014 46.8398 39.2425 46.53 38.65 47.8673 37.0303 48.7384 35.0772 49.05 33 53.0985 36.4831 53.5568 42.5886 50.0737 46.6371 48.2564 48.7493 45.6163 49.975 42.83 50Z" fill="#FFFFFF"/></g></svg>