<svg width="75" height="75" viewBox="0 0 75 75" xmlns="http://www.w3.org/2000/svg" xmlns:xlink="http://www.w3.org/1999/xlink" id="Product_Icon" overflow="hidden"><defs><linearGradient x1="90.53" y1="90.54" x2="-15.54" y2="-15.53" gradientUnits="userSpaceOnUse" id="GreenGradient" gradientTransform="matrix(0 1 -1 0 75 0)"><stop offset="0" stop-color="#1B660F"/><stop offset="1" stop-color="#6CAE3E"/></linearGradient></defs><rect x="0" y="0" width="75" height="75" id="Green_Gradient" fill="url(#GreenGradient)"/><g id="Icon_Test"><path d="M45.38 52.2C39.4112 52.2 33.9458 48.8552 31.23 43.54L33 42.63C36.498 49.4635 44.8733 52.1674 51.7068 48.6694 52.4573 48.2852 53.1713 47.8336 53.84 47.32L55.06 48.9C52.5565 50.8363 49.5289 51.9755 46.37 52.17Z" fill="#FFFFFF"/><path d="M32.17 32 30.27 31.38C32.2718 25.1731 37.8795 20.8323 44.39 20.45L44.52 22.45C38.8263 22.7779 33.9198 26.572 32.17 32Z" fill="#FFFFFF"/><path d="M35.82 35.25 33.82 34.98C34.7379 28.5001 40.735 23.9912 47.2149 24.9091 52.0691 25.5968 55.9987 29.2026 57.1 33.98L55.15 34.43C53.9206 29.1307 48.6281 25.8314 43.3288 27.0608 39.3583 27.9819 36.3653 31.2534 35.8 35.29Z" fill="#FFFFFF"/><path d="M45.45 48.45C40.1021 48.4432 35.4168 44.8668 34 39.71L35.93 39.19C37.169 43.6913 41.3898 46.7108 46.05 46.43L46.17 48.43Z" fill="#FFFFFF"/><path d="M25.32 57.27C23.017 57.2755 21.1455 55.413 21.14 53.11 21.1345 50.807 22.997 48.9355 25.3 48.93 27.603 48.9245 29.4745 50.787 29.48 53.09 29.48 53.0933 29.48 53.0967 29.48 53.1 29.48 55.3991 27.6191 57.2645 25.32 57.27ZM25.32 50.94C24.1216 50.9345 23.1456 51.9016 23.14 53.1 23.1345 54.2984 24.1016 55.2744 25.3 55.28 26.4985 55.2855 27.4745 54.3184 27.48 53.12 27.48 53.1133 27.48 53.1067 27.48 53.1 27.4745 51.9093 26.5107 50.9455 25.32 50.94Z" fill="#FFFFFF"/><path d="M25.32 26.06C23.017 26.0655 21.1455 24.203 21.14 21.9 21.1345 19.597 22.997 17.7255 25.3 17.72 27.603 17.7145 29.4745 19.577 29.48 21.88 29.48 21.8867 29.48 21.8933 29.48 21.9 29.4745 24.1952 27.6152 26.0545 25.32 26.06ZM25.32 19.73C24.1216 19.7245 23.1455 20.6915 23.14 21.89 23.1345 23.0884 24.1016 24.0644 25.3 24.07 26.4984 24.0755 27.4745 23.1084 27.48 21.91 27.48 21.9067 27.48 21.9033 27.48 21.9 27.48 20.7054 26.5146 19.7355 25.32 19.73Z" fill="#FFFFFF"/><path d="M17.66 41.76C15.357 41.76 13.49 39.893 13.49 37.59 13.49 35.287 15.357 33.42 17.66 33.42 19.963 33.42 21.83 35.287 21.83 37.59 21.83 39.893 19.963 41.76 17.66 41.76ZM17.66 35.43C16.4615 35.43 15.49 36.4016 15.49 37.6 15.49 38.7985 16.4616 39.77 17.66 39.77 18.8585 39.77 19.83 38.7984 19.83 37.6 19.83 37.5966 19.83 37.5933 19.83 37.59 19.83 36.3971 18.863 35.43 17.67 35.43 17.6667 35.43 17.6633 35.43 17.66 35.43Z" fill="#FFFFFF"/><rect x="26.37" y="46.29" width="7.82" height="2" fill="#FFFFFF" transform="matrix(0.68531 -0.728251 0.728251 0.68531 -24.91 36.94)"/><rect x="28.52" y="23.09" width="2" height="7.04" fill="#FFFFFF" transform="matrix(0.707477 -0.706736 0.706736 0.707477 -10.17 28.65)"/><rect x="21.13" y="36.59" width="17.26" height="2" fill="#FFFFFF"/><path d="M45.62 45.31 45.15 45.31C40.6342 45.051 37.1834 41.1802 37.4425 36.6644 37.7015 32.1486 41.5723 28.6978 46.088 28.9569 49.6445 29.1609 52.6612 31.6404 53.55 35.09L51.62 35.59C50.7746 32.2661 47.3947 30.257 44.0708 31.1024 40.747 31.9479 38.7378 35.3277 39.5833 38.6516 40.4287 41.9755 43.8086 43.9846 47.1324 43.1392 49.0773 42.6445 50.6632 41.2405 51.39 39.37L53.26 40.09C52.039 43.2434 49.0015 45.3188 45.62 45.31Z" fill="#FFFFFF"/><rect x="49.05" y="36.6" width="12.45" height="2" fill="#FFFFFF"/><path d="M58.47 45.32 56.83 44.18C57.8723 42.6927 58.6098 41.0137 59 39.24L61 39.66C60.5392 41.6954 59.6793 43.6192 58.47 45.32Z" fill="#FFFFFF"/><path d="M59.25 35.44C59.147 33.953 58.8095 32.4916 58.25 31.11L60.1 30.36C60.7481 31.953 61.1266 33.6427 61.22 35.36Z" fill="#FFFFFF"/></g></svg>