<svg width="75" height="75" viewBox="0 0 75 75" xmlns="http://www.w3.org/2000/svg" xmlns:xlink="http://www.w3.org/1999/xlink" id="Product_Icon" overflow="hidden"><defs><linearGradient x1="-15.54" y1="90.54" x2="90.53" y2="-15.53" gradientUnits="userSpaceOnUse" id="GreenGradient"><stop offset="0" stop-color="#1B660F"/><stop offset="1" stop-color="#6CAE3E"/></linearGradient></defs><rect x="0" y="0" width="75" height="75" id="Green_Gradient" fill="url(#GreenGradient)"/><g id="Icon_Test"><path d="M17.94 46.69C15.6764 43.0426 14.5615 38.799 14.74 34.51L16.74 34.59C16.5839 38.4643 17.5942 42.2962 19.64 45.59Z" fill="#FFFFFF"/><path d="M43.85 55.53 43.14 53.66C47.8215 51.9113 51.6498 48.4268 53.83 43.93L55.63 44.8C53.2301 49.7591 49.0109 53.6022 43.85 55.53Z" fill="#FFFFFF"/><path d="M54.2 27.6C54.0467 27.2467 53.8867 26.9133 53.72 26.6 49.2117 17.6949 38.7313 13.6 29.38 17.09L28.68 15.22C38.9793 11.3632 50.5314 15.8686 55.5 25.68 55.69 26.05 55.87 26.42 56.03 26.8Z" fill="#FFFFFF"/><path d="M30.79 30.14 27.64 30.14 27.64 28.14 29.79 28.14 29.79 20.05 27.64 20.05 27.64 18.05 30.79 18.05C31.3423 18.05 31.79 18.4977 31.79 19.05L31.79 29.14C31.79 29.6923 31.3423 30.14 30.79 30.14Z" fill="#FFFFFF"/><rect x="30.79" y="23.1" width="3.15" height="2" fill="#FFFFFF"/><rect x="38.07" y="22.8" width="3.15" height="2" fill="#FFFFFF"/><path d="M45.69 28.47 41.55 28.47C40.9977 28.47 40.55 28.0223 40.55 27.47L40.55 20.12C40.55 19.5677 40.9977 19.12 41.55 19.12L45.69 19.12C46.2423 19.12 46.69 19.5677 46.69 20.12L46.69 27.47C46.69 28.0223 46.2423 28.47 45.69 28.47ZM42.55 26.47 44.69 26.47 44.69 21.12 42.55 21.12Z" fill="#FFFFFF"/><path d="M38.07 28.47 33.94 28.47C33.3877 28.47 32.94 28.0223 32.94 27.47L32.94 20.12C32.94 19.5677 33.3877 19.12 33.94 19.12L38.07 19.12C38.6223 19.12 39.07 19.5677 39.07 20.12L39.07 27.47C39.07 28.0223 38.6223 28.47 38.07 28.47ZM34.94 26.47 37.07 26.47 37.07 21.12 34.94 21.12Z" fill="#FFFFFF"/><rect x="20.35" y="28.14" width="3.15" height="2" fill="#FFFFFF"/><path d="M19.73 33.82 15.59 33.82C15.0377 33.82 14.59 33.3723 14.59 32.82L14.59 25.46C14.59 24.9077 15.0377 24.46 15.59 24.46L19.73 24.46C20.2823 24.46 20.73 24.9077 20.73 25.46L20.73 32.82C20.73 33.3723 20.2823 33.82 19.73 33.82ZM16.59 31.82 18.73 31.82 18.73 26.46 16.59 26.46Z" fill="#FFFFFF"/><path d="M27.64 23.18 23.5 23.18C22.9477 23.18 22.5 22.7323 22.5 22.18L22.5 14.83C22.5 14.2777 22.9477 13.83 23.5 13.83L27.64 13.83C28.1923 13.83 28.64 14.2777 28.64 14.83L28.64 22.18C28.64 22.7323 28.1923 23.18 27.64 23.18ZM24.5 21.18 26.64 21.18 26.64 15.83 24.5 15.83Z" fill="#FFFFFF"/><path d="M27.64 33.82 23.5 33.82C22.9477 33.82 22.5 33.3723 22.5 32.82L22.5 25.46C22.5 24.9077 22.9477 24.46 23.5 24.46L27.64 24.46C28.1923 24.46 28.64 24.9077 28.64 25.46L28.64 32.82C28.64 33.3723 28.1923 33.82 27.64 33.82ZM24.5 31.82 26.64 31.82 26.64 26.46 24.5 26.46Z" fill="#FFFFFF"/><path d="M18.28 48.41 18.37 49.2 18.45 50 18.54 50.79 22.54 51.35C22.868 52.2476 23.3299 53.0905 23.91 53.85L22.2 57.51 22.83 58.01 23.45 58.51 24.07 59.01 27.29 56.58C28.1522 56.9888 29.0736 57.2588 30.02 57.38L31.41 61.17 32.21 61.08 33 61 33.8 60.91 34.35 56.91C35.2485 56.5929 36.092 56.1374 36.85 55.56L40.51 57.25 41.01 56.63 41.52 56 42.02 55.38 39.59 52.17C39.9962 51.3026 40.2692 50.3788 40.4 49.43L44.17 48 44.09 47.21 44 46.41 43.92 45.62 39.92 45.06C39.5983 44.1533 39.136 43.3029 38.55 42.54L40.23 38.9 39.61 38.4 38.99 37.9 38.37 37.4 35.17 39.81C34.3056 39.3958 33.3806 39.1224 32.43 39L31.05 35.24 30.25 35.32 29.46 35.41 28.66 35.5 28.11 39.5C27.1998 39.8251 26.3461 40.2908 25.58 40.88L22 39.2 21.49 39.82 20.99 40.44 20.49 41.07 22.91 44.27C22.4827 45.1296 22.1925 46.0507 22.05 47Z" stroke="#FFFFFF" stroke-width="2" stroke-linejoin="round" fill="none"/><path d="M31.22 54.38C27.818 54.3573 25.0786 51.581 25.1013 48.179 25.1096 46.926 25.4999 45.7054 26.22 44.68 28.1786 41.9004 32.019 41.2334 34.8 43.19 37.5801 45.151 38.2441 48.9943 36.2831 51.7744 35.3459 53.1031 33.9213 54.0074 32.32 54.29 31.9565 54.351 31.5885 54.3811 31.22 54.38ZM31.22 44.07C28.9225 44.0634 27.0547 45.9206 27.0481 48.2181 27.0415 50.5156 28.8987 52.3834 31.1962 52.39 32.5603 52.3939 33.8396 51.7288 34.62 50.61L34.62 50.61C35.2603 49.7127 35.5093 48.5941 35.31 47.51 34.9723 45.5169 33.2415 44.0612 31.22 44.07Z" fill="#FFFFFF"/><path d="M49.1 41.85 49.51 42.06 49.92 42.27 50.33 42.48 51.86 40.74C52.4001 40.8676 52.9566 40.9114 53.51 40.87L54.74 42.87 55.18 42.73 55.62 42.59 56.05 42.45 55.9 40.12C56.3719 39.8133 56.7935 39.4355 57.15 39L59.42 39.53 59.63 39.11 59.84 38.7 60.05 38.29 58.3 36.79C58.4275 36.2533 58.4713 35.7001 58.43 35.15L60.43 33.92 60.29 33.48 60.12 33 60 32.6 57.68 32.76C57.3884 32.2859 57.0239 31.8607 56.6 31.5L57.12 29.24 56.71 29 56.3 28.79 55.89 28.58 54.36 30.32C53.8207 30.1871 53.2634 30.1432 52.71 30.19L51.49 28.19 51.05 28.33 50.61 28.47 50.17 28.62 50.32 30.92C49.8448 31.2101 49.4194 31.5747 49.06 32L46.81 31.48 46.59 31.89 46.38 32.3 46.17 32.71 47.91 34.23C47.7708 34.809 47.7269 35.4069 47.78 36L45.78 37.22 45.92 37.66 46.06 38.1 46.2 38.54 48.51 38.39C48.8054 38.8613 49.1694 39.286 49.59 39.65Z" stroke="#FFFFFF" stroke-width="2" stroke-linejoin="round" fill="none"/><path d="M53.11 39.53C50.9015 39.4775 49.1537 37.6446 49.2062 35.4361 49.2434 33.8667 50.1953 32.4642 51.64 31.85 53.7042 31.0629 56.0156 32.0981 56.8027 34.1623 57.1669 35.1174 57.1516 36.1758 56.76 37.12 56.3491 38.0919 55.5629 38.8564 54.58 39.24 54.1126 39.4284 53.6139 39.5268 53.11 39.53ZM53.11 33.53C52.8598 33.5279 52.6117 33.5755 52.38 33.67 51.906 33.8539 51.5198 34.2115 51.3 34.67 51.1 35.1569 51.1 35.7031 51.3 36.19 51.4982 36.6749 51.8789 37.0627 52.36 37.27 52.8424 37.4751 53.3876 37.4751 53.87 37.27 54.8237 36.8686 55.3138 35.806 55 34.82 54.6963 34.0692 53.9698 33.5757 53.16 33.57Z" fill="#FFFFFF"/></g></svg>