<svg width="75" height="75" viewBox="0 0 75 75" xmlns="http://www.w3.org/2000/svg" xmlns:xlink="http://www.w3.org/1999/xlink" id="Product_Icon" overflow="hidden"><defs><linearGradient x1="37.5" y1="112.5" x2="37.5" y2="-37.5" gradientUnits="userSpaceOnUse" id="PurpleGradient" gradientTransform="matrix(0.707107 0.707107 -0.707107 0.707107 37.5 -15.53)"><stop offset="0" stop-color="#4D27A8"/><stop offset="1" stop-color="#A166FF"/></linearGradient></defs><rect x="0" y="0" width="75" height="75" id="Purple_Gradient" fill="url(#PurpleGradient)"/><g id="Icon_Test"><path d="M28.24 42.74C27.4 42.81 26.58 42.92 25.81 43.04 25.0872 40.2486 24.6912 37.3828 24.63 34.5L41.55 34.5C41.514 35.9823 41.3938 37.4613 41.19 38.93L43.19 38.93C43.37 37.51 43.48 36.03 43.52 34.5L52.42 34.5C52.3488 35.8522 52.1343 37.1931 51.78 38.5 52.4837 38.1278 53.2385 37.8615 54.02 37.71 54.3022 36.3346 54.443 34.934 54.44 33.53 54.44 21.932 45.038 12.53 33.44 12.53L33.03 12.53 32.6 12.53 32.48 12.53C20.8952 13.0819 11.9512 22.9208 12.5032 34.5056 12.9263 43.3875 18.8975 51.0401 27.41 53.61L27.41 51.51C24.6682 50.5816 22.1747 49.039 20.12 47 21.4116 46.1671 22.8623 45.612 24.38 45.37 25.0555 47.5335 26.101 49.5636 27.47 51.37L27.47 47.57C27.0585 46.7372 26.7011 45.8788 26.4 45L27.61 44.84C27.7291 44.1159 27.9409 43.4101 28.24 42.74ZM24.63 32.5C24.6888 29.6032 25.0882 26.7234 25.82 23.92L25.82 23.92C28.3995 24.3298 31.0082 24.5272 33.62 24.51 35.8874 24.5187 38.1527 24.3717 40.4 24.07 41.102 26.8306 41.4879 29.6622 41.55 32.51ZM32.92 14.5 33.18 14.5C35.85 14.56 38.28 17.57 39.82 22.12 37.763 22.3715 35.6923 22.4951 33.62 22.49 31.2076 22.5129 28.7971 22.349 26.41 22 27.94 17.56 30.31 14.63 32.92 14.51ZM43.55 32.5C43.5 29.5452 43.1108 26.606 42.39 23.74 44.4691 23.4463 46.4532 22.68 48.19 21.5L48.19 21.5C50.7466 24.6186 52.2392 28.4729 52.45 32.5ZM46.85 20 46.85 20C45.3388 20.9661 43.6302 21.5812 41.85 21.8 41.1138 19.3326 39.8744 17.0445 38.21 15.08 41.4757 15.924 44.4578 17.6222 46.85 20ZM24.41 21.6C22.9149 21.353 21.4938 20.7756 20.25 19.91 22.3444 17.8544 24.888 16.3138 27.68 15.41 26.2184 17.2583 25.1099 19.36 24.41 21.61ZM18.9 21.38 18.9 21.38C20.3592 22.4654 22.0501 23.1979 23.84 23.52 23.0825 26.4617 22.6763 29.4827 22.63 32.52L14.55 32.52C14.7588 28.4373 16.2851 24.5323 18.9 21.39ZM18.78 45.46C16.2397 42.3344 14.7584 38.4823 14.55 34.46L22.63 34.46C22.6761 37.4703 23.0789 40.4645 23.83 43.38 22.0148 43.7016 20.2915 44.4148 18.78 45.47Z" fill="#FFFFFF"/><path d="M62.47 57.83 62.47 47.63C62.4654 47.5373 62.4451 47.446 62.41 47.36 62.4501 47.0784 62.4702 46.7944 62.47 46.51 62.4652 42.644 59.3272 39.5139 55.4612 39.5188 53.6368 39.5211 51.8854 40.2355 50.58 41.51L41.36 41.51C38.5937 38.8093 34.1619 38.8625 31.4612 41.6288 30.1867 42.9342 29.4723 44.6856 29.47 46.51 29.4698 46.7944 29.4899 47.0784 29.53 47.36 29.4959 47.4463 29.4756 47.5374 29.47 47.63L29.47 57.8C29.4402 59.0953 29.8969 60.3548 30.75 61.33 31.5419 62.1231 32.6302 62.5475 33.75 62.5 37.07 62.5 38.75 58.34 40.13 54.67 40.44 53.88 40.73 53.14 41.02 52.5L50.96 52.5C51.25 53.14 51.54 53.88 51.84 54.67 53.28 58.34 54.9 62.5 58.23 62.5 59.3498 62.5475 60.4381 62.1231 61.23 61.33 62.0633 60.3576 62.5053 59.1101 62.47 57.83ZM60.47 46.51C60.47 49.2714 58.2314 51.51 55.47 51.51 52.7086 51.51 50.47 49.2714 50.47 46.51 50.47 43.7486 52.7086 41.51 55.47 41.51 58.2314 41.51 60.47 43.7486 60.47 46.51ZM42.78 43.51 49.16 43.51C48.0781 45.775 48.2918 48.4458 49.72 50.51L42.22 50.51C43.6482 48.4458 43.8619 45.775 42.78 43.51ZM36.47 41.51C39.2314 41.51 41.47 43.7486 41.47 46.51 41.47 49.2714 39.2314 51.51 36.47 51.51 33.7086 51.51 31.47 49.2714 31.47 46.51 31.4645 43.7486 33.6986 41.5055 36.46 41.5 36.4633 41.5 36.4667 41.5 36.47 41.5ZM33.73 60.51C33.1685 60.5578 32.612 60.3735 32.19 60 31.7125 59.3976 31.4581 58.6486 31.47 57.88L31.47 51.41C32.7795 52.7665 34.5845 53.5319 36.47 53.53 37.1725 53.5319 37.8709 53.4239 38.54 53.21L38.25 53.94C37.11 56.86 35.69 60.5 33.73 60.5ZM59.73 59.96C59.3145 60.348 58.7572 60.547 58.19 60.51 56.19 60.51 54.81 56.87 53.67 53.95 53.57 53.7 53.47 53.46 53.38 53.22 54.0491 53.4339 54.7475 53.5419 55.45 53.54 57.3341 53.535 59.1366 52.7707 60.45 51.42L60.45 57.87C60.4716 58.6398 60.224 59.3931 59.75 60Z" fill="#FFFFFF"/><path d="M35.47 49.5 37.47 49.5 37.47 47.5 39.47 47.5 39.47 45.51 37.47 45.51 37.47 43.51 35.47 43.51 35.47 45.51 33.47 45.51 33.47 47.5 35.47 47.5 35.47 49.5Z" fill="#FFFFFF"/><path d="M55.47 48.14C56.3702 48.14 57.1 47.4102 57.1 46.51 57.1 45.6098 56.3702 44.88 55.47 44.88 54.5698 44.88 53.84 45.6098 53.84 46.51 53.84 47.4102 54.5698 48.14 55.47 48.14Z" fill="#FFFFFF"/></g></svg>