<svg width="75" height="75" viewBox="0 0 75 75" xmlns="http://www.w3.org/2000/svg" xmlns:xlink="http://www.w3.org/1999/xlink" id="Product_Icon" overflow="hidden"><defs><linearGradient x1="112.5" y1="37.5" x2="-37.5" y2="37.5" gradientUnits="userSpaceOnUse" id="BlueGradient" gradientTransform="matrix(-0.707107 0.707107 -0.707107 -0.707107 90.53 37.5)"><stop offset="0" stop-color="#2E27AD"/><stop offset="1" stop-color="#527FFF"/></linearGradient></defs><rect x="0" y="0" width="75" height="75" id="Blue_Gradient" fill="url(#BlueGradient)"/><g id="Icon_Test"><path d="M46.96 61.47 40.26 61.47 40.26 42.01 42.26 42.01 42.26 59.47 44.96 59.47 44.96 45.84 46.96 45.84 46.96 61.47Z" fill="#FFFFFF"/><path d="M46.34 46.84 41.94 46.84 41.94 44.84 45.94 44.84C48.25 43.76 53.44 41.28 54.51 38.49L46.19 38.49 46.19 36.49 56.66 36.49 56.66 37.49C56.66 42.03 49.83 45.22 46.54 46.75Z" fill="#FFFFFF"/><path d="M46.1 46.59 44.77 45.1C44.77 45.1 48.13 42 47.6 37.64L49.6 37.39C49.9035 40.8308 48.6137 44.221 46.1 46.59Z" fill="#FFFFFF"/><path d="M38.2 61.4 30.02 61.4 30.02 41.17 32.02 41.17 32.02 59.4 36.2 59.4 36.2 41.17 38.2 41.17 38.2 61.4Z" fill="#FFFFFF"/><path d="M24.2 21.46 22.41 20.57C25.5322 14.3016 33.1449 11.7511 39.4133 14.8733 41.881 16.1024 43.8809 18.1023 45.11 20.57L43.32 21.47C40.6905 16.1902 34.2787 14.0417 28.9988 16.6712 26.92 17.7065 25.2353 19.3912 24.2 21.47Z" fill="#FFFFFF"/><path d="M26.66 22.69 24.87 21.8C27.3078 16.8874 33.2665 14.8812 38.1791 17.3191 40.122 18.2832 41.6958 19.857 42.66 21.8L40.87 22.69C38.9125 18.766 34.1446 17.1719 30.2206 19.1294 28.6789 19.8985 27.4291 21.1482 26.66 22.69Z" fill="#FFFFFF"/><path d="M38.41 23.91C37.1438 21.3446 34.0377 20.2915 31.4723 21.5577 30.4509 22.0618 29.6241 22.8886 29.12 23.91L27.33 23C29.0889 19.446 33.3959 17.9909 36.9498 19.7498 38.3601 20.4478 39.502 21.5897 40.2 23Z" fill="#FFFFFF"/><path d="M36.74 42.17 30.8 42.17 30.6 42.08C22.35 38.22 18.34 34.33 18.34 30.18L18.34 29.18 48.51 29.18 48.51 30.18C48.51 35.55 42.22 39.61 36.94 42.08ZM31.24 40.17 36.29 40.17C39.9 38.46 45.57 35.17 46.4 31.17L20.46 31.17C21 33.39 23.49 36.52 31.24 40.17Z" fill="#FFFFFF"/><rect x="32.76" y="30.22" width="2" height="10.42" fill="#FFFFFF"/><path d="M37.18 41.91 35.85 40.42 36.51 41.17 35.85 40.42C35.85 40.42 40.4 36.25 39.67 30.34L41.67 30.09C42.51 37.06 37.4 41.72 37.18 41.91Z" fill="#FFFFFF"/><path d="M31 41.91C30.78 41.72 25.67 37.06 26.52 30.09L28.52 30.34C27.79 36.28 32.3 40.34 32.34 40.42Z" fill="#FFFFFF"/><path d="M31.55 30.9 29.81 29.91 32.21 25.74 35.49 25.74 37.72 29.94 35.95 30.88 34.29 27.74 33.36 27.74 31.55 30.9Z" fill="#FFFFFF"/><path d="M34.52 27 33 27 31 25 31 23.5 33 21.5 34.51 21.5 36.51 23.5 36.51 25ZM33.12 24.28 33.77 24.93 34.41 24.28 33.77 23.63Z" fill="#FFFFFF"/></g></svg>