<svg viewBox="0 0 75 75" xmlns="http://www.w3.org/2000/svg" xmlns:xlink="http://www.w3.org/1999/xlink" id="Product_Icon" overflow="hidden"><defs><linearGradient x1="-37.5" y1="37.5" x2="112.5" y2="37.5" gradientUnits="userSpaceOnUse" id="OrangeGradient" gradientTransform="matrix(0.707107 -0.707107 0.707107 0.707107 -15.53 37.5)"><stop offset="0" stop-color="#C8511B"/><stop offset="1" stop-color="#FF9900"/></linearGradient></defs><rect x="0" y="0" width="75" height="75" id="Orange_Gradient" fill="url(#OrangeGradient)"/><g id="Icon_Test"><path d="M59.5 30.06 59.5 50.51 41.5 60.91 41.5 53.15 51.5 47.38C52.0422 47.0753 52.4118 46.5357 52.5 45.92 52.5203 45.6604 52.5203 45.3996 52.5 45.14L52.5 33.76 59.5 29.76M60.91 26.76C60.8089 26.7581 60.7091 26.7822 60.62 26.83L51.07 32.35C50.89 32.45 50.5 32.63 50.5 32.86L50.5 45.14C50.5108 45.3098 50.5108 45.4802 50.5 45.65L39.8 51.82C39.6211 51.9279 39.5113 52.1211 39.51 52.33L39.51 63.33C39.51 63.6558 39.7742 63.92 40.1 63.92 40.2019 63.9184 40.3017 63.8909 40.39 63.84L61.22 51.84C61.3989 51.7321 61.5087 51.5389 61.51 51.33L61.51 27.27C61.51 26.9497 61.2504 26.69 60.9301 26.6899 60.9267 26.6899 60.9234 26.6899 60.92 26.69Z" fill="#FFFFFF"/><path d="M35.92 64.94C35.6428 64.9405 35.3703 64.8681 35.13 64.73L14.29 52.73C13.8006 52.4475 13.4994 51.9251 13.5 51.36L13.5 24.87C13.4994 24.3049 13.8006 23.7825 14.29 23.5L37.21 10.27C37.7002 9.97964 38.3098 9.97964 38.8 10.27L59.63 22.27C60.1179 22.554 60.4186 23.0755 60.42 23.64 60.4181 24.207 60.118 24.7312 59.63 25.02L37.5 37.82 37.5 63.36C37.5048 63.9262 37.2024 64.4505 36.71 64.73 36.4696 64.8681 36.1972 64.9405 35.92 64.94ZM15.5 51.09 35.5 62.63 35.5 37.58C35.4999 37.0124 35.8005 36.4873 36.29 36.2L58 23.68 38 12.13 15.51 25.13ZM37.79 12 37.79 12Z" fill="#FFFFFF"/></g></svg>