<svg width="75" height="75" viewBox="0 0 75 75" xmlns="http://www.w3.org/2000/svg" xmlns:xlink="http://www.w3.org/1999/xlink" id="Product_Icon" overflow="hidden"><defs><linearGradient x1="-15.54" y1="90.54" x2="90.53" y2="-15.53" gradientUnits="userSpaceOnUse" id="OrangeGradient"><stop offset="0" stop-color="#C8511B"/><stop offset="1" stop-color="#FF9900"/></linearGradient></defs><rect x="0" y="0" width="75" height="75" id="Orange_Gradient" fill="url(#OrangeGradient)"/><g id="Icon_Test"><g id="LIGHTSAIL-2"><g id="LS-Icon_2px-Scaled-White"><path d="M40.5 51.39 40.19 51.39C39.7989 51.2633 39.5252 50.9103 39.5 50.5 38.85 44.34 36.5 39.94 32.93 38.43 32.4222 38.2143 32.1851 37.6281 32.4 37.12 32.5013 36.8813 32.6913 36.6913 32.93 36.59 36.43 35.07 38.82 30.67 39.5 24.5 39.5625 23.9513 40.058 23.5571 40.6068 23.6196 40.6078 23.6197 40.6089 23.6199 40.61 23.62 40.8484 23.6488 41.0685 23.7624 41.23 23.94 43.47 26.41 47.23 31.46 47.23 37.5 47.23 43.92 42.65 49.5 41.23 51.06 41.0433 51.2669 40.7787 51.3865 40.5 51.39ZM35.34 37.5C38.2 39.5 40.22 43.16 41.12 47.98 42.79 45.73 45.19 41.75 45.19 37.5 45.19 33.25 43 29.5 41.13 27 40.24 31.82 38.21 35.5 35.34 37.5Z" fill="#FFFFFF"/><path d="M32 26.59 31.65 27.65 30.6 28 31.65 28.35 32 29.41 32.35 28.35 33.41 28 32.35 27.65 32 26.59 32 26.59Z" fill="#FFFFFF"/><path d="M32 30.69 31.33 28.67 29.31 28 31.33 27.33 32 25.31 32.67 27.33 34.69 28 32.67 28.67 32 30.69Z" fill="#FFFFFF"/><path d="M50 41.59 49.65 42.65 48.59 43 49.65 43.35 50 44.41 50.35 43.35 51.41 43 50.35 42.65 50 41.59 50 41.59Z" fill="#FFFFFF"/><path d="M50 45.39 49.4 43.6 47.61 43 49.4 42.4 50 40.61 50.6 42.4 52.39 43 50.6 43.6 50 45.39Z" fill="#FFFFFF"/><path d="M30.96 45.08 30.49 46.49 29.08 46.96 30.49 47.42 30.96 48.83 31.43 47.42 32.83 46.96 31.43 46.49 30.96 45.08 30.96 45.08Z" fill="#FFFFFF"/><path d="M31 50.07 30.22 47.73 27.85 47 30.18 46.22 31 43.85 31.78 46.18 34.11 46.96 31.78 47.73ZM30.69 47 30.89 47.06 30.96 47.26 31 47 31.2 46.94 31 46.87 30.94 46.67 30.87 46.87Z" fill="#FFFFFF"/><path d="M37.56 56.58C28.3231 56.5866 20.4197 49.9491 18.83 40.85 18.7361 40.2977 19.1077 39.7739 19.66 39.68 20.2123 39.5861 20.7361 39.9577 20.83 40.51 22.4869 49.7515 31.3217 55.9001 40.5632 54.2432 49.8047 52.5864 55.9533 43.7515 54.2964 34.51 52.6395 25.2685 43.8047 19.12 34.5632 20.7768 27.5637 22.0317 22.0849 27.5105 20.83 34.51 20.7306 35.0623 20.2023 35.4294 19.65 35.33 19.0977 35.2306 18.7306 34.7023 18.83 34.15 20.7244 23.829 30.6269 16.9979 40.9479 18.8922 51.2689 20.7866 58.1 30.6891 56.2057 41.0101 54.553 50.0143 46.7146 56.5597 37.56 56.58Z" fill="#FFFFFF"/><path d="M15.5 38.5 13.5 38.5C12.9477 38.5 12.5 38.0523 12.5 37.5 12.5 36.9477 12.9477 36.5 13.5 36.5L15.5 36.5C16.0523 36.5 16.5 36.9477 16.5 37.5 16.5 38.0523 16.0523 38.5 15.5 38.5Z" fill="#FFFFFF"/><path d="M20.5 38.5 18.5 38.5C17.9477 38.5 17.5 38.0523 17.5 37.5 17.5 36.9477 17.9477 36.5 18.5 36.5L20.5 36.5C21.0523 36.5 21.5 36.9477 21.5 37.5 21.5 38.0523 21.0523 38.5 20.5 38.5Z" fill="#FFFFFF"/><path d="M25.5 38.5 23.5 38.5C22.9477 38.5 22.5 38.0523 22.5 37.5 22.5 36.9477 22.9477 36.5 23.5 36.5L25.5 36.5C26.0523 36.5 26.5 36.9477 26.5 37.5 26.5 38.0523 26.0523 38.5 25.5 38.5Z" fill="#FFFFFF"/><path d="M30.5 38.5 28.5 38.5C27.9477 38.5 27.5 38.0523 27.5 37.5 27.5 36.9477 27.9477 36.5 28.5 36.5L30.5 36.5C31.0523 36.5 31.5 36.9477 31.5 37.5 31.5 38.0523 31.0523 38.5 30.5 38.5Z" fill="#FFFFFF"/><rect x="12.5" y="12.5" width="50" height="50" fill="none"/></g></g></g></svg>