<svg width="75" height="75" viewBox="0 0 75 75" xmlns="http://www.w3.org/2000/svg" xmlns:xlink="http://www.w3.org/1999/xlink" overflow="hidden"><defs><linearGradient x1="-20.83" y1="131.69" x2="-20.83" y2="-18.31" gradientUnits="userSpaceOnUse" id="Orange_Gradient" gradientTransform="matrix(0.707107 0.707107 -0.707107 0.707107 92.31 12.14)"><stop offset="0" stop-color="#C8511B"/><stop offset="1" stop-color="#FF9900"/></linearGradient></defs><g id="Background"><rect x="0" y="0" width="75" height="75" id="Green_Gradient" fill="url(#Orange_Gradient)"/></g><g id="Working"><path d="M50.59 20.26 45.88 17.54 47 15.59 51.71 18.31ZM37.5 12.7 41.65 15.1 42.78 13.1 38.07 10.38C37.7162 10.1804 37.2838 10.1804 36.93 10.38L32.22 13.1 33.35 15.1ZM29.12 17.54 28 15.59 23.29 18.31 24.42 20.31ZM37.5 46.54C37.7006 46.5364 37.8969 46.4813 38.07 46.38L41.44 44.44 40.31 42.44 37.5 44.08 34.69 42.46 33.56 44.46 36.93 46.4C37.1068 46.4874 37.3029 46.5287 37.5 46.52ZM60.67 23.47 56 20.75 54.87 22.75 57.87 24.49 54.87 26.23 56 28.23 59 26.49 59 48.59 56 46.85 54.87 48.85 57.87 50.59 37.5 62.3 17.16 50.55 20.16 48.81 19.03 46.81 16.03 48.55 16.03 26.41 19.03 28.15 20.16 26.15 17.16 24.41 20.16 22.67 19.03 20.67 14.32 23.39C13.9656 23.5969 13.7512 23.9797 13.76 24.39L13.76 50.49C13.7512 50.9003 13.9656 51.2831 14.32 51.49L36.92 64.49C37.2738 64.6896 37.7062 64.6896 38.06 64.49L60.66 51.49C61.0144 51.2831 61.2288 50.9003 61.22 50.49L61.22 24.45C61.2236 24.0489 61.0143 23.6759 60.67 23.47ZM19.73 34.71C23.7209 31.3294 26.0695 26.3991 26.18 21.17L28.44 21.17C28.4589 24.2937 29.3452 27.3506 31 30L29.07 31.17C28.365 30.026 27.7787 28.8131 27.32 27.55 26.2479 30.4546 24.5631 33.0944 22.38 35.29L26.79 37.83C33.23 31.6 36.39 24.54 36.39 16.44 36.39 15.8159 36.8959 15.31 37.52 15.31 38.1441 15.31 38.65 15.8159 38.65 16.44 38.65 24.54 41.81 31.6 48.25 37.83L52.66 35.29C50.4769 33.0944 48.7921 30.4546 47.72 27.55 47.2734 28.8256 46.6971 30.0521 46 31.21L44 30C45.6549 27.337 46.5345 24.2653 46.54 21.13L48.8 21.13C48.9105 26.3591 51.2591 31.2894 55.25 34.67 55.5246 34.9255 55.6587 35.2981 55.61 35.67 55.5784 36.0321 55.3684 36.3546 55.05 36.53L50 39.47C51.5705 40.8266 53.22 42.0888 54.94 43.25 55.2692 43.4728 55.4557 43.8533 55.43 44.25 55.4157 44.6383 55.2047 44.9926 54.87 45.19L38.07 54.85C37.7196 55.0623 37.2804 55.0623 36.93 54.85L20.15 45.17C19.8153 44.9726 19.6043 44.6183 19.59 44.23 19.5643 43.8333 19.7508 43.4528 20.08 43.23 21.7928 42.0749 23.4357 40.8194 25 39.47L19.91 36.53C19.5979 36.3496 19.3928 36.029 19.36 35.67 19.3269 35.3098 19.4637 34.9548 19.73 34.71ZM33.27 33.71 37.5 36.2 41.73 33.75C39.8413 31.0391 38.4122 28.0355 37.5 24.86 36.5878 28.0355 35.1587 31.0391 33.27 33.75ZM22.82 44.09 37.5 52.57 52.18 44.09C50.7031 43.0227 49.2813 41.8812 47.92 40.67L44.92 42.42 43.79 40.42 46.24 39.01C45.1336 37.9177 44.095 36.7589 43.13 35.54L38.13 38.44C37.7762 38.6396 37.3438 38.6396 36.99 38.44L31.99 35.54C31.0221 36.7565 29.9837 37.9152 28.88 39.01L31.31 40.42 30.18 42.42 27.18 40.67C25.7862 41.884 24.331 43.0255 22.82 44.09Z" fill="#FFFFFF"/></g></svg>