<svg width="75" height="75" viewBox="0 0 75 75" xmlns="http://www.w3.org/2000/svg" xmlns:xlink="http://www.w3.org/1999/xlink" id="Product_Icon" overflow="hidden"><defs><linearGradient x1="-15.54" y1="90.54" x2="90.53" y2="-15.53" gradientUnits="userSpaceOnUse" id="OrangeGradient"><stop offset="0" stop-color="#C8511B"/><stop offset="1" stop-color="#FF9900"/></linearGradient></defs><rect x="0" y="0" width="75" height="75" id="Orange_Gradient" fill="url(#OrangeGradient)"/><g id="Icon_Test"><path d="M24.79 36.41C24.862 36.4946 24.9424 36.5717 25.03 36.64 25.1799 36.7686 25.3368 36.8888 25.5 37L25.61 37.06C25.7712 37.1598 25.9382 37.2499 26.11 37.33L26.42 37.46 26.52 37.46 26.63 37.46 26.88 37.57C27.35 37.74 27.88 37.94 28.46 38.12L29.37 38.39 29.86 38.52C32.3598 39.1327 34.9263 39.4316 37.5 39.41L37.5 39.41C41.4113 39.4965 45.2966 38.7536 48.9 37.23 50.4702 36.5151 51.4841 34.9552 51.5 33.23L51.5 18.88C51.4976 18.2731 51.1478 17.7212 50.6 17.46L38.18 11.66C37.7602 11.4558 37.2698 11.4558 36.85 11.66L24.4 17.46C23.8522 17.7212 23.5024 18.2731 23.5 18.88L23.5 33.28C23.4985 34.3531 23.8857 35.3904 24.59 36.2 24.6515 36.2747 24.7183 36.3449 24.79 36.41ZM29.89 36.55 29.05 36.3C28.51 36.13 28.05 35.95 27.64 35.81L27.28 35.66 27.28 35.66 26.94 35.5C26.827 35.4494 26.7168 35.3926 26.61 35.33L26.61 35.33 26.36 35.14 26.23 35C26.2086 34.9685 26.1815 34.9414 26.15 34.92L26.07 34.83C25.688 34.3885 25.4784 33.8238 25.48 33.24L25.48 20.08 36.48 25.23 36.48 37.47C34.4066 37.4334 32.3438 37.165 30.33 36.67ZM48.09 35.49C45.0543 36.7867 41.791 37.4665 38.49 37.49L38.49 25.42 49.49 20.42 49.49 33.22C49.52 34.1887 48.9691 35.082 48.09 35.49ZM37.5 13.55 48.56 18.71 37.68 23.59 37.6 23.54 26.85 18.54Z" fill="#FFFFFF"/><path d="M54.78 27.68 54.22 29.6C58.71 30.92 61.5 32.8 61.5 34.5 61.5 37.81 51.64 41.5 37.5 41.5 23.36 41.5 13.5 37.81 13.5 34.5 13.5 32.8 16.29 30.92 20.78 29.6L20.22 27.68C14.6 29.33 11.5 31.76 11.5 34.5 11.5 40.34 24.9 43.5 37.5 43.5 50.1 43.5 63.5 40.34 63.5 34.5 63.5 31.76 60.4 29.34 54.78 27.68Z" fill="#FFFFFF"/><path d="M54.72 46.64 50.07 44.64C49.7103 44.4645 49.2897 44.4645 48.93 44.64L44.18 46.69C43.7617 46.8965 43.4977 47.3235 43.5 47.79L43.5 52.94 39.07 51C38.7089 50.8303 38.2911 50.8303 37.93 51L33.47 52.93 33.47 47.77C33.4656 47.281 33.1765 46.8395 32.73 46.64L28.07 44.64C27.7137 44.4647 27.2963 44.4647 26.94 44.64L22.18 46.69C21.7617 46.8965 21.4977 47.3235 21.5 47.79L21.5 53.87C21.5044 54.359 21.7935 54.8005 22.24 55L26.89 57 26.89 57 27 57C27.158 57.0687 27.3278 57.1061 27.5 57.11 27.6734 57.1173 27.8457 57.0794 28 57L32.49 55.07 32.49 60.22C32.4983 60.7053 32.7868 61.142 33.23 61.34L37.87 63.34 37.87 63.34C37.87 63.34 37.87 63.34 37.94 63.34 38.1092 63.4186 38.2934 63.4595 38.48 63.46 38.6572 63.4617 38.8321 63.4205 38.99 63.34L43.76 61.29C44.1751 61.0799 44.4376 60.6552 44.44 60.19L44.44 55.07 48.88 57 48.88 57 49 57C49.1707 57.074 49.354 57.1148 49.54 57.12 49.7002 57.114 49.8572 57.0731 50 57L54.78 55C55.1983 54.7935 55.4623 54.3665 55.46 53.9L55.46 47.77C55.4556 47.281 55.1665 46.8395 54.72 46.64ZM49.48 46.56 52.21 47.72 49.65 48.77 47 47.63ZM38.48 52.94 41.21 54.1 38.65 55.1 36 54ZM27.48 46.56 30.2 47.73 27.64 48.73 25 47.63ZM23.48 49.16 26.48 50.44 26.48 54.64 23.48 53.35ZM28.48 54.63 28.48 50.63 31.48 49.4 31.48 53.4ZM34.48 55.53 37.48 56.82 37.48 61 34.48 59.71ZM39.48 61.01 39.48 57 42.48 55.76 42.48 59.76ZM45.48 49.16 48.48 50.44 48.48 54.64 45.48 53.35ZM50.48 54.64 50.48 50.64 53.48 49.4 53.48 53.4Z" fill="#FFFFFF"/></g></svg>