<svg width="75" height="75" viewBox="0 0 75 75" xmlns="http://www.w3.org/2000/svg" xmlns:xlink="http://www.w3.org/1999/xlink" id="Product_Icon" overflow="hidden"><defs><linearGradient x1="37.5" y1="-37.5" x2="37.5" y2="112.5" gradientUnits="userSpaceOnUse" id="OrangeGradient" gradientTransform="matrix(-0.707107 -0.707107 0.707107 -0.707107 37.5 90.53)"><stop offset="0" stop-color="#C8511B"/><stop offset="1" stop-color="#FF9900"/></linearGradient></defs><rect x="0" y="0" width="75" height="75" id="Orange_Gradient" fill="url(#OrangeGradient)"/><g id="Icon_Test"><path d="M52.86 53.5 23.1 53.5C18.23 53.5 12.82 49.95 12.52 44.67 12.52 44.46 12.52 44.25 12.52 44.02 12.52 43.79 12.52 43.75 12.52 43.61 12.5151 43.5735 12.5151 43.5365 12.52 43.5 12.5151 43.4301 12.5151 43.3599 12.52 43.29 12.6651 39.4355 15.2846 36.1166 19 35.08 19 34.83 19 34.59 19 34.34 19.1604 27.0682 25.1854 21.3032 32.4572 21.4636 35.9081 21.5397 39.1913 22.9676 41.6 25.44 42.8475 26.6723 43.8636 28.1186 44.6 29.71 45.6582 28.8795 46.9648 28.4287 48.31 28.43 51.12 28.43 54.06 30.43 54.61 34.84 59.41 36 62.15 39 62.47 43.25 62.4805 43.333 62.4805 43.417 62.47 43.5 62.475 43.5432 62.475 43.5868 62.47 43.63 62.47 43.79 62.47 43.94 62.47 44.1 62.5 52.82 55.12 53.5 52.86 53.5ZM14.51 44.5 14.51 44.57C14.74 48.65 19.21 51.5 23.09 51.5L52.86 51.5C55.11 51.5 60.28 50.8 60.49 44.5L46.31 44.5C46.4306 44.8954 46.4912 45.3066 46.49 45.72 46.3785 47.9706 44.4636 49.7046 42.2131 49.5931 40.1185 49.4893 38.4438 47.8145 38.34 45.72 38.3371 45.3057 38.4013 44.8938 38.53 44.5L28.7 44.5C28.2902 44.5004 27.9216 44.2507 27.77 43.87 27.6164 43.4888 27.7116 43.0525 28.01 42.77 28.4253 42.3818 28.6607 41.8385 28.66 41.27 28.5804 40.124 27.5869 39.2595 26.4409 39.3391 25.4057 39.411 24.5819 40.2349 24.51 41.27 24.5093 41.8385 24.7447 42.3818 25.16 42.77 25.4549 43.0548 25.5461 43.4909 25.39 43.87 25.2384 44.2507 24.8698 44.5004 24.46 44.5ZM35.51 42.5 40.31 42.5C40.8623 42.5022 41.3082 42.9517 41.306 43.504 41.305 43.7742 41.1946 44.0325 41 44.22 40.5847 44.6082 40.3493 45.1515 40.35 45.72 40.4296 46.866 41.4231 47.7305 42.5691 47.6509 43.6043 47.579 44.4281 46.7551 44.5 45.72 44.5007 45.1515 44.2653 44.6082 43.85 44.22 43.5551 43.9352 43.4639 43.4991 43.62 43.12 43.7748 42.7432 44.1427 42.498 44.55 42.5L60.36 42.5C59.8 39.41 57.5 37.44 53.51 36.64 53.0622 36.5492 52.7329 36.1664 52.71 35.71 52.48 31.82 50.2 30.43 48.33 30.43 47.0444 30.4371 45.837 31.0482 45.07 32.08 44.7335 32.5179 44.1057 32.6002 43.6678 32.2637 43.5191 32.1495 43.4055 31.9957 43.34 31.82 42.6776 29.9602 41.6122 28.2698 40.22 26.87 38.8976 25.5512 37.2794 24.5673 35.5 24L35.5 31.59C35.8938 31.4613 36.3057 31.3971 36.72 31.4 38.9733 31.4 40.8 33.2267 40.8 35.48 40.8 37.7333 38.9733 39.56 36.72 39.56 36.3061 39.5579 35.8949 39.4938 35.5 39.37ZM30.51 42.5 33.51 42.5 33.51 37.62C33.5064 37.0677 33.9511 36.6171 34.5034 36.6134 34.7823 36.6116 35.0494 36.7264 35.24 36.93 35.6222 37.3478 36.1637 37.5841 36.73 37.58 37.8788 37.58 38.81 36.6488 38.81 35.5 38.81 34.3512 37.8787 33.42 36.73 33.42 36.1652 33.4134 35.624 33.6459 35.24 34.06 34.8625 34.4632 34.2297 34.484 33.8265 34.1066 33.6255 33.9183 33.5109 33.6555 33.51 33.38L33.51 23.59C31.503 23.361 29.4708 23.6538 27.61 24.44 23.7156 26.229 21.1595 30.0574 21 34.34 20.9962 34.7913 21.0229 35.2423 21.08 35.69 21.1396 36.1935 20.813 36.6618 20.32 36.78 17.4113 37.3116 15.1365 39.5903 14.61 42.5L22.68 42.5C22.5587 42.1013 22.4981 41.6867 22.5 41.27 22.6115 39.0194 24.5264 37.2854 26.7769 37.3969 28.8715 37.5007 30.5462 39.1755 30.65 41.27 30.6568 41.687 30.5961 42.1024 30.47 42.5Z" fill="#FFFFFF"/></g></svg>