<svg width="75" height="75" viewBox="0 0 75 75" xmlns="http://www.w3.org/2000/svg" xmlns:xlink="http://www.w3.org/1999/xlink" overflow="hidden"><defs><linearGradient x1="-20.83" y1="131.69" x2="-20.83" y2="-18.31" gradientUnits="userSpaceOnUse" id="Orange_Gradient" gradientTransform="matrix(0.707107 0.707107 -0.707107 0.707107 92.31 12.14)"><stop offset="0" stop-color="#C8511B"/><stop offset="1" stop-color="#FF9900"/></linearGradient></defs><g id="Background"><rect x="0" y="0" width="75" height="75" id="Green_Gradient" fill="url(#Orange_Gradient)"/></g><g id="Working"><path d="M42.72 55.44 45 55.44 45 59.94C45.0025 60.3513 44.7851 60.7326 44.43 60.94L38.09 64.6C37.7362 64.7996 37.3038 64.7996 36.95 64.6L30.61 60.94C30.2549 60.7326 30.0375 60.3513 30.04 59.94L30.04 55.44 32.3 55.44 32.3 58 36.39 55.64 36.39 51.77 38.65 51.77 38.65 56.27C38.6566 56.6798 38.4428 57.0616 38.09 57.27L33.43 59.96 37.5 62.3 42.72 59.3ZM32.28 15.72 37.5 12.72 41.59 15.08 36.93 17.77C36.5772 17.9784 36.3634 18.3602 36.37 18.77L36.37 23.27 38.63 23.27 38.63 19.38 42.72 17 42.72 19.54 45 19.54 45 15.04C45.0025 14.6287 44.7851 14.2474 44.43 14.04L38.09 10.38C37.7362 10.1804 37.3038 10.1804 36.95 10.38L30.61 14.04C30.2549 14.2474 30.0375 14.6287 30.04 15.04L30.04 19.54 32.3 19.54ZM60.67 32.72 52.46 37.5 60.67 42.24C61.0244 42.4469 61.2388 42.8297 61.23 43.24L61.23 50.57C61.2388 50.9803 61.0244 51.3631 60.67 51.57L54.32 55.23C54.1497 55.3283 53.9566 55.38 53.76 55.38 53.5603 55.3799 53.3639 55.3282 53.19 55.23L37.5 46.13 21.81 55.19C21.4598 55.3898 21.0302 55.3898 20.68 55.19L14.33 51.53C13.9756 51.3231 13.7612 50.9403 13.77 50.53L13.77 43.22C13.7612 42.8097 13.9756 42.4269 14.33 42.22L22.55 37.48 14.33 32.74C13.9756 32.5331 13.7612 32.1503 13.77 31.74L13.77 24.45C13.7612 24.0397 13.9756 23.6569 14.33 23.45L20.68 19.79C21.0273 19.5795 21.4627 19.5795 21.81 19.79L37.5 28.87 53.19 19.81C53.5373 19.5995 53.9727 19.5995 54.32 19.81L60.67 23.47C61.0244 23.6769 61.2388 24.0597 61.23 24.47L61.23 31.8C61.2245 32.196 61.012 32.5603 60.67 32.76ZM24.81 36.2 28.89 33.84 20.68 29.09C20.3217 28.8857 20.1033 28.5024 20.11 28.09L20.11 22.74 16 25.1 16 31.1ZM50.2 38.8 46.11 41.16 54.32 45.91C54.6783 46.1143 54.8967 46.4976 54.89 46.91L54.89 52.28 59 49.9 59 43.9ZM57.84 31.8 53.76 29.44 44.41 34.83 21.81 47.83C21.4627 48.0405 21.0273 48.0405 20.68 47.83L16 45.18 16 49.9 21.21 52.9 36.9 43.84C37.2538 43.6404 37.6862 43.6404 38.04 43.84L52.6 52.25 52.6 47.54 43.25 42.14C42.6977 41.8494 42.4856 41.1661 42.7762 40.6138 42.8826 40.4116 43.0478 40.2464 43.25 40.14ZM59 25.1 53.79 22.1 38.07 31.15C37.7162 31.3496 37.2838 31.3496 36.93 31.15L22.37 22.74 22.37 27.46 31.72 32.86C32.2723 33.1506 32.4844 33.8339 32.1938 34.3862 32.0874 34.5884 31.9222 34.7536 31.72 34.86L17.16 43.22 21.24 45.58 30.59 40.19 53.19 27.13C53.5402 26.9302 53.9698 26.9302 54.32 27.13L59 29.82Z" fill="#FFFFFF"/></g></svg>