<svg width="75" height="75" viewBox="0 0 75 75" xmlns="http://www.w3.org/2000/svg" xmlns:xlink="http://www.w3.org/1999/xlink" id="Product_Icon" overflow="hidden"><defs><linearGradient x1="112.5" y1="37.5" x2="-37.5" y2="37.5" gradientUnits="userSpaceOnUse" id="OrangeGradient" gradientTransform="matrix(-0.707107 0.707107 -0.707107 -0.707107 90.53 37.5)"><stop offset="0" stop-color="#C8511B"/><stop offset="1" stop-color="#FF9900"/></linearGradient></defs><rect x="0" y="0" width="75" height="75" id="Orange_Gradient" fill="url(#OrangeGradient)"/><g id="Icon_Test"><path d="M57.75 50.59 57.75 43.41C61.018 42.8618 63.2229 39.768 62.6746 36.5 62.1264 33.232 59.0327 31.0271 55.7646 31.5754 53.2409 31.9988 51.2634 33.9762 50.84 36.5L43.66 36.5C43.2328 33.9863 41.2637 32.0172 38.75 31.59L38.75 26.42C42.5763 25.8677 45.2305 22.3181 44.6782 18.4918 44.1259 14.6655 40.5763 12.0113 36.75 12.5636 32.9237 13.1159 30.2695 16.6655 30.8218 20.4918 31.2652 23.5636 33.6782 25.9766 36.75 26.42L36.75 31.59C34.2363 32.0172 32.2672 33.9863 31.84 36.5L25.17 36.5C24.6194 32.9526 21.2974 30.5232 17.75 31.0738 14.2026 31.6244 11.7732 34.9464 12.3238 38.4938 12.758 41.2912 14.9527 43.4858 17.75 43.92L17.75 50.59C14.4826 51.1423 12.2816 54.2387 12.8339 57.5061 13.3862 60.7734 16.4826 62.9744 19.75 62.4222 23.0174 61.8699 25.2184 58.7734 24.6661 55.5061 24.2405 52.9882 22.2679 51.0156 19.75 50.59L19.75 43.92C22.54 43.4782 24.7282 41.29 25.17 38.5L31.84 38.5C32.2672 41.0137 34.2363 42.9828 36.75 43.41L36.75 49.58C33.2029 50.1323 30.7751 53.4555 31.3274 57.0026 31.8797 60.5497 35.2029 62.9775 38.75 62.4252 42.2971 61.8729 44.7249 58.5497 44.1726 55.0026 43.7375 52.2078 41.5449 50.0152 38.75 49.58L38.75 43.41C41.2637 42.9828 43.2328 41.0137 43.66 38.5L50.84 38.5C51.2672 41.0137 53.2363 42.9828 55.75 43.41L55.75 50.59C52.4826 51.1423 50.2816 54.2387 50.8339 57.5061 51.3862 60.7734 54.4826 62.9744 57.75 62.4222 61.0174 61.8699 63.2184 58.7734 62.6661 55.5061 62.2405 52.9882 60.2679 51.0156 57.75 50.59ZM22.75 56.5C22.75 58.7091 20.9591 60.5 18.75 60.5 16.5409 60.5 14.75 58.7091 14.75 56.5 14.75 54.2909 16.5409 52.5 18.75 52.5 20.9591 52.5 22.75 54.2909 22.75 56.5ZM18.75 42C16.2647 42 14.25 39.9853 14.25 37.5 14.25 35.0147 16.2647 33 18.75 33 21.2353 33 23.25 35.0147 23.25 37.5 23.2445 39.983 21.233 41.9945 18.75 42ZM32.75 19.5C32.75 16.7386 34.9886 14.5 37.75 14.5 40.5114 14.5 42.75 16.7386 42.75 19.5 42.75 22.2614 40.5114 24.5 37.75 24.5 34.9886 24.5 32.75 22.2614 32.75 19.5ZM42.25 56C42.25 58.4853 40.2353 60.5 37.75 60.5 35.2647 60.5 33.25 58.4853 33.25 56 33.25 53.5147 35.2647 51.5 37.75 51.5 40.233 51.5055 42.2445 53.517 42.25 56ZM37.75 41.5C35.5409 41.5 33.75 39.7091 33.75 37.5 33.75 35.2909 35.5409 33.5 37.75 33.5 39.9591 33.5 41.75 35.2909 41.75 37.5 41.75 39.7091 39.9591 41.5 37.75 41.5ZM52.75 37.5C52.75 35.2909 54.5409 33.5 56.75 33.5 58.9591 33.5 60.75 35.2909 60.75 37.5 60.75 39.7091 58.9591 41.5 56.75 41.5 54.5409 41.5 52.75 39.7091 52.75 37.5ZM56.75 60.5C54.5409 60.5 52.75 58.7091 52.75 56.5 52.75 54.2909 54.5409 52.5 56.75 52.5 58.9591 52.5 60.75 54.2909 60.75 56.5 60.75 58.7091 58.9591 60.5 56.75 60.5Z" fill="#FFFFFF"/><circle cx="18.75" cy="37.5" r="2" fill="#FFFFFF"/><circle cx="37.75" cy="56" r="2" fill="#FFFFFF"/></g></svg>