<svg width="75" height="75" viewBox="0 0 75 75" xmlns="http://www.w3.org/2000/svg" xmlns:xlink="http://www.w3.org/1999/xlink" overflow="hidden"><defs><linearGradient x1="-20.83" y1="131.69" x2="-20.83" y2="-18.31" gradientUnits="userSpaceOnUse" id="Orange_Gradient" gradientTransform="matrix(0.707107 0.707107 -0.707107 0.707107 92.31 12.14)"><stop offset="0" stop-color="#C8511B"/><stop offset="1" stop-color="#FF9900"/></linearGradient></defs><g id="Working"><rect x="0" y="0" width="75" height="75" id="Green_Gradient" fill="url(#Orange_Gradient)"/><path d="M60.59 23.52 55.89 20.81 54.76 22.81 57.76 24.55 49.88 29.1 49.88 18C49.8903 17.376 49.3928 16.8618 48.7688 16.8515 48.566 16.8482 48.3661 16.8995 48.19 17L38.62 22.53 38.62 13.44 41.62 15.18 42.75 13.23 38.05 10.52C37.7035 10.3199 37.2765 10.3199 36.93 10.52L14.4 23.52C14.044 23.7253 13.8291 24.1092 13.84 24.52L13.84 50.52C13.8291 50.9308 14.044 51.3147 14.4 51.52L19.1 54.23 20.23 52.28 17.23 50.54 25.11 46 25.11 57C25.0997 57.624 25.5972 58.1382 26.2212 58.1485 26.424 58.1518 26.6239 58.1005 26.8 58L36.37 52.47 36.37 61.58 33.37 59.84 32.24 61.84 36.94 64.55C37.2865 64.7501 37.7135 64.7501 38.06 64.55L60.59 51.55C60.946 51.3447 61.1609 50.9608 61.15 50.55L61.15 24.55C61.1723 24.1286 60.9558 23.7304 60.59 23.52ZM38.59 25.15 47.59 19.95 47.59 30.35 41.39 33.92 41.39 32.62C41.39 32.0014 40.8886 31.5 40.27 31.5 40.0703 31.5001 39.8739 31.5518 39.7 31.65L38.58 32.3ZM47.59 32.95 47.59 43.35 38.59 48.55 38.59 41.4 40.84 40.1C41.1976 39.8963 41.4132 39.5114 41.4 39.1L41.4 36.52ZM26.24 29.7 22.11 27.31 20.98 29.31 25.11 31.7 25.11 43.4 19.11 46.87 19.11 46.87 16.11 48.6 16.11 25.15 36.37 13.44 36.37 23.85ZM36.37 26.45 36.37 33.6 34.12 34.9C33.7624 35.1037 33.5468 35.4886 33.56 35.9L33.56 38.5 27.36 42.08 27.36 31.65ZM36.37 49.85 27.37 55.06 27.37 44.65 33.57 41.08 33.57 42.38C33.5568 42.7914 33.7724 43.1763 34.13 43.38 34.4802 43.5798 34.9098 43.5798 35.26 43.38L36.38 42.73ZM35.81 40.43 35.81 36.52 39.19 34.52 39.19 38.43ZM58.9 49.85 38.63 61.56 38.63 51.15 48.76 45.3 52.89 47.69 54 45.74 49.87 43.35 49.87 31.65 58.87 26.45Z" fill="#FFFFFF"/></g></svg>