<svg width="75" height="75" viewBox="0 0 75 75" xmlns="http://www.w3.org/2000/svg" xmlns:xlink="http://www.w3.org/1999/xlink" overflow="hidden"><defs><linearGradient x1="-20.83" y1="131.69" x2="-20.83" y2="-18.31" gradientUnits="userSpaceOnUse" id="Orange_Gradient" gradientTransform="matrix(0.707107 0.707107 -0.707107 0.707107 92.31 12.14)"><stop offset="0" stop-color="#C8511B"/><stop offset="1" stop-color="#FF9900"/></linearGradient></defs><g id="Background"><rect x="0" y="0" width="75" height="75" id="Green_Gradient" fill="url(#Orange_Gradient)"/></g><g id="Working"><path d="M26.76 45 26.76 45 31.45 42.29 30.32 40.29 27.32 42.04 27.32 32.93 27.96 33.31 29.09 31.31 27.32 30.31 27.32 17.92C27.3289 17.5071 27.1099 17.1227 26.75 16.92 26.4027 16.7095 25.9673 16.7095 25.62 16.92L14.32 23.44 14.32 23.44 14.22 23.51 14.22 23.51C13.9573 23.7013 13.7897 23.9964 13.76 24.32L13.76 24.32 13.76 24.32 13.76 24.32 13.76 50.55C13.7512 50.9603 13.9656 51.3431 14.32 51.55L19 54.25 20.13 52.25 17.13 50.51ZM16 37.5 16 26.41 19 28.15 20.13 26.15 17.13 24.41 25.04 19.84 25.04 29 24.39 28.63 23.26 30.63 25.04 31.63 25.04 43.37 16.04 48.59ZM59 48.59 49.4 43.05 49.4 43.05 44.73 40.35 43.6 42.35 46.6 44.08 38.69 48.64 38.69 47.88 36.37 47.88 36.37 49.9 25.67 56.08C25.4814 56.1766 25.325 56.326 25.22 56.51 24.9089 57.0517 25.0917 57.7429 25.63 58.06L36.93 64.58C37.2838 64.7796 37.7162 64.7796 38.07 64.58L60.55 51.58 60.67 51.51C61.0244 51.3031 61.2388 50.9203 61.23 50.51L61.23 45.11 59 45.11ZM38.66 61.59 38.66 58.16 36.37 58.16 36.37 61.64 28.46 57.08 36.37 52.51 36.37 53.27 38.63 53.27 38.63 51.2 48.8 45.33 57.8 50.55ZM60.66 23.42 60.66 23.42 38.06 10.42C37.7062 10.2204 37.2738 10.2204 36.92 10.42L32.21 13.14 33.34 15.14 36.34 13.4 36.34 29.89 38.6 29.89 38.6 26.41 46.54 31 45.88 31.38 47.01 33.38 48.8 32.38 59.54 38.58C60.082 38.8894 60.7722 38.7008 61.0815 38.1588 61.1821 37.9827 61.2333 37.7827 61.23 37.58L61.23 24.58C61.2819 24.1313 61.0617 23.6948 60.67 23.47ZM59 35.54 51.06 31 51.72 30.61 50.59 28.66 48.8 29.66 38.63 23.8 38.63 13.36 41.63 15.1 41.63 15.1 57.82 24.45 54.82 26.19 55.95 28.19 58.95 26.45ZM36.37 42.9 36.37 38.15 32.26 35.78 33.39 33.78 37.5 36.2 41.61 33.82 42.74 35.82 38.63 38.19 38.63 42.9Z" fill="#FFFFFF"/></g></svg>