<svg width="75" height="75" viewBox="0 0 75 75" xmlns="http://www.w3.org/2000/svg" xmlns:xlink="http://www.w3.org/1999/xlink" overflow="hidden"><defs><linearGradient x1="-20.83" y1="131.69" x2="-20.83" y2="-18.31" gradientUnits="userSpaceOnUse" id="Orange_Gradient" gradientTransform="matrix(0.707107 0.707107 -0.707107 0.707107 92.31 12.14)"><stop offset="0" stop-color="#C8511B"/><stop offset="1" stop-color="#FF9900"/></linearGradient></defs><g id="Background"><rect x="0" y="0" width="75" height="75" id="Green_Gradient" fill="url(#Orange_Gradient)"/></g><g id="Working"><path d="M60.67 36.52 51.09 31 55.41 28.5 59.54 30.88 60.67 28.88 57.67 27.15 60.67 25.4 59.54 23.4 56.54 25.15 56.54 21.73 54.26 21.73 54.26 26.54 49.93 29.05 49.93 17.92C49.9432 17.5086 49.7276 17.1237 49.37 16.92 49.0227 16.7095 48.5873 16.7095 48.24 16.92L38.63 22.46 38.63 17.46 42.78 15.07 41.65 13.07 38.65 14.81 38.65 11.4 36.37 11.4 36.37 14.88 33.37 13.14 32.24 15.14 36.39 17.53 36.39 22.53 26.76 17C26.4127 16.7895 25.9773 16.7895 25.63 17 25.2724 17.2037 25.0568 17.5886 25.07 18L25.07 29.05 20.74 26.54 20.74 21.73 18.48 21.73 18.48 25.22 15.48 23.47 14.35 25.47 17.35 27.22 14.35 28.95 15.48 30.95 19.61 28.57 23.91 31 14.33 36.53C13.7777 36.8323 13.5751 37.5251 13.8774 38.0774 13.9819 38.2684 14.139 38.4254 14.33 38.53L23.94 44 19.61 46.49 15.46 44.1 14.33 46.1 17.33 47.84 14.33 49.58 15.46 51.58 18.46 49.84 18.46 53.32 20.72 53.32 20.72 48.48 25.07 46 25.07 57.1C25.0568 57.5114 25.2724 57.8963 25.63 58.1 25.9773 58.3105 26.4127 58.3105 26.76 58.1L36.37 52.56 36.37 57.56 32.22 59.9 33.35 61.9 36.35 60.16 36.35 63.6 38.61 63.6 38.61 60.12 41.61 61.86 42.74 59.86 38.59 57.47 38.59 52.47 48.2 58.01C48.5473 58.2205 48.9827 58.2205 49.33 58.01 49.6876 57.8063 49.9032 57.4214 49.89 57.01L49.89 46 54.22 48.48 54.22 53.25 56.48 53.25 56.48 49.8 59.48 51.53 60.61 49.53 57.61 47.8 60.61 46.05 59.48 44.05 55.31 46.45 51 44 60.64 38.44C61.1923 38.1377 61.3949 37.4449 61.0926 36.8926 60.9881 36.7016 60.831 36.5446 60.64 36.44ZM38.67 25.1 47.67 19.88 47.67 30.37 43.85 32.59 38.63 29.59ZM27.37 19.88 36.37 25.1 36.37 29.58 31.16 32.58 27.33 30.36ZM26.2 42.72 17.2 37.5 26.2 32.3 30 34.55 30 40.55ZM36.37 49.9 27.37 55.12 27.37 44.69 31.19 42.53 36.41 45.53ZM37.5 43.59 32.28 40.59 32.28 34.59 37.5 31.59 42.72 34.59 42.72 40.59ZM47.67 55.12 38.67 49.9 38.67 45.54 43.89 42.54 47.71 44.73ZM48.76 42.74 45 40.57 45 34.57 48.86 32.32 57.86 37.52Z" fill="#FFFFFF"/></g></svg>