<svg width="75" height="75" viewBox="0 0 75 75" xmlns="http://www.w3.org/2000/svg" xmlns:xlink="http://www.w3.org/1999/xlink" overflow="hidden"><defs><linearGradient x1="-20.83" y1="131.69" x2="-20.83" y2="-18.31" gradientUnits="userSpaceOnUse" id="Orange_Gradient" gradientTransform="matrix(0.707107 0.707107 -0.707107 0.707107 92.31 12.14)"><stop offset="0" stop-color="#C8511B"/><stop offset="1" stop-color="#FF9900"/></linearGradient></defs><g id="Background"><rect x="0" y="0" width="75" height="75" id="Green_Gradient" fill="url(#Orange_Gradient)"/></g><g id="Working"><path d="M48.43 19.62 44.29 17.23 45.42 15.23 49.56 17.62ZM61.23 45.62 61.23 45.62 61.23 51.15C61.2367 51.5624 61.0183 51.9457 60.66 52.15L45.43 60.95 45.11 61.13 39.9 64.13 38.77 62.13 39.64 61.63C41.121 60.4509 41.9587 58.6421 41.9 56.75L41.9 56.43C41.9 51.7 38.99 47.07 37.5 45 36.01 47.07 33.1 51.7 33.1 56.43L33.1 56.75C33.0389 58.6404 33.8728 60.4489 35.35 61.63L36 62 34.87 64 29.95 61.15 29.59 60.95 14.34 52.12C13.9817 51.9157 13.7633 51.5324 13.77 51.12L13.77 25.05C13.7654 24.6382 13.9833 24.2559 14.34 24.05L22 19.66C22.4458 19.4084 23.0043 19.4818 23.37 19.84 23.7266 20.2025 23.8 20.7573 23.55 21.2 18.69 29.62 16.18 37.6 16 44.94L16 50.49 23.58 54.87C21.9122 52.022 21.0353 48.7803 21.04 45.48 21.1548 40.703 22.1586 35.9893 24 31.58L21.79 30.31 22.92 28.31 24.87 29.44C27.887 22.8261 31.8631 16.6934 36.67 11.24 37.1096 10.7816 37.8376 10.7664 38.296 11.206 38.3076 11.2171 38.3189 11.2284 38.33 11.24 43.1543 16.7031 47.1441 22.8496 50.17 29.48L52.12 28.35 53.25 30.35 51 31.58C52.8174 35.9939 53.7974 40.7075 53.89 45.48 53.8947 48.7803 53.0178 52.022 51.35 54.87L59 50.49 59 44.94C58.85 37.6 56.34 29.62 51.51 21.2 51.26 20.7573 51.3334 20.2025 51.69 19.84 52.0451 19.5099 52.569 19.4379 53 19.66L60.63 24.07C60.9867 24.2759 61.2046 24.6582 61.2 25.07L61.2 45.61ZM16 32.27C16.9861 29.296 18.1962 26.4011 19.62 23.61L16 25.7ZM45.85 51.47C45.85 42.15 39.78 32.74 37.47 29.47 35.16 32.73 29.09 42.14 29.09 51.47 29.0634 53.8132 29.6939 56.1169 30.91 58.12 30.8462 57.6728 30.8128 57.2217 30.81 56.77L30.81 56.45C30.81 49.28 36.38 42.71 36.61 42.45 37.0233 41.975 37.7434 41.925 38.2183 42.3383 38.2581 42.3729 38.2954 42.4102 38.33 42.45 38.56 42.73 44.13 49.3 44.13 56.45L44.13 56.77C44.1272 57.2217 44.0938 57.6728 44.03 58.12 45.2566 56.12 45.8976 53.8161 45.88 51.47ZM48.11 51.47C48.1125 53.2087 47.8252 54.9357 47.26 56.58 50.0879 53.5776 51.6557 49.6044 51.64 45.48 51.5444 41.1079 50.6497 36.7901 49 32.74L46.68 34.1 45.55 32.1 48.17 30.59C45.3932 24.5128 41.8037 18.8409 37.5 13.73 33.1932 18.8533 29.6037 24.5388 26.83 30.63L29.45 32.14 28.32 34.14 26 32.74C24.3537 36.7907 23.4624 41.1085 23.37 45.48 23.3543 49.6044 24.9221 53.5776 27.75 56.58 27.1848 54.9357 26.8975 53.2087 26.9 51.47 26.9 39.2 36.26 27.38 36.66 26.88 37.0515 26.394 37.7629 26.3174 38.2489 26.7089 38.3119 26.7596 38.3692 26.817 38.42 26.88 38.78 27.38 48.14 39.2 48.14 51.47ZM59 25.7 55.38 23.61C56.8038 26.4011 58.0139 29.296 59 32.27ZM30.71 17.23 29.58 15.23 25.44 17.62 26.57 19.62Z" fill="#FFFFFF"/></g></svg>