<svg width="75" height="75" viewBox="0 0 75 75" xmlns="http://www.w3.org/2000/svg" xmlns:xlink="http://www.w3.org/1999/xlink" overflow="hidden"><defs><linearGradient x1="-20.83" y1="131.69" x2="-20.83" y2="-18.31" gradientUnits="userSpaceOnUse" id="Orange_Gradient" gradientTransform="matrix(0.707107 0.707107 -0.707107 0.707107 92.31 12.14)"><stop offset="0" stop-color="#C8511B"/><stop offset="1" stop-color="#FF9900"/></linearGradient></defs><g id="Background"><rect x="0" y="0" width="75" height="75" id="Green_Gradient" fill="url(#Orange_Gradient)"/></g><g id="Working"><path d="M15.91 37.6 13.64 37.6 13.64 33.55 15.91 33.55ZM34.36 64.33 40.65 64.33 40.65 62.06 34.36 62.06ZM36.36 13.78 36.36 17.28 38.63 17.28 38.63 13.78 41.63 15.53 42.77 13.53 38.03 10.79C37.6798 10.5902 37.2502 10.5902 36.9 10.79L32.2 13.56 33.33 15.56ZM59.09 37.6 61.37 37.6 61.37 33.55 59.09 33.55ZM61.36 47.7C61.1708 51.9644 57.5648 55.2707 53.3 55.09 49.7608 54.9333 47.0175 51.9394 47.17 48.4 47.2942 45.4479 49.788 43.1554 52.7401 43.2796 52.7434 43.2797 52.7467 43.2799 52.75 43.28L52.66 45.55C51.8403 45.5049 51.038 45.7976 50.44 46.36 49.8364 46.9128 49.4768 47.6824 49.44 48.5 49.3862 49.6039 49.7749 50.6837 50.52 51.5 51.2633 52.3109 52.3007 52.7899 53.4 52.83 54.8465 52.9047 56.2614 52.3886 57.32 51.4 58.391 50.4268 59.0283 49.0658 59.09 47.62 59.2538 43.7015 56.2179 40.3884 52.3 40.21 47.2 39.99 43.67 43.21 43.45 48.26L43.45 53.5 49.27 56.86C49.8224 57.1621 50.0254 57.8548 49.7233 58.4072 49.5194 58.7801 49.1249 59.0086 48.7 59L26.31 59C25.6804 58.9932 25.1756 58.4773 25.1824 57.8478 25.1867 57.45 25.398 57.0832 25.74 56.88L31.55 53.52 31.55 48.19C31.33 43.19 27.74 39.98 22.7 40.19 18.7821 40.3684 15.7462 43.6815 15.91 47.6 15.9717 49.0458 16.609 50.4068 17.68 51.38 18.7405 52.3656 20.154 52.8812 21.6 52.81 22.6993 52.7699 23.7367 52.2909 24.48 51.48 25.2251 50.6637 25.6138 49.5839 25.56 48.48 25.5232 47.6624 25.1636 46.8927 24.56 46.34 23.962 45.7776 23.1597 45.4849 22.34 45.53L22.25 43.26C25.2019 43.1304 27.6999 45.4182 27.8296 48.3701 27.8297 48.3734 27.8299 48.3767 27.83 48.38 27.9825 51.9194 25.2392 54.9133 21.7 55.07 17.4352 55.2507 13.8292 51.9444 13.64 47.68 13.4203 42.4987 17.4425 38.1203 22.6238 37.9007 22.6292 37.9004 22.6346 37.9002 22.64 37.9 28.97 37.6 33.59 41.83 33.86 48.12L33.86 52.12 36.41 50.65 36.41 45.65C35.9 36.15 27.41 28.12 15.96 26.21L15.96 29.38 13.65 29.38 13.65 24.93C13.6524 24.606 13.7902 24.2978 14.03 24.08 14.0891 24.0278 14.1526 23.9809 14.22 23.94L19 21.21 20.13 23.21 18.13 24.38C26.41 26.23 33.13 31.15 36.44 37.5L36.44 34.39C36.4496 27.9284 32.7132 22.047 26.86 19.31L25.07 20.31 23.93 18.31 26.22 16.98C26.5279 16.8125 26.8943 16.7905 27.22 16.92 32.0223 19.0047 35.7447 22.9878 37.5 27.92 39.2921 23.0058 43.0388 19.0528 47.85 17 48.1752 16.8676 48.5429 16.8897 48.85 17.06L51.16 18.4 50.02 20.4 48.22 19.4C42.3646 22.136 38.6247 28.0169 38.63 34.48L38.63 34.48 38.63 37.58C42 31.12 48.66 26.2 57 24.35L55 23.18 56.14 21.18 60.87 23.91C60.939 23.9485 61.0028 23.9955 61.06 24.05 61.3066 24.2637 61.4488 24.5736 61.45 24.9L61.45 29.38 59.09 29.38 59.09 26.24C47.68 28.15 39.16 36.17 38.64 45.71L38.64 50.71 41.18 52.18 41.18 48.18C41.45 41.85 46 37.62 52.4 37.92 57.5721 38.1524 61.5803 42.5273 61.36 47.7ZM37.5 52.7 30.55 56.7 44.46 56.7Z" fill="#FFFFFF"/></g></svg>