<svg width="75" height="75" viewBox="0 0 75 75" xmlns="http://www.w3.org/2000/svg" xmlns:xlink="http://www.w3.org/1999/xlink" id="Product_Icon" overflow="hidden"><defs><linearGradient x1="37.5" y1="-37.5" x2="37.5" y2="112.5" gradientUnits="userSpaceOnUse" id="OrangeGradient" gradientTransform="matrix(-0.707107 -0.707107 0.707107 -0.707107 37.5 90.53)"><stop offset="0" stop-color="#C8511B"/><stop offset="1" stop-color="#FF9900"/></linearGradient></defs><rect x="0" y="0" width="75" height="75" id="Orange_Gradient" fill="url(#OrangeGradient)"/><path d="M52.5 47 52.5 45C54.91 45 60.5 44.28 60.5 37.6 60.5 33.6 58.15 31.09 53.5 30.16 53.0522 30.0692 52.7229 29.6864 52.7 29.23 52.47 25.33 50.2 23.94 48.33 23.94 47.0434 23.9525 45.8369 24.5669 45.07 25.6 44.7335 26.0379 44.1057 26.1202 43.6678 25.7837 43.5191 25.6695 43.4055 25.5157 43.34 25.34 42.6936 23.4555 41.6227 21.7448 40.21 20.34 35.9291 15.8981 28.8579 15.7675 24.4159 20.0484 22.2941 22.0933 21.0663 24.8939 21 27.84 21.0014 28.2878 21.0281 28.7352 21.08 29.18 21.1404 29.6804 20.819 30.1476 20.33 30.27 18.15 30.81 14.49 32.47 14.49 37.51 14.49 37.71 14.49 37.89 14.49 38.06 14.8489 42.0948 18.3019 45.1435 22.35 45L23.5 45 23.5 47 22.35 47C17.2576 47.1292 12.9473 43.2661 12.52 38.19 12.52 37.98 12.52 37.76 12.52 37.53 12.3413 33.4021 15.0238 29.693 19 28.57 19 28.33 19 28.09 19 27.84 19.1682 20.5628 25.204 14.7999 32.4811 14.9682 35.9214 15.0477 39.1941 16.4696 41.6 18.93 42.8481 20.1656 43.8643 21.6153 44.6 23.21 45.6519 22.3739 46.9563 21.9191 48.3 21.92 51.1 21.92 54.05 23.92 54.6 28.34 59.68 29.59 62.47 32.85 62.47 37.58 62.5 44.52 57.33 47 52.5 47Z" fill="#FFFFFF"/><path d="M45.5 36.83C42.4956 36.8508 40.077 39.3031 40.0977 42.3075 40.1156 44.8976 41.9573 47.116 44.5 47.61L44.5 52 38.5 52 38.5 34.93C41.4532 34.3777 43.3996 31.5359 42.8473 28.5827 42.295 25.6295 39.4532 23.6831 36.5 24.2354 33.5468 24.7877 31.6004 27.6295 32.1527 30.5827 32.5655 32.7902 34.2925 34.5172 36.5 34.93L36.5 47 30.5 47 30.5 45.07C33.4532 44.5177 35.3996 41.6759 34.8473 38.7227 34.295 35.7695 31.4532 33.8231 28.5 34.3754 25.5468 34.9277 23.6004 37.7695 24.1527 40.7227 24.5655 42.9302 26.2925 44.6572 28.5 45.07L28.5 48C28.5 48.5523 28.9477 49 29.5 49L36.5 49 36.5 60 38.5 60 38.5 54 45.5 54C46.0523 54 46.5 53.5523 46.5 53L46.5 47.61C49.4493 47.0369 51.3756 44.1815 50.8025 41.2323 50.3085 38.6896 48.0902 36.8479 45.5 36.83ZM26.06 39.74C26.0545 37.8401 27.5901 36.2955 29.49 36.29 31.3898 36.2845 32.9344 37.8201 32.94 39.72 32.9455 41.6199 31.4098 43.1645 29.51 43.17 29.5067 43.17 29.5033 43.17 29.5 43.17 27.604 43.17 26.0655 41.636 26.06 39.74ZM34.06 29.59C34.0434 27.6902 35.5701 26.1367 37.4699 26.1201 39.3697 26.1036 40.9232 27.6302 40.9397 29.53 40.9563 31.4298 39.4297 32.9833 37.5299 32.9999 37.5199 33 37.51 33 37.5 33 35.6118 33.0001 34.0765 31.4781 34.06 29.59ZM45.5 45.71C43.6001 45.71 42.06 44.1699 42.06 42.27 42.06 40.3701 43.6001 38.83 45.5 38.83 47.3999 38.83 48.94 40.3701 48.94 42.27 48.94 44.1699 47.3999 45.71 45.5 45.71Z" fill="#FFFFFF"/></svg>