<svg width="75" height="75" viewBox="0 0 75 75" xmlns="http://www.w3.org/2000/svg" xmlns:xlink="http://www.w3.org/1999/xlink" id="Product_Icon" overflow="hidden"><defs><linearGradient x1="37.5" y1="112.5" x2="37.5" y2="-37.5" gradientUnits="userSpaceOnUse" id="OrangeGradient" gradientTransform="matrix(0.707107 0.707107 -0.707107 0.707107 37.5 -15.53)"><stop offset="0" stop-color="#C8511B"/><stop offset="1" stop-color="#FF9900"/></linearGradient></defs><rect x="0" y="0" width="75" height="75" id="Orange_Gradient" fill="url(#OrangeGradient)"/><g id="Icon_Test"><path d="M31.75 35.83 28.92 35.83 28.74 35.83C25.8411 35.3528 23.5486 33.1163 23 30.23 22.44 25.56 25.22 23.38 27.33 22.66 27.3454 20.3125 28.1963 18.0472 29.73 16.27 31.4374 14.308 33.9299 13.2084 36.53 13.27L36.53 13.27C40.188 13.1196 43.5586 15.2446 45 18.61 45.9024 18.0746 46.9713 17.8929 48 18.1 51 18.67 51.83 21.75 51.85 23.3L49.85 23.3C49.85 23.19 49.77 20.45 47.59 20.03 46.7388 19.8654 45.8727 20.2332 45.4 20.96 45.0918 21.4183 44.4704 21.54 44.0121 21.2318 43.7938 21.0849 43.6421 20.8579 43.59 20.6 42.863 17.3509 39.9167 15.0865 36.59 15.22L36.59 15.22C34.5657 15.1709 32.6254 16.0292 31.3 17.56 29.9261 19.1254 29.2538 21.1855 29.44 23.26 29.512 23.7964 29.1442 24.2928 28.61 24.38 28.19 24.46 24.48 25.27 25.04 29.94 25.4828 31.912 27.0545 33.4326 29.04 33.81L31.77 33.81Z" fill="#FFFFFF"/><rect x="37.66" y="34.94" width="6.85" height="2" fill="#FFFFFF"/><rect x="37.66" y="38.86" width="6.85" height="2" fill="#FFFFFF"/><rect x="37.66" y="31" width="6.85" height="2" fill="#FFFFFF"/><path d="M46.14 33C45.5877 33 45.14 32.5523 45.14 32 45.14 31.4477 45.5877 31 46.14 31 46.6923 31 47.14 31.4477 47.14 32 47.14 32.5523 46.6923 33 46.14 33ZM46.14 32 46.14 32Z" fill="#FFFFFF"/><path d="M46.14 36.92C45.5877 36.92 45.14 36.4723 45.14 35.92 45.14 35.3677 45.5877 34.92 46.14 34.92 46.6923 34.92 47.14 35.3677 47.14 35.92 47.14 36.4723 46.6923 36.92 46.14 36.92ZM46.14 35.92 46.14 35.92Z" fill="#FFFFFF"/><path d="M46.14 40.83C45.5877 40.83 45.14 40.3823 45.14 39.83 45.14 39.2777 45.5877 38.83 46.14 38.83 46.6923 38.83 47.14 39.2777 47.14 39.83 47.14 40.3823 46.6923 40.83 46.14 40.83ZM46.14 39.83C46.14 39.83 46.14 39.83 46.14 39.83Z" fill="#FFFFFF"/><path d="M49.06 59.46 35.23 59.46C33.5731 59.46 32.23 58.1169 32.23 56.46L32.23 27.35C32.23 25.6931 33.5731 24.35 35.23 24.35L49.06 24.35C50.7169 24.35 52.06 25.6931 52.06 27.35L52.06 56.46C52.06 58.1169 50.7169 59.46 49.06 59.46ZM35.23 26.35C34.6777 26.35 34.23 26.7977 34.23 27.35L34.23 56.46C34.23 57.0123 34.6777 57.46 35.23 57.46L49.06 57.46C49.6123 57.46 50.06 57.0123 50.06 56.46L50.06 27.35C50.06 26.7977 49.6123 26.35 49.06 26.35Z" fill="#FFFFFF"/><path d="M39.56 61.76 35.33 61.76C34.7777 61.76 34.33 61.3123 34.33 60.76L34.33 58.46C34.33 57.9077 34.7777 57.46 35.33 57.46L39.56 57.46C40.1123 57.46 40.56 57.9077 40.56 58.46L40.56 60.76C40.56 61.3123 40.1123 61.76 39.56 61.76ZM36.33 59.76 38.56 59.76 38.56 59.46 36.33 59.46Z" fill="#FFFFFF"/><path d="M49.38 61.76 45.14 61.76C44.5877 61.76 44.14 61.3123 44.14 60.76L44.14 58.46C44.14 57.9077 44.5877 57.46 45.14 57.46L49.38 57.46C49.9323 57.46 50.38 57.9077 50.38 58.46L50.38 60.76C50.38 61.3123 49.9323 61.76 49.38 61.76ZM46.14 59.76 48.38 59.76 48.38 59.46 46.14 59.46Z" fill="#FFFFFF"/></g></svg>