<svg width="75" height="75" viewBox="0 0 75 75" xmlns="http://www.w3.org/2000/svg" xmlns:xlink="http://www.w3.org/1999/xlink" id="Product_Icon" overflow="hidden"><defs><linearGradient x1="37.5" y1="-37.5" x2="37.5" y2="112.5" gradientUnits="userSpaceOnUse" id="OrangeGradient" gradientTransform="matrix(-0.707107 -0.707107 0.707107 -0.707107 37.5 90.53)"><stop offset="0" stop-color="#C8511B"/><stop offset="1" stop-color="#FF9900"/></linearGradient></defs><rect x="0" y="0" width="75" height="75" id="Orange_Gradient" fill="url(#OrangeGradient)"/><g id="Icon_Test"><path d="M60.5 62.5 48.18 62.5C47.7953 62.4989 47.4454 62.2773 47.28 61.93L29.86 25.5 22.49 25.5C21.9377 25.5 21.49 25.0523 21.49 24.5L21.49 13.5C21.49 12.9477 21.9377 12.5 22.49 12.5L37.89 12.5C38.2747 12.5011 38.6246 12.7227 38.79 13.07L56.13 49.5 60.5 49.5C61.0523 49.5 61.5 49.9477 61.5 50.5L61.5 61.5C61.5 62.0523 61.0523 62.5 60.5 62.5ZM48.81 60.5 59.5 60.5 59.5 51.5 55.5 51.5C55.1153 51.4989 54.7654 51.2773 54.6 50.93L37.26 14.5 23.5 14.5 23.5 23.5 30.5 23.5C30.8847 23.5011 31.2346 23.7227 31.4 24.07Z" fill="#FFFFFF"/><path d="M27.48 62.5 14.48 62.5C14.1345 62.5007 13.8131 62.323 13.63 62.03 13.4356 61.7296 13.4166 61.3483 13.58 61.03L27.18 32.62C27.3454 32.2727 27.6953 32.0511 28.08 32.05L28.08 32.05C28.4624 32.0492 28.8117 32.2666 28.98 32.61L35.49 46C35.6228 46.2748 35.6228 46.5952 35.49 46.87L28.39 61.87C28.2411 62.244 27.8825 62.4923 27.48 62.5ZM16.08 60.5 26.85 60.5 33.48 46.5 28.09 35.35Z" fill="#FFFFFF"/></g></svg>