<svg width="75" height="75" viewBox="0 0 75 75" xmlns="http://www.w3.org/2000/svg" xmlns:xlink="http://www.w3.org/1999/xlink" id="Product_Icon" overflow="hidden"><defs><linearGradient x1="37.5" y1="112.5" x2="37.5" y2="-37.5" gradientUnits="userSpaceOnUse" id="OrangeGradient" gradientTransform="matrix(0.707107 0.707107 -0.707107 0.707107 37.5 -15.53)"><stop offset="0" stop-color="#C8511B"/><stop offset="1" stop-color="#FF9900"/></linearGradient></defs><rect x="0" y="0" width="75" height="75" id="Orange_Gradient" fill="url(#OrangeGradient)"/><g id="Icon_Test"><path d="M22 49.5 45.15 49.5C44.5348 50.2162 43.8662 50.8848 43.15 51.5L22 51.5C16.8087 51.6232 12.4224 47.6756 12 42.5 12 42.28 12 42.06 12 41.83 11.8317 37.6164 14.5927 33.8437 18.66 32.73 18.66 32.47 18.66 32.22 18.66 31.96 18.8458 24.5672 24.9895 18.7249 32.3822 18.9107 34.8887 18.9737 37.3272 19.7392 39.42 21.12 40.2309 21.644 40.9879 22.2469 41.68 22.92L42 23.25C43.1432 24.4374 44.0764 25.8102 44.76 27.31 44.87 27.22 44.99 27.14 45.11 27.06 45.0416 28.0665 44.9148 29.0682 44.73 30.06 44.58 30.105 44.42 30.105 44.27 30.06 43.9098 30.0064 43.6071 29.7613 43.48 29.42 42.814 27.5133 41.7232 25.783 40.29 24.36 35.9059 19.8181 28.67 19.6901 24.1281 24.0742 21.9709 26.1564 20.7182 29.0028 20.64 32 20.6414 32.4611 20.6681 32.9218 20.72 33.38 20.781 33.9059 20.4214 34.3882 19.9 34.48 17.66 35.06 14 36.77 14 41.87 14 42.06 14 42.25 14 42.43 14.3881 46.526 17.8874 49.6184 22 49.5Z" fill="#FFFFFF"/><path d="M63 41.93C63 49 57.74 51.5 52.81 51.5L51.25 51.5 51.36 51.36C51.81 50.77 52.25 50.15 52.67 49.5L52.81 49.5C55.27 49.5 61 48.76 61 41.93 61 37.83 58.59 35.27 53.84 34.31 53.3956 34.2201 53.0673 33.8426 53.04 33.39 53.0764 31.6328 52.3287 29.9505 51 28.8 51.09 28.06 51.14 27.34 51.17 26.65L51.17 26.57C53.4013 27.7699 54.851 30.0409 55 32.57 60.15 33.8 63 37.12 63 41.93Z" fill="#FFFFFF"/><path d="M37 47.5 27 47.5C26.4477 47.5 26 47.0523 26 46.5L26 25.5C26 24.9477 26.4477 24.5 27 24.5L37 24.5C37.5523 24.5 38 24.9477 38 25.5L38 46.5C38 47.0523 37.5523 47.5 37 47.5ZM28 45.5 36 45.5 36 26.5 28 26.5Z" fill="#FFFFFF"/><rect x="29" y="28.5" width="6" height="2" fill="#FFFFFF"/><rect x="29" y="32.5" width="6" height="2" fill="#FFFFFF"/><path d="M50 38.9 45.26 40.82C45.0152 40.913 44.7448 40.913 44.5 40.82 44.2537 40.7162 44.0593 40.5181 43.96 40.27L42.08 35.65 43.93 34.89 44.84 37.15C46.1224 33.7313 46.8973 30.1432 47.14 26.5L47.14 26.17C47.22 22.99 46.51 20.82 45.14 20.24 44.04 19.77 42.66 20.41 41.69 21.03L40.61 19.35C43.1 17.75 44.88 17.95 45.93 18.41 48.07 19.35 49.18 22.1 49.09 26.17L49.09 26.57C48.8347 30.5205 47.9886 34.4104 46.58 38.11L49.25 37Z" fill="#FFFFFF"/><path d="M56.68 45.28 54.8 46 53.89 43.5C52.715 45.8409 51.3398 48.0759 49.78 50.18L48.97 51.18C45.97 54.92 42.97 56.93 40.51 56.93 39.9596 56.9312 39.415 56.8189 38.91 56.6 37.661 55.9922 36.7326 54.8781 36.36 53.54L38.53 53.54C38.7692 54.0741 39.1862 54.5088 39.71 54.77 41.43 55.52 44.39 53.66 47.42 49.92 47.67 49.6 47.93 49.29 48.18 48.92 49.6228 46.9661 50.9005 44.8957 52 42.73L49.57 43.62 48.88 41.74 53.68 40C53.9264 39.8972 54.2036 39.8972 54.45 40 54.6869 40.1126 54.87 40.3137 54.96 40.56Z" fill="#FFFFFF"/></g></svg>