<svg width="75" height="75" viewBox="0 0 75 75" xmlns="http://www.w3.org/2000/svg" xmlns:xlink="http://www.w3.org/1999/xlink" id="Product_Icon" overflow="hidden"><defs><linearGradient x1="112.5" y1="37.5" x2="-37.5" y2="37.5" gradientUnits="userSpaceOnUse" id="PurpleGradient" gradientTransform="matrix(-0.707107 0.707107 -0.707107 -0.707107 90.53 37.5)"><stop offset="0" stop-color="#4D27A8"/><stop offset="1" stop-color="#A166FF"/></linearGradient></defs><rect x="0" y="0" width="75" height="75" id="Purple_Gradient" fill="url(#PurpleGradient)"/><g id="Icon_Test"><path d="M37.64 51C28.4003 51.0055 20.9055 43.5197 20.9 34.28 20.8945 25.0403 28.3803 17.5455 37.62 17.54 46.8597 17.5345 54.3545 25.0203 54.36 34.26 54.36 34.2633 54.36 34.2667 54.36 34.27 54.3545 43.5035 46.8735 50.989 37.64 51ZM37.64 19.55C29.5048 19.5445 22.9055 26.1348 22.9 34.27 22.8945 42.4052 29.4849 49.0045 37.62 49.01 45.7552 49.0155 52.3545 42.4251 52.36 34.29 52.36 34.2833 52.36 34.2767 52.36 34.27 52.349 26.1433 45.7667 19.5565 37.64 19.54Z" fill="#FFFFFF"/><path d="M37.64 27.74C33.3155 27.8591 29.0275 26.9184 25.15 25L26.15 23.26C29.7313 25.0128 33.6843 25.8706 37.67 25.76 41.6525 25.8706 45.6022 25.0127 49.18 23.26L50.18 25C46.2877 26.9272 41.9814 27.8681 37.64 27.74Z" fill="#FFFFFF"/><path d="M49.15 44.91C45.5717 43.1477 41.6171 42.286 37.63 42.4 33.6463 42.2885 29.6956 43.15 26.12 44.91L25.12 43.16C29.0015 41.2307 33.297 40.283 37.63 40.4 41.9557 40.292 46.2426 41.2393 50.12 43.16Z" fill="#FFFFFF"/><path d="M37.64 51C32.9 51 29.19 43.66 29.19 34.28 29.19 24.9 32.9 17.55 37.64 17.55 42.38 17.55 46.08 24.9 46.08 34.28 46.08 43.66 42.37 51 37.64 51ZM37.64 19.55C34.52 19.55 31.19 25.47 31.19 34.28 31.19 43.09 34.52 49 37.64 49 40.76 49 44.08 43.09 44.08 34.28 44.08 25.47 40.75 19.54 37.64 19.54Z" fill="#FFFFFF"/><rect x="36.58" y="37.26" width="2" height="19.47" fill="#FFFFFF"/><path d="M28.28 59.55C26.463 59.5555 24.9855 58.087 24.98 56.27 24.9745 54.453 26.443 52.9756 28.26 52.97 30.077 52.9645 31.5545 54.433 31.56 56.25 31.56 56.2533 31.56 56.2567 31.56 56.26 31.5545 58.0709 30.0908 59.539 28.28 59.55ZM28.28 54.98C27.5676 54.9745 26.9856 55.5476 26.9801 56.26 26.9746 56.9724 27.5477 57.5544 28.2601 57.5599 28.9725 57.5654 29.5545 56.9923 29.56 56.2799 29.5601 56.2733 29.5601 56.2666 29.56 56.26 29.5438 55.5632 28.977 55.0052 28.28 55Z" fill="#FFFFFF"/><path d="M37.56 62.3C35.743 62.3 34.27 60.827 34.27 59.01 34.27 57.193 35.743 55.72 37.56 55.72 39.3731 55.72 40.8445 57.1869 40.85 59 40.85 60.8186 39.3786 62.2945 37.56 62.3ZM37.56 57.73C36.8476 57.7301 36.2701 58.3077 36.2702 59.0202 36.2702 59.7326 36.8479 60.3101 37.5603 60.31 38.2728 60.3099 38.8502 59.7323 38.8502 59.0198 38.8502 59.0132 38.8501 59.0066 38.85 59 38.8391 58.2954 38.2647 57.7299 37.56 57.73Z" fill="#FFFFFF"/><path d="M46.88 59.55C45.063 59.5555 43.5855 58.087 43.58 56.27 43.5745 54.453 45.043 52.9756 46.86 52.97 48.677 52.9645 50.1545 54.433 50.16 56.25 50.16 56.2533 50.16 56.2567 50.16 56.26 50.16 58.0731 48.6931 59.5445 46.88 59.55ZM46.88 54.98C46.1676 54.9745 45.5856 55.5476 45.5801 56.26 45.5746 56.9724 46.1477 57.5544 46.8601 57.5599 47.5725 57.5654 48.1545 56.9923 48.16 56.2799 48.16 56.2733 48.16 56.2666 48.16 56.26 48.1438 55.5632 47.577 55.0052 46.88 55Z" fill="#FFFFFF"/><path d="M47.88 53.82 45.88 53.82 45.88 52.94 37.58 52.94 37.58 50.94 45.86 50.94C47.07 50.94 47.86 51.5 47.86 52.33Z" fill="#FFFFFF"/><path d="M29.28 53.82 27.28 53.82 27.28 52.33C27.28 51.5 28.09 50.94 29.28 50.94L37.56 50.94 37.56 52.94 29.26 52.94Z" fill="#FFFFFF"/><path d="M35.68 40.03 34.26 38.62 37.64 35.25 41.01 38.62 39.59 40.03 37.64 38.08 35.68 40.03Z" fill="#FFFFFF"/><path d="M52.81 49.65 51.39 48.23C59.0586 40.5588 59.0564 28.1234 51.3852 20.4548 43.7139 12.7863 31.2786 12.7885 23.61 20.4597 15.9433 28.129 15.9433 40.5607 23.61 48.23L22.19 49.65C13.7358 41.1945 13.7368 27.4865 22.1923 19.0323 30.6478 10.5781 44.3558 10.5791 52.81 19.0346 61.2633 27.4891 61.2633 41.1954 52.81 49.65Z" fill="#FFFFFF"/><rect x="21.91" y="32.33" width="31.45" height="2" fill="#FFFFFF"/></g></svg>