<svg width="75" height="75" viewBox="0 0 75 75" xmlns="http://www.w3.org/2000/svg" xmlns:xlink="http://www.w3.org/1999/xlink" id="Product_Icon" overflow="hidden"><defs><linearGradient x1="37.49" y1="112.51" x2="37.49" y2="-37.49" gradientUnits="userSpaceOnUse" id="PurpleGradient" gradientTransform="matrix(0.707107 0.707107 -0.707107 0.707107 37.51 -15.53)"><stop offset="0" stop-color="#4D27A8"/><stop offset="1" stop-color="#A166FF"/></linearGradient></defs><rect x="0" y="0" width="75" height="75" id="Purple_Gradient" fill="url(#PurpleGradient)"/><g id="Icon_Test"><path d="M21.23 26.23 20.23 24.47 26.1 21.28 27.1 23.04ZM30.61 21.12 29.61 19.36 34.87 16.48 35.87 18.24Z" fill="#FFFFFF"/><path d="M36 35.59 30.7 32.82 31.62 31.05 36.94 33.82ZM27.15 31 21.83 28.2 22.75 26.43 28.07 29.2Z" fill="#FFFFFF"/><path d="M39.92 35.47 39 33.67 44.43 31 45.31 32.79ZM48.92 31.06 48 29.27 53.38 26.62 54.26 28.42Z" fill="#FFFFFF"/><path d="M35.41 59.16 29.41 55.99 30.34 54.22 36.34 57.39ZM26.41 54.5 21.13 51.66 22.08 49.9 27.36 52.74Z" fill="#FFFFFF"/><rect x="19.04" y="28.84" width="2" height="7.7" fill="#FFFFFF"/><rect x="36.6" y="48.79" width="2" height="7.88" fill="#FFFFFF"/><path d="M20 29.64C18.5072 29.6345 17.3 28.4228 17.3 26.93 17.3036 26.2008 17.6032 25.5042 18.13 25 19.2061 23.9495 20.9239 23.9495 22 25L22 25C23.0549 26.0383 23.0683 27.7351 22.03 28.79 22.0201 28.8001 22.0101 28.8101 22 28.82 21.4802 29.3652 20.7529 29.6633 20 29.64ZM20 26.23C19.6246 26.2188 19.3112 26.514 19.3 26.8894 19.2996 26.9029 19.2996 26.9165 19.3 26.93 19.2973 27.1167 19.3693 27.2967 19.5 27.43 19.7784 27.7061 20.2279 27.7043 20.5041 27.4259 20.635 27.294 20.7089 27.1159 20.71 26.93 20.7048 26.743 20.6299 26.5646 20.5 26.43 20.3644 26.3029 20.1859 26.2315 20 26.23Z" fill="#FFFFFF"/><path d="M20 52C18.5033 51.9931 17.2956 50.7742 17.3025 49.2776 17.3058 48.5662 17.5886 47.8846 18.09 47.38 19.1597 46.3616 20.8403 46.3616 21.91 47.38L21.91 47.38C22.9676 48.4233 22.9792 50.1265 21.9359 51.1841 21.9273 51.1928 21.9187 51.2014 21.91 51.21 21.4052 51.7191 20.7169 52.0038 20 52ZM20 48.59C19.6134 48.59 19.3 48.9033 19.2999 49.2899 19.2999 49.2933 19.3 49.2966 19.3 49.3 19.2999 49.6866 19.6133 50 19.9999 50.0001 20.1881 50.0001 20.3683 49.9244 20.5 49.79 20.7761 49.5274 20.7871 49.0906 20.5245 48.8145 20.5165 48.8061 20.5084 48.798 20.5 48.79L20.5 48.79C20.3604 48.6738 20.1811 48.6165 20 48.63Z" fill="#FFFFFF"/><path d="M37.6 61C36.1088 60.9991 34.9007 59.7895 34.9016 58.2984 34.9025 56.8072 36.1121 55.5991 37.6032 55.6 38.3184 55.6004 39.0041 55.8845 39.51 56.39 40.5649 57.444 40.5656 59.1535 39.5116 60.2084 39.0048 60.7156 38.317 61.0004 37.6 61ZM37.6 57.6C37.4141 57.6015 37.2356 57.6729 37.1 57.8 36.8216 58.0761 36.8198 58.5257 37.0959 58.8041 37.3721 59.0825 37.8216 59.0843 38.1 58.8082 38.3784 58.532 38.3802 58.0825 38.1041 57.8041 38.1027 57.8027 38.1014 57.8014 38.1 57.8 37.9659 57.6693 37.7872 57.5942 37.6 57.59Z" fill="#FFFFFF"/><path d="M37.6 38.57C36.1033 38.5714 34.8889 37.3592 34.8875 35.8625 34.8861 34.3658 36.0983 33.1514 37.595 33.15 39.0917 33.1486 40.3061 34.3608 40.3075 35.8575 40.3082 36.5789 40.0211 37.2709 39.51 37.78 39.0027 38.2853 38.316 38.5693 37.6 38.57ZM37.6 35.16C37.208 35.1676 36.8963 35.4915 36.9038 35.8836 36.9072 36.0613 36.9772 36.2314 37.1 36.36 37.379 36.6292 37.821 36.6292 38.1 36.36 38.3707 36.0763 38.3601 35.6269 38.0764 35.3562 37.9478 35.2334 37.7778 35.1634 37.6 35.16Z" fill="#FFFFFF"/><path d="M55 52C54.2826 52.0061 53.5935 51.721 53.09 51.21 52.0324 50.1588 52.0272 48.4493 53.0784 47.3916 53.0822 47.3877 53.0861 47.3839 53.09 47.38 54.1597 46.3616 55.8403 46.3616 56.91 47.38 57.9649 48.4417 57.9593 50.1576 56.8976 51.2125 56.3929 51.7139 55.7114 51.9967 55 52ZM55 48.59C54.6079 48.5877 54.2882 48.9038 54.2859 49.2959 54.2837 49.688 54.5997 50.0077 54.9918 50.01 55.3839 50.0122 55.7036 49.6962 55.7059 49.3041 55.707 49.1154 55.6329 48.934 55.5 48.8 55.3619 48.6802 55.1825 48.6192 55 48.63Z" fill="#FFFFFF"/><path d="M55 29.64C54.2812 29.6434 53.5918 29.3547 53.09 28.84 52.0351 27.7939 52.0281 26.0907 53.0742 25.0358 53.0794 25.0305 53.0847 25.0252 53.09 25.02 54.1597 24.0016 55.8403 24.0016 56.91 25.02L56.91 25.02C57.96 26.0769 57.96 27.7831 56.91 28.84 56.4082 29.3547 55.7188 29.6434 55 29.64ZM55 26.23C54.8141 26.2315 54.6356 26.3029 54.5 26.43 54.2308 26.709 54.2308 27.151 54.5 27.43 54.7768 27.7046 55.2232 27.7046 55.5 27.43 55.7692 27.151 55.7692 26.709 55.5 26.43 55.3644 26.3029 55.1859 26.2315 55 26.23Z" fill="#FFFFFF"/><path d="M37.6 19.41C36.1088 19.4091 34.9007 18.1995 34.9016 16.7084 34.9025 15.2172 36.1121 14.0091 37.6032 14.01 38.3184 14.0104 39.0041 14.2945 39.51 14.8 40.5649 15.854 40.5656 17.5635 39.5116 18.6184 39.0048 19.1256 38.317 19.4104 37.6 19.41ZM37.6 16.01C37.4141 16.0115 37.2356 16.0829 37.1 16.21 36.8216 16.4861 36.8198 16.9357 37.0959 17.2141 37.3721 17.4925 37.8216 17.4943 38.1 17.2182 38.3784 16.942 38.3802 16.4925 38.1041 16.2141 38.1027 16.2127 38.1014 16.2114 38.1 16.21 37.9659 16.0793 37.7872 16.0042 37.6 16Z" fill="#FFFFFF"/><rect x="19.04" y="38.54" width="2" height="8.65" fill="#FFFFFF"/><rect x="53.85" y="28.84" width="2" height="7.7" fill="#FFFFFF"/><rect x="53.85" y="38.54" width="2" height="8.65" fill="#FFFFFF"/><path d="M48.15 23 49.15 21.25 54.89 24.31 53.89 26.07ZM38.56 17.81 39.56 16.06 45.64 19.33 44.64 21.08Z" fill="#FFFFFF"/><rect x="36.6" y="37.75" width="2" height="7.91" fill="#FFFFFF"/><path d="M38.91 57.4 44.69 54.4 45.62 56.18 39.84 59.18ZM47.65 52.91 53.37 49.91 54.37 51.67 48.65 54.67Z" fill="#FFFFFF"/></g></svg>