<svg width="75" height="75" viewBox="0 0 75 75" xmlns="http://www.w3.org/2000/svg" xmlns:xlink="http://www.w3.org/1999/xlink" id="Product_Icon" overflow="hidden"><defs><linearGradient x1="-15.53" y1="90.53" x2="90.53" y2="-15.53" gradientUnits="userSpaceOnUse" id="PurpleGradient"><stop offset="0" stop-color="#4D27A8"/><stop offset="1" stop-color="#A166FF"/></linearGradient></defs><rect x="0" y="0" width="75" height="75" id="Purple_Gradient" fill="url(#PurpleGradient)"/><g id="Icon_Test"><path d="M45.5 58.43 29.5 58.43C27.8431 58.43 26.5 57.0869 26.5 55.43L26.5 43.21C26.5 41.5531 27.8431 40.21 29.5 40.21L45.5 40.21C47.1569 40.21 48.5 41.5531 48.5 43.21L48.5 55.42C48.5055 57.0768 47.1669 58.4245 45.51 58.43 45.5067 58.43 45.5033 58.43 45.5 58.43ZM29.5 42.2C28.9477 42.2 28.5 42.6477 28.5 43.2L28.5 55.42C28.5 55.9723 28.9477 56.42 29.5 56.42L45.5 56.42C46.0523 56.42 46.5 55.9723 46.5 55.42L46.5 43.21C46.5 42.6577 46.0523 42.21 45.5 42.21Z" fill="#FFFFFF"/><path d="M44.89 39 42.89 39 42.89 36.68C42.89 35.0231 41.5469 33.68 39.89 33.68L35.09 33.68C33.4331 33.68 32.09 35.0231 32.09 36.68L32.09 39 30.09 39 30.09 36.68C30.09 33.9186 32.3286 31.68 35.09 31.68L39.89 31.68C42.6514 31.68 44.89 33.9186 44.89 36.68Z" fill="#FFFFFF"/><path d="M37.53 55C35.4534 54.9879 33.7799 53.2947 33.792 51.2181 33.7995 49.9418 34.4539 48.7564 35.53 48.07L35.53 45.69C35.53 44.5661 36.4411 43.655 37.565 43.655 38.6889 43.655 39.6 44.5661 39.6 45.69L39.6 48.05C41.3454 49.1852 41.8402 51.5204 40.705 53.2658 40.0202 54.3188 38.8559 54.9615 37.6 54.98ZM37.53 45.68 37.53 48.68C37.5263 49.0862 37.2773 49.4497 36.9 49.6 35.9989 49.9645 35.5639 50.9905 35.9284 51.8916 36.2929 52.7927 37.3189 53.2276 38.22 52.8631 39.1211 52.4986 39.5561 51.4727 39.1916 50.5716 39.0127 50.1295 38.6621 49.7788 38.22 49.6 37.8466 49.4466 37.602 49.0837 37.6 48.68L37.6 45.68Z" fill="#FFFFFF"/><path d="M53.19 48.88 49.48 48.88 49.48 46.88 53.11 46.88C53.3 46.88 59.93 46.2 59.93 39.36 59.93 33.62 55.19 32.19 53.15 31.84 52.611 31.7481 52.2457 31.2403 52.33 30.7 52.33 30.7 52.33 30.57 52.33 30.56 52.6995 28.7663 51.7122 26.9697 50 26.32 48.34 25.58 46 25.66 44.89 27.22 44.6631 27.5368 44.2728 27.6929 43.89 27.62 43.5212 27.5663 43.2128 27.3119 43.09 26.96 42.4737 25.0912 41.4489 23.3832 40.09 21.96 36.9346 18.6143 32.0078 17.6313 27.81 19.51 23.9778 21.3927 21.5026 25.2421 21.38 29.51 21.3817 29.9645 21.4084 30.4185 21.46 30.87 21.5412 31.3907 21.2043 31.8851 20.69 32 17.2684 32.7074 14.8789 35.8112 15.07 39.3 15.07 39.52 15.07 39.73 15.07 39.93 15.4053 43.8861 18.7401 46.9109 22.71 46.86L25.5 46.86 25.5 48.86 22.73 48.86C17.7064 48.9127 13.4991 45.068 13.1 40.06 13.1 39.81 13.1 39.56 13.1 39.3 12.8929 35.1897 15.5247 31.4713 19.47 30.3 19.47 30.04 19.47 29.79 19.47 29.54 19.5759 24.4618 22.5357 19.8771 27.12 17.69 32.0651 15.4916 37.8583 16.6406 41.59 20.56 42.843 21.8143 43.8593 23.2846 44.59 24.9 46.5049 23.7057 48.8934 23.559 50.94 24.51 53.2199 25.3949 54.6697 27.6484 54.53 30.09 57.1 30.74 62.03 32.86 62.03 39.38 61.93 46.33 56.21 48.63 53.19 48.88Z" fill="#FFFFFF"/></g></svg>