<svg width="75" height="75" viewBox="0 0 75 75" xmlns="http://www.w3.org/2000/svg" xmlns:xlink="http://www.w3.org/1999/xlink" id="Product_Icon" overflow="hidden"><defs><linearGradient x1="37.5" y1="-37.5" x2="37.5" y2="112.5" gradientUnits="userSpaceOnUse" id="PurpleGradient" gradientTransform="matrix(-0.707107 -0.707107 0.707107 -0.707107 37.5 90.53)"><stop offset="0" stop-color="#4D27A8"/><stop offset="1" stop-color="#A166FF"/></linearGradient></defs><rect x="0" y="0" width="75" height="75" id="Purple_Gradient" fill="url(#PurpleGradient)"/><g id="Icon_Test"><path d="M46.24 47.89 41.5 47.89 41.5 45.89 45.76 45.89C46.5459 45.9188 47.3234 45.7209 48 45.32 49.1519 44.6051 49.8633 43.3554 49.89 42 49.8881 39.8153 48.1813 38.012 46 37.89L38.92 37.89C38.5206 37.896 38.1225 37.9361 37.73 38.01 36.2168 38.4787 35.0454 39.6841 34.62 41.21 34.5101 41.5867 34.4561 41.9776 34.46 42.37 34.4582 43.0384 34.6086 43.6984 34.9 44.3L32.9 45.3C32.4572 44.3908 32.2313 43.3913 32.24 42.38 32.2381 41.7956 32.3154 41.2136 32.47 40.65 32.7303 39.5004 33.3294 38.4554 34.19 37.65 34.7007 37.1909 35.2813 36.8162 35.91 36.54 36.6609 36.2399 37.4422 36.0219 38.24 35.89 38.76 35.89 38.62 35.89 46.36 35.89 49.496 35.9838 52.0162 38.504 52.11 41.64 52.11 43.97 51.41 46.02 49.19 47.22 48.2779 47.6859 47.2638 47.9162 46.24 47.89ZM37.9 49C38.2978 48.7556 38.6668 48.4671 39 48.14 40.128 47.0134 40.7613 45.4842 40.76 43.89 40.7705 43.6968 40.7705 43.5032 40.76 43.31 40.5983 41.6813 39.7783 40.1894 38.49 39.18L37.2 40.76C38.0629 41.4333 38.6123 42.4308 38.72 43.52 38.72 43.64 38.72 43.76 38.72 43.9 38.7182 44.9626 38.2936 45.9809 37.54 46.73 37.3249 46.9467 37.083 47.1349 36.82 47.29 36.199 47.6864 35.4767 47.8948 34.74 47.89L27.23 47.89C25.0209 47.89 23.23 46.0991 23.23 43.89 23.23 41.6809 25.0209 39.89 27.23 39.89L31.5 39.89 31.5 37.89 27.23 37.89C23.9163 37.89 21.23 40.5763 21.23 43.89 21.23 47.2037 23.9163 49.89 27.23 49.89L34.76 49.89C35.8697 49.8956 36.9583 49.587 37.9 49ZM63.5 44.6C63.5 39.68 60.6 36.3 55.31 35 54.9 31.75 53.16 29.39 50.55 28.59 48.6039 27.9982 46.4911 28.4103 44.91 29.69 44.138 28.0109 43.0673 26.4861 41.75 25.19 36.4748 19.7813 27.8138 19.6731 22.4051 24.9483 19.8401 27.4499 18.359 30.858 18.28 34.44 18.28 34.71 18.28 34.97 18.28 35.24 14.1292 36.3728 11.3096 40.2207 11.48 44.52 11.48 44.76 11.48 44.98 11.48 45.21 11.76 50.21 15.96 53.9 21.48 53.9L53.48 53.9C60 53.89 63.5 50.59 63.5 44.59ZM20.36 35.84C20.3082 35.3718 20.2814 34.9011 20.28 34.43 20.4465 27.9815 25.8091 22.8889 32.2576 23.0554 35.3215 23.1346 38.2315 24.4148 40.36 26.62 41.8257 28.073 42.9406 29.8412 43.62 31.79 43.7442 32.1352 44.0474 32.3846 44.41 32.44 44.7691 32.4933 45.1289 32.3479 45.35 32.06 46.4088 30.6016 48.2739 29.9719 50 30.49 52 31.1 53.24 33.1 53.41 35.86 53.4373 36.3126 53.7656 36.6901 54.21 36.78 59.07 37.78 61.53 40.39 61.53 44.59 61.53 49.44 58.84 51.89 53.53 51.89L21.53 51.89C17.13 51.89 13.77 49.03 13.53 45.09 13.53 44.9 13.53 44.71 13.53 44.51 13.53 39.29 17.28 37.51 19.53 36.95 20.0598 36.8628 20.4262 36.3728 20.36 35.84Z" fill="#FFFFFF"/></g></svg>