<svg width="75" height="75" viewBox="0 0 75 75" xmlns="http://www.w3.org/2000/svg" xmlns:xlink="http://www.w3.org/1999/xlink" id="Product_Icon" overflow="hidden"><defs><linearGradient x1="-37.5" y1="37.5" x2="112.5" y2="37.5" gradientUnits="userSpaceOnUse" id="PurpleGradient" gradientTransform="matrix(0.707107 -0.707107 0.707107 0.707107 -15.53 37.5)"><stop offset="0" stop-color="#4D27A8"/><stop offset="1" stop-color="#A166FF"/></linearGradient></defs><rect x="0" y="0" width="75" height="75" id="Purple_Gradient" fill="url(#PurpleGradient)"/><g id="Icon_Test"><path d="M48.31 39.86 48.31 39.86C47.9988 39.8569 47.7067 39.709 47.52 39.46 46.95 38.67 41.93 31.7 41.93 28.46 41.7904 24.9337 44.5359 21.9618 48.0623 21.8223 51.5886 21.6827 54.5604 24.4282 54.7 27.9545 54.7067 28.123 54.7067 28.2916 54.7 28.46 54.7 31.68 49.7 38.65 49.11 39.46 48.9211 39.7118 48.6248 39.86 48.31 39.86ZM48.31 24.05C45.8673 24.0555 43.89 26.0373 43.89 28.48 43.89 30.18 46.35 34.32 48.31 37.18 50.31 34.32 52.74 30.18 52.74 28.48 52.74 26.0334 50.7566 24.05 48.31 24.05Z" fill="#FFFFFF"/><path d="M48.31 31.9C46.4212 31.9 44.89 30.3688 44.89 28.48 44.89 26.5912 46.4212 25.06 48.31 25.06 50.1988 25.06 51.73 26.5912 51.73 28.48 51.73 28.4833 51.73 28.4867 51.73 28.49 51.73 30.3733 50.2033 31.9 48.32 31.9 48.3167 31.9 48.3133 31.9 48.31 31.9ZM48.31 27.03C47.5037 27.03 46.85 27.6837 46.85 28.49 46.85 29.2963 47.5037 29.95 48.31 29.95 49.1163 29.95 49.77 29.2963 49.77 28.49 49.7866 27.6838 49.1465 27.0169 48.3403 27.0003 48.3302 27.0001 48.3201 27 48.31 27Z" fill="#FFFFFF"/><path d="M53.3 53.75 22.62 53.75C17.5705 53.8079 13.3394 49.944 12.94 44.91 12.94 44.66 12.94 44.41 12.94 44.15 12.7352 40.0088 15.3862 36.2635 19.36 35.08 19.36 34.82 19.36 34.56 19.36 34.3 19.452 29.1955 22.4054 24.5759 27 22.35 31.9756 20.1458 37.7997 21.3066 41.55 25.25L40.16 26.63C36.9754 23.2559 32.0051 22.265 27.77 24.16 23.8949 26.0625 21.3924 29.9548 21.27 34.27 21.2698 34.7315 21.2998 35.1925 21.36 35.65 21.4104 36.1654 21.0589 36.6341 20.55 36.73 17.0946 37.4555 14.6861 40.5946 14.88 44.12 14.88 44.33 14.88 44.55 14.88 44.75 15.211 48.751 18.5858 51.811 22.6 51.75L53.2 51.75C53.41 51.75 60.1 51.07 60.1 44.15 60.1 38.34 55.31 36.89 53.25 36.54L53.58 34.61C55.58 34.95 62.06 36.61 62.06 44.15 62.08 52.93 53.39 53.74 53.3 53.75Z" fill="#FFFFFF"/><path d="M30 32 20.82 32 20.82 30 29 30 29 22.2 31 22.2 31 31C31 31.5523 30.5523 32 30 32Z" fill="#FFFFFF"/><path d="M17.78 50.59 16.44 49.16 28.68 37.69 28.68 36.52 20.44 36.52 20.44 34.52 29.66 34.52C30.2123 34.52 30.66 34.9677 30.66 35.52L30.66 38.09C30.659 38.3622 30.547 38.6222 30.35 38.81Z" fill="#FFFFFF"/><path d="M20.49 53 19.14 51.58 29.29 41.85C29.7045 41.485 30.3364 41.5252 30.7014 41.9397 30.8529 42.1119 30.9407 42.3308 30.95 42.56L30.95 52.77 29 52.77 29 44.84Z" fill="#FFFFFF"/><path d="M40.56 38.48 34.38 38.48C33.8277 38.48 33.38 38.0323 33.38 37.48L33.38 22.2 35.38 22.2 35.38 36.52 39.6 36.52 39.6 29 41.6 29 41.6 37.5C41.5894 38.0522 41.1332 38.4912 40.581 38.4806 40.574 38.4805 40.567 38.4803 40.56 38.48Z" fill="#FFFFFF"/><path d="M40.56 47.28 34.38 47.28C33.8277 47.28 33.38 46.8323 33.38 46.28L33.38 40.5C33.38 39.9477 33.8277 39.5 34.38 39.5L40.56 39.5C41.1123 39.5 41.56 39.9477 41.56 40.5L41.56 46.3C41.5491 46.8445 41.1046 47.2801 40.56 47.28ZM35.36 45.28 39.58 45.28 39.58 41.48 35.36 41.48Z" fill="#FFFFFF"/><path d="M40.62 53.75 34.44 53.75C33.8877 53.75 33.44 53.3023 33.44 52.75L33.44 49.28C33.44 48.7277 33.8877 48.28 34.44 48.28L40.62 48.28C41.1723 48.28 41.62 48.7277 41.62 49.28L41.62 52.77C41.6091 53.3145 41.1646 53.7501 40.62 53.75ZM35.42 51.75 39.64 51.75 39.64 50.26 35.42 50.26Z" fill="#FFFFFF"/><path d="M46.12 53.1 44.12 53.1 44.12 42.22C44.12 41.6677 44.5677 41.22 45.12 41.22L61.12 41.22 61.12 43.22 46.12 43.22Z" fill="#FFFFFF"/></g></svg>