<svg viewBox="0 0 75 75" xmlns="http://www.w3.org/2000/svg" xmlns:xlink="http://www.w3.org/1999/xlink" overflow="hidden"><defs><linearGradient x1="-1472.53" y1="1415.47" x2="-1366.47" y2="1521.53" gradientUnits="userSpaceOnUse" id="PurpleGradient" gradientTransform="matrix(0 -1 1 0 -1431 -1382)"><stop offset="0" stop-color="#4D27A8"/><stop offset="1" stop-color="#A166FF"/></linearGradient></defs><g id="Reference"><rect x="0" y="0" width="75" height="75" id="Orange_Gradient" fill="url(#PurpleGradient)"/><g id="Icon_Test"><path d="M49.54 38.5C50.0923 41.8905 53.2886 44.1914 56.6791 43.6391 60.0696 43.0868 62.3705 39.8905 61.8182 36.5 61.2659 33.1095 58.0696 30.8086 54.6791 31.3609 52.0393 31.7909 49.97 33.8602 49.54 36.5L42.08 36.5C41.9643 34.6588 41.4887 32.8582 40.68 31.2L49.68 23.59C52.3737 25.7218 56.2856 25.2663 58.4174 22.5726 60.5492 19.8789 60.0937 15.9671 57.4 13.8352 54.7063 11.7034 50.7944 12.1589 48.6626 14.8526 47.7915 15.9533 47.3183 17.3163 47.32 18.72 47.3083 19.9275 47.6564 21.1111 48.32 22.12L39.62 29.45C35.1741 22.7894 26.1705 20.9939 19.5098 25.4398 12.8492 29.8857 11.0538 38.8894 15.4997 45.55 19.9456 52.2106 28.9492 54.0061 35.6098 49.5602 37.1975 48.5004 38.5603 47.1376 39.62 45.55L48.32 52.88C47.6564 53.8889 47.3083 55.0725 47.32 56.28 47.3186 59.7097 50.0978 62.4911 53.5275 62.4925 56.9571 62.4939 59.7386 59.7148 59.74 56.2851 59.7414 52.8554 56.9622 50.0739 53.5325 50.0725 52.1344 50.072 50.777 50.5432 49.68 51.41L40.68 43.8C41.4887 42.1418 41.9643 40.3412 42.08 38.5ZM55.66 33.28C57.9906 33.2745 59.8845 35.1594 59.89 37.49 59.8955 39.8206 58.0106 41.7145 55.68 41.72 53.3494 41.7255 51.4555 39.8406 51.45 37.51 51.45 37.5067 51.45 37.5033 51.45 37.5 51.45 35.1733 53.3333 33.2855 55.66 33.28ZM53.58 14.5C55.9106 14.5 57.8 16.3894 57.8 18.72 57.8 21.0506 55.9106 22.94 53.58 22.94 51.2494 22.94 49.36 21.0506 49.36 18.72 49.36 16.3894 51.2494 14.5 53.58 14.5ZM53.58 52.07C55.9106 52.07 57.8 53.9594 57.8 56.29 57.8 58.6207 55.9106 60.51 53.58 60.51 51.2493 60.51 49.36 58.6206 49.36 56.29 49.36 56.2867 49.36 56.2833 49.36 56.28 49.3655 53.9533 51.2533 52.07 53.58 52.07ZM27.62 50C20.7164 50 15.12 44.4036 15.12 37.5 15.12 30.5964 20.7164 25 27.62 25 34.5236 25 40.12 30.5964 40.12 37.5 40.109 44.399 34.519 49.989 27.62 50Z" fill="#FFFFFF"/></g></g></svg>