<svg width="75" height="75" viewBox="0 0 75 75" xmlns="http://www.w3.org/2000/svg" xmlns:xlink="http://www.w3.org/1999/xlink" id="Product_Icon" overflow="hidden"><defs><linearGradient x1="90.53" y1="-15.53" x2="-15.54" y2="90.54" gradientUnits="userSpaceOnUse" id="RedGradient" gradientTransform="matrix(-1 0 -0 -1 75 75)"><stop offset="0" stop-color="#BD0816"/><stop offset="1" stop-color="#FF5252"/></linearGradient></defs><rect x="0" y="0" width="75" height="75" id="Red_Gradient" fill="url(#RedGradient)"/><g id="Icon_Test"><path d="M55 15 16.46 15C14.3059 15.1131 12.648 16.9454 12.75 19.1L12.75 43.9C12.648 46.0546 14.3059 47.8869 16.46 48L37.75 48 37.75 46 16.46 46C15.4307 45.8511 14.6873 44.9381 14.75 43.9L14.75 27 32.75 27 32.75 42C32.75 42.5523 33.1977 43 33.75 43L41.75 43 41.75 41 35.2 41 35.2 40.7C35.1946 37.272 37.4447 34.2488 40.73 33.27 42.292 33.9851 44.0879 33.9851 45.65 33.27 47.4943 33.8266 49.0682 35.0445 50.07 36.69L51.77 35.69 51.77 35.69C50.7404 34.0092 49.2279 32.6779 47.43 31.87 48.2504 30.896 48.7002 29.6635 48.7 28.39 48.7 25.3524 46.2376 22.89 43.2 22.89 40.1624 22.89 37.7 25.3524 37.7 28.39 37.7261 29.6428 38.1855 30.8478 39 31.8 37.2693 32.5675 35.802 33.8262 34.78 35.42L34.78 22 51.78 22 51.78 35.7 51.78 35.7 51.78 36 53.78 36 53.78 27 56.78 27 56.78 37 58.78 37 58.78 19.1C58.8807 16.9374 57.2092 15.1026 55.0466 15.0019 55.0311 15.0012 55.0155 15.0005 55 15ZM43.2 24.87C45.1219 24.8589 46.6889 26.408 46.7 28.3299 46.7 28.3299 46.7 28.33 46.7 28.33 46.6914 29.586 45.9971 30.7368 44.89 31.33 43.8321 31.9007 42.5579 31.9007 41.5 31.33 40.3983 30.7325 39.7087 29.5832 39.7 28.33 39.711 26.4081 41.278 24.859 43.1999 24.87 43.1999 24.87 43.2 24.87 43.2 24.87ZM53.75 25 53.75 21C53.75 20.4477 53.3023 20 52.75 20L33.75 20C33.1977 20 32.75 20.4477 32.75 21L32.75 25 14.75 25 14.75 19.1C14.6873 18.0619 15.4307 17.1489 16.46 17L55 17C56.0373 17.1395 56.7917 18.0552 56.73 19.1L56.73 25Z" fill="#FFFFFF"/><rect x="16.77" y="31.95" width="10.98" height="2" fill="#FFFFFF"/><rect x="16.77" y="36.95" width="6.98" height="2" fill="#FFFFFF"/><rect x="25.77" y="36.95" width="2.98" height="2" fill="#FFFFFF"/><path d="M51.78 35.65 51.78 35.65 51.78 35.65Z" fill="#FFFFFF"/><path d="M52.14 60.05C46.5565 60.0767 42.0084 55.5721 41.9817 49.9885 41.955 44.405 46.4596 39.857 52.0432 39.8302 52.4834 39.8281 52.9233 39.8548 53.36 39.91L53.36 39.91C58.907 40.5951 62.8483 45.6472 62.1632 51.1942 61.9203 53.1606 61.1056 55.0124 59.82 56.52 58.8836 57.5974 57.7368 58.472 56.45 59.09 55.1008 59.7212 53.6296 60.0489 52.14 60.05ZM52.14 41.83C50.8556 41.8294 49.5899 42.1381 48.45 42.73 44.4744 44.7931 42.9241 49.6884 44.9872 53.664 46.9882 57.5199 51.6721 59.1143 55.61 57.28 56.6484 56.7875 57.5717 56.0823 58.32 55.21 61.2299 51.805 60.8286 46.6857 57.4235 43.7758 56.2093 42.7381 54.7157 42.0821 53.13 41.89L53.13 41.89C52.7949 41.8493 52.4576 41.8292 52.12 41.83Z" fill="#FFFFFF"/><path d="M50.55 54.2 50.55 54.2C50.2842 54.2015 50.0287 54.0972 49.84 53.91L46.61 50.68 48 49.27 50.52 51.79 56.22 46.08 57.64 47.5 51.22 53.91C51.0412 54.0877 50.8019 54.1912 50.55 54.2Z" fill="#FFFFFF"/><path d="M51.78 35.65 51.78 35.65 51.78 35.65Z" fill="#FFFFFF"/></g></svg>