<svg width="75" height="75" viewBox="0 0 75 75" xmlns="http://www.w3.org/2000/svg" xmlns:xlink="http://www.w3.org/1999/xlink" id="Product_Icon" overflow="hidden"><defs><linearGradient x1="-15.53" y1="90.53" x2="90.53" y2="-15.53" gradientUnits="userSpaceOnUse" id="RedGradient"><stop offset="0" stop-color="#BD0816"/><stop offset="1" stop-color="#FF5252"/></linearGradient></defs><rect x="0" y="0" width="75" height="75" id="Red_Gradient" fill="url(#RedGradient)"/><g id="Icon_Test"><path d="M60.94 52.74 49.28 42.24C54.2234 32.6658 50.4695 20.897 40.8953 15.9536 31.3211 11.0101 19.5523 14.7641 14.6089 24.3382 9.66543 33.9124 13.4194 45.6813 22.9936 50.6247 29.3193 53.8909 36.9219 53.4522 42.83 49.48L54.44 60C56.3753 61.8598 59.4519 61.7986 61.3117 59.8633 63.1715 57.928 63.1103 54.8514 61.175 52.9916 61.099 52.9185 61.0206 52.848 60.94 52.78ZM14.54 33.3C14.54 23.6737 22.3437 15.87 31.97 15.87 41.5963 15.87 49.4 23.6737 49.4 33.3 49.4 42.9146 41.6146 50.7134 32 50.73 22.3737 50.7466 14.5566 42.9563 14.54 33.33 14.54 33.32 14.54 33.31 14.54 33.3ZM59.75 58.21C58.7191 59.3399 56.9706 59.4291 55.83 58.41L44.51 48.2C45.9346 47.0075 47.1807 45.6166 48.21 44.07L59.55 54.28C60.6811 55.3144 60.7703 57.0661 59.75 58.21Z" fill="#FFFFFF"/><path d="M32 18.8C23.9919 18.8 17.5 25.2919 17.5 33.3 17.5 41.3081 23.9919 47.8 32 47.8 40.0081 47.8 46.5 41.3081 46.5 33.3 46.489 25.2964 40.0036 18.811 32 18.8ZM32 45.73C25.1351 45.7303 19.5698 40.1654 19.5695 33.3005 19.5692 26.4356 25.1341 20.8703 31.999 20.87 38.8639 20.8697 44.4292 26.4346 44.4295 33.2995 44.4296 34.9953 44.0826 36.6732 43.41 38.23L36.71 37.23C36.3385 36.0303 35.5559 34.9999 34.5 34.32L34.5 30.92C36.7967 30.4924 38.3119 28.2839 37.8842 25.9872 37.4566 23.6905 35.2481 22.1753 32.9514 22.6029 30.6547 23.0306 29.1395 25.2391 29.5672 27.5358 29.8564 29.0893 30.9875 30.3521 32.5 30.81L32.5 33.59C32.2234 33.5343 31.9422 33.5042 31.66 33.5 30.3751 33.5058 29.1369 33.9825 28.18 34.84L26.12 32.77C26.6165 31.9322 26.8725 30.9738 26.86 30 26.8667 28.1615 25.9306 26.4479 24.38 25.46L23.3 27.16C24.8795 28.1754 25.3368 30.2791 24.3214 31.8586 23.6955 32.8322 22.6174 33.4205 21.46 33.42L21.46 35.42C22.6281 35.4172 23.763 35.0307 24.69 34.32L26.87 36.51C26.5146 37.2215 26.3265 38.0047 26.32 38.8 26.3564 41.7214 28.7542 44.0601 31.6756 44.0236 34.322 43.9906 36.5368 42.0069 36.86 39.38L42.31 40.18C40.0132 43.6328 36.1469 45.7141 32 45.73ZM31.66 35.53C33.4715 35.5245 34.9445 36.9885 34.95 38.8 34.9555 40.6115 33.4915 42.0845 31.68 42.09 29.8685 42.0955 28.3955 40.6315 28.39 38.82 28.39 38.8133 28.39 38.8067 28.39 38.8 28.3952 37.0117 29.8319 35.5573 31.62 35.53ZM33.66 28.92C32.4947 28.9145 31.5545 27.9653 31.56 26.8 31.5655 25.6347 32.5147 24.6945 33.68 24.7 34.8414 24.7056 35.78 25.6486 35.78 26.81 35.7801 27.9753 34.8354 28.92 33.6701 28.9201 33.6634 28.9201 33.6567 28.9201 33.65 28.92Z" fill="#FFFFFF"/></g></svg>