<svg width="75" height="75" viewBox="0 0 75 75" xmlns="http://www.w3.org/2000/svg" xmlns:xlink="http://www.w3.org/1999/xlink" id="Product_Icon" overflow="hidden"><defs><linearGradient x1="90.53" y1="90.53" x2="-15.53" y2="-15.53" gradientUnits="userSpaceOnUse" id="RedGradient" gradientTransform="matrix(0 1 -1 0 75 0)"><stop offset="0" stop-color="#BD0816"/><stop offset="1" stop-color="#FF5252"/></linearGradient></defs><rect x="0" y="0" width="75" height="75" id="Red_Gradient" fill="url(#RedGradient)"/><g id="Icon_Test"><path d="M47.49 48.72 47.49 45.5C47.49 44.9477 47.0423 44.5 46.49 44.5L38.49 44.5 38.49 41.23C41.7574 40.6777 43.9584 37.5813 43.4061 34.3139 42.8538 31.0466 39.7574 28.8456 36.49 29.3978 33.2226 29.9501 31.0216 33.0466 31.5739 36.3139 31.9995 38.8318 33.9721 40.8044 36.49 41.23L36.49 44.5 28.49 44.5C27.9377 44.5 27.49 44.9477 27.49 45.5L27.49 48.72C25.6261 49.2723 24.5627 51.231 25.115 53.095 25.6673 54.9589 27.6261 56.0222 29.49 55.4699 31.3539 54.9176 32.4173 52.9589 31.865 51.095 31.5264 49.9523 30.6327 49.0586 29.49 48.72L29.49 46.5 36.49 46.5 36.49 48.72C34.6318 49.2723 33.5732 51.2264 34.1255 53.0845 34.6777 54.9427 36.6318 56.0014 38.49 55.4491 40.3482 54.8968 41.4068 52.9427 40.8545 51.0845 40.5166 49.9474 39.6271 49.058 38.49 48.72L38.49 46.5 45.49 46.5 45.49 48.72C43.6261 49.2723 42.5628 51.231 43.115 53.095 43.6673 54.9589 45.6261 56.0222 47.49 55.4699 49.3539 54.9176 50.4173 52.9589 49.865 51.095 49.5264 49.9523 48.6327 49.0586 47.49 48.72ZM30 52.07C30 52.8984 29.3284 53.57 28.5 53.57 27.6716 53.57 27 52.8984 27 52.07 27 51.2416 27.6716 50.57 28.5 50.57 29.3284 50.57 30 51.2416 30 52.07ZM39 52.07C39 52.8984 38.3284 53.57 37.5 53.57 36.6716 53.57 36 52.8984 36 52.07 36 51.2416 36.6716 50.57 37.5 50.57 38.3284 50.57 39 51.2416 39 52.07ZM37.5 39.32C35.2909 39.32 33.5 37.5291 33.5 35.32 33.5 33.1109 35.2909 31.32 37.5 31.32 39.7091 31.32 41.5 33.1109 41.5 35.32 41.5 37.5252 39.7152 39.3145 37.51 39.32ZM46.5 53.57C45.6716 53.57 45 52.8984 45 52.07 45 51.2416 45.6716 50.57 46.5 50.57 47.3284 50.57 48 51.2416 48 52.07 48 52.8945 47.3345 53.5645 46.51 53.57Z" fill="#FFFFFF"/><path d="M52.51 19.32C52.5194 19.3527 52.5194 19.3873 52.51 19.42L52.51 19.32Z" fill="#FFFFFF"/><path d="M37.51 12.5C29.27 12.5 20.51 14.89 20.51 19.32L20.51 19.32 20.51 55.68C20.51 60.11 29.28 62.5 37.51 62.5 45.74 62.5 54.51 60.11 54.51 55.68L54.51 19.46C54.5197 19.4138 54.5197 19.3662 54.51 19.32 54.51 14.89 45.74 12.5 37.51 12.5ZM52.51 55.68C52.51 57.68 46.8 60.5 37.51 60.5 28.22 60.5 22.51 57.7 22.51 55.68L22.51 22.68C25.56 24.96 31.67 26.16 37.51 26.16 43.35 26.16 49.43 24.96 52.51 22.69ZM52.51 19.42C52.34 21.42 46.67 24.13 37.51 24.13 28.21 24.13 22.51 21.33 22.51 19.32 22.51 17.31 28.21 14.5 37.51 14.5 46.81 14.5 52.51 17.3 52.51 19.32 52.5131 19.3546 52.5062 19.3893 52.49 19.42Z" fill="#FFFFFF"/></g></svg>