<svg width="75" height="75" viewBox="0 0 75 75" xmlns="http://www.w3.org/2000/svg" xmlns:xlink="http://www.w3.org/1999/xlink" id="Product_Icon" overflow="hidden"><defs><linearGradient x1="-15.53" y1="90.53" x2="90.53" y2="-15.53" gradientUnits="userSpaceOnUse" id="RedGradient"><stop offset="0" stop-color="#BD0816"/><stop offset="1" stop-color="#FF5252"/></linearGradient></defs><rect x="0" y="0" width="75" height="75" id="Red_Gradient" fill="url(#RedGradient)"/><g id="Icon_Test"><path d="M42.27 62.5 32.73 62.5C32.4543 62.5017 32.1902 62.3895 32 62.19 31.8099 61.9882 31.7122 61.7166 31.73 61.44L31.91 58.3C30.1038 57.8153 28.3691 57.0958 26.75 56.16L24.65 58.51C24.4656 58.7144 24.2052 58.8338 23.93 58.84 23.6573 58.8469 23.3936 58.7422 23.2 58.55L16.45 51.8C16.2578 51.6064 16.1531 51.3427 16.16 51.07 16.1662 50.7948 16.2856 50.5344 16.49 50.35L18.84 48.25C17.9073 46.6306 17.1912 44.8958 16.71 43.09L13.56 43.27C13.2834 43.2878 13.0118 43.1901 12.81 43 12.6105 42.8098 12.4983 42.5457 12.5 42.27L12.5 32.73C12.4983 32.4543 12.6105 32.1902 12.81 32 13.0118 31.8099 13.2834 31.7122 13.56 31.73L16.72 31.91C17.2022 30.1062 17.9218 28.3744 18.86 26.76L16.49 24.65C16.2856 24.4656 16.1662 24.2052 16.16 23.93 16.1531 23.6573 16.2578 23.3936 16.45 23.2L23.2 16.45C23.3936 16.2578 23.6573 16.1531 23.93 16.16 24.2052 16.1662 24.4656 16.2856 24.65 16.49L26.76 18.85C28.3767 17.9191 30.108 17.203 31.91 16.72L31.73 13.56C31.7122 13.2834 31.8099 13.0118 32 12.81 32.1902 12.6105 32.4543 12.4983 32.73 12.5L42.27 12.5C42.5457 12.4983 42.8098 12.6105 43 12.81 43.1901 13.0118 43.2878 13.2834 43.27 13.56L43.09 16.72C44.8924 17.2065 46.6236 17.9259 48.24 18.86L50.35 16.49C50.5344 16.2856 50.7948 16.1662 51.07 16.16 51.3417 16.1586 51.6034 16.2625 51.8 16.45L58.55 23.2C58.7422 23.3936 58.8469 23.6573 58.84 23.93 58.8338 24.2052 58.7144 24.4656 58.51 24.65L56.15 26.75C57.0842 28.3699 57.8036 30.1044 58.29 31.91L61.44 31.73C61.7166 31.7122 61.9882 31.8099 62.19 32 62.3895 32.1902 62.5017 32.4543 62.5 32.73L62.5 42.27C62.5017 42.5457 62.3895 42.8098 62.19 43 61.9841 43.1832 61.7154 43.28 61.44 43.27L58.29 43.09C57.8079 44.8971 57.0883 46.6322 56.15 48.25L58.51 50.35C58.7144 50.5344 58.8338 50.7948 58.84 51.07 58.8469 51.3427 58.7422 51.6064 58.55 51.8L51.8 58.55C51.6064 58.7422 51.3427 58.8469 51.07 58.84 50.7948 58.8338 50.5344 58.7144 50.35 58.51L48.26 56.16C46.6387 57.0984 44.9002 57.818 43.09 58.3L43.27 61.44C43.2878 61.7166 43.1901 61.9882 43 62.19 42.8098 62.3895 42.5457 62.5017 42.27 62.5ZM33.79 60.5 41.21 60.5 41 57.59C40.9883 57.1133 41.3148 56.6948 41.78 56.59 43.9599 56.0846 46.0367 55.2085 47.92 54 48.3333 53.7391 48.8747 53.8153 49.2 54.18L51.14 56.36 56.39 51.11 54.2 49.11C53.8697 48.8012 53.7877 48.3092 54 47.91 55.1862 46.0412 56.0388 43.9806 56.52 41.82 56.6248 41.3548 57.0433 41.0284 57.52 41.04L60.45 41.21 60.45 33.79 57.57 34C57.0933 34.0117 56.6748 33.6852 56.57 33.22 56.069 31.0451 55.1998 28.9719 54 27.09 53.7391 26.6767 53.8153 26.1353 54.18 25.81L56.37 23.86 51.12 18.61 49.12 20.81C48.8057 21.1468 48.3019 21.2253 47.9 21 46.0305 19.8221 43.9746 18.97 41.82 18.48 41.3548 18.3752 41.0283 17.9567 41.04 17.48L41.21 14.54 33.79 14.54 34 17.44C34.0117 17.9167 33.6852 18.3352 33.22 18.44 31.0482 18.9358 28.978 19.8018 27.1 21 26.6867 21.2609 26.1453 21.1847 25.82 20.82L23.82 18.63 18.57 23.88 20.77 25.88C21.1204 26.1841 21.2156 26.6892 21 27.1 19.8149 28.9669 18.9592 31.0235 18.47 33.18 18.3652 33.6452 17.9467 33.9716 17.47 33.96L14.54 33.79 14.54 41.21 17.42 41C17.8967 40.9883 18.3152 41.3148 18.42 41.78 18.9205 43.9567 19.7934 46.0305 21 47.91 21.2609 48.3233 21.1847 48.8647 20.82 49.19L18.64 51.19 23.89 56.44 25.84 54.26C26.1399 53.884 26.665 53.7748 27.09 54 28.9605 55.1852 31.0203 56.041 33.18 56.53 33.6452 56.6348 33.9716 57.0533 33.96 57.53ZM37.5 52.68C25.64 52.68 25.5 40.06 25.5 39.93L25.5 27C25.502 26.5963 25.7466 26.2334 26.12 26.08L37.12 21.54C37.3615 21.4305 37.6385 21.4305 37.88 21.54L48.88 26.08C49.2534 26.2334 49.498 26.5963 49.5 27L49.5 40C49.5 40.09 49.36 52.68 37.5 52.68ZM27.5 27.68 27.5 39.93C27.5 40.37 27.65 50.68 37.5 50.68 47.35 50.68 47.5 40.4 47.5 40L47.5 27.71 37.5 23.58ZM37.5 48.54C31.15 48.54 29.58 40.7 29.5 40.36 29.4951 40.3001 29.4951 40.2399 29.5 40.18L29.5 30.33C29.4996 29.9202 29.7493 29.5516 30.13 29.4L37.13 26.57C37.3676 26.4754 37.6324 26.4754 37.87 26.57L44.87 29.4C45.2507 29.5516 45.5004 29.9202 45.5 30.33L45.5 40.21C45.5049 40.2699 45.5049 40.3301 45.5 40.39 45.42 40.73 43.85 48.57 37.5 48.57ZM38.5 29 38.5 46.47C42.14 45.7 43.35 40.8 43.5 40.1L43.5 31ZM31.5 40.12C31.66 40.82 32.88 45.71 36.5 46.49L36.5 29 31.5 31Z" fill="#FFFFFF"/></g></svg>