<svg width="75" height="75" viewBox="0 0 75 75" xmlns="http://www.w3.org/2000/svg" xmlns:xlink="http://www.w3.org/1999/xlink" id="Product_Icon" overflow="hidden"><defs><linearGradient x1="37.5" y1="112.5" x2="37.5" y2="-37.5" gradientUnits="userSpaceOnUse" id="RedGradient" gradientTransform="matrix(0.707107 0.707107 -0.707107 0.707107 37.5 -15.53)"><stop offset="0" stop-color="#BD0816"/><stop offset="1" stop-color="#FF5252"/></linearGradient></defs><rect x="0" y="0" width="75" height="75" id="Red_Gradient" fill="url(#RedGradient)"/><g id="Icon_Test"><path d="M37.22 49.57C36.22 49.57 35.02 48.38 32.94 45.15 30.94 48.3 30.1 49.15 29.26 49.15 28.04 49.15 27.07 47.55 24.81 43.44 24.1537 42.1815 23.4293 40.9597 22.64 39.78 21.82 40.36 20.04 42 18.69 43.24 13.35 48.16 11.37 49.79 10.11 48.69 9.43 48.11 9.8 47.19 10.11 46.44 11.9703 42.3367 14.0396 38.3314 16.31 34.44 21.47 25.44 22.11 25.44 22.79 25.44 23.79 25.44 24.39 26.39 28.89 34.32 30 36.35 31.52 39 33 41.37L33.39 40.74C37.92 33.41 39.57 31.11 41.09 31.19 41.93 31.19 43.47 32.13 46.15 34.1 49.52 28.1 50.94 25.94 52.35 25.94 55.1 25.94 61.99 38.33 63.88 42.62 65.77 46.91 65.47 48.15 64.88 48.83 63.78 50.03 62.19 49.07 51.78 40.92 50.23 39.71 48.47 38.33 46.78 37.08 42 45.55 39.51 49.54 37.24 49.57ZM34.12 43.24C35.49 45.43 36.68 47.14 37.3 47.52 38.83 47.1 42.84 39.93 45.12 35.83 43.8441 34.8122 42.4629 33.9338 41 33.21 39.9 33.87 36.85 38.81 35 41.8 34.71 42.32 34.41 42.82 34.12 43.27ZM47.72 35.24C49.17 36.35 50.9 37.69 52.93 39.24 56.54 42.06 61.32 45.8 63.25 46.84 62.65 43.23 54.79 29.44 52.33 27.9 51.44 28.74 49.43 32.24 47.72 35.31ZM22.72 37.5 22.72 37.5C23.72 37.5 24.5 38.78 26.47 42.36 27.2668 43.912 28.1724 45.4058 29.18 46.83 30.0827 45.6693 30.9174 44.4573 31.68 43.2 30.43 41.2 28.92 38.54 27.04 35.2 25.46 32.42 23.56 29.07 22.62 27.74 20.54 30.43 14.32 41.49 12.28 46 13.73 44.88 15.82 43 17.28 41.64 21 38.39 21.93 37.57 22.76 37.57ZM41.09 33.1 52.09 27.84Z" fill="#FFFFFF"/></g></svg>