<svg width="75" height="75" viewBox="0 0 75 75" xmlns="http://www.w3.org/2000/svg" xmlns:xlink="http://www.w3.org/1999/xlink" id="Product_Icon" overflow="hidden"><defs><linearGradient x1="-15.54" y1="-15.53" x2="90.53" y2="90.54" gradientUnits="userSpaceOnUse" id="RedGradient" gradientTransform="matrix(0 -1 1 0 0 75)"><stop offset="0" stop-color="#BD0816"/><stop offset="1" stop-color="#FF5252"/></linearGradient></defs><rect x="0" y="0" width="75" height="75" id="Red_Gradient" fill="url(#RedGradient)"/><g id="Icon_Test"><rect x="54.52" y="47.08" width="2" height="16.91" fill="#FFFFFF" transform="matrix(0.707107 -0.707107 0.707107 0.707107 -23.01 55.53)"/><rect x="19.13" y="10.77" width="2" height="18.74" fill="#FFFFFF" transform="matrix(0.707107 -0.707107 0.707107 0.707107 -8.35 20.13)"/><rect x="15.05" y="54.05" width="9.9" height="2" fill="#FFFFFF" transform="matrix(0.707107 -0.707107 0.707107 0.707107 -33.07 30.27)"/><rect x="50.05" y="19.05" width="9.9" height="2" fill="#FFFFFF" transform="matrix(0.707107 -0.707107 0.707107 0.707107 1.93 44.76)"/><path d="M60.46 36.52C60.2737 32.0405 58.775 27.7146 56.15 24.08L54.53 25.26C56.9079 28.5509 58.2737 32.4642 58.46 36.52L56.46 36.52 56.46 38.52 58.46 38.52C58.2947 42.5983 56.9274 46.5366 54.53 49.84L56.15 51C58.7941 47.3528 60.2943 43.0018 60.46 38.5L62.46 38.5 62.46 36.5Z" fill="#FFFFFF"/><path d="M25.21 20.52C28.5069 18.1319 32.4328 16.7653 36.5 16.59L36.5 18.52 38.5 18.52 38.5 16.59C42.5672 16.7653 46.4931 18.1319 49.79 20.52L51 18.9C47.3502 16.2607 43.0008 14.761 38.5 14.59L38.5 12.52 36.5 12.52 36.5 14.59C31.9992 14.761 27.6498 16.2607 24 18.9Z" fill="#FFFFFF"/><path d="M49.79 54.58C46.4931 56.9681 42.5672 58.3347 38.5 58.51L38.5 56.51 36.5 56.51 36.5 58.51C32.4328 58.3347 28.5069 56.9681 25.21 54.58L24 56.2C27.6498 58.8393 31.9992 60.339 36.5 60.51L36.5 62.51 38.5 62.51 38.5 60.51C43.0008 60.339 47.3502 58.8393 51 56.2Z" fill="#FFFFFF"/><path d="M18.85 51 20.47 49.82C18.0726 46.5166 16.7053 42.5783 16.54 38.5L18.54 38.5 18.54 36.5 16.54 36.5C16.7263 32.4442 18.0921 28.5309 20.47 25.24L18.85 24.06C16.225 27.6946 14.7263 32.0205 14.54 36.5L12.54 36.5 12.54 38.5 14.54 38.5C14.7057 43.0018 16.2059 47.3528 18.85 51Z" fill="#FFFFFF"/><path d="M42.39 24.25C41.0176 23.1101 39.2839 22.4967 37.5 22.52L37.5 22.52C33.64 22.52 30.5 25.25 30.5 28.61L30.5 33.52 28.5 33.52C27.9477 33.52 27.5 33.9677 27.5 34.52L27.5 48.52C27.4985 48.7858 27.6028 49.0413 27.79 49.23 27.9787 49.4172 28.2342 49.5215 28.5 49.52L46.5 49.52C47.0523 49.52 47.5 49.0723 47.5 48.52L47.5 34.52C47.4989 34.2577 47.3947 34.0063 47.21 33.82 47.0229 33.6291 46.7672 33.5211 46.5 33.52L44.5 33.52 44.5 28.62C44.4814 26.9221 43.7081 25.3205 42.39 24.25ZM32.5 28.61C32.5 26.35 34.75 24.52 37.5 24.52L37.5 24.52C38.8099 24.4987 40.0851 24.9415 41.1 25.77 41.9683 26.4647 42.4846 27.5082 42.51 28.62L42.51 33.52 32.51 33.52ZM45.5 38.52 42.5 38.52 42.5 40.52 45.5 40.52 45.5 42.52 42.5 42.52 42.5 44.52 45.5 44.52 45.5 47.52 29.5 47.52 29.5 35.52 45.5 35.52Z" fill="#FFFFFF"/><path d="M36.5 42.76 36.5 45.52 38.5 45.52 38.5 42.76C40.021 42.2077 40.8064 40.527 40.2541 39.0059 39.7018 37.4849 38.021 36.6996 36.5 37.2519 34.979 37.8041 34.1936 39.4849 34.7459 41.0059 35.0421 41.8215 35.6844 42.4639 36.5 42.76ZM37.5 38.94C38.0964 38.9346 38.5844 39.4137 38.5898 40.0101 38.5952 40.6066 38.1161 41.0945 37.5196 41.0999 36.9232 41.1053 36.4353 40.6262 36.4299 40.0298 36.4298 40.0198 36.4298 40.0099 36.43 40 36.4355 39.413 36.9129 38.94 37.5 38.94Z" fill="#FFFFFF"/></g></svg>