<svg width="75" height="75" viewBox="0 0 75 75" xmlns="http://www.w3.org/2000/svg" xmlns:xlink="http://www.w3.org/1999/xlink" id="Product_Icon" overflow="hidden"><defs><linearGradient x1="90.53" y1="90.54" x2="-15.54" y2="-15.53" gradientUnits="userSpaceOnUse" id="RedGradient" gradientTransform="matrix(0 1 -1 0 75 0)"><stop offset="0" stop-color="#BD0816"/><stop offset="1" stop-color="#FF5252"/></linearGradient></defs><rect x="0" y="0" width="75" height="75" id="Red_Gradient" fill="url(#RedGradient)"/><g id="Icon_Test"><path d="M37.5 21.65C35.0423 21.6555 33.0455 19.6677 33.04 17.21 33.0345 14.7523 35.0224 12.7555 37.48 12.75 39.9377 12.7445 41.9345 14.7324 41.94 17.19 41.94 17.1967 41.94 17.2033 41.94 17.21 41.94 19.6621 39.9521 21.65 37.5 21.65ZM37.5 14.76C36.1469 14.7545 35.0455 15.8469 35.04 17.2 35.0345 18.5531 36.1269 19.6544 37.48 19.66 38.8331 19.6655 39.9345 18.5731 39.94 17.22 39.94 17.2167 39.94 17.2133 39.94 17.21 39.94 15.8608 38.8492 14.7655 37.5 14.76Z" fill="#FFFFFF"/><path d="M55.37 29.39C52.9123 29.3953 50.9157 27.4073 50.9104 24.9496 50.9051 22.4919 52.8931 20.4953 55.3508 20.49 57.8085 20.4847 59.8051 22.4728 59.8104 24.9304 59.8104 24.9536 59.8103 24.9768 59.81 25 59.7826 27.4326 57.8027 29.3902 55.37 29.39ZM55.37 22.5C54.0169 22.4948 52.9158 23.5874 52.9105 24.9405 52.9053 26.2936 53.9979 27.3947 55.351 27.4 56.6883 27.4051 57.7827 26.337 57.81 25 57.8376 23.6472 56.7633 22.5281 55.4105 22.5005 55.397 22.5002 55.3835 22.5001 55.37 22.5Z" fill="#FFFFFF"/><path d="M19.93 53.42C17.4723 53.4255 15.4756 51.4376 15.4701 48.9799 15.4646 46.5222 17.4525 44.5255 19.9102 44.52 22.3679 44.5146 24.3646 46.5024 24.3701 48.9601 24.3701 48.9734 24.3701 48.9867 24.37 49 24.359 51.4443 22.3744 53.42 19.93 53.42ZM19.93 46.53C18.5769 46.5245 17.4756 47.617 17.4701 48.9701 17.4646 50.3232 18.5571 51.4245 19.9102 51.43 21.2593 51.4354 22.359 50.3491 22.37 49 22.3811 47.6469 21.2932 46.5411 19.9401 46.5301 19.9367 46.53 19.9334 46.53 19.93 46.53Z" fill="#FFFFFF"/><path d="M37.5 62.24C35.0423 62.2455 33.0455 60.2577 33.04 57.8 33.0345 55.3424 35.0223 53.3455 37.48 53.34 39.9377 53.3345 41.9345 55.3224 41.94 57.78 41.94 57.7833 41.94 57.7867 41.94 57.79 41.94 60.2438 39.9538 62.2345 37.5 62.24ZM37.5 55.35C36.1469 55.3445 35.0456 56.4369 35.04 57.79 35.0345 59.1431 36.127 60.2444 37.48 60.25 38.8331 60.2555 39.9345 59.163 39.94 57.81 39.94 57.8033 39.94 57.7967 39.94 57.79 39.9345 56.4447 38.8453 55.3555 37.5 55.35Z" fill="#FFFFFF"/><path d="M19.63 29.14C17.1723 29.14 15.18 27.1477 15.18 24.69 15.18 22.2323 17.1724 20.24 19.63 20.24 22.0877 20.24 24.08 22.2323 24.08 24.69 24.08 24.6933 24.08 24.6967 24.08 24.7 24.08 27.1521 22.0922 29.14 19.64 29.14 19.6367 29.14 19.6333 29.14 19.63 29.14ZM19.63 22.25C18.2769 22.25 17.18 23.3469 17.18 24.7 17.18 26.0531 18.2769 27.15 19.63 27.15 20.9831 27.15 22.08 26.0531 22.08 24.7 22.08 23.3469 20.9831 22.25 19.63 22.25Z" fill="#FFFFFF"/><rect x="24.45" y="25.29" width="2" height="6.56" fill="#FFFFFF" transform="matrix(0.574291 -0.818651 0.818651 0.574291 -12.56 33)"/><rect x="46.4" y="26.85" width="6.65" height="2" fill="#FFFFFF" transform="matrix(0.905272 -0.424832 0.424832 0.905272 -7.12 23.76)"/><rect x="22.58" y="44.48" width="5.8" height="2" fill="#FFFFFF" transform="matrix(0.820152 -0.572146 0.572146 0.820152 -21.44 22.76)"/><rect x="36.5" y="21.47" width="2" height="4.12" fill="#FFFFFF"/><rect x="36.5" y="49.83" width="2" height="4.24" fill="#FFFFFF"/><path d="M55.37 52.83C52.9123 52.8355 50.9155 50.8477 50.91 48.39 50.9045 45.9323 52.8924 43.9355 55.35 43.93 57.8077 43.9245 59.8045 45.9124 59.81 48.37 59.81 48.3767 59.81 48.3833 59.81 48.39 59.81 50.8421 57.8221 52.83 55.37 52.83ZM55.37 45.94C54.0169 45.9345 52.9155 47.0269 52.91 48.38 52.9045 49.7331 53.9969 50.8344 55.35 50.84 56.7031 50.8455 57.8045 49.7531 57.81 48.4 57.81 48.3967 57.81 48.3933 57.81 48.39 57.81 47.0408 56.7192 45.9455 55.37 45.94Z" fill="#FFFFFF"/><rect x="49.05" y="42.45" width="2" height="5.22" fill="#FFFFFF" transform="matrix(0.572432 -0.819952 0.819952 0.572432 -15.55 60.3)"/><path d="M37.56 50.15C30.5736 50.15 24.91 44.4864 24.91 37.5 24.91 30.5136 30.5736 24.85 37.56 24.85 44.5464 24.85 50.21 30.5136 50.21 37.5 50.2045 44.4841 44.5441 50.1445 37.56 50.15ZM37.56 26.85C31.6782 26.85 26.91 31.6182 26.91 37.5 26.91 43.3818 31.6782 48.15 37.56 48.15 43.4418 48.15 48.21 43.3818 48.21 37.5 48.199 31.6227 43.4373 26.861 37.56 26.85Z" fill="#FFFFFF"/><path d="M37.8 47.31C31.8 47.31 30.15 42.02 30.15 39.22L30.15 31.44C30.152 31.0363 30.3966 30.6734 30.77 30.52L37.41 27.77C37.6564 27.6672 37.9336 27.6672 38.18 27.77L44.82 30.52C45.1934 30.6734 45.438 31.0363 45.44 31.44L45.44 39.24C45.44 42 43.84 47.31 37.8 47.31ZM32.15 32.11 32.15 39.22C32.15 39.47 32.25 45.31 37.8 45.31 43.35 45.31 43.44 39.49 43.44 39.24L43.44 32.11 37.8 29.78Z" fill="#FFFFFF"/><path d="M37.8 44C34.07 44 33.18 39.51 33.14 39.32 33.1351 39.2568 33.1351 39.1932 33.14 39.13L33.14 34C33.1396 33.5902 33.3893 33.2216 33.77 33.07L37.44 31.59C37.6805 31.4927 37.9495 31.4927 38.19 31.59L41.84 33C42.2207 33.1516 42.4704 33.5202 42.47 33.93L42.47 39.11C42.4749 39.1732 42.4749 39.2368 42.47 39.3 42.42 39.51 41.52 44 37.8 44ZM35.12 39C35.24 39.48 35.92 42 37.8 42 39.68 42 40.36 39.51 40.47 39L40.47 34.6 37.8 33.54 35.12 34.62Z" fill="#FFFFFF"/><rect x="36.81" y="33.23" width="2" height="10.54" fill="#FFFFFF"/></g></svg>