<svg width="75" height="75" viewBox="0 0 75 75" xmlns="http://www.w3.org/2000/svg" xmlns:xlink="http://www.w3.org/1999/xlink" id="Product_Icon" overflow="hidden"><defs><linearGradient x1="90.53" y1="90.53" x2="-15.53" y2="-15.53" gradientUnits="userSpaceOnUse" id="RedGradient" gradientTransform="matrix(0 1 -1 0 75 0)"><stop offset="0" stop-color="#BD0816"/><stop offset="1" stop-color="#FF5252"/></linearGradient></defs><rect x="0" y="0" width="75" height="75" id="Red_Gradient" fill="url(#RedGradient)"/><g id="Icon_Test"><path d="M37.5 62.5C37.2342 62.5015 36.9787 62.3972 36.79 62.21L30.79 56.21C30.5063 55.9224 30.4234 55.4924 30.58 55.12 30.7334 54.7466 31.0963 54.502 31.5 54.5L34.5 54.5 34.5 50.5 36.5 50.5 36.5 55.5C36.5 56.0523 36.0523 56.5 35.5 56.5L33.92 56.5 37.5 60.09 41.09 56.5 39.5 56.5C38.9477 56.5 38.5 56.0523 38.5 55.5L38.5 50.5 40.5 50.5 40.5 54.5 43.5 54.5C43.9073 54.498 44.2752 54.7432 44.43 55.12 44.5841 55.4944 44.4972 55.9247 44.21 56.21L38.21 62.21C38.0213 62.3972 37.7658 62.5015 37.5 62.5Z" fill="#FFFFFF"/><path d="M49.5 49.5 27.5 49.5C26.9477 49.5 26.5 49.0523 26.5 48.5L26.5 20.5C26.5 19.9477 26.9477 19.5 27.5 19.5L42.5 19.5 42.5 21.5 28.5 21.5 28.5 47.5 48.5 47.5 48.5 27.5 50.5 27.5 50.5 48.5C50.5 49.0523 50.0523 49.5 49.5 49.5Z" fill="#FFFFFF"/><rect x="30.5" y="31.5" width="16" height="2" fill="#FFFFFF"/><rect x="30.5" y="35.5" width="5" height="2" fill="#FFFFFF"/><rect x="30.5" y="39.5" width="10" height="2" fill="#FFFFFF"/><rect x="30.5" y="26.5" width="8" height="2" fill="#FFFFFF"/><path d="M43.75 61.71 43.25 59.77C55.5492 56.5944 62.9453 44.0495 59.7697 31.7503 56.594 19.4512 44.0492 12.0551 31.75 15.2307 19.4508 18.4063 12.0547 30.9512 15.2303 43.2503 17.3221 51.3518 23.6485 57.6782 31.75 59.77L31.25 61.71C17.8813 58.2582 9.84207 44.6225 13.2939 31.2539 16.7456 17.8852 30.3813 9.84593 43.75 13.2977 57.1187 16.7495 65.1579 30.3852 61.7061 43.7539 59.4325 52.5598 52.5559 59.4363 43.75 61.71Z" fill="#FFFFFF"/><path d="M49.5 28.5 42.5 28.5C41.9477 28.5 41.5 28.0523 41.5 27.5L41.5 20.5C41.502 20.0963 41.7466 19.7334 42.12 19.58 42.4924 19.4234 42.9224 19.5063 43.21 19.79L50.21 26.79C50.4972 27.0753 50.5841 27.5056 50.43 27.88 50.2752 28.2568 49.9073 28.502 49.5 28.5ZM43.5 26.5 47.09 26.5 43.5 22.91Z" fill="#FFFFFF"/></g></svg>