<svg width="75" height="75" viewBox="0 0 75 75" xmlns="http://www.w3.org/2000/svg" xmlns:xlink="http://www.w3.org/1999/xlink" id="Product_Icon" overflow="hidden"><defs><linearGradient x1="-15.54" y1="-15.53" x2="90.53" y2="90.54" gradientUnits="userSpaceOnUse" id="RedGradient" gradientTransform="matrix(0 -1 1 0 0 75)"><stop offset="0" stop-color="#BD0816"/><stop offset="1" stop-color="#FF5252"/></linearGradient></defs><rect x="0" y="0" width="75" height="75" id="Red_Gradient" fill="url(#RedGradient)"/><g id="Icon_Test"><path d="M47.32 38.35C47.0262 38.1936 46.6738 38.1936 46.38 38.35 46.0775 38.5045 45.8741 38.802 45.84 39.14 45.7446 40.0934 45.5537 41.0348 45.27 41.95 45.1491 38.1025 43.5814 34.4422 40.88 31.7 39.5322 30.3308 37.9507 29.2133 36.21 28.4 34.6834 27.2392 32.8937 26.4732 31 26.17 30.549 26.0877 30.0997 26.3226 29.91 26.74 29.7218 27.1542 29.8368 27.6432 30.19 27.93 32.6893 30.4107 33.7096 34.0177 32.88 37.44 31.58 35.69 29.44 33.44 26.88 33.44 26.5509 33.4428 26.2443 33.6073 26.06 33.88 25.8749 34.1502 25.8338 34.4938 25.95 34.8 25.95 34.86 28.33 41.04 26.05 44.63 25.93 44.81 25.82 44.99 25.7 45.19 23.1565 49.8406 24.5177 55.66 28.86 58.7 31.0319 60.165 33.3849 61.3415 35.86 62.2L36.01 62.26 36.01 62.2 36.33 62.33 36.42 62.33C37.63 62.22 48.22 61.02 50.42 52.76 53.22 41.73 47.55 38.49 47.32 38.35ZM30 57.06C26.4894 54.6168 25.3891 49.9179 27.45 46.17 27.53 46.01 27.63 45.85 27.73 45.69 29.73 42.58 29.02 38.27 28.39 35.86 30.0582 37.0167 31.4289 38.5519 32.39 40.34 32.5745 40.6885 32.9465 40.8961 33.34 40.87 33.7376 40.8401 34.0795 40.5768 34.21 40.2 35.99 35.13 34.91 31.41 33.63 29.11 34.0643 29.3295 34.4762 29.5908 34.86 29.89 34.9 29.9344 34.9474 29.9717 35 30 35.4288 30.334 35.827 30.7054 36.19 31.11 36.19 31.11 36.19 31.11 36.19 31.11 36.3081 31.2338 36.4152 31.3676 36.51 31.51 37.8621 33.3007 38.5671 35.4969 38.51 37.74 38.4794 40.3171 37.7909 42.8436 36.51 45.08 36.3 45.46 36.12 45.84 35.93 46.23 34.1061 50.4628 33.7197 55.1767 34.83 59.65 33.1377 58.9498 31.5196 58.0822 30 57.06ZM48.44 52.26C46.87 58.26 39.35 59.89 37.01 60.26 35.6778 55.9338 35.9187 51.2757 37.69 47.11 37.85 46.77 38.02 46.4367 38.2 46.11 39.6557 43.5769 40.4341 40.7115 40.46 37.79 40.4684 36.3317 40.2352 34.8821 39.77 33.5 42 35.89 44 39.84 43 45.86 42.908 46.4046 43.2748 46.9206 43.8194 47.0127 44.1044 47.0609 44.3964 46.9833 44.62 46.8 44.71 46.72 46.62 45.13 47.5 41.23 48.68 42.75 50.05 46 48.45 52.26Z" fill="#FFFFFF"/><path d="M36 62.2 36 62.26C36.1103 62.3081 36.2297 62.332 36.35 62.33L36.35 62.33Z" fill="#FFFFFF"/><path d="M15.17 37.67C15.17 37.5 15.17 37.34 15.17 37.17 17.6552 37.1914 19.6872 35.1942 19.7087 32.709 19.7237 30.97 18.7353 29.3779 17.17 28.62 18.586 25.4709 20.7278 22.7019 23.42 20.54L22.14 19C19.0835 21.4382 16.6785 24.5955 15.14 28.19 12.6548 28.213 10.6588 30.2463 10.6818 32.7314 10.6976 34.4332 11.672 35.9806 13.2 36.73 13.2 37.05 13.2 37.3833 13.2 37.73 13.2022 44.6777 16.2152 51.2835 21.46 55.84L22.79 54.34C17.946 50.1564 15.1641 44.0706 15.17 37.67ZM12.67 32.67C12.67 31.2893 13.7893 30.17 15.17 30.17 16.5507 30.17 17.67 31.2893 17.67 32.67 17.67 34.0507 16.5507 35.17 15.17 35.17 13.7893 35.17 12.67 34.0507 12.67 32.67Z" fill="#FFFFFF"/><path d="M59.83 29.17 59.62 29.17C59.0927 27.7301 58.4227 26.3466 57.62 25.04L55.93 26.1C56.6353 27.2429 57.2345 28.4479 57.72 29.7 55.5337 30.8818 54.7194 33.6122 55.9012 35.7985 56.5754 37.0456 57.7977 37.9021 59.2 38.11 59.1275 42.6576 57.6306 47.0678 54.92 50.72L56.51 51.92C59.5298 47.8747 61.1736 42.9681 61.2 37.92 63.5748 37.1873 64.906 34.6682 64.1734 32.2934 63.591 30.4056 61.8455 29.1185 59.87 29.12ZM59.83 36.17C58.4493 36.17 57.33 35.0507 57.33 33.67 57.33 32.2893 58.4493 31.17 59.83 31.17 61.2107 31.17 62.33 32.2893 62.33 33.67 62.33 35.0507 61.2107 36.17 59.83 36.17Z" fill="#FFFFFF"/><path d="M47.54 18.27C43.3617 16.0374 38.5743 15.2132 33.89 15.92L33.59 13.92C38.7038 13.1489 43.93 14.0503 48.49 16.49Z" fill="#FFFFFF"/><path d="M52.67 25.67C50.1847 25.67 48.17 23.6553 48.17 21.17 48.17 18.6847 50.1847 16.67 52.67 16.67 55.1553 16.67 57.17 18.6847 57.17 21.17 57.1645 23.653 55.153 25.6645 52.67 25.67ZM52.67 18.67C51.2893 18.67 50.17 19.7893 50.17 21.17 50.17 22.5507 51.2893 23.67 52.67 23.67 54.0507 23.67 55.17 22.5507 55.17 21.17 55.1645 19.7916 54.0484 18.6755 52.67 18.67Z" fill="#FFFFFF"/><path d="M28.17 21.67C25.6847 21.67 23.67 19.6553 23.67 17.17 23.67 14.6847 25.6847 12.67 28.17 12.67 30.6553 12.67 32.67 14.6847 32.67 17.17 32.6645 19.653 30.653 21.6645 28.17 21.67ZM28.17 14.67C26.7893 14.67 25.67 15.7893 25.67 17.17 25.67 18.5507 26.7893 19.67 28.17 19.67 29.5507 19.67 30.67 18.5507 30.67 17.17 30.6645 15.7916 29.5484 14.6755 28.17 14.67Z" fill="#FFFFFF"/></g></svg>