<svg width="75" height="75" viewBox="0 0 75 75" xmlns="http://www.w3.org/2000/svg" xmlns:xlink="http://www.w3.org/1999/xlink" id="Product_Icon" overflow="hidden"><defs><linearGradient x1="37.5" y1="112.5" x2="37.5" y2="-37.5" gradientUnits="userSpaceOnUse" id="RedGradient" gradientTransform="matrix(0.707107 0.707107 -0.707107 0.707107 37.5 -15.53)"><stop offset="0" stop-color="#BD0816"/><stop offset="1" stop-color="#FF5252"/></linearGradient></defs><rect x="0" y="0" width="75" height="75" id="Red_Gradient" fill="url(#RedGradient)"/><g id="Icon_Test"><rect x="32.5" y="48.5" width="19" height="2" fill="#FFFFFF"/><rect x="23.5" y="48.5" width="5" height="2" fill="#FFFFFF"/><rect x="32.5" y="52.5" width="12" height="2" fill="#FFFFFF"/><rect x="23.5" y="52.5" width="5" height="2" fill="#FFFFFF"/><rect x="13.5" y="20.5" width="48" height="2" fill="#FFFFFF"/><path d="M61.5 60.5 56.5 60.5 56.5 58.5 60.7 58.5 60.7 16.5 14.5 16.5 14.5 58.5 46.5 58.5 46.5 60.5 13.5 60.5C12.9477 60.5 12.5 60.0523 12.5 59.5L12.5 15.5C12.5 14.9477 12.9477 14.5 13.5 14.5L61.44 14.5C61.9913 14.4669 62.4651 14.8869 62.4982 15.4382 62.4994 15.4588 62.5 15.4794 62.5 15.5L62.5 59.5C62.5015 59.7658 62.3972 60.0213 62.21 60.21 62.0213 60.3972 61.7658 60.5015 61.5 60.5Z" fill="#FFFFFF"/><path d="M31.72 44.59C31.5116 44.5887 31.3088 44.5222 31.14 44.4 30.8232 44.1731 30.6671 43.7828 30.74 43.4L31.74 37.48 27.43 33.28C27.048 32.8811 27.0617 32.2481 27.4606 31.8661 27.6088 31.7242 27.7971 31.6312 28 31.6L33.94 30.73 36.6 25.34C36.7667 24.9998 37.1112 24.783 37.49 24.78L37.49 24.78C37.8724 24.7792 38.2217 24.9966 38.39 25.34L41.05 30.73 47.05 31.58C47.5972 31.6545 47.9805 32.1585 47.906 32.7057 47.8757 32.9282 47.7715 33.134 47.61 33.29L43.31 37.49 44.31 43.41C44.3829 43.7928 44.2268 44.1831 43.91 44.41 43.6016 44.6305 43.195 44.6576 42.86 44.48L37.54 41.69 32.22 44.49C32.0648 44.566 31.8925 44.6004 31.72 44.59ZM30.29 33.28 33.52 36.43C33.7549 36.6582 33.8633 36.9869 33.81 37.31L33.05 41.76 37.05 39.66C37.3411 39.5071 37.6889 39.5071 37.98 39.66L41.98 41.75 41.22 37.31C41.1607 36.9853 41.2655 36.6523 41.5 36.42L44.73 33.27 40.27 32.63C39.9411 32.5842 39.6563 32.3782 39.51 32.08L37.51 28.08 35.51 32.13C35.3632 32.4217 35.0832 32.6232 34.76 32.67Z" fill="#FFFFFF"/></g></svg>