<svg viewBox="0 0 75 75" xmlns="http://www.w3.org/2000/svg" xmlns:xlink="http://www.w3.org/1999/xlink" id="Product_Icon" overflow="hidden"><defs><linearGradient x1="-37.5" y1="37.5" x2="112.5" y2="37.5" gradientUnits="userSpaceOnUse" id="RedGradient" gradientTransform="matrix(0.707107 -0.707107 0.707107 0.707107 -15.53 37.5)"><stop offset="0" stop-color="#BD0816"/><stop offset="1" stop-color="#FF5252"/></linearGradient></defs><rect x="0" y="0" width="75" height="75" id="Red_Gradient" fill="url(#RedGradient)"/><g id="Icon_Test"><path d="M52.5 18.61 52.5 38.55C51.835 38.4832 51.165 38.4832 50.5 38.55L50.5 19.34 32.5 13.56 14.5 20.29 14.5 40.79C14.6203 44.3848 15.3999 47.9269 16.8 51.24 19.8 58.05 25.05 61.5 32.5 61.5 35.5405 61.5679 38.5503 60.8807 41.26 59.5L42.58 61 42.58 61 42.58 61.1C39.4863 62.7641 36.0117 63.5914 32.5 63.5 22.14 63.5 17.25 57.27 15 52 13.4775 48.4511 12.6297 44.6495 12.5 40.79L12.5 19.6C12.4986 19.1815 12.758 18.8065 13.15 18.66L32.15 11.56C32.3637 11.4853 32.5963 11.4853 32.81 11.56L51.81 17.67C52.2178 17.8029 52.4954 18.1811 52.5 18.61Z" fill="#FFFFFF"/><path d="M46.85 22.08 32.85 16.82C32.6235 16.7399 32.3765 16.7399 32.15 16.82L18.15 22.08C17.758 22.2265 17.4986 22.6015 17.5 23.02L17.5 42.76C17.4951 42.8232 17.4951 42.8868 17.5 42.95 18.0853 45.5985 19.0663 48.1438 20.41 50.5 23.35 55.56 27.52 58.24 32.48 58.24 34.9219 58.2776 37.3188 57.5808 39.36 56.24 39.1089 55.5897 38.9083 54.9211 38.76 54.24L38.52 54.41C37.0446 55.4501 35.3188 56.0783 33.52 56.23L33.52 19.23 45.52 23.73 45.52 40C46.1607 39.6646 46.83 39.3868 47.52 39.17L47.52 23C47.51 22.5838 47.2431 22.2173 46.85 22.08ZM19.5 42.66 19.5 23.71 31.5 19.21 31.5 56.21C22.5 55.39 19.74 43.79 19.5 42.66Z" fill="#FFFFFF"/><path d="M56.5 50.3 56.5 52.3 52.5 52.3 52.5 56.3 50.5 56.3 50.5 52.3 46.5 52.3 46.5 50.3 50.5 50.3 50.5 46.3 52.5 46.3 52.5 50.3 56.5 50.3Z" fill="#FFFFFF"/><path d="M51.5 62.5C45.4249 62.5 40.5 57.5751 40.5 51.5 40.5 45.4249 45.4249 40.5 51.5 40.5 57.5751 40.5 62.5 45.4249 62.5 51.5 62.5 57.5751 57.5751 62.5 51.5 62.5ZM51.5 42.5C46.5294 42.5 42.5 46.5294 42.5 51.5 42.5 56.4706 46.5294 60.5 51.5 60.5 56.4706 60.5 60.5 56.4706 60.5 51.5 60.5 46.5294 56.4706 42.5 51.5 42.5Z" fill="#FFFFFF"/></g></svg>