<svg width="75" height="75" viewBox="0 0 75 75" xmlns="http://www.w3.org/2000/svg" xmlns:xlink="http://www.w3.org/1999/xlink" id="Product_Icon" overflow="hidden"><defs><linearGradient x1="-15.53" y1="-15.53" x2="90.53" y2="90.53" gradientUnits="userSpaceOnUse" id="RedGradient" gradientTransform="matrix(0 -1 1 0 0 75)"><stop offset="0" stop-color="#BD0816"/><stop offset="1" stop-color="#FF5252"/></linearGradient></defs><rect x="0" y="0" width="75" height="75" id="Red_Gradient" fill="url(#RedGradient)"/><g id="Icon_Test"><path d="M29.5 45.21 22.35 45.21C17.11 45.21 12.8 41.39 12.52 36.54 12.52 36.33 12.52 36.12 12.52 35.9 12.3725 31.8172 15.0574 28.171 19 27.1 19 26.87 19 26.64 19 26.4 19.1531 21.3581 22.2091 16.8599 26.84 14.86 31.8715 12.7198 37.6968 13.8209 41.6 17.65 42.8517 18.852 43.8689 20.2762 44.6 21.85 45.6641 21.0328 46.9683 20.5899 48.31 20.59 51.11 20.59 54.05 22.54 54.61 26.87 59.71 28.09 62.5 31.3 62.5 36 62.5 41 59.77 44.31 55 45.09L54.68 43.09C57.33 42.66 60.5 41.09 60.5 35.98 60.5 32.05 58.15 29.6 53.5 28.7 53.0517 28.6142 52.7184 28.2356 52.69 27.78 52.46 23.96 50.19 22.61 48.32 22.61 47.0408 22.6146 45.8362 23.2132 45.06 24.23 44.8389 24.5179 44.4791 24.6633 44.12 24.61 43.7598 24.5564 43.4571 24.3113 43.33 23.97 42.6793 22.1337 41.6112 20.4735 40.21 19.12 36.8679 15.8479 31.8866 14.9052 27.58 16.73 23.7317 18.4463 21.1841 22.1903 21 26.4 21.0014 26.8345 21.0281 27.2686 21.08 27.7 21.0849 27.7398 21.0849 27.7802 21.08 27.82L21.08 27.82C21.0856 28.3186 20.723 28.7452 20.23 28.82 18.04 29.37 14.48 31.03 14.48 35.88 14.48 36.06 14.48 36.24 14.48 36.41 14.7 40.2 18.14 43.19 22.31 43.2L29.5 43.2Z" fill="#FFFFFF"/><path d="M61.5 61.21 58.56 61.21C58.2991 61.2116 58.0479 61.1111 57.86 60.93L56.09 59.21 51.5 59.21C50.9477 59.21 50.5 58.7623 50.5 58.21L50.5 55.62 49.09 54.21 46.5 54.21C45.9477 54.21 45.5 53.7623 45.5 53.21L45.5 50.5 45.12 49.89C44.0127 50.2855 42.8458 50.4884 41.67 50.49 36.0588 50.4971 31.5043 45.9541 31.4972 40.3428 31.4928 36.8656 33.2669 33.6277 36.2 31.76 36.46 31.59 36.75 31.43 37.03 31.28 37.31 31.13 37.66 30.98 37.97 30.85 38.4709 30.663 38.9859 30.5159 39.51 30.41 39.7766 30.3474 40.0472 30.3039 40.32 30.28L40.57 30.28 40.89 30.28 41.04 30.28C41.2483 30.2447 41.4588 30.2246 41.67 30.22 47.255 30.2307 51.7907 34.7352 51.84 40.32 51.8723 41.5222 51.6649 42.7188 51.23 43.84L62.23 54.84C62.4127 55.0316 62.5163 55.2852 62.52 55.55L62.52 60.24C62.5037 60.7884 62.0485 61.2212 61.5 61.21ZM58.97 59.21 60.5 59.21 60.5 55.94 49.33 44.77C49.047 44.4865 48.9604 44.0616 49.11 43.69L49.11 43.69C49.6199 42.6489 49.8671 41.4987 49.83 40.34 49.8245 35.8301 46.1699 32.1755 41.66 32.17 41.5402 32.1596 41.4198 32.1596 41.3 32.17L41.07 32.17 41 32.17 40.8 32.17 40.58 32.17C40.3748 32.1853 40.1709 32.2154 39.97 32.26 39.5453 32.3459 39.1275 32.4629 38.72 32.61 38.52 32.7 38.24 32.82 37.97 32.96 37.7 33.1 37.52 33.21 37.3 33.35 33.4855 35.75 32.3389 40.7877 34.7388 44.6022 36.9347 48.0922 41.3891 49.3957 45.12 47.64 45.5761 47.4257 46.1204 47.5843 46.39 48.01L47.39 49.58C47.4886 49.7391 47.5406 49.9228 47.54 50.11L47.54 52.11 49.54 52.11C49.8058 52.1085 50.0613 52.2128 50.25 52.4L52.25 54.4C52.4372 54.5887 52.5415 54.8442 52.54 55.11L52.54 57.11 56.54 57.11C56.8009 57.1084 57.0521 57.2089 57.24 57.39ZM39.97 42.21 39.97 42.21C38.9865 42.2142 38.0438 41.8169 37.36 41.11 35.9185 39.6658 35.9208 37.3265 37.365 35.885 38.8092 34.4435 41.1485 34.4458 42.59 35.89 43.2969 36.5738 43.6942 37.5165 43.69 38.5 43.6739 40.5345 42.0344 42.1829 40 42.21ZM39.97 36.95C39.5236 36.9467 39.0946 37.1233 38.78 37.44 38.4609 37.758 38.2811 38.1896 38.28 38.64 38.2789 39.0909 38.4591 39.5233 38.78 39.84 39.4214 40.5027 40.4787 40.52 41.1414 39.8786 41.1545 39.8659 41.1674 39.8531 41.18 39.84L41.18 39.84C41.4991 39.522 41.6789 39.0904 41.68 38.64 41.6796 38.1924 41.4994 37.7636 41.18 37.45 40.8412 37.144 40.3962 36.9825 39.94 37Z" fill="#FFFFFF"/></g></svg>