<svg width="75" height="75" viewBox="0 0 75 75" xmlns="http://www.w3.org/2000/svg" xmlns:xlink="http://www.w3.org/1999/xlink" id="Product_Icon" overflow="hidden"><defs><linearGradient x1="37.5" y1="-37.5" x2="37.5" y2="112.5" gradientUnits="userSpaceOnUse" id="RedGradient" gradientTransform="matrix(-0.707107 -0.707107 0.707107 -0.707107 37.5 90.53)"><stop offset="0" stop-color="#BD0816"/><stop offset="1" stop-color="#FF5252"/></linearGradient></defs><rect x="0" y="0" width="75" height="75" id="Red_Gradient" fill="url(#RedGradient)"/><g id="Icon_Test"><path d="M24.5 62C24.2128 61.9996 23.9396 61.8758 23.75 61.66L20.25 57.66C20.0892 57.4777 20.0003 57.2431 20 57L20 54.42 17.29 51.71C16.8979 51.3211 16.8953 50.6879 17.2842 50.2958 17.2861 50.2939 17.2881 50.2919 17.29 50.29L20 47.59 20 46.42 17.29 43.71C16.8979 43.3211 16.8953 42.6879 17.2842 42.2958 17.2861 42.2939 17.2881 42.2919 17.29 42.29L20 39.59 20 37.17C15.1154 35.3013 11.9194 30.5792 12 25.35 12.0414 18.4464 17.6714 12.8836 24.575 12.925 31.4786 12.9664 37.0414 18.5964 37 25.5 37.0192 30.6726 33.833 35.3165 29 37.16L29 58C29 58.2923 28.8721 58.57 28.65 58.76L25.15 61.76C24.9689 61.9149 24.7383 62 24.5 62ZM22 56.62 24.6 59.62 27 57.54 27 36.45C26.9792 35.9964 27.2667 35.5857 27.7 35.45 33.2147 33.6744 36.2458 27.7645 34.4702 22.2498 32.6946 16.7352 26.7847 13.704 21.27 15.4796 15.7553 17.2552 12.7242 23.1652 14.4998 28.6798 15.535 31.8949 18.0549 34.4148 21.27 35.45 21.7152 35.5745 22.0171 35.988 22 36.45L22 40C22.0015 40.2658 21.8972 40.5213 21.71 40.71L19.42 43 21.71 45.29C21.8972 45.4787 22.0015 45.7342 22 46L22 48C21.9989 48.2623 21.8947 48.5137 21.71 48.7L19.42 51 21.71 53.29C21.8972 53.4787 22.0015 53.7342 22 54ZM24.5 26.5C22.0147 26.5 20 24.4853 20 22 20 19.5147 22.0147 17.5 24.5 17.5 26.9853 17.5 29 19.5147 29 22 28.9945 24.483 26.983 26.4945 24.5 26.5ZM24.5 19.5C23.1193 19.5 22 20.6193 22 22 22 23.3807 23.1193 24.5 24.5 24.5 25.8807 24.5 27 23.3807 27 22 27 20.6193 25.8807 19.5 24.5 19.5Z" fill="#FFFFFF"/><path d="M61.09 55 31 55 31 53 61 53 61 31 39 31 39 29 61.09 29C62.1316 28.9944 62.9836 29.8285 63 30.87L63 53.13C62.9836 54.1715 62.1316 55.0056 61.09 55Z" fill="#FFFFFF"/><path d="M34.5 45.5C32.2909 45.5 30.5 43.7091 30.5 41.5 30.5 39.2909 32.2909 37.5 34.5 37.5 36.7091 37.5 38.5 39.2909 38.5 41.5 38.5 43.7091 36.7091 45.5 34.5 45.5ZM34.5 39.5C33.3954 39.5 32.5 40.3954 32.5 41.5 32.5 42.6046 33.3954 43.5 34.5 43.5 35.6046 43.5 36.5 42.6046 36.5 41.5 36.5 40.3954 35.6046 39.5 34.5 39.5Z" fill="#FFFFFF"/><path d="M44.5 45.5C42.2909 45.5 40.5 43.7091 40.5 41.5 40.5 39.2909 42.2909 37.5 44.5 37.5 46.7091 37.5 48.5 39.2909 48.5 41.5 48.5 43.7091 46.7091 45.5 44.5 45.5ZM44.5 39.5C43.3954 39.5 42.5 40.3954 42.5 41.5 42.5 42.6046 43.3954 43.5 44.5 43.5 45.6046 43.5 46.5 42.6046 46.5 41.5 46.5 40.3954 45.6046 39.5 44.5 39.5Z" fill="#FFFFFF"/><rect x="31" y="48" width="7" height="2" fill="#FFFFFF"/><rect x="41" y="48" width="7" height="2" fill="#FFFFFF"/><rect x="51" y="48" width="7" height="2" fill="#FFFFFF"/></g></svg>