<svg width="75" height="75" viewBox="0 0 75 75" xmlns="http://www.w3.org/2000/svg" xmlns:xlink="http://www.w3.org/1999/xlink" id="Product_Icon" overflow="hidden"><defs><linearGradient x1="90.53" y1="-15.53" x2="-15.54" y2="90.54" gradientUnits="userSpaceOnUse" id="RedGradient" gradientTransform="matrix(-1 0 -0 -1 75 75)"><stop offset="0" stop-color="#BD0816"/><stop offset="1" stop-color="#FF5252"/></linearGradient></defs><rect x="0" y="0" width="75" height="75" id="Red_Gradient" fill="url(#RedGradient)"/><g id="Icon_Test"><rect x="54.52" y="47.03" width="2" height="16.91" fill="#FFFFFF" transform="matrix(0.707107 -0.707107 0.707107 0.707107 -22.97 55.51)"/><rect x="19.13" y="10.72" width="2" height="18.74" fill="#FFFFFF" transform="matrix(0.707107 -0.707107 0.707107 0.707107 -8.31 20.12)"/><rect x="15.05" y="54" width="9.9" height="2" fill="#FFFFFF" transform="matrix(0.707107 -0.707107 0.707107 0.707107 -33.03 30.25)"/><rect x="50.05" y="19" width="9.9" height="2" fill="#FFFFFF" transform="matrix(0.707107 -0.707107 0.707107 0.707107 1.97 44.75)"/><path d="M62.5 36.5 62.5 38.5 60.5 38.5C60.3179 43.0051 58.8041 47.3551 56.15 51L54.53 49.82C56.931 46.5178 58.3018 42.5793 58.47 38.5L56.47 38.5 56.47 36.5 58.47 36.5C58.2959 32.431 56.9254 28.5038 54.53 25.21L56.15 24C58.7969 27.6472 60.3037 31.997 60.48 36.5Z" fill="#FFFFFF"/><path d="M51 18.85 49.82 20.47C46.5178 18.069 42.5793 16.6982 38.5 16.53L38.5 18.53 36.5 18.53 36.5 16.53C32.431 16.7041 28.5038 18.0746 25.21 20.47L24 18.85C27.6472 16.2031 31.997 14.6963 36.5 14.52L36.5 12.52 38.5 12.52 38.5 14.52C43.003 14.6963 47.3528 16.2031 51 18.85Z" fill="#FFFFFF"/><path d="M51 56.15C47.3528 58.7969 43.003 60.3037 38.5 60.48L38.5 62.48 36.5 62.48 36.5 60.48C31.997 60.3037 27.6472 58.7969 24 56.15L25.18 54.53C28.4822 56.931 32.4207 58.3018 36.5 58.47L36.5 56.47 38.5 56.47 38.5 58.47C42.569 58.2959 46.4962 56.9254 49.79 54.53Z" fill="#FFFFFF"/><path d="M16.53 38.5C16.7041 42.569 18.0746 46.4962 20.47 49.79L18.85 51C16.2031 47.3528 14.6963 43.003 14.52 38.5L12.52 38.5 12.52 36.5 14.52 36.5C14.6963 31.997 16.2031 27.6472 18.85 24L20.47 25.18C18.069 28.4822 16.6982 32.4207 16.53 36.5L18.53 36.5 18.53 38.5Z" fill="#FFFFFF"/><path d="M46.54 31.19C46.2462 31.0336 45.8938 31.0336 45.6 31.19 45.3003 31.3426 45.0974 31.6357 45.06 31.97 44.9986 32.5798 44.895 33.1845 44.75 33.78 44.2729 28.855 41.2315 24.5476 36.75 22.45 35.3987 21.4186 33.8164 20.7322 32.14 20.45 31.5952 20.3593 31.08 20.7273 30.9893 21.2721 30.9314 21.6198 31.0608 21.9724 31.33 22.2 33.4524 24.2761 34.3491 27.3028 33.7 30.2 32.54 28.67 30.7 26.84 28.52 26.84 28.1928 26.8405 27.8865 27.0011 27.7 27.27 27.5115 27.5426 27.4703 27.8909 27.59 28.2 28.17 29.69 29.32 34.14 27.68 36.72 27.57 36.88 27.48 37.04 27.38 37.21 25.1186 41.3369 26.3199 46.5041 30.17 49.21 32.1226 50.5321 34.2408 51.5912 36.47 52.36 36.579 52.3996 36.694 52.4199 36.81 52.42L37.02 52.42C38.35 52.3 47.4 51.13 49.25 43.95 51.81 34.2 46.76 31.31 46.54 31.19ZM35.34 49.8C33.939 49.2051 32.5993 48.475 31.34 47.62 28.3138 45.503 27.3695 41.4456 29.15 38.21L29.39 37.8C31.08 35.16 30.59 31.56 30.06 29.38 31.3685 30.3839 32.4519 31.6512 33.24 33.1 33.482 33.5965 34.0806 33.8027 34.577 33.5608 34.8114 33.4465 34.9918 33.2453 35.08 33 36.3186 29.9403 36.2023 26.4991 34.76 23.53 36.0301 24.2658 37.0453 25.3718 37.67 26.7 39.09 29.64 38.77 33.7 36.85 37.21 34.8776 41.0972 34.3427 45.5566 35.34 49.8ZM47.34 43.47C46.03 48.57 39.78 50.01 37.54 50.36 37 48.42 35.93 43 38.6 38.12 40.4672 34.8671 40.9944 31.015 40.07 27.38 41.88 29.5 43.4 32.85 42.59 37.87 42.5043 38.4156 42.8772 38.9273 43.4228 39.013 43.7035 39.0571 43.9898 38.9796 44.21 38.8 45.5131 37.535 46.3903 35.8959 46.72 34.11 47.68 35.5 48.68 38.31 47.35 43.47Z" fill="#FFFFFF"/></g></svg>