<svg width="75" height="75" viewBox="0 0 75 75" xmlns="http://www.w3.org/2000/svg" xmlns:xlink="http://www.w3.org/1999/xlink" id="Product_Icon" overflow="hidden"><defs><linearGradient x1="90.53" y1="-15.53" x2="-15.54" y2="90.54" gradientUnits="userSpaceOnUse" id="RedGradient" gradientTransform="matrix(-1 0 -0 -1 75 75)"><stop offset="0" stop-color="#BD0816"/><stop offset="1" stop-color="#FF5252"/></linearGradient></defs><rect x="0" y="0" width="75" height="75" id="Red_Gradient" fill="url(#RedGradient)"/><g id="Icon_Test"><path d="M59.7 19 15.3 19C13.7559 19.0055 12.5055 20.2559 12.5 21.8L12.5 53.2C12.5055 54.7441 13.7559 55.9945 15.3 56L59.7 56C61.2441 55.9945 62.4945 54.7441 62.5 53.2L62.5 21.8C62.4945 20.2559 61.2441 19.0055 59.7 19ZM60.5 53.2C60.5 53.6418 60.1418 54 59.7 54L15.3 54C14.8582 54 14.5 53.6418 14.5 53.2L14.5 21.8C14.5 21.3582 14.8582 21 15.3 21L59.7 21C60.1418 21 60.5 21.3582 60.5 21.8Z" fill="#FFFFFF"/><rect x="40.5" y="32" width="10" height="2" fill="#FFFFFF"/><rect x="54.5" y="32" width="2" height="2" fill="#FFFFFF"/><path d="M36.21 35.3C36.0229 35.1091 35.7672 35.0011 35.5 35L21.5 35 21.5 30C21.5281 28.868 22.0829 27.8141 23 27.15 24.0086 26.3925 25.2387 25.9883 26.5 26 27.8112 25.9815 29.0865 26.4279 30.1 27.26 30.9487 27.9215 31.4613 28.9246 31.5 30L31.5 35 33.5 35 33.5 29.6C33.4632 28.0095 32.682 26.5284 31.39 25.6 29.9835 24.5373 28.2626 23.9743 26.5 24 22.64 24 19.5 26.51 19.5 29.59L19.5 35 17.5 35C16.9477 35 16.5 35.4477 16.5 36L16.5 50C16.5 50.5523 16.9477 51 17.5 51L35.5 51C36.0523 51 36.5 50.5523 36.5 50L36.5 36C36.4989 35.7377 36.3947 35.4863 36.21 35.3ZM34.5 40 31.5 40 31.5 42 34.5 42 34.5 44 31.5 44 31.5 46 34.5 46 34.5 49 18.5 49 18.5 37 34.5 37Z" fill="#FFFFFF"/><path d="M26.5 38.57C24.8818 38.5761 23.575 39.8929 23.5811 41.5111 23.5857 42.7353 24.351 43.8275 25.5 44.25L25.5 47 27.5 47 27.5 44.25C29.0188 43.6916 29.7973 42.0077 29.2389 40.4889 28.8165 39.3399 27.7242 38.5746 26.5 38.57ZM26.5 42.77C25.7986 42.77 25.23 42.2014 25.23 41.5 25.23 40.7986 25.7986 40.23 26.5 40.23 27.2014 40.23 27.77 40.7986 27.77 41.5 27.77 42.2014 27.2014 42.77 26.5 42.77Z" fill="#FFFFFF"/><rect x="40.5" y="37" width="7" height="2" fill="#FFFFFF"/><rect x="51.5" y="37" width="5" height="2" fill="#FFFFFF"/><rect x="40.5" y="42" width="13" height="2" fill="#FFFFFF"/></g></svg>