<svg width="75" height="75" viewBox="0 0 75 75" xmlns="http://www.w3.org/2000/svg" xmlns:xlink="http://www.w3.org/1999/xlink" id="Product_Icon" overflow="hidden"><defs><linearGradient x1="112.5" y1="37.5" x2="-37.5" y2="37.5" gradientUnits="userSpaceOnUse" id="RedGradient" gradientTransform="matrix(-0.707107 0.707107 -0.707107 -0.707107 90.53 37.5)"><stop offset="0" stop-color="#BD0816"/><stop offset="1" stop-color="#FF5252"/></linearGradient></defs><rect x="0" y="0" width="75" height="75" id="Red_Gradient" fill="url(#RedGradient)"/><g id="Icon_Test"><path d="M15.26 51.39C13.6348 50.9925 12.4937 49.5331 12.5 47.86L12.5 22.14C12.5 20.1297 14.1297 18.5 16.14 18.5L54.86 18.5C56.5331 18.4937 57.9925 19.6348 58.39 21.26L56.45 21.74C56.2699 21.0091 55.6127 20.4966 54.86 20.5L16.14 20.5C15.2365 20.5055 14.5055 21.2365 14.5 22.14L14.5 47.86C14.4966 48.6127 15.0091 49.2699 15.74 49.45Z" fill="#FFFFFF"/><rect x="21.5" y="40.5" width="10" height="2" fill="#FFFFFF"/><rect x="21.5" y="45.5" width="7" height="2" fill="#FFFFFF"/><rect x="29.5" y="45.5" width="3" height="2" fill="#FFFFFF"/><path d="M58.89 23.5 21.11 23.5C19.1163 23.5 17.5 25.1163 17.5 27.11L17.5 52.89C17.5 54.8837 19.1163 56.5 21.11 56.5L58.89 56.5C60.8837 56.5 62.5 54.8837 62.5 52.89L62.5 27.11C62.5 25.1163 60.8837 23.5 58.89 23.5ZM60.5 52.89C60.5 53.7792 59.7792 54.5 58.89 54.5L21.11 54.5C20.2208 54.5 19.5 53.7792 19.5 52.89L19.5 35.5 36.5 35.5 36.5 50.5C36.5 51.0523 36.9477 51.5 37.5 51.5L56.5 51.5C57.0523 51.5 57.5 51.0523 57.5 50.5L57.5 35.5 60.5 35.5ZM48.63 39.89C47.5756 40.4608 46.3044 40.4608 45.25 39.89 43.5573 38.9566 42.9417 36.8278 43.8751 35.1351 44.8084 33.4423 46.9373 32.8267 48.63 33.7601 50.3227 34.6935 50.9383 36.8223 50.0049 38.5151 49.6857 39.094 49.209 39.5708 48.63 39.89ZM44.53 41.81C46.092 42.5251 47.8879 42.5251 49.45 41.81 52.7488 42.7797 55.0106 45.8117 55 49.25L55 49.5 39 49.5 39 49.25C38.9946 45.822 41.2447 42.7988 44.53 41.82ZM51.2 40.33C53.1348 37.9883 52.8049 34.5216 50.4632 32.5868 48.1215 30.652 44.6548 30.9819 42.72 33.3236 41.04 35.3569 41.04 38.2967 42.72 40.33 40.9759 41.1054 39.5055 42.3876 38.5 44.01L38.5 30.5 55.5 30.5 55.5 44.05C54.4732 42.4084 52.9744 41.1152 51.2 40.34ZM60.5 33.49 57.5 33.49 57.5 29.49C57.5 28.9377 57.0523 28.49 56.5 28.49L37.5 28.49C36.9477 28.49 36.5 28.9377 36.5 29.49L36.5 33.49 19.5 33.49 19.5 27.11C19.5 26.2208 20.2208 25.5 21.11 25.5L58.89 25.5C59.7792 25.5 60.5 26.2208 60.5 27.11Z" fill="#FFFFFF"/></g></svg>