<svg width="75" height="75" viewBox="0 0 75 75" xmlns="http://www.w3.org/2000/svg" xmlns:xlink="http://www.w3.org/1999/xlink" id="Product_Icon" overflow="hidden"><defs><linearGradient x1="112.5" y1="37.5" x2="-37.5" y2="37.5" gradientUnits="userSpaceOnUse" id="RedGradient" gradientTransform="matrix(-0.707107 0.707107 -0.707107 -0.707107 90.53 37.5)"><stop offset="0" stop-color="#BD0816"/><stop offset="1" stop-color="#FF5252"/></linearGradient></defs><rect x="0" y="0" width="75" height="75" id="Red_Gradient" fill="url(#RedGradient)"/><g id="Icon_Test"><path d="M47 44C45.6193 44 44.5 45.1193 44.5 46.5 44.5 47.8807 45.6193 49 47 49 48.3807 49 49.5 47.8807 49.5 46.5 49.5 45.1193 48.3807 44 47 44ZM47 47.15C46.641 47.15 46.35 46.859 46.35 46.5 46.35 46.141 46.641 45.85 47 45.85 47.359 45.85 47.65 46.141 47.65 46.5 47.65 46.859 47.359 47.15 47 47.15Z" fill="#FFFFFF"/><path d="M62.21 57.26 54.72 49.78C55.0108 48.9893 55.1565 48.1525 55.15 47.31 55.139 43.2735 51.8665 40.0055 47.83 40 47.6602 39.9893 47.4898 39.9893 47.32 40L47 40 46.84 40C46.6416 40.0172 46.4445 40.0473 46.25 40.09 45.8722 40.1675 45.5011 40.2745 45.14 40.41 44.91 40.5 44.69 40.6 44.44 40.72 44.19 40.84 44.04 40.94 43.85 41.07 41.7416 42.4032 40.4653 44.7255 40.47 47.22 40.481 51.2604 43.7595 54.53 47.8 54.53 48.6277 54.5362 49.4501 54.3975 50.23 54.12L50.47 54.34 50.47 56C50.47 56.5523 50.9177 57 51.47 57L53.06 57 53.47 57.41 53.47 59C53.47 59.5523 53.9177 60 54.47 60L57.05 60 58.73 61.7C58.9171 61.8909 59.1728 61.9989 59.44 62L61.44 62C61.9923 62 62.44 61.5523 62.44 61L62.44 58C62.4659 57.7324 62.383 57.4657 62.21 57.26ZM60.5 60 59.89 60 58.21 58.3C58.0229 58.1091 57.7672 58.0011 57.5 58L55.5 58 55.5 57C55.5015 56.7342 55.3972 56.4787 55.21 56.29L54.21 55.29C54.0213 55.1028 53.7658 54.9985 53.5 55L52.5 55 52.5 54C52.5017 53.7243 52.3895 53.4602 52.19 53.27L51.19 52.27C50.892 51.9879 50.4519 51.9166 50.08 52.09 49.3824 52.4172 48.6205 52.5846 47.85 52.58 44.923 52.5557 42.5698 50.1633 42.5941 47.2363 42.6088 45.4603 43.5121 43.8098 45 42.84L45.42 42.59 45.93 42.36C46.1901 42.2646 46.4577 42.191 46.73 42.14L47.15 42.07 47.5 42.07 47.64 42.07 47.87 42.07C50.8043 42.07 53.1845 44.4458 53.19 47.38 53.1971 48.1626 53.0225 48.9362 52.68 49.64 52.4903 50.0244 52.5667 50.487 52.87 50.79L60.54 58.45Z" fill="#FFFFFF"/><path d="M18.5 48.68 18.5 15.32C18.4886 15.1547 18.6134 15.0115 18.7787 15.0001 18.7791 15.0001 18.7796 15 18.78 15L52.22 15C52.3853 15.0107 52.5107 15.1533 52.5001 15.3187 52.5001 15.3191 52.5 15.3196 52.5 15.32L52.5 39 54.5 39 54.5 15.32C54.5111 14.0498 53.4904 13.0111 52.2202 13 52.2201 13 52.2201 13 52.22 13L18.78 13C17.5098 13.011 16.489 14.0496 16.5 15.3198 16.5 15.3199 16.5 15.3199 16.5 15.32L16.5 20 13.5 20C12.9477 20 12.5 20.4477 12.5 21L12.5 27C12.5 27.5523 12.9477 28 13.5 28L16.5 28 16.5 36 13.5 36C12.9477 36 12.5 36.4477 12.5 37L12.5 43C12.5 43.5523 12.9477 44 13.5 44L16.5 44 16.5 48.68C16.4889 49.9502 17.5096 50.9889 18.7798 51 18.7799 51 18.7799 51 18.78 51L38.5 51 38.5 49 18.78 49C18.6147 48.9893 18.4893 48.8467 18.4999 48.6813 18.4999 48.6809 18.5 48.6804 18.5 48.68ZM14.5 26 14.5 22 16.5 22 16.5 26ZM14.5 42 14.5 38 16.5 38 16.5 42Z" fill="#FFFFFF"/><path d="M34.5 23C38.3535 23.0129 41.7712 25.4777 43 29.13L44.9 28.49C42.967 22.7306 36.7311 19.6287 30.9717 21.5617 25.2123 23.4947 22.1103 29.7306 24.0433 35.49 25.9763 41.2494 32.2123 44.3513 37.9717 42.4183 41.2389 41.3217 43.8034 38.7573 44.9 35.49L43 34.87C41.4149 39.5811 36.3109 42.1151 31.5998 40.5301 26.8888 38.945 24.3547 33.841 25.9398 29.1299 27.1757 25.4566 30.6244 22.987 34.5 23Z" fill="#FFFFFF"/><path d="M48.5 31 40.41 31C39.8577 27.7326 36.7613 25.5316 33.4939 26.0839 30.2266 26.6362 28.0256 29.7326 28.5778 33 29.1301 36.2674 32.2266 38.4684 35.4939 37.9161 38.0118 37.4905 39.9844 35.5179 40.41 33L48.5 33ZM34.5 36C32.2909 36 30.5 34.2091 30.5 32 30.5 29.7909 32.2909 28 34.5 28 36.7091 28 38.5 29.7909 38.5 32 38.5 34.2091 36.7091 36 34.5 36Z" fill="#FFFFFF"/></g></svg>