<svg width="75" height="75" viewBox="0 0 75 75" xmlns="http://www.w3.org/2000/svg" xmlns:xlink="http://www.w3.org/1999/xlink" id="Product_Icon" overflow="hidden"><defs><linearGradient x1="-37.5" y1="37.5" x2="112.5" y2="37.5" gradientUnits="userSpaceOnUse" id="BlueGradient" gradientTransform="matrix(0.707107 -0.707107 0.707107 0.707107 -15.53 37.5)"><stop offset="0" stop-color="#2E27AD"/><stop offset="1" stop-color="#527FFF"/></linearGradient></defs><rect x="0" y="0" width="75" height="75" id="Blue_Gradient" fill="url(#BlueGradient)"/><g id="Icon_Test"><path d="M37.5 63.9C37.3248 63.9012 37.1524 63.8564 37 63.77L15 51.07C14.6894 50.8907 14.4986 50.5587 14.5 50.2L14.5 24.8C14.4986 24.4413 14.6894 24.1093 15 23.93L37 11.23C37.3094 11.0514 37.6906 11.0514 38 11.23L60 23.93C60.3106 24.1093 60.5014 24.4413 60.5 24.8L60.5 50.2C60.5014 50.5587 60.3106 50.8907 60 51.07L38 63.77C37.8476 63.8564 37.6752 63.9012 37.5 63.9ZM16.5 49.62 36.5 61.17 36.5 53.1 38.5 53.1 38.5 61.17 58.5 49.62 58.5 26.54 51.85 30.38 50.85 28.65 57.51 24.8 37.51 13.25 17.51 24.79 24.18 28.65 23.18 30.38 16.5 26.52ZM37.5 51.2C37.3248 51.2012 37.1524 51.1564 37 51.07L26 44.72C25.6894 44.5407 25.4986 44.2087 25.5 43.85L25.5 31.15C25.4986 30.7913 25.6894 30.4593 26 30.28L37 23.93C37.3094 23.7514 37.6906 23.7514 38 23.93L49 30.28C49.3106 30.4593 49.5014 30.7913 49.5 31.15L49.5 43.85C49.5014 44.2087 49.3106 44.5407 49 44.72L38 51.07C37.8476 51.1564 37.6752 51.2012 37.5 51.2ZM27.5 43.27 36.5 48.47 36.5 38.08 27.5 32.88ZM38.5 38.08 38.5 48.47 47.5 43.27 47.5 32.88ZM28.5 31.15 37.5 36.35 46.5 31.15 37.5 25.95Z" fill="#FFFFFF"/></g></svg>