<svg width="75" height="75" viewBox="0 0 75 75" xmlns="http://www.w3.org/2000/svg" xmlns:xlink="http://www.w3.org/1999/xlink" overflow="hidden"><defs><linearGradient x1="-20.83" y1="131.69" x2="-20.83" y2="-18.31" gradientUnits="userSpaceOnUse" id="Blue_Gradient" gradientTransform="matrix(0.707107 0.707107 -0.707107 0.707107 92.31 12.14)"><stop offset="0" stop-color="#2E27AD"/><stop offset="1" stop-color="#527FFF"/></linearGradient></defs><g id="Working"><rect x="0" y="0" width="75" height="75" id="Green_Gradient" fill="url(#Blue_Gradient)"/><path d="M56 47 56 47 47.51 42.25 47.51 32.9C47.5204 32.5285 47.324 32.1819 47 32L47 32 38 27C37.6906 26.8214 37.3094 26.8214 37 27L28 32 28 32C27.6963 32.1801 27.5101 32.5069 27.51 32.86L27.51 42.23 19 47 19 47C18.6932 47.1819 18.5065 47.5134 18.51 47.87L18.51 58.87C18.5086 59.2287 18.6994 59.5607 19.01 59.74L28.01 64.87 28.01 64.87C28.1603 64.9527 28.3285 64.9973 28.5 65 28.6745 64.9959 28.8456 64.9514 29 64.87L37.51 60 46.05 64.76 46.05 64.76C46.2003 64.8427 46.3685 64.8873 46.54 64.89 46.7088 64.8905 46.8746 64.8456 47.02 64.76L56.02 59.76C56.3345 59.5832 56.5294 59.2508 56.53 58.89L56.53 47.89C56.5327 47.5178 56.3285 47.1749 56 47ZM29.54 34.62 36.54 38.49 36.54 46.18 29.54 42.29ZM45.54 42.27 38.54 46.18 38.54 38.5 45.54 34.6ZM38.54 49.59 45.54 53.59 45.54 62.24 38.54 58.32ZM39.54 47.89 46.54 44.01 53.54 47.91 46.6 51.83ZM37.54 29.05 44.47 32.9 37.47 36.76 30.56 32.92ZM20.54 49.61 27.54 53.53 27.54 62.29 20.54 58.29ZM28.54 51.79 21.54 47.91 28.54 44.02 35.46 47.88ZM36.54 58.29 29.54 62.29 29.54 53.52 36.54 49.59ZM54.54 58.29 47.54 62.18 47.54 53.56 54.54 49.62ZM65.73 36.29C65.9514 41.1182 62.7731 45.4461 58.1 46.68L57.49 44.77C61.3196 43.8003 63.9265 40.2546 63.71 36.31 63.71 29.51 58.11 27.82 55.71 27.4 55.1754 27.3081 54.8116 26.8067 54.89 26.27L54.89 26.27C54.65 23.17 53.2 20.95 51 20.27 49.1184 19.7576 47.1176 20.4819 46 22.08 45.6734 22.5254 45.0477 22.6217 44.6023 22.2952 44.4396 22.1759 44.3168 22.0103 44.25 21.82 43.5015 19.6369 42.275 17.6486 40.66 16 36.9575 12.0605 31.167 10.8968 26.23 13.1 21.99 14.89 18.67 20.1 18.67 24.87 18.6698 25.4079 18.6998 25.9454 18.76 26.48 18.8142 26.9799 18.4888 27.4423 18 27.56 13.912 28.3662 11.0417 32.0595 11.27 36.22 11.27 36.42 11.27 36.61 11.27 36.8 11.5209 40.7712 14.3801 44.092 18.27 44.93L17.82 46.87C13.0649 45.8171 9.58874 41.7323 9.31 36.87 9.31 36.65 9.31 36.42 9.31 36.19 9.07969 31.4518 12.1401 27.178 16.7 25.87 16.7 25.54 16.7 25.2 16.7 24.87 16.7 19.23 20.47 13.37 25.48 11.25 31.1659 8.72917 37.8226 10.0541 42.11 14.56 43.5649 16.0439 44.7344 17.7829 45.56 19.69 47.2154 18.2781 49.4668 17.7866 51.56 18.38 54.46 19.23 56.4 21.9 56.84 25.59 59.66 26.25 65.71 28.58 65.71 36.31Z" fill="#FFFFFF"/></g></svg>