<svg width="75" height="75" viewBox="0 0 75 75" xmlns="http://www.w3.org/2000/svg" xmlns:xlink="http://www.w3.org/1999/xlink" id="Product_Icon" overflow="hidden"><defs><linearGradient x1="37.5" y1="-37.5" x2="37.5" y2="112.5" gradientUnits="userSpaceOnUse" id="BlueGradient" gradientTransform="matrix(-0.707107 -0.707107 0.707107 -0.707107 37.5 90.53)"><stop offset="0" stop-color="#2E27AD"/><stop offset="1" stop-color="#527FFF"/></linearGradient></defs><rect x="0" y="0" width="75" height="75" id="Blue_Gradient" fill="url(#BlueGradient)"/><g id="Icon_Test"><path d="M52.5 53.49 22.35 53.49C17.2576 53.6192 12.9473 49.7561 12.52 44.68 12.52 44.46 12.52 44.24 12.52 44.02 12.3471 39.8983 15.0291 36.1981 19 35.08 19 34.83 19 34.59 19 34.34 19.1604 27.0682 25.1854 21.3032 32.4572 21.4636 35.9081 21.5397 39.1913 22.9676 41.6 25.44 42.8578 26.6674 43.8753 28.119 44.6 29.72 46.1326 28.5163 48.1588 28.1425 50.02 28.72 52.53 29.48 54.21 31.72 54.61 34.87 59.69 36.13 62.48 39.39 62.48 44.12 62.5 51 57.33 53.49 52.5 53.49ZM20.26 36.8C18.08 37.36 14.5 39 14.5 44 14.5 44.19 14.5 44.37 14.5 44.55 14.8683 48.5649 18.3003 51.598 22.33 51.47L52.5 51.47C54.91 51.47 60.5 50.75 60.5 44.07 60.5 40.07 58.15 37.56 53.5 36.62 53.0556 36.5301 52.7273 36.1526 52.7 35.7 52.53 33.03 51.35 31.16 49.45 30.58 47.8187 30.0916 46.057 30.6895 45.06 32.07 44.8389 32.3579 44.4791 32.5033 44.12 32.45 43.7574 32.3946 43.4542 32.1452 43.33 31.8 42.6728 29.9377 41.6067 28.2462 40.21 26.85 35.9292 22.4079 28.858 22.2772 24.4159 26.558 22.2964 28.6006 21.0688 31.3972 21 34.34 20.9965 34.7913 21.0232 35.2423 21.08 35.69 21.1467 36.2195 20.7858 36.7081 20.26 36.8Z" fill="#FFFFFF"/><path d="M32.5 45.87C33.5346 46.3794 34.6672 46.6592 35.82 46.69 37.0304 46.7753 38.212 46.2952 39.02 45.39 39.8455 44.2206 40.2828 42.8214 40.27 41.39 39.7274 41.7519 39.1343 42.0315 38.51 42.22 37.8624 42.4206 37.188 42.5218 36.51 42.52 35.254 42.5844 34.0283 42.1203 33.13 41.24 32.2639 40.2869 31.8171 39.0258 31.89 37.74 31.8756 36.8255 32.0886 35.9218 32.51 35.11 32.927 34.3462 33.5509 33.7155 34.31 33.29 35.1271 32.8183 36.0566 32.5764 37 32.59 38.5807 32.496 40.104 33.1976 41.06 34.46 42.0972 36.0803 42.5878 37.9904 42.46 39.91 42.6031 42.1518 42.0249 44.3805 40.81 46.27 39.7159 47.7473 37.9561 48.5803 36.12 48.49 34.8441 48.5383 33.5821 48.2115 32.49 47.55ZM37.27 40.73C37.8536 40.7291 38.4348 40.6552 39 40.51 39.5399 40.367 40.0604 40.1588 40.55 39.89L40.55 39.58C40.51 36.12 39.4033 34.39 37.23 34.39 36.4417 34.3559 35.6792 34.6748 35.15 35.26 34.6058 35.9068 34.3271 36.7358 34.37 37.58 34.3084 38.4276 34.5772 39.2661 35.12 39.92 35.6899 40.4818 36.471 40.7761 37.27 40.73Z" fill="#FFFFFF"/></g></svg>