<svg width="75" height="75" viewBox="0 0 75 75" xmlns="http://www.w3.org/2000/svg" xmlns:xlink="http://www.w3.org/1999/xlink" id="Product_Icon" overflow="hidden"><defs><linearGradient x1="-15.53" y1="90.53" x2="90.53" y2="-15.53" gradientUnits="userSpaceOnUse" id="BlueGradient"><stop offset="0" stop-color="#2E27AD"/><stop offset="1" stop-color="#527FFF"/></linearGradient></defs><rect x="0" y="0" width="75" height="75" id="Blue_Gradient" fill="url(#BlueGradient)"/><g id="Icon_Test"><path d="M57 12.5 18 12.5C14.979 12.4834 12.5166 14.9189 12.5 17.9398 12.4999 17.9599 12.4999 17.9799 12.5 18L12.5 29C12.4834 32.021 14.9189 34.4834 17.9398 34.5 17.9599 34.5001 17.9799 34.5001 18 34.5L19.5 34.5 19.5 61.5C19.5 62.0523 19.9477 62.5 20.5 62.5L54.5 62.5C55.0523 62.5 55.5 62.0523 55.5 61.5L55.5 34.5 57 34.5C60.021 34.5166 62.4834 32.0811 62.5 29.0602 62.5001 29.0401 62.5001 29.0201 62.5 29L62.5 18C62.5166 14.979 60.0811 12.5166 57.0602 12.5 57.0401 12.4999 57.0201 12.4999 57 12.5ZM53.46 60.5 21.46 60.5 21.46 34.5 53.46 34.5ZM57 32.5 18 32.5C16.2726 32.4947 14.8153 31.2127 14.59 29.5L31.59 29.5 31.59 27.5 14.59 27.5 14.59 18C14.5678 16.0929 16.093 14.5274 18 14.5L57 14.5C58.9108 14.4778 60.4778 16.0088 60.5 17.9195 60.5003 17.9464 60.5003 17.9732 60.5 18L60.5 27.5 41.5 27.5 41.5 29.5 60.5 29.5C60.2706 31.2471 58.7616 32.5405 57 32.5Z" fill="#FFFFFF"/><path d="M25.08 47.35 30.8 52.28 32.11 50.77 27.25 46.58 32.14 42.27 30.81 40.77 25.07 45.85C24.8542 46.0396 24.7304 46.3128 24.73 46.6 24.7329 46.8888 24.8605 47.1623 25.08 47.35Z" fill="#FFFFFF"/><path d="M44.25 52.32 50.01 47.32C50.2284 47.1281 50.3525 46.8507 50.35 46.56 50.3496 46.2728 50.2258 45.9996 50.01 45.81L44.25 40.81 42.94 42.32 47.83 46.56 42.94 50.85Z" fill="#FFFFFF"/><rect x="28.91" y="46.03" width="18.13" height="2" fill="#FFFFFF" transform="matrix(0.379133 -0.925342 0.925342 0.379133 -19.94 64.35)"/><rect x="34.5" y="27.5" width="4" height="2" fill="#FFFFFF"/></g></svg>