<svg width="75" height="75" viewBox="0 0 75 75" xmlns="http://www.w3.org/2000/svg" xmlns:xlink="http://www.w3.org/1999/xlink" id="Product_Icon" overflow="hidden"><defs><linearGradient x1="112.5" y1="37.5" x2="-37.5" y2="37.5" gradientUnits="userSpaceOnUse" id="BlueGradient" gradientTransform="matrix(-0.707107 0.707107 -0.707107 -0.707107 90.53 37.5)"><stop offset="0" stop-color="#2E27AD"/><stop offset="1" stop-color="#527FFF"/></linearGradient></defs><rect x="0" y="0" width="75" height="75" id="Blue_Gradient" fill="url(#BlueGradient)"/><g id="Icon_Test"><path d="M34.5 27.43C31.7386 27.4272 29.4978 29.6636 29.495 32.425 29.4926 34.8047 31.1678 36.8564 33.5 37.33L33.5 43.92C33.4718 44.9272 32.8225 45.8115 31.87 46.14L22.8 49.7C21.4059 50.2403 20.3126 51.3555 19.8 52.76 19.3946 52.5448 18.9601 52.3898 18.51 52.3L18.51 44.52C21.2162 43.9705 22.9645 41.3312 22.415 38.625 22.0155 36.6574 20.4777 35.1195 18.51 34.72L18.51 22.46C21.2156 21.9077 22.9613 19.2667 22.409 16.561 21.8567 13.8554 19.2156 12.1098 16.51 12.662 13.8044 13.2143 12.0587 15.8554 12.611 18.561 13.0118 20.5246 14.5464 22.0592 16.51 22.46L16.51 34.72C13.8038 35.2695 12.0555 37.9088 12.605 40.615 13.0045 42.5826 14.5423 44.1205 16.51 44.52L16.51 52.3C13.8028 52.8448 12.0499 55.481 12.5946 58.1881 13.1394 60.8953 15.7756 62.6482 18.4827 62.1035 21.1899 61.5587 22.9429 58.9225 22.3981 56.2154 22.2527 55.4929 21.9495 54.8116 21.51 54.22 21.5826 53.0147 22.3708 51.9703 23.51 51.57L32.6 48C34.3194 47.3675 35.472 45.7418 35.5 43.91L35.5 37.33C38.2062 36.7805 39.9545 34.1412 39.405 31.435 38.9315 29.1028 36.8798 27.4276 34.5 27.43ZM14.5 17.57C14.5 15.9131 15.8431 14.57 17.5 14.57 19.1569 14.57 20.5 15.9131 20.5 17.57 20.5 19.2269 19.1569 20.57 17.5 20.57 15.8431 20.57 14.5 19.2269 14.5 17.57ZM14.5 39.57C14.5 37.9131 15.8431 36.57 17.5 36.57 19.1569 36.57 20.5 37.9131 20.5 39.57 20.5 41.2269 19.1569 42.57 17.5 42.57 15.8625 42.5702 14.5273 41.2573 14.5 39.62ZM17.5 60.15C15.8431 60.15 14.5 58.8069 14.5 57.15 14.5 55.4931 15.8431 54.15 17.5 54.15 19.1569 54.15 20.5 55.4931 20.5 57.15 20.5276 58.8066 19.207 60.172 17.5504 60.1996 17.5336 60.1999 17.5168 60.2 17.5 60.2ZM34.5 35.38C32.8431 35.38 31.5 34.0369 31.5 32.38 31.5 30.7231 32.8431 29.38 34.5 29.38 36.1569 29.38 37.5 30.7231 37.5 32.38 37.5276 34.0366 36.207 35.402 34.5504 35.4296 34.5336 35.4299 34.5168 35.43 34.5 35.43Z" fill="#FFFFFF"/><path d="M61.5 62.43 34.5 62.43C33.9477 62.43 33.5 61.9823 33.5 61.43L33.5 50.43 35.5 50.43 35.5 60.43 60.5 60.43 60.5 24.43 35.5 24.43 35.5 22.43 61.5 22.43C62.0523 22.43 62.5 22.8777 62.5 23.43L62.5 61.43C62.5 61.9823 62.0523 62.43 61.5 62.43Z" fill="#FFFFFF"/><path d="M43.32 46.9 39.3 43C39.0909 42.7962 38.9814 42.5113 39 42.22 39.0209 41.9301 39.1669 41.6636 39.4 41.49L43.89 38.13 45.09 39.73 41.54 42.39 44.71 45.48Z" fill="#FFFFFF"/><path d="M53.11 47.54 51.91 45.94 55.46 43.28 52.29 40.19 53.68 38.75 57.68 42.66C58.0762 43.0447 58.0856 43.6778 57.7009 44.0741 57.6635 44.1126 57.6231 44.148 57.58 44.18Z" fill="#FFFFFF"/><rect x="41.35" y="42.43" width="14.22" height="2" fill="#FFFFFF" transform="matrix(0.402267 -0.915522 0.915522 0.402267 -10.8 70.33)"/><path d="M31.21 25.72 30.5 26.43 29.79 27.14 25.5 22.85 25.5 26.43 23.5 26.43 23.5 20.43C23.5 19.8777 23.9477 19.43 24.5 19.43L30.5 19.43 30.5 21.43 26.92 21.43Z" fill="#FFFFFF"/></g></svg>