<svg width="75" height="75" viewBox="0 0 75 75" xmlns="http://www.w3.org/2000/svg" xmlns:xlink="http://www.w3.org/1999/xlink" id="Product_Icon" overflow="hidden"><defs><linearGradient x1="37.5" y1="-37.5" x2="37.5" y2="112.5" gradientUnits="userSpaceOnUse" id="BlueGradient" gradientTransform="matrix(-0.707107 -0.707107 0.707107 -0.707107 37.5 90.53)"><stop offset="0" stop-color="#2E27AD"/><stop offset="1" stop-color="#527FFF"/></linearGradient></defs><rect x="0" y="0" width="75" height="75" id="Blue_Gradient" fill="url(#BlueGradient)"/><g id="Icon_Test"><path d="M54.64 45.42 54.36 43.42C57.16 43.03 60.5 41.42 60.5 36.09 60.5 31.09 56.7 29.25 53.5 28.61 53.0556 28.5201 52.7273 28.1426 52.7 27.69 52.48 23.78 50.21 22.39 48.33 22.39 47.0489 22.3947 45.8449 23.0023 45.08 24.03 44.8594 24.3251 44.4943 24.4749 44.13 24.42 43.7698 24.3664 43.4671 24.1213 43.34 23.78 42.6879 21.9005 41.6216 20.1917 40.22 18.78 35.9577 14.3279 28.8932 14.174 24.4411 18.4364 22.2843 20.5013 21.0449 23.3444 21 26.33 21.0014 26.7811 21.0281 27.2318 21.08 27.68 21.1404 28.1804 20.819 28.6476 20.33 28.77 18.16 29.31 14.5 31 14.5 36 14.5 36.19 14.5 36.37 14.5 36.55 14.66 39.55 17.23 42.24 20.74 43.17L20.22 45.11C15.89 43.95 12.71 40.47 12.5 36.65 12.5 36.43 12.5 36.23 12.5 36 12.3118 31.8444 15.021 28.1103 19.03 27 19.03 26.75 19.03 26.51 19.03 26.26 19.2307 18.9837 25.292 13.2477 32.5683 13.4483 35.9837 13.5425 39.229 14.9593 41.62 17.4 42.865 18.642 43.8806 20.0944 44.62 21.69 45.6782 20.8595 46.9848 20.4087 48.33 20.41 51.14 20.41 54.09 22.41 54.63 26.83 59.71 28.09 62.5 31.36 62.5 36.11 62.5 41.33 59.63 44.72 54.64 45.42Z" fill="#FFFFFF"/><path d="M37.5 31.54C29.2157 31.54 22.5 38.2557 22.5 46.54 22.5 54.8243 29.2157 61.54 37.5 61.54 45.7843 61.54 52.5 54.8243 52.5 46.54 52.5 38.2557 45.7843 31.54 37.5 31.54ZM37.5 59.54C30.3203 59.54 24.5 53.7197 24.5 46.54 24.5 39.3603 30.3203 33.54 37.5 33.54 44.6797 33.54 50.5 39.3603 50.5 46.54 50.5 53.7197 44.6797 59.54 37.5 59.54Z" fill="#FFFFFF"/><path d="M45.5 51.49 45.5 53.49 29.5 53.49 29.5 51.49 31.5 51.49 31.5 45.54 33.5 45.54 33.5 51.49 36.5 51.49 36.5 42.54 38.5 42.54 38.5 51.49 41.5 51.49 41.5 39.54 43.5 39.54 43.5 51.49 45.5 51.49Z" fill="#FFFFFF"/></g></svg>