<svg width="75" height="75" viewBox="0 0 75 75" xmlns="http://www.w3.org/2000/svg" xmlns:xlink="http://www.w3.org/1999/xlink" id="Product_Icon" overflow="hidden"><defs><linearGradient x1="112.5" y1="37.5" x2="-37.5" y2="37.5" gradientUnits="userSpaceOnUse" id="BlueGradient" gradientTransform="matrix(-0.707107 0.707107 -0.707107 -0.707107 90.53 37.5)"><stop offset="0" stop-color="#2E27AD"/><stop offset="1" stop-color="#527FFF"/></linearGradient></defs><rect x="0" y="0" width="75" height="75" id="Blue_Gradient" fill="url(#BlueGradient)"/><g id="Icon_Test"><path d="M42.92 48.25 44.31 46.82 41.45 44 44.65 41.61 43.45 40 39.31 43.1C38.8668 43.4295 38.7746 44.0559 39.1041 44.4991 39.1361 44.5422 39.1715 44.5826 39.21 44.62Z" fill="#FFFFFF"/><path d="M54.05 44.85 50.85 47.25 52.05 48.85 56.19 45.75C56.4256 45.5741 56.5719 45.3035 56.59 45.01 56.6086 44.7187 56.4991 44.4337 56.29 44.23L52.58 40.63 51.19 42.06Z" fill="#FFFFFF"/><rect x="41.16" y="44" width="13.11" height="2" fill="#FFFFFF" transform="matrix(0.402747 -0.915311 0.915311 0.402747 -12.69 70.55)"/><path d="M63.39 20.73 60.59 18.41 56.15 14.73 56.15 14.73 54.98 13.73C54.8001 13.5809 54.5737 13.4995 54.34 13.5L17.26 13.5 17.26 13.5C17.26 12.9477 16.8123 12.5 16.26 12.5L12.26 12.5C11.7077 12.5 11.26 12.9477 11.26 13.5L11.26 23.5C11.26 24.0523 11.7077 24.5 12.26 24.5L16.26 24.5 16.26 61.5C16.26 62.0523 16.7077 62.5 17.26 62.5L28.26 62.5C28.8123 62.5 29.26 62.0523 29.26 61.5L29.26 22.5 47.26 22.5 47.26 29.83 36.05 34.5 35.25 34.5C34.6977 34.5 34.25 34.9477 34.25 35.5L34.25 53.5C34.25 54.0523 34.6977 54.5 35.25 54.5L61.25 54.5C61.8023 54.5 62.25 54.0523 62.25 53.5L62.25 35.5C62.25 34.9477 61.8023 34.5 61.25 34.5L60.45 34.5 49.25 29.83 49.25 22.5 62.75 22.5C63.171 22.4998 63.5468 22.2359 63.69 21.84 63.834 21.4438 63.714 20.9998 63.39 20.73ZM54 15.54 48.84 20.2 42.66 15.52 54 15.52ZM28.27 20.54 20.27 20.54 25.21 16.79 30.1 20.5ZM18.76 41 27.25 33.47 27.25 48.53ZM26.76 50.75 18.27 58.28 18.27 43.22ZM18.27 38.75 18.27 23.72 26.76 31.25ZM26.85 15.48 39.32 15.48 33.08 20.22ZM41 16.75 45.94 20.5 36.05 20.5ZM23.5 15.5 17.25 20.25 17.25 15.5ZM15.25 22.5 13.25 22.5 13.25 14.5 15.25 14.5 15.25 22.5ZM18.76 60.5 27.25 53 27.25 60.5ZM27.25 29 19.89 22.5 27.25 22.5ZM60.25 52.47 36.25 52.47 36.25 36.47 60.25 36.47ZM41.25 34.47 48.25 31.55 55.25 34.47ZM51.49 20.47 55.49 16.79 60 20.5Z" fill="#FFFFFF"/></g></svg>