<svg width="75" height="75" viewBox="0 0 75 75" xmlns="http://www.w3.org/2000/svg" xmlns:xlink="http://www.w3.org/1999/xlink" id="Product_Icon" overflow="hidden"><defs><linearGradient x1="112.5" y1="37.5" x2="-37.5" y2="37.5" gradientUnits="userSpaceOnUse" id="BlueGradient" gradientTransform="matrix(-0.707107 0.707107 -0.707107 -0.707107 90.53 37.5)"><stop offset="0" stop-color="#2E27AD"/><stop offset="1" stop-color="#527FFF"/></linearGradient></defs><rect x="0" y="0" width="75" height="75" id="Blue_Gradient" fill="url(#BlueGradient)"/><g id="Icon_Test"><path d="M45.5 38.18C44.981 38.1821 44.5467 37.7869 44.5 37.27L44.5 37C44.36 35.7 43.85 35.21 42.82 34.23L42.5 33.92C41.1565 32.629 39.3632 31.9117 37.5 31.92 34.39 31.92 30.92 33.25 30.5 36.99L30.5 37.28C30.5 37.8323 30.0523 38.28 29.5 38.28 28.9477 38.28 28.5 37.8323 28.5 37.28 28.4 35.8 27.81 35.23 26.63 34.09L26.5 33.95C25.1565 32.659 23.3632 31.9417 21.5 31.95 17.69 31.95 14.96 33.88 14.5 36.86 14.4503 37.4123 13.9623 37.8197 13.41 37.77 12.8577 37.7203 12.4503 37.2323 12.5 36.68 12.8114 23.1426 23.96 12.3775 37.5 12.54 51.5 12.54 62.25 22.92 62.5 36.7L62.5 36.8C62.5 37.3523 62.0523 37.8 61.5 37.8L61.5 37.8C60.9477 37.8 60.5 37.3523 60.5 36.8L60.5 36.73C60.5 35.9 59.68 35.08 58.5 33.93 57.16 32.6335 55.3644 31.9153 53.5 31.93 50.43 31.93 46.76 33.33 46.5 37.26 46.4632 37.7848 46.0261 38.1913 45.5 38.19ZM21.5 29.92C23.8787 29.9154 26.1649 30.8413 27.87 32.5L28.03 32.65C28.5096 33.0912 28.9574 33.5657 29.37 34.07 30.77 31.5 33.72 30 37.51 30 39.8847 29.9863 42.1707 30.9014 43.88 32.55L44.19 32.85C44.6235 33.2435 45.0279 33.668 45.4 34.12 46.81 31.55 49.77 29.97 53.5 29.97 55.8822 29.9628 58.1725 30.8889 59.88 32.55L60.09 32.75C58.09 22.07 49 14.5 37.5 14.5 26.8886 14.356 17.6012 21.6022 15.16 31.93 16.9821 30.5563 19.2192 29.847 21.5 29.92Z" fill="#FFFFFF"/><rect x="17.02" y="34.29" width="2" height="10.67" fill="#FFFFFF" transform="matrix(0.545517 -0.8381 0.8381 0.545517 -25.02 33.11)"/><rect x="52.66" y="38.55" width="9.72" height="2" fill="#FFFFFF" transform="matrix(0.820651 -0.57143 0.57143 0.820651 -12.28 39.96)"/><path d="M45.44 41.76 43.5 41.23 44.5 37.03 44.5 36.03C44.5 23.32 40.84 14.47 37.5 14.47 34.16 14.47 30.5 23.33 30.5 36.04L30.5 37 31.5 41.21 29.57 41.74 28.57 37.42 28.57 36C28.5 20.75 33.14 12.5 37.5 12.5 41.86 12.5 46.5 20.76 46.5 36.07L46.5 36.76C46.49 36.9098 46.49 37.0602 46.5 37.21 46.51 37.2561 46.51 37.3039 46.5 37.35 46.51 37.3995 46.51 37.4505 46.5 37.5Z" fill="#FFFFFF"/><path d="M33.17 56.25 29.5 52.64C29.2909 52.4362 29.1814 52.1513 29.2 51.86 29.2209 51.5701 29.3669 51.3036 29.6 51.13L33.74 48 34.94 49.6 31.74 52 34.6 54.79Z" fill="#FFFFFF"/><path d="M42.31 56.84 41.11 55.24 44.32 52.84 41.5 50.05 42.9 48.62 46.6 52.23C46.9962 52.6147 47.0056 53.2478 46.6209 53.6441 46.5835 53.6826 46.5431 53.718 46.5 53.75Z" fill="#FFFFFF"/><rect x="31.41" y="52" width="13.11" height="2" fill="#FFFFFF" transform="matrix(0.403386 -0.91503 0.91503 0.403386 -25.85 66.36)"/><path d="M50.5 62.5 25.5 62.5C24.9477 62.5 24.5 62.0523 24.5 61.5L24.5 44.5C24.5 43.9477 24.9477 43.5 25.5 43.5L50.5 43.5C51.0523 43.5 51.5 43.9477 51.5 44.5L51.5 61.5C51.5 62.0523 51.0523 62.5 50.5 62.5ZM26.5 60.5 49.5 60.5 49.5 45.5 26.5 45.5Z" fill="#FFFFFF"/></g></svg>