<svg width="75" height="75" viewBox="0 0 75 75" xmlns="http://www.w3.org/2000/svg" xmlns:xlink="http://www.w3.org/1999/xlink" id="Product_Icon" overflow="hidden"><defs><linearGradient x1="-15.54" y1="90.54" x2="90.53" y2="-15.53" gradientUnits="userSpaceOnUse" id="BlueGradient"><stop offset="0" stop-color="#2E27AD"/><stop offset="1" stop-color="#527FFF"/></linearGradient></defs><rect x="0" y="0" width="75" height="75" id="Blue_Gradient" fill="url(#BlueGradient)"/><g id="Icon_Test"><path d="M31.8 41.59 27.4 37.3C27.0131 36.9058 27.0191 36.2727 27.4132 35.8858 27.4407 35.8589 27.4696 35.8336 27.5 35.81L32.41 32.12 33.59 33.69 29.59 36.69 33.17 40.19Z" fill="#FFFFFF"/><path d="M42.38 42.28 41.21 40.71 45.21 37.71 41.63 34.21 43 32.81 47.4 37.1C47.7869 37.4942 47.7809 38.1273 47.3868 38.5141 47.3593 38.5411 47.3304 38.5664 47.3 38.59Z" fill="#FFFFFF"/><rect x="29.55" y="36.89" width="15.6" height="1.96" fill="#FFFFFF" transform="matrix(0.402267 -0.915522 0.915522 0.402267 -12.34 56.83)"/><path d="M48.5 17.51 48.5 19.86 46 19C46.0718 18.6343 46.1086 18.2626 46.11 17.89 46.1118 14.9187 43.7046 12.5085 40.7333 12.5067 37.762 12.5049 35.3518 14.9121 35.35 17.8834 35.3482 20.8547 37.7554 23.2649 40.7267 23.2667 42.5483 23.2678 44.2468 22.3471 45.24 20.82L49.24 22.15C49.3449 22.1909 49.4577 22.208 49.57 22.2 49.7773 22.2016 49.98 22.1387 50.15 22.02 50.4094 21.8354 50.5653 21.5383 50.57 21.22L50.57 17.51ZM40.68 21.33C38.7801 21.3355 37.2355 19.7999 37.23 17.9 37.2245 16.0001 38.7602 14.4555 40.66 14.45 42.5599 14.4445 44.1045 15.9802 44.11 17.88 44.11 17.8867 44.11 17.8933 44.11 17.9 44.1045 19.7921 42.5721 21.3245 40.68 21.33Z" fill="#FFFFFF"/><path d="M30 18.88C29.9693 18.565 29.7913 18.2831 29.52 18.12L26.28 16.26 25.28 17.95 27.33 19.14 25.46 20.76C25.2414 20.5765 25.0072 20.4126 24.76 20.27 23.5263 19.5428 22.0501 19.3479 20.67 19.73 17.7926 20.4929 16.0784 23.4439 16.8413 26.3213 17.4677 28.684 19.6057 30.3294 22.05 30.33 22.5257 30.3293 22.9994 30.2688 23.46 30.15 26.3355 29.3744 28.0401 26.417 27.27 23.54 27.1508 23.0838 26.9691 22.6463 26.73 22.24L29.65 19.71C29.8917 19.5045 30.0216 19.1965 30 18.88ZM25 26.65C24.5719 27.4295 23.853 28.0083 23 28.26 22.1196 28.4851 21.1861 28.3558 20.4 27.9 19.6074 27.4563 19.0297 26.7089 18.8 25.83 18.3056 24.0013 19.3873 22.1181 21.216 21.6237 21.2207 21.6225 21.2253 21.6212 21.23 21.62 21.5204 21.5435 21.8197 21.5065 22.12 21.51 23.6742 21.5006 25.0369 22.5463 25.43 24.05 25.6625 24.9288 25.5366 25.864 25.08 26.65Z" fill="#FFFFFF"/><path d="M23.6 41.84C22.8808 40.6032 21.7018 39.701 20.32 39.33 19.8629 39.2106 19.3924 39.1501 18.92 39.15L18.19 35.35C18.1242 35.0414 17.9167 34.7819 17.63 34.65 17.3391 34.5228 17.0051 34.5414 16.73 34.7L13.5 36.57 14.5 38.27 16.5 37.08 17 39.52C16.7347 39.613 16.48 39.7336 16.24 39.88 13.6593 41.3527 12.7611 44.6386 14.2338 47.2192 14.2359 47.2228 14.2379 47.2264 14.24 47.23 14.9504 48.4745 16.127 49.3849 17.51 49.76 17.971 49.8755 18.4447 49.9327 18.92 49.93 19.8618 49.9352 20.7876 49.6865 21.6 49.21 24.1854 47.7345 25.0853 44.4426 23.6098 41.8571 23.6066 41.8514 23.6033 41.8457 23.6 41.84ZM22.24 45.43C21.7662 47.2527 19.9044 48.3462 18.0817 47.8723 18.0544 47.8652 18.0272 47.8578 18 47.85 17.151 47.6021 16.433 47.0313 16 46.26 15.5428 45.4705 15.417 44.5321 15.65 43.65 16.0643 42.1605 17.414 41.1247 18.96 41.11 19.2632 41.1124 19.5651 41.1493 19.86 41.22 20.7397 41.4589 21.4882 42.0382 21.94 42.83 22.3862 43.6209 22.4944 44.5583 22.24 45.43Z" fill="#FFFFFF"/><path d="M34.31 51.71C32.482 51.7136 30.7803 52.6434 29.79 54.18L25.79 52.83C25.2687 52.6477 24.6983 52.9226 24.516 53.444 24.4794 53.5488 24.4604 53.659 24.46 53.77L24.46 57.51 26.46 57.51 26.46 55.14 29 56C28.9195 56.3645 28.8793 56.7367 28.88 57.11 28.88 60.0868 31.2932 62.5 34.27 62.5 37.2468 62.5 39.66 60.0868 39.66 57.11 39.66 54.1332 37.2468 51.72 34.27 51.72ZM34.31 60.53C32.4157 60.53 30.88 58.9943 30.88 57.1 30.88 55.2057 32.4157 53.67 34.31 53.67 36.2043 53.67 37.74 55.2057 37.74 57.1 37.7345 58.9921 36.2021 60.5245 34.31 60.53Z" fill="#FFFFFF"/><path d="M55.58 45.4C53.0127 43.9042 49.7189 44.7728 48.223 47.3401 47.4975 48.5852 47.3019 50.0694 47.68 51.46 47.8009 51.9156 47.9826 52.3528 48.22 52.76L45.29 55.29C45.0557 55.4994 44.9335 55.8069 44.96 56.12 44.9876 56.4387 45.1661 56.7249 45.44 56.89L48.69 58.76 49.69 57.05 47.64 55.88 49.52 54.24C49.7335 54.4225 49.9647 54.5833 50.21 54.72 51.4415 55.4528 52.9187 55.6515 54.3 55.27 55.6825 54.9058 56.8607 54.0014 57.57 52.76 59.0531 50.179 58.1631 46.8843 55.5821 45.4012 55.5814 45.4008 55.5807 45.4004 55.58 45.4ZM55.85 51.77C55.2518 52.8595 54.0922 53.5204 52.85 53.48 52.258 53.4673 51.6794 53.3019 51.17 53 49.5277 52.0558 48.9619 49.9591 49.9061 48.3168 49.9074 48.3145 49.9087 48.3123 49.91 48.31 50.832 46.6552 52.9209 46.0611 54.5757 46.983 56.2306 47.905 56.8247 49.9939 55.9027 51.6488 55.8856 51.6794 55.868 51.7099 55.85 51.74Z" fill="#FFFFFF"/><path d="M60.52 36.73 58.47 37.92 58 35.48C58.2653 35.387 58.52 35.2664 58.76 35.12 61.3424 33.6393 62.2355 30.3454 60.7547 27.763 59.274 25.1806 55.9802 24.2875 53.3977 25.7683 50.8174 27.2478 49.9233 30.538 51.4 33.12 52.1092 34.3614 53.2875 35.2658 54.67 35.63 55.1272 35.7488 55.5976 35.8093 56.07 35.81L56.8 39.62C56.8686 39.9249 57.0758 40.1801 57.36 40.31 57.4888 40.3687 57.6285 40.3993 57.77 40.4 57.9424 40.4045 58.1125 40.3594 58.26 40.27L61.5 38.4ZM55.18 33.73C53.3478 33.249 52.2524 31.3737 52.7334 29.5415 53.2144 27.7092 55.0897 26.6138 56.9219 27.0948 57.8202 27.3307 58.5845 27.9207 59.04 28.73 59.9827 30.3705 59.4189 32.4645 57.78 33.41 56.9988 33.8798 56.0595 34.0098 55.18 33.77Z" fill="#FFFFFF"/></g></svg>