<svg width="75" height="75" viewBox="0 0 75 75" xmlns="http://www.w3.org/2000/svg" xmlns:xlink="http://www.w3.org/1999/xlink" id="Product_Icon" overflow="hidden"><defs><linearGradient x1="-15.54" y1="-15.53" x2="90.53" y2="90.54" gradientUnits="userSpaceOnUse" id="TurquoiseGradient" gradientTransform="matrix(0 -1 1 0 0 75)"><stop offset="0" stop-color="#055F4E"/><stop offset="1" stop-color="#56C0A7"/></linearGradient></defs><rect x="0" y="0" width="75" height="75" id="Turquoise_Gradient" fill="url(#TurquoiseGradient)"/><g id="Icon_Test"><path d="M36.5 26.86 36.5 29.86 38.5 29.86 38.5 26.86ZM28.83 41.86 27.83 40.13 30.14 38.8 31.14 40.53ZM32.67 39.64 31.67 37.91 34 36.55 35 38.28ZM57 46 56 47.74 58.6 49.24 59.6 47.5ZM52.67 43.5 51.67 45.24 54.27 46.74 55.27 45ZM48.33 41 47.33 42.74 49.93 44.24 50.93 42.5ZM62 28.09 44 17.7C43.6906 17.5214 43.3094 17.5214 43 17.7L36.81 21.27 25 28.09C24.6894 28.2693 24.4986 28.6013 24.5 28.96L24.5 49.74C24.4986 50.0987 24.6894 50.4307 25 50.61L43 61C43.3094 61.1786 43.6906 61.1786 44 61L62 50.61C62.3106 50.4307 62.5014 50.0987 62.5 49.74L62.5 29C62.5162 28.6271 62.3234 28.2763 62 28.09ZM42.5 58.4 26.5 49.17 26.5 43.17 27.3 42.71 26.5 41.32 26.5 30.69 35.71 36 36.51 37.38 37.31 36.92 42.5 39.92ZM43.5 38.2 38.5 35.31 38.5 31.86 36.5 31.86 36.5 34.15 27.5 29 36.5 23.81 36.5 24.9 38.5 24.9 38.5 22.61 43.5 19.72 59.5 29ZM60.5 49.2 44.5 58.43 44.5 41.09 45.6 41.72 46.6 39.98 45.51 39.35 60.51 30.7ZM34.23 17.92 27.36 14C27.0506 13.8214 26.6694 13.8214 26.36 14L13 21.7 13 21.7C12.6963 21.8801 12.5101 22.2069 12.51 22.56L12.51 38C12.509 38.3665 12.7085 38.7041 13.03 38.88L20.03 42.74C20.1774 42.8196 20.3425 42.8608 20.51 42.86 20.6895 42.8599 20.8656 42.8116 21.02 42.72 21.3237 42.5399 21.5099 42.2131 21.51 41.86L21.51 27 34.25 19.64C34.5575 19.4624 34.7479 19.1351 34.75 18.78 34.7438 18.4207 34.5453 18.0924 34.23 17.92ZM19.5 40.17 14.5 37.41 14.5 24.27 19.5 27.02ZM20.5 25.28 15.5 22.56 26.86 16 31.73 18.78Z" fill="#FFFFFF"/></g></svg>