<svg viewBox="0 0 75 75" xmlns="http://www.w3.org/2000/svg" xmlns:xlink="http://www.w3.org/1999/xlink" overflow="hidden"><defs><linearGradient x1="179.53" y1="153.53" x2="73.47" y2="47.47" gradientUnits="userSpaceOnUse" id="Turquoise_Gradient" gradientTransform="matrix(0 1 -1 0 138 -89)"><stop offset="0" stop-color="#055F4E"/><stop offset="1" stop-color="#56C0A7"/></linearGradient></defs><g id="Reference"><rect x="0" y="0" width="75" height="75" id="Red_Gradient" fill="url(#Turquoise_Gradient)"/><g id="Icon_Test"><path d="M62.21 36.79 38.21 12.79C38.0213 12.6028 37.7658 12.4985 37.5 12.5L13.5 12.5C12.9477 12.5 12.5 12.9477 12.5 13.5L12.5 61.5C12.5 62.0523 12.9477 62.5 13.5 62.5L61.5 62.5C62.0523 62.5 62.5 62.0523 62.5 61.5L62.5 37.5C62.5015 37.2342 62.3972 36.9787 62.21 36.79ZM38.5 15.91 59.09 36.5 38.5 36.5ZM60.5 60.5 38.5 60.5 38.5 58.5 36.5 58.5 36.5 60.5 14.5 60.5 14.5 38.5 16.5 38.5 16.5 36.5 14.5 36.5 14.5 14.5 36.5 14.5 36.5 36.5 33.5 36.5 33.5 38.5 36.5 38.5 36.5 41.5 38.5 41.5 38.5 38.5 60.5 38.5ZM18.5 36.5 18.5 38.5 21.5 38.5 21.5 36.5ZM23.5 36.5 23.5 38.5 26.5 38.5 26.5 36.5ZM28.5 36.5 28.5 38.5 31.5 38.5 31.5 36.5ZM36.5 43.5 36.5 46.5 38.5 46.5 38.5 43.5ZM36.5 48.5 36.5 51.5 38.5 51.5 38.5 48.5ZM36.5 53.5 36.5 56.5 38.5 56.5 38.5 53.5Z" fill="#FFFFFF"/></g></g></svg>