<svg viewBox="0 0 75 75" xmlns="http://www.w3.org/2000/svg" xmlns:xlink="http://www.w3.org/1999/xlink" overflow="hidden"><defs><linearGradient x1="124.6" y1="296.78" x2="124.6" y2="146.78" gradientUnits="userSpaceOnUse" id="Turquoise_Gradient" gradientTransform="matrix(0.707107 0.707107 -0.707107 0.707107 106.22 -207.43)"><stop offset="0" stop-color="#055F4E"/><stop offset="1" stop-color="#56C0A7"/></linearGradient></defs><g id="Reference"><rect x="0" y="0" width="75" height="75" id="Green_Gradient" fill="url(#Turquoise_Gradient)"/><g id="ICONS_-_EDIT"><path d="M25.47 46.18 14.6 46.18C13.9814 46.18 13.48 45.6786 13.48 45.06L13.48 14.6C13.48 13.9814 13.9814 13.48 14.6 13.48L45.06 13.48C45.6786 13.48 46.18 13.9814 46.18 14.6L46.18 25.28 44.18 25.28 44.18 15.49 15.48 15.49 15.48 44.18 25.48 44.18Z" fill="#FFFFFF"/><path d="M60.41 61.52 29.93 61.52C29.317 61.52 28.82 61.023 28.82 60.41L28.82 49.5 30.82 49.5 30.82 59.5 59.51 59.5 59.51 30.83 49.71 30.83 49.71 28.83 60.4 28.83C61.013 28.83 61.51 29.327 61.51 29.94L61.51 60.42C61.5155 61.022 61.0321 61.5145 60.4301 61.52 60.4234 61.5201 60.4167 61.5201 60.41 61.52Z" fill="#FFFFFF"/><path d="M46.89 48.05 28.1 48.05C27.4867 48.0183 27.0045 47.5141 27 46.9L27 28.11C27.025 27.5115 27.5017 27.0305 28.1 27L46.89 27C47.4922 27.0254 47.9746 27.5078 48 28.11L48 46.9C48.0004 47.5198 47.5095 48.0284 46.89 48.05ZM29 46.05 46 46.05 46 29 29 29Z" fill="#FFFFFF"/></g></g></svg>