<svg width="75" height="75" viewBox="0 0 75 75" xmlns="http://www.w3.org/2000/svg" xmlns:xlink="http://www.w3.org/1999/xlink" id="Product_Icon" overflow="hidden"><defs><linearGradient x1="90.53" y1="-15.53" x2="-15.53" y2="90.53" gradientUnits="userSpaceOnUse" id="TurquoiseGradient" gradientTransform="matrix(-1 0 -0 -1 75 75)"><stop offset="0" stop-color="#055F4E"/><stop offset="1" stop-color="#56C0A7"/></linearGradient></defs><rect x="0" y="0" width="75" height="75" id="Turquoise_Gradient" fill="url(#TurquoiseGradient)"/><g id="Icon_Test"><path d="M61.5 62.5C61.2342 62.5015 60.9787 62.3972 60.79 62.21L42.79 44.21 44.21 42.79 60.5 59.09 60.5 14.5 15.91 14.5 32.21 30.79 30.79 32.21 12.79 14.21C12.5063 13.9224 12.4234 13.4924 12.58 13.12 12.7334 12.7466 13.0963 12.502 13.5 12.5L61.5 12.5C62.0523 12.5 62.5 12.9477 62.5 13.5L62.5 61.5C62.498 61.9037 62.2534 62.2666 61.88 62.42 61.7613 62.476 61.6312 62.5034 61.5 62.5Z" fill="#FFFFFF"/><path d="M38.5 62.5C38.2342 62.5015 37.9787 62.3972 37.79 62.21L12.79 37.21C12.5063 36.9224 12.4234 36.4924 12.58 36.12 12.7334 35.7466 13.0963 35.502 13.5 35.5L38.5 35.5C39.0523 35.5 39.5 35.9477 39.5 36.5L39.5 61.5C39.498 61.9037 39.2534 62.2666 38.88 62.42 38.7613 62.476 38.6312 62.5034 38.5 62.5ZM15.91 37.5 37.5 59.09 37.5 37.5Z" fill="#FFFFFF"/></g></svg>