<svg width="75" height="75" viewBox="0 0 75 75" xmlns="http://www.w3.org/2000/svg" xmlns:xlink="http://www.w3.org/1999/xlink" id="Product_Icon" overflow="hidden"><defs><linearGradient x1="90.53" y1="90.54" x2="-15.54" y2="-15.53" gradientUnits="userSpaceOnUse" id="RedGradient" gradientTransform="matrix(0 1 -1 0 75 0)"><stop offset="0" stop-color="#BD0816"/><stop offset="1" stop-color="#FF5252"/></linearGradient></defs><rect x="0" y="0" width="75" height="75" id="Red_Gradient" fill="url(#RedGradient)"/><g id="Icon_Test"><path d="M31.09 48.45C33.0119 48.4555 34.5744 46.9018 34.5799 44.9799 34.5853 43.0579 33.0317 41.4955 31.1097 41.49 29.1878 41.4846 27.6253 43.0382 27.6199 44.9601 27.6198 44.9734 27.6199 44.9867 27.62 45 27.6364 46.9063 29.1836 48.4446 31.09 48.45ZM31.09 43.45C31.9074 43.4454 32.5737 44.1043 32.5783 44.9216 32.5829 45.739 31.9241 46.4053 31.1067 46.41 30.3133 46.4144 29.6575 45.7925 29.62 45 29.6034 44.1883 30.248 43.5169 31.0597 43.5003 31.0698 43.5001 31.0799 43.5 31.09 43.5Z" fill="#FFFFFF"/><path d="M44.6 48.45C46.5219 48.4555 48.0844 46.9018 48.0899 44.9799 48.0953 43.0579 46.5417 41.4955 44.6197 41.49 42.6978 41.4846 41.1353 43.0382 41.1299 44.9601 41.1298 44.9734 41.1299 44.9867 41.13 45 41.1464 46.9063 42.6936 48.4446 44.6 48.45ZM44.6 43.45C45.4174 43.4454 46.0837 44.1043 46.0883 44.9216 46.0929 45.739 45.4341 46.4053 44.6167 46.41 43.8233 46.4144 43.1675 45.7925 43.13 45 43.1134 44.1883 43.758 43.5169 44.5697 43.5003 44.5798 43.5001 44.5899 43.5 44.6 43.5Z" fill="#FFFFFF"/><path d="M61.74 48.69 58.32 47 58.32 44 54.85 44C54.3972 36.4214 48.7299 30.1798 41.23 29L41.23 27.09C41.1257 25.1211 39.445 23.6096 37.4761 23.7139 35.653 23.8105 34.1966 25.2669 34.1 27.09L34.1 29C26.5982 30.1763 20.9291 36.4198 20.48 44L17 44 17 47 13.58 48.71 13.58 56.78 17 58.47 17 61.47 58.32 61.47 58.32 58.47 61.74 56.76ZM56.32 46 56.32 59.42 54.9 59.42 54.9 46ZM36.1 27.09C36.1691 26.2257 36.9259 25.5811 37.7902 25.6502 38.5585 25.7117 39.1685 26.3217 39.23 27.09L39.23 28.73C38.71 28.73 38.23 28.66 37.66 28.66 37.09 28.66 36.66 28.66 36.1 28.73ZM37.66 30.66C46.35 30.66 52.9 36.84 52.9 45.04L52.9 59.42 22.43 59.42 22.43 45C22.43 36.84 29 30.66 37.66 30.66ZM15.59 55.53 15.59 49.93 17 49.22 17 56.22ZM19 46 20.42 46 20.42 59.42 19 59.42ZM59.73 55.49 58.31 56.2 58.31 49.2 59.73 49.91Z" fill="#FFFFFF"/><path d="M30.21 20.77 31.63 22.19C34.8905 18.9288 40.1774 18.9282 43.4387 22.1887 43.4391 22.1891 43.4396 22.1896 43.44 22.19L44.85 20.78C40.8055 16.7417 34.2545 16.7417 30.21 20.78Z" fill="#FFFFFF"/><path d="M37.53 15.58C40.8528 15.5671 44.0415 16.8894 46.38 19.25L47.8 17.83C42.1301 12.1625 32.9399 12.1625 27.27 17.83L28.69 19.25C31.0261 16.8919 34.2107 15.5698 37.53 15.58Z" fill="#FFFFFF"/><path d="M22.19 29.29C23.8469 29.29 25.19 27.9469 25.19 26.29 25.19 24.6331 23.8469 23.29 22.19 23.29 20.5331 23.29 19.19 24.6331 19.19 26.29 19.19 27.9469 20.5331 29.29 22.19 29.29ZM22.19 25.36C22.7423 25.36 23.19 25.8077 23.19 26.36 23.19 26.9123 22.7423 27.36 22.19 27.36 21.6377 27.36 21.19 26.9123 21.19 26.36 21.19 25.8077 21.6377 25.36 22.19 25.36Z" fill="#FFFFFF"/><path d="M16.23 35.25C17.8869 35.25 19.23 33.9069 19.23 32.25 19.23 30.5931 17.8869 29.25 16.23 29.25 14.5731 29.25 13.23 30.5931 13.23 32.25 13.23 33.9069 14.5731 35.25 16.23 35.25ZM16.23 31.31C16.7823 31.31 17.23 31.7577 17.23 32.31 17.23 32.8623 16.7823 33.31 16.23 33.31 15.6777 33.31 15.23 32.8623 15.23 32.31 15.23 31.7577 15.6777 31.31 16.23 31.31Z" fill="#FFFFFF"/><path d="M20.92 32.82C20.92 33.6429 21.5871 34.31 22.41 34.31 23.2329 34.31 23.9 33.6429 23.9 32.82 23.9 31.9971 23.2329 31.33 22.41 31.33 21.5871 31.33 20.92 31.9971 20.92 32.82ZM22.92 32.82C22.92 33.1017 22.6917 33.33 22.41 33.33 22.1283 33.33 21.9 33.1017 21.9 32.82 21.9 32.5383 22.1283 32.31 22.41 32.31 22.6917 32.31 22.92 32.5383 22.92 32.82Z" fill="#FFFFFF"/><path d="M28.63 27.81C29.4529 27.81 30.12 27.1429 30.12 26.32 30.12 25.4971 29.4529 24.83 28.63 24.83 27.8071 24.83 27.14 25.4971 27.14 26.32 27.14 27.1429 27.8071 27.81 28.63 27.81ZM28.63 25.81C28.9061 25.8655 29.085 26.1344 29.0295 26.4105 28.989 26.612 28.8315 26.7695 28.63 26.81 28.3539 26.7545 28.175 26.4856 28.2305 26.2095 28.271 26.008 28.4285 25.8505 28.63 25.81Z" fill="#FFFFFF"/><path d="M16.23 27.81C17.0529 27.81 17.72 27.1429 17.72 26.32 17.72 25.4971 17.0529 24.83 16.23 24.83 15.4071 24.83 14.74 25.4971 14.74 26.32 14.74 27.1429 15.4071 27.81 16.23 27.81ZM16.23 25.81C16.5117 25.81 16.74 26.0383 16.74 26.32 16.74 26.6017 16.5117 26.83 16.23 26.83 15.9483 26.83 15.72 26.6017 15.72 26.32 15.72 26.0383 15.9483 25.81 16.23 25.81Z" fill="#FFFFFF"/><path d="M16.12 36.8C14.7503 36.7945 13.6356 37.9003 13.63 39.27 13.6245 40.6397 14.7304 41.7544 16.1 41.76 17.4697 41.7655 18.5845 40.6596 18.59 39.29 18.59 39.2833 18.59 39.2767 18.59 39.27 18.5845 37.9081 17.4819 36.8055 16.12 36.8ZM16.12 39.8C15.8549 39.8 15.64 39.5851 15.64 39.32 15.6782 39.0577 15.9218 38.8759 16.1841 38.9141 16.3943 38.9447 16.5594 39.1098 16.59 39.32 16.5647 39.5616 16.3629 39.7463 16.12 39.75Z" fill="#FFFFFF"/></g></svg>