<svg width="75" height="75" viewBox="0 0 75 75" xmlns="http://www.w3.org/2000/svg" xmlns:xlink="http://www.w3.org/1999/xlink" id="Product_Icon" overflow="hidden"><defs><linearGradient x1="90.53" y1="90.53" x2="-15.53" y2="-15.53" gradientUnits="userSpaceOnUse" id="TurquoiseGradient" gradientTransform="matrix(0 1 -1 0 75 0)"><stop offset="0" stop-color="#055F4E"/><stop offset="1" stop-color="#56C0A7"/></linearGradient></defs><rect x="0" y="0" width="75" height="75" id="Turquoise_Gradient" fill="url(#TurquoiseGradient)"/><g id="Icon_Test"><path d="M23.78 60 18.45 60 18.45 58 23.78 58ZM58.21 31.77 48.69 31.77 48.69 33.72 56.26 33.72 56.26 58.07 38.49 58.07 38.49 60.07 58.21 60.07ZM21.39 57.07 21.39 33.72 38.17 33.72 38.17 31.77 19.44 31.77 19.44 57.07C19.44 57.6223 18.9923 58.07 18.44 58.07 17.8877 58.07 17.44 57.6223 17.44 57.07L17.44 27.14 27.9 27.14 30.54 29.77 38.17 29.77 38.17 27.83 31.34 27.83 28.71 25.2 15.5 25.2 15.5 57.07C15.4052 58.6965 16.6468 60.0919 18.2733 60.1867 19.8998 60.2815 21.2952 59.0398 21.39 57.4134 21.3967 57.299 21.3967 57.1844 21.39 57.07ZM58.21 27.83 53.93 27.83 53.93 29.77 56.26 29.77 56.26 30.77 58.26 30.77ZM44.14 46.56 52.69 37.35C53.0399 36.9227 52.9771 36.2926 52.5498 35.9428 52.3933 35.8146 52.2016 35.7369 52 35.72L47.69 35.72 47.69 28.8 45.74 28.8 45.74 36.69C45.74 37.2423 46.1877 37.69 46.74 37.69L49.74 37.69 43.42 44.5 37.1 37.69 40.1 37.69C40.6523 37.69 41.1 37.2423 41.1 36.69L41.1 28.8 39.17 28.8 39.17 35.72 34.88 35.72C34.3289 35.7558 33.9112 36.2317 33.947 36.7828 33.9605 36.9905 34.0385 37.1887 34.17 37.35L42.72 46.56C43.1089 46.9521 43.7421 46.9547 44.1342 46.5658 44.1361 46.5639 44.1381 46.5619 44.14 46.56ZM54.24 23.86 58.53 23.86C58.9156 23.8514 59.2619 23.6219 59.42 23.27 59.5669 22.9145 59.497 22.5063 59.24 22.22L50.69 13C50.3011 12.6079 49.6679 12.6053 49.2758 12.9942 49.2739 12.9961 49.2719 12.9981 49.27 13L40.72 22.2C40.463 22.4862 40.3931 22.8945 40.54 23.25 40.6981 23.6019 41.0444 23.8314 41.43 23.84L45.72 23.84 45.72 32.39 47.72 32.39 47.72 22.88C47.72 22.3277 47.2723 21.88 46.72 21.88L43.72 21.88 50 15.11 56.31 21.91 53.31 21.91C52.7577 21.91 52.31 22.3577 52.31 22.91L52.31 32.44 54.31 32.44ZM37.57 59.35 37.57 54.46C37.57 52.8418 36.2582 51.53 34.64 51.53L27.7 51.53C26.0818 51.53 24.77 52.8418 24.77 54.46L24.77 59.35C24.77 60.9682 26.0818 62.28 27.7 62.28L34.64 62.28C36.2582 62.28 37.57 60.9682 37.57 59.35ZM34.64 53.48C35.1923 53.48 35.64 53.9277 35.64 54.48L35.64 59.37C35.64 59.9223 35.1923 60.37 34.64 60.37L27.7 60.37C27.1477 60.37 26.7 59.9223 26.7 59.37L26.7 54.46C26.7 53.9077 27.1477 53.46 27.7 53.46ZM35.64 50.05C35.64 48.3269 34.2431 46.93 32.52 46.93L29.92 46.93C28.1952 46.93 26.7955 48.3253 26.79 50.05L26.79 52 28.74 52 28.74 50.05C28.74 49.4038 29.2638 48.88 29.91 48.88 29.9133 48.88 29.9167 48.88 29.92 48.88L32.52 48.88C33.1662 48.88 33.69 49.4038 33.69 50.05L33.69 52 35.69 52Z" fill="#FFFFFF"/></g></svg>