<svg width="75" height="75" viewBox="0 0 75 75" xmlns="http://www.w3.org/2000/svg" xmlns:xlink="http://www.w3.org/1999/xlink" id="Product_Icon" overflow="hidden"><defs><linearGradient x1="-37.5" y1="37.5" x2="112.5" y2="37.5" gradientUnits="userSpaceOnUse" id="TurquoiseGradient" gradientTransform="matrix(0.707107 -0.707107 0.707107 0.707107 -15.53 37.5)"><stop offset="0" stop-color="#055F4E"/><stop offset="1" stop-color="#56C0A7"/></linearGradient></defs><rect x="0" y="0" width="75" height="75" id="Turquoise_Gradient" fill="url(#TurquoiseGradient)"/><g id="Icon_Test"><path d="M29.63 43.06 26.83 43.06 26.83 41.12 29.63 41.12ZM25.41 41.12 15.92 41.12 15.92 43.06 25.41 43.06ZM44.76 52.21 33.76 52.21 33.76 54.15 44.76 54.15ZM31.5 52.33 28.7 52.33 28.7 54.27 31.5 54.27ZM21.64 57C21.9731 56.8322 22.1851 56.493 22.19 56.12L22.19 54.27 26.83 54.27 26.83 52.33 21.22 52.33C20.6677 52.33 20.22 52.7777 20.22 53.33L20.22 54.11 15.77 50.5 20.25 46.91 20.25 47.69C20.25 48.2423 20.6977 48.69 21.25 48.69L36.13 48.69 36.13 50.5C36.1649 51.0512 36.64 51.4697 37.1912 51.4348 37.378 51.423 37.5578 51.3589 37.71 51.25L44.71 45.65C45.127 45.2879 45.1714 44.6562 44.8093 44.2393 44.7785 44.2039 44.7454 44.1707 44.71 44.14L37.71 38.53C37.2607 38.2089 36.6361 38.3128 36.315 38.7622 36.2044 38.9169 36.1402 39.1 36.13 39.29L36.13 41.12 31.5 41.12 31.5 43.06 37.1 43.06C37.6523 43.06 38.1 42.6123 38.1 42.06L38.1 41.28 42.58 44.86 38.1 48.45 38.1 47.66C38.1 47.1077 37.6523 46.66 37.1 46.66L22.19 46.66 22.19 44.89C22.1514 44.3391 21.6734 43.9238 21.1225 43.9624 20.942 43.975 20.7684 44.0364 20.62 44.14L13.62 49.74C13.203 50.1021 13.1586 50.7338 13.5207 51.1507 13.5514 51.1861 13.5846 51.2193 13.62 51.25L20.62 56.86C20.7918 56.9934 21.0025 57.0671 21.22 57.07 21.3634 57.0771 21.5066 57.0532 21.64 57ZM61.75 39.1C61.75 34.37 58.69 30.73 54.5 30.26 54.13 26.26 51.3 23.72 47.08 23.72L46.92 23.72C44.6301 20.0594 40.5871 17.8689 36.27 17.95 29.7309 17.952 24.2966 22.9898 23.8 29.51 18.8768 29.9975 15.1218 34.1327 15.11 39.08L17.05 39.08C17.0555 34.8407 20.4907 31.4055 24.73 31.4 25.2823 31.4 25.73 30.9523 25.73 30.4 25.7574 24.5919 30.4619 19.8919 36.27 19.87 40.0867 19.7862 43.639 21.8123 45.51 25.14 45.6857 25.4445 46.0085 25.6343 46.36 25.64L47.08 25.64C50.54 25.64 52.6 27.7 52.6 31.16 52.6 31.7123 53.0477 32.16 53.6 32.16 57.16 32.16 59.84 35.16 59.84 39.11 59.8345 43.3509 56.4009 46.789 52.16 46.8L45.78 46.8 45.78 48.74 52.13 48.74C57.454 48.729 61.761 44.4041 61.75 39.08Z" fill="#FFFFFF"/></g></svg>