<svg width="75" height="75" viewBox="0 0 75 75" xmlns="http://www.w3.org/2000/svg" xmlns:xlink="http://www.w3.org/1999/xlink" id="Product_Icon" overflow="hidden"><defs><linearGradient x1="112.5" y1="37.5" x2="-37.5" y2="37.5" gradientUnits="userSpaceOnUse" id="TurquoiseGradient" gradientTransform="matrix(-0.707107 0.707107 -0.707107 -0.707107 90.53 37.5)"><stop offset="0" stop-color="#055F4E"/><stop offset="1" stop-color="#56C0A7"/></linearGradient></defs><rect x="0" y="0" width="75" height="75" id="Turquoise_Gradient" fill="url(#TurquoiseGradient)"/><g id="Icon_Test"><path d="M37.54 53.43 37.54 61.54C37.54 62.0923 37.0923 62.54 36.54 62.54L18.54 62.54C17.9877 62.54 17.54 62.0923 17.54 61.54L17.54 48.28C18.1703 48.8696 18.8384 49.4174 19.54 49.92L19.54 60.54 35.54 60.54 35.54 53.83C36.2131 53.7314 36.8807 53.5979 37.54 53.43ZM22.45 28.54C22.1957 29.1851 22.0113 29.8556 21.9 30.54L35.54 30.54 35.54 28.54ZM21.82 33.54C21.8963 34.2202 22.0438 34.8905 22.26 35.54L35.54 35.54 35.54 33.54ZM23.82 38.54C24.3686 39.292 25.018 39.965 25.75 40.54L35.54 40.54 35.54 38.54ZM38.54 24.54 25.18 24.54C24.5215 25.1228 23.9492 25.7962 23.48 26.54L37.54 26.54 37.54 41.46C38.2662 41.0487 38.9381 40.5482 39.54 39.97L39.54 25.54C39.54 24.9877 39.0923 24.54 38.54 24.54ZM61.05 61.05C59.1136 63.0025 55.9639 63.0249 54 61.1L54 61.05 42.28 49.41C32.8255 54.9267 20.689 51.7345 15.1723 42.28 9.6556 32.8255 12.8478 20.689 22.3023 15.1723 31.7568 9.6556 43.8933 12.8478 49.41 22.3023 53.0115 28.4746 53.0115 36.1077 49.41 42.28L61.05 53.93C63.0158 55.8687 63.0382 59.0337 61.1 61ZM50.05 32.31C50.0721 22.518 42.152 14.5621 32.36 14.54 22.5681 14.518 14.6122 22.438 14.5901 32.23 14.568 42.022 22.4881 49.9779 32.28 50 32.29 50 32.3 50 32.31 50 42.0903 50.0055 50.0279 42.0903 50.05 32.31ZM59.54 55.4 48.24 44.06C47.0592 45.6508 45.6508 47.0592 44.06 48.24L55.4 59.54C56.3282 60.9125 58.1932 61.2727 59.5657 60.3445 60.8843 59.4527 61.2769 57.6863 60.46 56.32 60.2272 55.9474 59.9126 55.6328 59.54 55.4ZM46.9 32.31C46.9055 24.2466 40.3734 17.7055 32.31 17.7 24.2466 17.6945 17.7055 24.2267 17.7 32.29 17.6945 40.3534 24.2266 46.8945 32.29 46.9L32.29 46.9C40.3465 46.889 46.878 40.3665 46.9 32.31ZM44.82 32.31C44.82 39.2246 39.2146 44.83 32.3 44.83 25.3854 44.83 19.78 39.2246 19.78 32.31 19.78 25.3954 25.3854 19.79 32.3 19.79L32.3 19.79C39.2146 19.79 44.82 25.3954 44.82 32.31Z" fill="#FFFFFF"/></g></svg>