<svg width="75" height="75" viewBox="0 0 75 75" xmlns="http://www.w3.org/2000/svg" xmlns:xlink="http://www.w3.org/1999/xlink" id="Product_Icon" overflow="hidden"><defs><linearGradient x1="90.53" y1="90.53" x2="-15.53" y2="-15.53" gradientUnits="userSpaceOnUse" id="TurquoiseGradient" gradientTransform="matrix(0 1 -1 0 75 0)"><stop offset="0" stop-color="#055F4E"/><stop offset="1" stop-color="#56C0A7"/></linearGradient></defs><rect x="0" y="0" width="75" height="75" id="Turquoise_Gradient" fill="url(#TurquoiseGradient)"/><g id="Icon_Test"><path d="M42.68 50.5 42.68 48.5 52.16 48.5C53.9226 48.3537 55.6174 47.7544 57.08 46.76 58.31 45.84 60.37 43.88 60.31 41.04 60.3441 37.4329 57.5941 34.4083 54 34.1 53.4506 34.0473 53.0478 33.5594 53.1 33.01 53.105 32.9234 53.105 32.8366 53.1 32.75 53.1055 30.4249 51.2251 28.5355 48.9 28.53 48.8967 28.53 48.8933 28.53 48.89 28.53 47.8114 28.5306 46.7752 28.9501 46 29.7 45.7573 29.9371 45.4109 30.035 45.08 29.96 44.7524 29.8829 44.4856 29.6461 44.37 29.33 42.8619 25.3245 39.0399 22.6638 34.76 22.64L34.65 22.64 34.65 20.64 34.76 20.64C39.4128 20.6416 43.6678 23.2642 45.76 27.42 46.7221 26.8377 47.8254 26.5299 48.95 26.53 52.1821 26.5395 54.8702 29.0191 55.14 32.24 59.3205 33.0644 62.3282 36.739 62.31 41 62.2659 43.9586 60.7705 46.7065 58.31 48.35 56.5089 49.6132 54.3952 50.3569 52.2 50.5ZM32.68 49.5 32.68 13.5C32.68 12.9477 32.2323 12.5 31.68 12.5L13.68 12.5C13.1277 12.5 12.68 12.9477 12.68 13.5L12.68 49.5C12.68 50.0523 13.1277 50.5 13.68 50.5L31.68 50.5C32.2323 50.5 32.68 50.0523 32.68 49.5ZM14.68 14.5 30.68 14.5 30.68 48.5 14.68 48.5ZM28.68 18.5 16.68 18.5 16.68 20.5 28.68 20.5ZM28.68 23.5 16.68 23.5 16.68 25.5 28.68 25.5ZM32.68 52.5 30.68 52.5 30.68 60.5 32.68 60.5ZM38.68 52.5 36.68 52.5 36.68 62.5 38.68 62.5ZM44.68 52.5 42.68 52.5 42.68 60.5 44.68 60.5ZM28.68 28.5 16.68 28.5 16.68 30.5 28.68 30.5Z" fill="#FFFFFF"/></g></svg>