<svg width="75" height="75" viewBox="0 0 75 75" xmlns="http://www.w3.org/2000/svg" xmlns:xlink="http://www.w3.org/1999/xlink" id="Product_Icon" overflow="hidden"><defs><linearGradient x1="112.5" y1="37.5" x2="-37.5" y2="37.5" gradientUnits="userSpaceOnUse" id="TurquoiseGradient" gradientTransform="matrix(-0.707107 0.707107 -0.707107 -0.707107 90.53 37.5)"><stop offset="0" stop-color="#055F4E"/><stop offset="1" stop-color="#56C0A7"/></linearGradient></defs><rect x="0" y="0" width="75" height="75" id="Turquoise_Gradient" fill="url(#TurquoiseGradient)"/><g id="Icon_Test"><path d="M47.56 29.5 20.48 29.5C19.9277 29.5 19.48 29.9477 19.48 30.5L19.48 44.54C19.48 45.0923 19.9277 45.54 20.48 45.54L22.4 45.54C23.0664 47.5359 25.2246 48.6137 27.2205 47.9473 28.1626 47.6328 28.9447 46.9628 29.4 46.08 30.3646 47.9501 32.6626 48.6841 34.5327 47.7195 35.4154 47.2642 36.0854 46.4821 36.4 45.54L47.56 45.54C47.8092 45.5366 48.0481 45.4403 48.23 45.27 48.7778 47.3074 50.8735 48.5149 52.9108 47.9671 54.4858 47.5437 55.6182 46.167 55.73 44.54L56.56 44.54C57.1123 44.54 57.56 44.0923 57.56 43.54L57.56 38.39C57.5491 35.126 54.8942 32.4889 51.6302 32.4998 51.6202 32.4999 51.6101 32.4999 51.6 32.5L48.52 32.5 48.52 30.5C48.5204 29.963 48.0966 29.5215 47.56 29.5ZM26 46.14C24.9396 46.14 24.08 45.2804 24.08 44.22 24.08 43.1596 24.9396 42.3 26 42.3 27.0604 42.3 27.92 43.1596 27.92 44.22 27.92 45.2804 27.0604 46.14 26 46.14ZM32.72 46.14C31.6596 46.14 30.8 45.2804 30.8 44.22 30.8 43.1596 31.6596 42.3 32.72 42.3 33.7804 42.3 34.64 43.1596 34.64 44.22 34.64 45.2804 33.7804 46.14 32.72 46.14ZM46.52 43.5 36.52 43.5C36.1375 41.4252 34.1455 40.0534 32.0708 40.4359 30.9243 40.6472 29.9371 41.3705 29.39 42.4 28.4 40.537 26.0872 39.8293 24.2241 40.8192 23.1947 41.3663 22.4714 42.3535 22.26 43.5L21.55 43.5 21.55 31.5 46.55 31.5 46.55 43.5ZM51.92 46.14C50.8596 46.14 50 45.2804 50 44.22 50 43.1596 50.8596 42.3 51.92 42.3 52.9804 42.3 53.84 43.1596 53.84 44.22 53.84 45.2804 52.9804 46.14 51.92 46.14ZM51.6 34.5C53.7555 34.4945 55.509 36.2345 55.52 38.39L55.52 42.5 55.33 42.5C54.3859 40.6195 52.0961 39.8603 50.2156 40.8044 49.4826 41.1724 48.888 41.767 48.52 42.5L48.52 34.5Z" fill="#FFFFFF"/><rect x="14.52" y="30.5" width="3" height="2" fill="#FFFFFF"/><rect x="12.52" y="35.5" width="5" height="2" fill="#FFFFFF"/><rect x="13.52" y="40.5" width="4" height="2" fill="#FFFFFF"/><path d="M38.48 13.5C29.0986 13.5029 20.5789 18.9718 16.67 27.5L18.41 28.3C23.4878 17.207 36.5968 12.3306 47.6898 17.4083 58.7829 22.4861 63.6592 35.5951 58.5815 46.6882 53.5037 57.7812 40.3947 62.6576 29.3017 57.5798 23.862 55.0899 19.6649 50.5001 17.67 44.86L15.86 45.5C20.2783 57.9968 33.9906 64.5457 46.4874 60.1274 58.9842 55.7091 65.5331 41.9968 61.1148 29.5 57.7237 19.9083 48.6535 13.4969 38.48 13.5Z" fill="#FFFFFF"/></g></svg>