<svg width="75" height="75" viewBox="0 0 75 75" xmlns="http://www.w3.org/2000/svg" xmlns:xlink="http://www.w3.org/1999/xlink" id="Product_Icon" overflow="hidden"><defs><linearGradient x1="-21.16" y1="83.33" x2="96.16" y2="-8.33" gradientUnits="userSpaceOnUse" id="TurquoiseGradient"><stop offset="0" stop-color="#055F4E"/><stop offset="1" stop-color="#56C0A7"/></linearGradient></defs><rect x="0" y="0" width="75" height="75" id="Turquoise_Gradient" fill="url(#TurquoiseGradient)"/><g id="Icon_Test"><path d="M36.79 36.93 29.62 44.11 31 45.52 37.47 39.06 44 45.52 45.41 44.11 38.24 36.93C37.8596 36.5296 37.2267 36.5134 36.8263 36.8937 36.8139 36.9055 36.8018 36.9176 36.79 36.93Z" fill="#FFFFFF"/><path d="M47.29 39.32 38.21 30.24C37.8211 29.8479 37.1879 29.8453 36.7958 30.2342 36.7939 30.2361 36.7919 30.2381 36.79 30.24L27.71 39.32 29.12 40.74 37.5 32.36 45.88 40.74Z" fill="#FFFFFF"/><path d="M27.21 36 37.5 25.67 47.79 36 49.21 34.58 38.21 23.58C37.8211 23.1879 37.1879 23.1853 36.7958 23.5742 36.7939 23.5761 36.7919 23.5781 36.79 23.58L25.79 34.58Z" fill="#FFFFFF"/><path d="M57.49 37.24 57.49 29.44C59.8307 28.8988 61.2894 26.5625 60.7482 24.2218 60.2069 21.8811 57.8707 20.4224 55.53 20.9637 54.7344 21.1476 54.0066 21.5518 53.43 22.13L47 18.36C47.132 17.9461 47.1995 17.5144 47.2 17.08 47.2102 14.6665 45.262 12.7017 42.8486 12.6915 40.4351 12.6813 38.4703 14.6295 38.4601 17.0429 38.4498 19.4564 40.398 21.4212 42.8115 21.4314 44.0116 21.4365 45.161 20.9478 45.99 20.08L52.38 23.83C52.2269 24.274 52.1492 24.7404 52.15 25.21 52.1516 27.2259 53.5381 28.9766 55.5 29.44L55.5 37.24C53.1562 37.7923 51.7039 40.14 52.2562 42.4838 52.8085 44.8275 55.1562 46.2798 57.5 45.7275 59.8438 45.1753 61.2961 42.8275 60.7438 40.4838 60.3647 38.8751 59.1087 37.6191 57.5 37.24ZM42.85 19.43C41.5521 19.43 40.5 18.3779 40.5 17.08 40.5 15.7821 41.5521 14.73 42.85 14.73 44.1479 14.73 45.2 15.7821 45.2 17.08 45.2 18.3779 44.1479 19.43 42.85 19.43ZM54.15 25.21C54.1445 23.9121 55.1921 22.8555 56.49 22.85 57.7878 22.8445 58.8444 23.8921 58.85 25.19 58.8555 26.4879 57.8078 27.5445 56.51 27.55 56.5067 27.55 56.5033 27.55 56.5 27.55 55.206 27.55 54.1555 26.504 54.15 25.21ZM56.5 43.81C55.2021 43.81 54.15 42.7579 54.15 41.46 54.15 40.1621 55.2022 39.11 56.5 39.11 57.7979 39.11 58.85 40.1622 58.85 41.46 58.85 41.4633 58.85 41.4667 58.85 41.47 58.8445 42.764 57.794 43.81 56.5 43.81Z" fill="#FFFFFF"/><path d="M50.86 46C48.4631 45.9923 46.5138 47.9291 46.506 50.326 46.5049 50.6777 46.5465 51.0283 46.63 51.37L40.76 55.02C40.7019 54.9486 40.6384 54.8817 40.57 54.82 38.8914 53.1245 36.1562 53.1108 34.4607 54.7893 34.4504 54.7995 34.4402 54.8097 34.43 54.82 34.3616 54.8817 34.2981 54.9486 34.24 55.02L28.34 51.36C28.9739 49.0427 27.6091 46.6503 25.2918 46.0164 22.9745 45.3826 20.5821 46.7473 19.9483 49.0646 19.5359 50.5723 19.9641 52.1854 21.07 53.29 22.7536 54.9883 25.4952 55.0001 27.1935 53.3165 27.2024 53.3077 27.2112 53.2989 27.22 53.29L27.39 53.12 33.29 56.78C33.1979 57.1428 33.1509 57.5157 33.15 57.89 33.15 60.2924 35.0976 62.24 37.5 62.24 39.9024 62.24 41.85 60.2924 41.85 57.89 41.8491 57.5157 41.8021 57.1428 41.71 56.78L47.54 53.16 47.78 53.42C49.4755 55.122 52.2298 55.1273 53.9318 53.4318 55.6339 51.7363 55.6391 48.982 53.9436 47.28 53.1269 46.4602 52.0172 45.9995 50.86 46ZM25.8 51.91C24.8718 52.7989 23.4082 52.7989 22.48 51.91 21.5217 51.0347 21.4544 49.5483 22.3297 48.59 23.2049 47.6317 24.6914 47.5644 25.6497 48.4397 25.702 48.4875 25.7522 48.5376 25.8 48.59 26.7168 49.5009 26.7216 50.9824 25.8108 51.8992 25.8072 51.9028 25.8036 51.9064 25.8 51.91ZM39.16 59.58C38.2436 60.4913 36.762 60.4871 35.8508 59.5708 34.9395 58.6544 34.9436 57.1728 35.86 56.2615 36.7764 55.3502 38.258 55.3544 39.1692 56.2708 39.6051 56.709 39.8498 57.3019 39.85 57.92 39.8502 58.5431 39.6018 59.1406 39.16 59.58ZM52.52 52C51.5878 52.8788 50.1322 52.8788 49.2 52 48.2832 51.0891 48.2784 49.6076 49.1892 48.6908 49.1928 48.6872 49.1964 48.6836 49.2 48.68 50.1109 47.7632 51.5924 47.7584 52.5092 48.6692 52.5128 48.6728 52.5164 48.6764 52.52 48.68 53.43 49.5996 53.43 51.0804 52.52 52Z" fill="#FFFFFF"/><path d="M22.85 41.47C22.851 39.4498 21.458 37.6962 19.49 37.24L19.49 29.44C21.4559 28.9805 22.8473 27.2289 22.85 25.21 22.8508 24.7404 22.7731 24.274 22.62 23.83L29 20.08C30.6604 21.8086 33.4078 21.864 35.1364 20.2035 36.8651 18.5431 36.9204 15.7958 35.26 14.0671 33.5996 12.3385 30.8522 12.2831 29.1235 13.9436 28.2699 14.7635 27.7882 15.8964 27.79 17.08 27.7905 17.5144 27.858 17.9461 27.99 18.36L21.56 22.13C19.8618 20.4306 17.1075 20.4297 15.4082 22.1279 13.7088 23.8261 13.7079 26.5804 15.4061 28.2797 15.979 28.8531 16.7008 29.255 17.49 29.44L17.49 37.24C15.1589 37.7978 13.7214 40.1397 14.2792 42.4709 14.837 44.802 17.1789 46.2395 19.51 45.6817 21.4594 45.2152 22.8358 43.4744 22.84 41.47ZM32.15 14.73C33.4479 14.73 34.5 15.7821 34.5 17.08 34.5 18.3779 33.4479 19.43 32.15 19.43 30.8521 19.43 29.8 18.3779 29.8 17.08 29.8 15.7821 30.8521 14.73 32.15 14.73ZM16.15 25.21C16.1445 23.9121 17.1921 22.8555 18.49 22.85 19.7878 22.8445 20.8444 23.8921 20.85 25.19 20.8555 26.4879 19.8078 27.5445 18.51 27.55 18.5067 27.55 18.5033 27.55 18.5 27.55 17.206 27.55 16.1555 26.504 16.15 25.21ZM18.5 43.81C17.2021 43.81 16.15 42.7579 16.15 41.46 16.15 40.1621 17.2022 39.11 18.5 39.11 19.7979 39.11 20.85 40.1622 20.85 41.46 20.85 41.4633 20.85 41.4667 20.85 41.47 20.8445 42.764 19.794 43.81 18.5 43.81Z" fill="#FFFFFF"/></g></svg>