<svg width="75" height="75" viewBox="0 0 75 75" xmlns="http://www.w3.org/2000/svg" xmlns:xlink="http://www.w3.org/1999/xlink" id="Product_Icon" overflow="hidden"><defs><linearGradient x1="90.53" y1="90.53" x2="-15.53" y2="-15.53" gradientUnits="userSpaceOnUse" id="BlueGradient" gradientTransform="matrix(0 1 -1 0 75 0)"><stop offset="0" stop-color="#2E27AD"/><stop offset="1" stop-color="#527FFF"/></linearGradient></defs><rect x="0" y="0" width="75" height="75" id="Blue_Gradient" fill="url(#BlueGradient)"/><g id="Icon_Test"><path d="M37.5 12.5C23.6929 12.5061 12.5049 23.7039 12.511 37.511 12.5133 42.7426 14.1568 47.8417 17.21 52.09L18.83 50.92C11.4115 40.6088 13.7564 26.2361 24.0675 18.8175 34.3787 11.399 48.7515 13.7439 56.17 24.0551 58.9878 27.9716 60.5026 32.6751 60.5 37.5 60.5103 42.3184 58.9945 47.0163 56.17 50.92L57.79 52.09C65.8478 40.8781 63.2909 25.2568 52.079 17.199 47.8307 14.1458 42.7316 12.5023 37.5 12.5Z" fill="#FFFFFF"/><path d="M50.5 52.12 50.5 48.5C50.5 47.9477 50.0523 47.5 49.5 47.5L38.5 47.5 38.5 41.5 49.5 41.5C50.0523 41.5 50.5 41.0523 50.5 40.5L50.5 25.5C50.5 24.9477 50.0523 24.5 49.5 24.5L25.5 24.5C24.9477 24.5 24.5 24.9477 24.5 25.5L24.5 40.5C24.5 41.0523 24.9477 41.5 25.5 41.5L36.5 41.5 36.5 47.5 25.5 47.5C24.9477 47.5 24.5 47.9477 24.5 48.5L24.5 52.12C22.0769 52.6723 20.5602 55.0843 21.1125 57.5075 21.6648 59.9306 24.0769 61.4472 26.5 60.895 28.9231 60.3427 30.4398 57.9306 29.8875 55.5075 29.5031 53.8212 28.1863 52.5043 26.5 52.12L26.5 49.5 36.5 49.5 36.5 53.62C34.0769 54.1723 32.5602 56.5843 33.1125 59.0075 33.6648 61.4306 36.0769 62.9472 38.5 62.395 40.9231 61.8427 42.4398 59.4306 41.8875 57.0075 41.5031 55.3212 40.1863 54.0043 38.5 53.62L38.5 49.5 48.5 49.5 48.5 52.12C46.0769 52.6723 44.5602 55.0843 45.1125 57.5075 45.6648 59.9306 48.0769 61.4472 50.5 60.895 52.9231 60.3427 54.4398 57.9306 53.8875 55.5075 53.5031 53.8212 52.1863 52.5043 50.5 52.12ZM41.77 33.05 48.5 27.6 48.5 38.42ZM37.5 33.93 28.32 26.5 46.68 26.5ZM33.19 33 26.5 38.4 26.5 27.6ZM34.78 34.29 36.87 36C37.2372 36.2979 37.7628 36.2979 38.13 36L40.13 34.34 46.59 39.5 28.33 39.5ZM28 56.5C28 57.8807 26.8807 59 25.5 59 24.1193 59 23 57.8807 23 56.5 23 55.1193 24.1193 54 25.5 54 26.8807 54 28 55.1193 28 56.5ZM40 58C40 59.3807 38.8807 60.5 37.5 60.5 36.1193 60.5 35 59.3807 35 58 35 56.6193 36.1193 55.5 37.5 55.5 38.8807 55.5 40 56.6193 40 58ZM49.5 59C48.1193 59 47 57.8807 47 56.5 47 55.1193 48.1193 54 49.5 54 50.8807 54 52 55.1193 52 56.5 52 57.8807 50.8807 59 49.5 59Z" fill="#FFFFFF"/></g></svg>