<svg width="75" height="75" viewBox="0 0 75 75" xmlns="http://www.w3.org/2000/svg" xmlns:xlink="http://www.w3.org/1999/xlink" id="Product_Icon" overflow="hidden"><defs><linearGradient x1="37.5" y1="112.5" x2="37.5" y2="-37.5" gradientUnits="userSpaceOnUse" id="BlueGradient" gradientTransform="matrix(0.707107 0.707107 -0.707107 0.707107 37.5 -15.53)"><stop offset="0" stop-color="#2E27AD"/><stop offset="1" stop-color="#527FFF"/></linearGradient></defs><rect x="0" y="0" width="75" height="75" id="Blue_Gradient" fill="url(#BlueGradient)"/><g id="Icon_Test"><path d="M54.7 29.3C54.49 26.15 52.89 23.81 50.34 22.97 48.3893 22.3255 46.2455 22.7009 44.63 23.97 43.907 22.3236 42.8905 20.8224 41.63 19.54 37.8163 15.5336 31.896 14.3567 26.84 16.6 22.1219 18.8531 19.0853 23.5822 19 28.81L19 29.54C14.9468 30.7282 12.2378 34.5416 12.45 38.76 12.3674 42.389 14.2178 45.7889 17.31 47.69 18.2605 48.2409 19.354 48.4951 20.45 48.42L29.45 48.5 29.45 58.5C29.4511 58.8766 29.6637 59.2206 30 59.39 30.3236 59.5446 30.7051 59.514 31 59.31L45.83 48.5 53.57 48.5C53.66 48.5 62.5 47.73 62.5 38.84 62.5 32.05 57.27 29.93 54.7 29.3ZM53.5 46.5 45.5 46.5C45.2882 46.4992 45.0816 46.5658 44.91 46.69L31.5 56.53 31.5 47.53C31.5 46.9777 31.0523 46.53 30.5 46.53L20.5 46.53C19.7762 46.5663 19.0574 46.3927 18.43 46.03 15.9086 44.5036 14.4063 41.736 14.5 38.79 14.3061 35.1799 16.7943 31.9759 20.34 31.27 20.7932 31.1532 21.1048 30.7378 21.09 30.27L21 28.75C21.1192 24.3633 23.6609 20.4043 27.6 18.47 29.0504 17.8303 30.615 17.4902 32.2 17.47 35.2226 17.5416 38.096 18.7987 40.2 20.97 41.6125 22.4237 42.6789 24.1772 43.32 26.1 43.4428 26.4519 43.7512 26.7063 44.12 26.76 44.4843 26.8149 44.8494 26.6651 45.07 26.37 46.1235 24.9108 47.9974 24.297 49.71 24.85 51.61 25.48 52.71 27.35 52.71 29.94 52.6252 30.477 52.985 30.9834 53.52 31.08 55.62 31.44 60.52 32.91 60.52 38.82 60.5 45.86 53.71 46.48 53.5 46.5Z" fill="#FFFFFF"/><path d="M48 29.5C46.067 29.5 44.5 31.067 44.5 33 44.4841 33.6521 44.6578 34.2947 45 34.85L41.47 38.85C42.1062 39.1327 42.6402 39.604 43 40.2L46.55 36.2C47.0039 36.4099 47.5001 36.5125 48 36.5 49.933 36.5 51.5 34.933 51.5 33 51.5 31.067 49.933 29.5 48 29.5ZM48 34.5C47.1716 34.5 46.5 33.8284 46.5 33 46.5 32.1716 47.1716 31.5 48 31.5 48.8284 31.5 49.5 32.1716 49.5 33 49.5 33.8284 48.8284 34.5 48 34.5Z" fill="#FFFFFF"/><path d="M43 40.2C42.6534 39.6116 42.1377 39.1412 41.52 38.85 41.0479 38.6154 40.5271 38.4954 40 38.5 39.6615 38.4953 39.3242 38.5425 39 38.64L35.53 33.35C36.1424 32.7198 36.4896 31.8787 36.5 31 36.5 29.067 34.933 27.5 33 27.5 31.067 27.5 29.5 29.067 29.5 31 29.5135 31.6009 29.686 32.1875 30 32.7L25.73 36.93C24.0496 35.9746 21.9129 36.5623 20.9575 38.2427 20.0021 39.9231 20.5898 42.0598 22.2702 43.0152 23.9506 43.9706 26.0873 43.3829 27.0427 41.7025 27.3379 41.1833 27.4953 40.5972 27.5 40 27.5022 39.4233 27.3577 38.8555 27.08 38.35L31.37 34.09C32.1327 34.4998 33.0218 34.6069 33.86 34.39L37.36 39.72C36.8039 40.3491 36.4979 41.1604 36.5 42 36.5 43.933 38.067 45.5 40 45.5 41.933 45.5 43.5 43.933 43.5 42 43.5063 41.3649 43.333 40.7409 43 40.2ZM24 41.5C23.1716 41.5 22.5 40.8284 22.5 40 22.5 39.1716 23.1716 38.5 24 38.5 24.8284 38.5 25.5 39.1716 25.5 40 25.5 40.8284 24.8284 41.5 24 41.5ZM33 32.5C32.1716 32.5 31.5 31.8284 31.5 31 31.5 30.1716 32.1716 29.5 33 29.5 33.8284 29.5 34.5 30.1716 34.5 31 34.5 31.8284 33.8284 32.5 33 32.5ZM40 43.5C39.1716 43.5 38.5 42.8284 38.5 42 38.5 41.1716 39.1716 40.5 40 40.5 40.8284 40.5 41.5 41.1716 41.5 42 41.5 42.8284 40.8284 43.5 40 43.5Z" fill="#FFFFFF"/></g></svg>