<svg width="75" height="75" viewBox="0 0 75 75" xmlns="http://www.w3.org/2000/svg" xmlns:xlink="http://www.w3.org/1999/xlink" id="Product_Icon" overflow="hidden"><defs><linearGradient x1="-15.53" y1="-15.53" x2="90.53" y2="90.53" gradientUnits="userSpaceOnUse" id="BlueGradient" gradientTransform="matrix(0 -1 1 0 0 75)"><stop offset="0" stop-color="#2E27AD"/><stop offset="1" stop-color="#527FFF"/></linearGradient></defs><rect x="0" y="0" width="75" height="75" id="Blue_Gradient" fill="url(#BlueGradient)"/><g id="Icon_Test"><path d="M37.5 61.5C24.2452 61.4566 13.5353 50.6763 13.5788 37.4215 13.6222 24.1667 24.4025 13.4568 37.6573 13.5003 40.9314 13.511 44.1687 14.1915 47.17 15.5L46.36 17.33C35.2386 12.4368 22.2562 17.4857 17.363 28.6071 12.4697 39.7285 17.5187 52.7109 28.6401 57.6041 39.7614 62.4973 52.7438 57.4484 57.6371 46.327 58.8611 43.545 59.4954 40.5394 59.5 37.5 59.5124 34.4624 58.882 31.4566 57.65 28.68L59.48 27.87C60.8159 30.9038 61.4974 34.1851 61.48 37.5 61.48 50.747 50.747 61.489 37.5 61.5Z" fill="#FFFFFF"/><path d="M53.8 15.42C50.5974 15.431 48.0055 18.0274 48 21.23 47.9791 22.4138 48.3288 23.5746 49 24.55L47.68 25.9C41.2838 20.3276 31.5814 20.9954 26.009 27.3916 20.4365 33.7878 21.1044 43.4902 27.5005 49.0626 33.8967 54.635 43.5992 53.9672 49.1716 47.571 54.2369 41.7569 54.2063 33.0882 49.1 27.31L50.45 26C51.4355 26.6736 52.6065 27.0231 53.8 27 57.0088 27 59.61 24.3988 59.61 21.19 59.61 17.9812 57.0088 15.38 53.8 15.38ZM51 37.5C51.0165 44.9448 44.9947 50.9934 37.55 51.0099 30.1052 51.0264 24.0566 45.0046 24.0401 37.5598 24.0235 30.1151 30.0453 24.0665 37.4901 24.05 40.7261 24.0428 43.8566 25.1999 46.31 27.31L42.41 31.2C38.9184 28.4926 33.8931 29.1284 31.1858 32.62 28.4784 36.1116 29.1141 41.1369 32.6058 43.8442 36.0974 46.5516 41.1226 45.9159 43.83 42.4242 46.0672 39.539 46.0672 35.5052 43.83 32.62L47.73 28.73C49.8434 31.1624 51.005 34.2777 51 37.5ZM43.51 37.5C43.5237 40.8137 40.8486 43.5111 37.5349 43.5248 34.2212 43.5385 31.5238 40.8634 31.5101 37.5497 31.4964 34.236 34.1715 31.5386 37.4852 31.5249 38.7369 31.5197 39.9589 31.9061 40.98 32.63L36.82 36.78 38.24 38.2 42.4 34.05C43.1056 35.0607 43.4764 36.2674 43.46 37.5ZM53.8 25C51.6958 25 49.99 23.2942 49.99 21.19 49.99 19.0858 51.6958 17.38 53.8 17.38 55.9042 17.38 57.61 19.0858 57.61 21.19 57.6045 23.2919 55.9019 24.9945 53.8 25Z" fill="#FFFFFF"/></g></svg>